<svg xmlns="http://www.w3.org/2000/svg" xmlns:xlink="http://www.w3.org/1999/xlink" width="375" height="812" viewBox="0 0 375 812">
  <defs>
    <clipPath id="clip-Calling_Car">
      <rect width="375" height="812"/>
    </clipPath>
  </defs>
  <g id="Calling_Car" data-name="Calling Car" clip-path="url(#clip-Calling_Car)">
    <rect width="375" height="812" fill="#4042e2"/>
    <g id="Header">
      <path id="Blob3" d="M-2032.158-429.886a68.8,68.8,0,0,0,13.3,3.682c36.855,6.336,72.916-19.2,79.173-56.069a69.267,69.267,0,0,0,.853-7.433c1.208-20.1,8.186-39.521,21.02-55.034a53.006,53.006,0,0,0,11.377-24.679c5.041-28.645-14.788-56.823-43.454-61.74a53.455,53.455,0,0,0-11.672-.711,63.075,63.075,0,0,1-46.641-17.689,69.521,69.521,0,0,0-35.674-18.179c-27.149-4.957-60.565,8.457-75.151,36.313-10.507,20.066-26.646,36.71-46.915,46.818a75.9,75.9,0,0,0-41,54.9c-7.027,40,20.328,79.927,60.184,87.749a76.069,76.069,0,0,0,25.25.714C-2091.283-445.481-2060.6-440.95-2032.158-429.886Z" transform="translate(1026.031 2065.591) rotate(56)" fill="#5c5df1"/>
      <path id="Blob3-2" data-name="Blob3" d="M-2032.158-429.886a68.8,68.8,0,0,0,13.3,3.682c36.855,6.336,72.916-19.2,79.173-56.069a69.267,69.267,0,0,0,.853-7.433c1.208-20.1,8.186-39.521,21.02-55.034a53.006,53.006,0,0,0,11.377-24.679c5.041-28.645-14.788-56.823-43.454-61.74a53.455,53.455,0,0,0-11.672-.711,63.075,63.075,0,0,1-46.641-17.689,69.521,69.521,0,0,0-35.674-18.179c-27.149-4.957-60.565,8.457-75.151,36.313-10.507,20.066-26.646,36.71-46.915,46.818a75.9,75.9,0,0,0-41,54.9c-7.027,40,20.328,79.927,60.184,87.749a76.069,76.069,0,0,0,25.25.714C-2091.283-445.481-2060.6-440.95-2032.158-429.886Z" transform="translate(1026.031 2891.591) rotate(56)" fill="#5c5df1"/>
      <path id="Blob_2" data-name="Blob 2" d="M-1963.389-336.493a95.7,95.7,0,0,0,18.5,5.122c51.264,8.813,101.426-26.708,110.128-77.991a96.337,96.337,0,0,0,1.187-10.34c1.681-27.956,11.386-54.973,29.239-76.552a73.732,73.732,0,0,0,15.825-34.328c7.012-39.845-20.569-79.041-60.444-85.88a74.351,74.351,0,0,0-16.235-.989,87.737,87.737,0,0,1-64.878-24.605,96.7,96.7,0,0,0-49.622-25.287c-37.764-6.895-84.245,11.764-104.534,50.512-14.615,27.911-37.063,51.063-65.259,65.124a105.582,105.582,0,0,0-57.026,76.36c-9.774,55.645,28.277,111.177,83.716,122.057a105.81,105.81,0,0,0,35.122.994C-2045.632-358.184-2002.951-351.882-1963.389-336.493Z" transform="matrix(-0.174, 0.985, -0.985, -0.174, -545.752, 2300.66)" fill="#5c5df1"/>
      <path id="Blob_1" data-name="Blob 1" d="M-2032.158-429.886a68.8,68.8,0,0,0,13.3,3.682c36.855,6.336,72.916-19.2,79.173-56.069a69.267,69.267,0,0,0,.853-7.433c1.208-20.1,8.186-39.521,21.02-55.034a53.006,53.006,0,0,0,11.377-24.679c5.041-28.645-14.788-56.823-43.454-61.74a53.455,53.455,0,0,0-11.672-.711,63.075,63.075,0,0,1-46.641-17.689,69.521,69.521,0,0,0-35.674-18.179c-27.149-4.957-60.565,8.457-75.151,36.313-10.507,20.066-26.646,36.71-46.915,46.818a75.9,75.9,0,0,0-41,54.9c-7.027,40,20.328,79.927,60.184,87.749a76.069,76.069,0,0,0,25.25.714C-2091.283-445.481-2060.6-440.95-2032.158-429.886Z" transform="matrix(-0.966, 0.259, -0.259, -0.966, -2125.999, 179.507)" fill="#5c5df1"/>
      <path id="Blob_1-2" data-name="Blob 1" d="M-2032.158-429.886a68.8,68.8,0,0,0,13.3,3.682c36.855,6.336,72.916-19.2,79.173-56.069a69.267,69.267,0,0,0,.853-7.433c1.208-20.1,8.186-39.521,21.02-55.034a53.006,53.006,0,0,0,11.377-24.679c5.041-28.645-14.788-56.823-43.454-61.74a53.455,53.455,0,0,0-11.672-.711,63.075,63.075,0,0,1-46.641-17.689,69.521,69.521,0,0,0-35.674-18.179c-27.149-4.957-60.565,8.457-75.151,36.313-10.507,20.066-26.646,36.71-46.915,46.818a75.9,75.9,0,0,0-41,54.9c-7.027,40,20.328,79.927,60.184,87.749a76.069,76.069,0,0,0,25.25.714C-2091.283-445.481-2060.6-440.95-2032.158-429.886Z" transform="matrix(-0.966, 0.259, -0.259, -0.966, -2125.999, 745.507)" fill="#5c5df1"/>
    </g>
  </g>
</svg>
