<svg xmlns="http://www.w3.org/2000/svg" width="180.059" height="153.995" viewBox="0 0 180.059 153.995">
  <g id="_2684117" data-name="2684117" transform="translate(16.898 24.566)">
    <g id="OBJECTS" transform="translate(0.084 -0.003)">
      <path id="Path_5614" data-name="Path 5614" d="M197.964,142.02c-.9,6.672-6.882,13.61-16.17,19.443h0a125.466,125.466,0,0,1-65.589,25.256C79.472,189.5,48.02,175.16,46.3,143.452,44.752,114.732,63.414,95.3,63.414,95.3h0a30.271,30.271,0,0,1,3.134-3.215c.219-.194.442-.386.665-.577,15.431-13.173,42.363-7.5,48.338,10.133,3.714,10.972,12.062,22.9,30.739,19.751C179.358,115.814,200.664,122.081,197.964,142.02Z" transform="matrix(0.921, -0.391, 0.391, 0.921, -92.451, -24.699)" fill="#d1e6ec"/>
      <path id="Path_5615" data-name="Path 5615" d="M439.293,300a2.874,2.874,0,0,0,2.253,4.748,5.092,5.092,0,0,0,2.947-.92c4.208-2.708,4.457-6.549.874-7.787C443.157,295.28,440.787,297.9,439.293,300Z" transform="translate(-304.29 -226.604)" fill="#d1e6ec"/>
      <ellipse id="Ellipse_491" data-name="Ellipse 491" cx="66.72" cy="2.908" rx="66.72" ry="2.908" transform="translate(7.334 103.599)" fill="#d1e6ec"/>
      <path id="Path_5616" data-name="Path 5616" d="M37.127,221.3a1.827,1.827,0,1,1,1.827-1.827A1.827,1.827,0,0,1,37.127,221.3Zm0-3.078a1.254,1.254,0,1,0,1.254,1.251,1.254,1.254,0,0,0-1.254-1.251Z" transform="translate(-33.035 -173.976)" fill="#fd4059"/>
      <path id="Path_5617" data-name="Path 5617" d="M53.407,198.414a1.827,1.827,0,1,1,1.827-1.827A1.827,1.827,0,0,1,53.407,198.414Zm0-3.081a1.254,1.254,0,1,0,1.257,1.254A1.254,1.254,0,0,0,53.407,195.333Z" transform="translate(-43.984 -158.581)" fill="#fd4059"/>
      <path id="Path_5618" data-name="Path 5618" d="M63.455,220.164a.288.288,0,0,1-.288-.285v-1.264a.288.288,0,1,1,.573,0v1.264A.285.285,0,0,1,63.455,220.164Z" transform="translate(-51.776 -174.41)" fill="#0172d0"/>
      <path id="Path_5619" data-name="Path 5619" d="M63.458,227.08a.288.288,0,0,1-.288-.285v-1.264a.288.288,0,0,1,.573,0V226.8A.285.285,0,0,1,63.458,227.08Z" transform="translate(-51.779 -179.103)" fill="#0172d0"/>
      <path id="Path_5620" data-name="Path 5620" d="M66.478,224.31H65.345a.288.288,0,1,1,0-.573h1.133a.288.288,0,1,1,0,.573Z" transform="translate(-53.027 -178.068)" fill="#0172d0"/>
      <path id="Path_5621" data-name="Path 5621" d="M59.237,224.313H58.1a.288.288,0,0,1,0-.573h1.136a.288.288,0,0,1,0,.573Z" transform="translate(-48.197 -178.072)" fill="#0172d0"/>
      <path id="Path_5622" data-name="Path 5622" d="M34,196.953a.285.285,0,0,1-.288-.288V195.4a.288.288,0,0,1,.573,0v1.264a.285.285,0,0,1-.285.288Z" transform="translate(-31.966 -158.839)" fill="#0056c5"/>
      <path id="Path_5623" data-name="Path 5623" d="M33.995,203.584a.285.285,0,0,1-.288-.285v-1.264a.288.288,0,1,1,.573,0V203.3A.285.285,0,0,1,33.995,203.584Z" transform="translate(-31.962 -163.26)" fill="#0056c5"/>
      <path id="Path_5624" data-name="Path 5624" d="M37.018,200.94H35.885a.288.288,0,1,1,0-.573h1.133a.288.288,0,1,1,0,.573Z" transform="translate(-33.214 -162.351)" fill="#0056c5"/>
      <path id="Path_5625" data-name="Path 5625" d="M29.777,200.943H28.641a.288.288,0,0,1,0-.573h1.136a.288.288,0,0,1,0,.573Z" transform="translate(-28.384 -162.354)" fill="#0056c5"/>
      <path id="Path_5626" data-name="Path 5626" d="M351,126.637a1.827,1.827,0,1,1,1.824,1.827A1.827,1.827,0,0,1,351,126.637Zm.573,0a.519.519,0,1,0-.01,0Z" transform="translate(-245.357 -111.537)" fill="#fd4059"/>
      <path id="Path_5628" data-name="Path 5628" d="M319.095,137.614a.285.285,0,0,0,.285-.285v-1.264a.288.288,0,1,0-.573,0v1.264A.288.288,0,0,0,319.095,137.614Z" transform="translate(-223.704 -118.892)" fill="#fd4059"/>
      <path id="Path_5629" data-name="Path 5629" d="M319.1,144.49a.285.285,0,0,0,.285-.285v-1.264a.288.288,0,0,0-.573,0v1.264A.288.288,0,0,0,319.1,144.49Z" transform="translate(-223.707 -123.558)" fill="#fd4059"/>
      <path id="Path_5630" data-name="Path 5630" d="M313.741,141.723h1.136a.288.288,0,0,0,0-.573h-1.136a.288.288,0,0,0,0,.573Z" transform="translate(-220.125 -122.526)" fill="#fd4059"/>
      <path id="Path_5631" data-name="Path 5631" d="M320.985,141.72h1.133a.288.288,0,1,0,0-.573h-1.133a.288.288,0,1,0,0,.573Z" transform="translate(-224.956 -122.523)" fill="#fd4059"/>
      <path id="Path_5632" data-name="Path 5632" d="M357.028,94.153a.288.288,0,0,0,.285-.288V92.6a.288.288,0,0,0-.573,0v1.267A.291.291,0,0,0,357.028,94.153Z" transform="translate(-249.217 -89.702)" fill="#0056c5"/>
      <path id="Path_5633" data-name="Path 5633" d="M357.028,100.9a.285.285,0,0,0,.285-.288V99.351a.288.288,0,0,0-.573,0v1.264A.288.288,0,0,0,357.028,100.9Z" transform="translate(-249.217 -94.242)" fill="#0056c5"/>
      <path id="Path_5634" data-name="Path 5634" d="M351.671,98.133h1.136a.288.288,0,0,0,0-.573h-1.136a.288.288,0,0,0,0,.573Z" transform="translate(-245.635 -93.21)" fill="#0056c5"/>
      <path id="Path_5635" data-name="Path 5635" d="M358.888,98.13h1.123c.157,0,.363-.128.363-.285s-.206-.288-.363-.288h-1.136a.288.288,0,1,0,0,.573Z" transform="translate(-250.439 -93.207)" fill="#0056c5"/>
      <path id="Path_5636" data-name="Path 5636" d="M197.629,124.381a1.912,1.912,0,0,1-.56,1.359l-2.551,2.571-2.548-2.548a1.925,1.925,0,0,1,0-2.715c.694-.694,1.755-.57,2.548.606.8-1.176,1.857-1.31,2.551-.606A1.912,1.912,0,0,1,197.629,124.381Z" transform="translate(-189.026 -68.063)" fill="#fe7062"/>
      <path id="Path_5640" data-name="Path 5640" d="M190.21,155.876v80.712a1.356,1.356,0,0,1-1.356,1.356H78.412a1.352,1.352,0,0,1-1.352-1.356V155.876a1.352,1.352,0,0,1,1.352-1.356H188.854a1.356,1.356,0,0,1,1.356,1.356Z" transform="translate(-61.121 -131.518)" fill="#233b78"/>
      <path id="Path_5641" data-name="Path 5641" d="M191.131,157.019v80.712a1.356,1.356,0,0,1-1.356,1.356H79.334a1.349,1.349,0,0,1-.9-.347l112.436-82.52A1.349,1.349,0,0,1,191.131,157.019Z" transform="translate(-62.042 -132.662)" fill="#29245d"/>
      <rect id="Rectangle_2407" data-name="Rectangle 2407" width="106.715" height="76.989" rx="4.56" transform="translate(19.158 26.221)" fill="#fff"/>
      <rect id="Rectangle_2408" data-name="Rectangle 2408" width="43.945" height="15.718" rx="6.38" transform="translate(43.983 80.091)" fill="#d1e6ec"/>
      <rect id="Rectangle_2409" data-name="Rectangle 2409" width="43.945" height="15.718" rx="6.38" transform="translate(42.647 78.405)" fill="#0172d0"/>
      <path id="Path_5642" data-name="Path 5642" d="M176.856,333.827a6.575,6.575,0,0,1-1.513,4.208,6.711,6.711,0,0,1-.72.743,6.6,6.6,0,0,1-8.75,0,7.025,7.025,0,0,1-.72-.743,6.608,6.608,0,1,1,11.7-4.208Z" transform="translate(-119.349 -247.665)" fill="#0056c5"/>
      <circle id="Ellipse_493" data-name="Ellipse 493" cx="2.535" cy="2.535" r="2.535" transform="translate(48.351 82.007)" fill="#0096e2"/>
      <path id="Path_5643" data-name="Path 5643" d="M179.16,356.052a6.6,6.6,0,0,1-8.75,0,3.887,3.887,0,0,1,1.637-2.292,4.843,4.843,0,0,1,5.5,0A3.887,3.887,0,0,1,179.16,356.052Z" transform="translate(-123.902 -264.939)" fill="#0096e2"/>
      <path id="Path_5644" data-name="Path 5644" d="M210.716,335.752a.325.325,0,0,1,0-.039c.131-.406.262-.812.4-1.218a.046.046,0,0,0-.023-.062l-1.149-.871-.029-.03H210l1.415-.016a.043.043,0,0,0,.046-.033l.422-1.31a.2.2,0,0,0,0-.033.333.333,0,0,1,.016.039c.164.445.327.891.488,1.339a.052.052,0,0,0,.059.039h1.31a.181.181,0,0,1,.056,0l-.029.02-1.14.773c-.026.02-.033.033-.023.062.157.445.311.891.465,1.339v.039l-.052-.033-1.12-.8a.049.049,0,0,0-.059,0l-1.11.773Z" transform="translate(-150.468 -250.975)" fill="#fff"/>
      <path id="Path_5645" data-name="Path 5645" d="M226,335.752a.273.273,0,0,1,0-.039c.131-.406.259-.812.393-1.218a.046.046,0,0,0-.023-.062l-1.169-.871-.029-.03h.085l1.415-.016c.029,0,.039,0,.046-.033l.422-1.31a.2.2,0,0,0,0-.033.33.33,0,0,1,.016.039l.491,1.339a.049.049,0,0,0,.056.039h1.31a.17.17,0,0,1,.056,0l-.029.02-1.14.773c-.026.02-.033.033-.023.062.157.445.311.891.465,1.339a.225.225,0,0,1,0,.039l-.049-.033-1.123-.8a.046.046,0,0,0-.056,0l-1.113.773Z" transform="translate(-160.731 -250.975)" fill="#fff"/>
      <path id="Path_5646" data-name="Path 5646" d="M241.305,335.752v-.039l.393-1.218a.046.046,0,0,0-.023-.062l-1.169-.871a.079.079,0,0,1-.026-.029h.085l1.411-.016c.029,0,.039,0,.046-.033l.422-1.31a.2.2,0,0,0,0-.033.325.325,0,0,1,0,.039l.491,1.339a.049.049,0,0,0,.056.039h1.31a.17.17,0,0,1,.056,0l-.029.02-1.14.773c-.026.02-.033.033-.02.062l.462,1.339a.222.222,0,0,1,0,.039l-.049-.033-1.123-.8a.046.046,0,0,0-.056,0l-1.113.773Z" transform="translate(-171.027 -250.975)" fill="#fff"/>
      <path id="Path_5647" data-name="Path 5647" d="M256.719,335.752v-.039l.393-1.218a.046.046,0,0,0-.02-.062l-1.146-.871a.079.079,0,0,1-.026-.029h.085l1.415-.016a.036.036,0,0,0,.043-.033l.422-1.31v-.033a.281.281,0,0,1,0,.039l.491,1.339a.049.049,0,0,0,.056.039h1.31a.162.162,0,0,1,.056,0l-.026.02-1.143.773a.046.046,0,0,0-.02.062l.462,1.339v.039l-.052-.033-1.123-.8a.046.046,0,0,0-.056,0c-.37.259-.74.517-1.113.773Z" transform="translate(-181.411 -250.975)" fill="#fff"/>
      <path id="Path_5648" data-name="Path 5648" d="M272.005,335.752a.324.324,0,0,1,0-.039l.393-1.218a.046.046,0,0,0-.02-.062l-1.172-.871a.078.078,0,0,1-.026-.029h.085l1.415-.016a.043.043,0,0,0,.046-.033c.138-.439.278-.874.419-1.31v-.033l.016.039c.16.445.327.891.488,1.339a.049.049,0,0,0,.056.039h1.31a.162.162,0,0,1,.056,0l-.026.02c-.38.259-.76.517-1.143.773a.046.046,0,0,0-.02.062l.462,1.339v.039l-.052-.033-1.123-.8a.046.046,0,0,0-.056,0c-.37.259-.74.517-1.113.773Z" transform="translate(-191.674 -250.975)" fill="#fff"/>
      <rect id="Rectangle_2410" data-name="Rectangle 2410" width="23.973" height="1.054" rx="0.527" transform="translate(59.436 86.44)" fill="#0056c5"/>
      <path id="Path_5649" data-name="Path 5649" d="M233.319,355.14H210.4a.527.527,0,0,0-.527.527h0a.527.527,0,0,0,.527.527h22.922a.527.527,0,0,0,.527-.527h0A.527.527,0,0,0,233.319,355.14Z" transform="translate(-150.441 -266.443)" fill="#0056c5"/>
      <path id="Path_5650" data-name="Path 5650" d="M193.6,165.84v5.193H86.88V165.84a1.493,1.493,0,0,1,1.493-1.49H192.105A1.49,1.49,0,0,1,193.6,165.84Z" transform="translate(-67.725 -138.129)" fill="#d1e6ec"/>
      <path id="Path_5651" data-name="Path 5651" d="M142.12,173.267h0a.891.891,0,0,0,.887.887H220.8a.887.887,0,0,0,.887-.887h0a.887.887,0,0,0-.887-.887H143.007A.887.887,0,0,0,142.12,173.267Z" transform="translate(-104.876 -143.53)" fill="#fff"/>
      <path id="Path_5652" data-name="Path 5652" d="M101.654,173.242v.655a.246.246,0,0,1-.367.213l-.57-.327-.57-.327a.246.246,0,0,1,0-.426l.57-.327.57-.327a.246.246,0,0,1,.367.213Z" transform="translate(-76.565 -143.504)" fill="#233b78"/>
      <path id="Path_5653" data-name="Path 5653" d="M114.05,173.242v.655a.246.246,0,0,0,.367.213l.57-.327.57-.327a.246.246,0,0,0,0-.426l-.57-.327-.57-.327a.246.246,0,0,0-.367.213Z" transform="translate(-85.998 -143.504)" fill="#233b78"/>
      <path id="Path_5654" data-name="Path 5654" d="M320.292,209.375a.3.3,0,0,0,0-.043c.131-.409.262-.815.4-1.225,0-.029,0-.043-.023-.062l-1.176-.874a.125.125,0,0,1-.029-.029h.085l1.424-.016a.036.036,0,0,0,.043-.033c.141-.442.285-.881.426-1.31a.2.2,0,0,0,0-.033v.036c.164.449.327.9.491,1.349a.052.052,0,0,0,.059.039h1.31a.17.17,0,0,1,.056,0l-.026.02-1.149.779c-.026.016-.029.029-.02.059l.465,1.346a.413.413,0,0,1,0,.043l-.049-.036-1.13-.8c-.023-.016-.036-.016-.056,0l-1.12.776Z" transform="translate(-224.145 -165.972)" fill="#d1e6ec"/>
      <path id="Path_5655" data-name="Path 5655" d="M335.689,209.375v-.043c.131-.409.262-.815.4-1.225a.049.049,0,0,0-.02-.062l-1.179-.874a.079.079,0,0,1-.026-.029h.085l1.421-.016a.043.043,0,0,0,.046-.033l.422-1.31v-.033a.2.2,0,0,0,.016.036l.491,1.349a.049.049,0,0,0,.056.039h1.326a.182.182,0,0,1,.056,0l-.029.02-1.149.779c-.026.016-.029.029-.02.059.157.449.311.9.465,1.346v.043l-.052-.036-1.126-.8a.043.043,0,0,0-.059,0l-1.117.776Z" transform="translate(-234.502 -165.972)" fill="#d1e6ec"/>
      <path id="Path_5656" data-name="Path 5656" d="M351.1,209.375v-.043c.134-.409.265-.815.4-1.225a.049.049,0,0,0-.02-.062l-1.179-.874a.078.078,0,0,1-.026-.029h.085l1.421-.016c.029,0,.039,0,.046-.033.141-.442.282-.881.426-1.31a.2.2,0,0,0,0-.033l.016.036.491,1.349a.052.052,0,0,0,.059.039h1.31a.183.183,0,0,1,.056,0l-.029.02-1.146.779c-.026.016-.033.029-.023.059.157.449.327.9.465,1.346a.32.32,0,0,1,0,.043l-.052-.036-1.126-.8a.043.043,0,0,0-.059,0l-1.117.776Z" transform="translate(-244.866 -165.972)" fill="#d1e6ec"/>
      <path id="Path_5657" data-name="Path 5657" d="M366.5,209.375a.31.31,0,0,0,0-.043c.131-.409.262-.815.4-1.225,0-.029,0-.043-.023-.062l-1.176-.874a.124.124,0,0,1-.029-.029h.108l1.424-.016a.036.036,0,0,0,.043-.033c.141-.442.285-.881.426-1.31a.209.209,0,0,0,0-.033l.016.036c.164.449.328.9.491,1.349a.052.052,0,0,0,.059.039h1.31a.17.17,0,0,1,.056,0l-.026.02-1.149.779c-.026.016-.029.029-.02.059l.465,1.346a.413.413,0,0,1,0,.043l-.049-.036-1.13-.8c-.023-.016-.036-.016-.056,0l-1.12.776Z" transform="translate(-255.223 -165.972)" fill="#d1e6ec"/>
      <path id="Path_5658" data-name="Path 5658" d="M381.928,209.375v-.043c.131-.409.262-.815.4-1.225a.049.049,0,0,0-.02-.062l-1.179-.874a.079.079,0,0,1-.026-.029h.085l1.421-.016a.043.043,0,0,0,.046-.033l.422-1.31v-.033a.191.191,0,0,0,.016.036l.491,1.349a.049.049,0,0,0,.056.039h1.326a.182.182,0,0,1,.056,0l-.029.02-1.149.779c-.026.016-.029.029-.02.059.157.449.311.9.465,1.346v.043l-.052-.036-1.126-.8a.043.043,0,0,0-.059,0l-1.117.776Z" transform="translate(-265.6 -165.972)" fill="#d1e6ec"/>
      <rect id="Rectangle_2411" data-name="Rectangle 2411" width="24.101" height="1.061" rx="0.53" transform="translate(95.322 45.073)" fill="#d1e6ec"/>
      <rect id="Rectangle_2412" data-name="Rectangle 2412" width="24.101" height="1.061" rx="0.53" transform="translate(95.322 47.342)" fill="#d1e6ec"/>
      <rect id="Rectangle_2413" data-name="Rectangle 2413" width="43.945" height="15.718" rx="6.38" transform="translate(43.983 59.89)" fill="#d1e6ec"/>
      <rect id="Rectangle_2414" data-name="Rectangle 2414" width="43.945" height="15.718" rx="6.38" transform="translate(42.647 58.204)" fill="#fe7062"/>
      <path id="Path_5659" data-name="Path 5659" d="M176.856,272.134a6.575,6.575,0,0,1-1.513,4.211,6.708,6.708,0,0,1-.72.743,6.6,6.6,0,0,1-8.75,0,7.021,7.021,0,0,1-.72-.743,6.608,6.608,0,1,1,11.7-4.211Z" transform="translate(-119.349 -206.176)" fill="#e2615a"/>
      <circle id="Ellipse_494" data-name="Ellipse 494" cx="2.535" cy="2.535" r="2.535" transform="translate(47.975 66.434) rotate(-80.76)" fill="#ff6571"/>
      <path id="Path_5660" data-name="Path 5660" d="M179.16,294.362a6.6,6.6,0,0,1-8.75,0,3.887,3.887,0,0,1,1.637-2.292,4.843,4.843,0,0,1,5.5,0A3.887,3.887,0,0,1,179.16,294.362Z" transform="translate(-123.902 -223.45)" fill="#ff6571"/>
      <path id="Path_5661" data-name="Path 5661" d="M210.716,274.089a.324.324,0,0,1,0-.039c.131-.406.262-.815.4-1.218a.046.046,0,0,0-.023-.062l-1.149-.871a.1.1,0,0,1-.029-.033h1.5a.043.043,0,0,0,.046-.033l.422-1.31a.2.2,0,0,0,0-.033l.016.036c.164.449.327.894.488,1.343a.052.052,0,0,0,.059.039h1.31a.181.181,0,0,1,.056,0l-.029.02-1.14.773c-.026.02-.033.033-.023.062.157.445.311.891.465,1.339v.039l-.052-.036-1.1-.828a.049.049,0,0,0-.059,0l-1.11.773Z" transform="translate(-150.468 -209.513)" fill="#fff"/>
      <path id="Path_5662" data-name="Path 5662" d="M226,274.089a.272.272,0,0,1,0-.039c.131-.406.259-.815.393-1.218a.046.046,0,0,0-.023-.062L225.2,271.9a.1.1,0,0,1-.029-.033h1.5c.029,0,.039,0,.046-.033l.422-1.31a.206.206,0,0,0,0-.033l.016.036.491,1.343a.049.049,0,0,0,.056.039h1.31a.167.167,0,0,1,.056,0l-.029.02-1.14.773c-.026.02-.033.033-.023.062.157.445.311.891.465,1.339a.222.222,0,0,1,0,.039.328.328,0,0,1-.049-.036c-.377-.265-.75-.527-1.123-.8a.046.046,0,0,0-.056,0l-1.113.773S226,274.087,226,274.089Z" transform="translate(-160.731 -209.513)" fill="#fff"/>
      <path id="Path_5663" data-name="Path 5663" d="M241.305,274.089v-.039l.393-1.218a.046.046,0,0,0-.023-.062l-1.169-.871a.069.069,0,0,1-.026-.033h1.5c.029,0,.039,0,.046-.033l.422-1.31a.2.2,0,0,0,0-.033v.036l.491,1.343a.049.049,0,0,0,.056.039h1.31a.167.167,0,0,1,.056,0l-.029.02-1.14.773c-.026.02-.033.033-.02.062l.462,1.339a.222.222,0,0,1,0,.039.33.33,0,0,1-.049-.036c-.373-.265-.75-.527-1.123-.8a.046.046,0,0,0-.056,0l-1.113.773Z" transform="translate(-171.027 -209.513)" fill="#fff"/>
      <path id="Path_5664" data-name="Path 5664" d="M256.719,274.089v-.039c.131-.406.262-.815.393-1.218a.046.046,0,0,0-.02-.062l-1.146-.871a.069.069,0,0,1-.026-.033h1.5a.036.036,0,0,0,.043-.033l.422-1.31v0l.491,1.343a.049.049,0,0,0,.056.039h1.31a.162.162,0,0,1,.056,0l-.026.02-1.143.773a.046.046,0,0,0-.02.062l.462,1.339v.039a.243.243,0,0,1-.052-.036c-.373-.265-.75-.527-1.123-.8a.046.046,0,0,0-.056,0c-.37.259-.74.517-1.113.773Z" transform="translate(-181.411 -209.513)" fill="#fff"/>
      <path id="Path_5665" data-name="Path 5665" d="M272.005,274.089a.337.337,0,0,1,0-.039c.131-.406.262-.815.393-1.218a.046.046,0,0,0-.02-.062l-1.172-.871a.069.069,0,0,1-.026-.033h1.5a.043.043,0,0,0,.046-.033c.138-.439.278-.874.419-1.31v-.033a.193.193,0,0,0,.016.036c.16.449.327.894.488,1.343a.049.049,0,0,0,.056.039h1.31a.162.162,0,0,1,.056,0l-.026.02c-.38.259-.76.517-1.143.773a.046.046,0,0,0-.02.062l.462,1.339v.039l-.052-.036-1.081-.828a.046.046,0,0,0-.056,0c-.37.259-.74.517-1.113.773Z" transform="translate(-191.674 -209.513)" fill="#e51c4a"/>
      <rect id="Rectangle_2415" data-name="Rectangle 2415" width="23.973" height="1.054" rx="0.527" transform="translate(59.436 66.239)" fill="#e2615a"/>
      <path id="Path_5666" data-name="Path 5666" d="M233.319,293.45H210.4a.527.527,0,0,0-.527.527h0a.527.527,0,0,0,.527.527h22.922a.527.527,0,0,0,.527-.527h0A.527.527,0,0,0,233.319,293.45Z" transform="translate(-150.441 -224.954)" fill="#e2615a"/>
      <rect id="Rectangle_2416" data-name="Rectangle 2416" width="43.945" height="15.718" rx="6.38" transform="translate(43.983 38.743)" fill="#d1e6ec"/>
      <rect id="Rectangle_2417" data-name="Rectangle 2417" width="43.945" height="15.718" rx="6.38" transform="translate(42.647 37.056)" fill="#0172d0"/>
      <path id="Path_5667" data-name="Path 5667" d="M176.856,207.608a6.569,6.569,0,0,1-1.529,4.218,6.468,6.468,0,0,1-.72.747,6.615,6.615,0,0,1-8.75,0,6.751,6.751,0,0,1-.72-.747,6.608,6.608,0,1,1,11.72-4.218Z" transform="translate(-119.349 -162.798)" fill="#0056c5"/>
      <circle id="Ellipse_495" data-name="Ellipse 495" cx="2.535" cy="2.535" r="2.535" transform="translate(48.351 40.658)" fill="#0096e2"/>
      <path id="Path_5668" data-name="Path 5668" d="M179.16,229.782a6.615,6.615,0,0,1-8.75,0,3.887,3.887,0,0,1,1.637-2.292,4.843,4.843,0,0,1,5.5,0A3.887,3.887,0,0,1,179.16,229.782Z" transform="translate(-123.902 -180.017)" fill="#0096e2"/>
      <path id="Path_5669" data-name="Path 5669" d="M210.716,209.5v-.043c.131-.406.262-.812.4-1.218,0-.029,0-.043-.023-.062l-1.149-.871a.082.082,0,0,1-.029-.029h1.5c.026,0,.036,0,.046-.036l.422-1.31a.2.2,0,0,0,0-.033l.016.036c.164.449.327.894.488,1.339a.052.052,0,0,0,.059.039h1.31a.183.183,0,0,1,.056,0l-.029.02-1.14.773a.046.046,0,0,0-.023.062c.157.445.311.891.465,1.336a.367.367,0,0,0,0,.043l-.052-.036-1.12-.8a.043.043,0,0,0-.059,0l-1.11.773Z" transform="translate(-150.468 -166.073)" fill="#fff"/>
      <path id="Path_5670" data-name="Path 5670" d="M226,209.5v-.043c.131-.406.259-.812.393-1.218,0-.029,0-.043-.023-.062l-1.169-.871a.082.082,0,0,1-.029-.029h1.5a.039.039,0,0,0,.046-.036l.422-1.31a.2.2,0,0,0,0-.033l.016.036.491,1.339c0,.033.023.039.056.039h1.31a.17.17,0,0,1,.056,0l-.029.02-1.14.773a.046.046,0,0,0-.023.062c.157.445.311.891.465,1.336q0,.021,0,.043l-.049-.036-1.123-.8c-.023-.016-.036-.016-.056,0l-1.113.773Z" transform="translate(-160.731 -166.073)" fill="#fff"/>
      <path id="Path_5671" data-name="Path 5671" d="M241.305,209.5a.309.309,0,0,0,0-.043l.393-1.218c0-.029,0-.043-.023-.062l-1.169-.871a.059.059,0,0,1-.026-.029h1.5a.039.039,0,0,0,.046-.036l.422-1.31a.2.2,0,0,0,0-.033v.036l.491,1.339c0,.033.023.039.056.039h1.31a.17.17,0,0,1,.056,0l-.029.02-1.14.773a.043.043,0,0,0-.02.062l.462,1.336q0,.021,0,.043l-.049-.036-1.123-.8c-.023-.016-.036-.016-.056,0l-1.113.773Z" transform="translate(-171.027 -166.073)" fill="#0056c5"/>
      <path id="Path_5672" data-name="Path 5672" d="M256.665,209.5a.3.3,0,0,0,0-.043l.393-1.218a.049.049,0,0,0-.02-.062q-.589-.432-1.172-.871a.059.059,0,0,1-.026-.029h1.5c.026,0,.036,0,.043-.036l.422-1.31v0l.491,1.339c0,.033.023.039.056.039h1.31a.164.164,0,0,1,.056,0l-.026.02-1.143.773c-.026.016-.029.033-.02.062l.462,1.336v.043l-.052-.036-1.123-.8c-.02-.016-.033-.016-.056,0l-1.113.773Z" transform="translate(-181.358 -166.073)" fill="#0056c5"/>
      <path id="Path_5673" data-name="Path 5673" d="M272.005,209.5v-.043l.393-1.218a.049.049,0,0,0-.02-.062q-.589-.432-1.172-.871a.059.059,0,0,1-.026-.029h1.5c.026,0,.036,0,.046-.036.138-.436.278-.874.419-1.31V205.9a.192.192,0,0,0,.016.036c.16.449.327.894.488,1.339a.049.049,0,0,0,.056.039h1.31a.164.164,0,0,1,.056,0l-.026.02c-.38.259-.76.517-1.143.773-.026.016-.029.033-.02.062l.462,1.336v.043l-.052-.036-1.123-.8c-.02-.016-.033-.016-.056,0l-1.113.773Z" transform="translate(-191.674 -166.073)" fill="#0056c5"/>
      <rect id="Rectangle_2418" data-name="Rectangle 2418" width="23.973" height="1.054" rx="0.527" transform="translate(59.436 45.089)" fill="#0056c5"/>
      <path id="Path_5674" data-name="Path 5674" d="M233.319,228.87H210.4a.527.527,0,0,0-.527.527h0a.527.527,0,0,0,.527.527h22.922a.527.527,0,0,0,.527-.527h0A.527.527,0,0,0,233.319,228.87Z" transform="translate(-150.441 -181.522)" fill="#0056c5"/>
      <path id="Path_5675" data-name="Path 5675" d="M116.037,206.39H105.28a.527.527,0,0,0-.53.53h0a.53.53,0,0,0,.53.53h10.757a.53.53,0,0,0,.53-.53h0a.527.527,0,0,0-.53-.53Z" transform="translate(-79.743 -166.403)" fill="#d1e6ec"/>
      <path id="Path_5676" data-name="Path 5676" d="M116.037,215.34H105.28a.53.53,0,0,0-.53.53h0a.527.527,0,0,0,.53.53h10.757a.527.527,0,0,0,.53-.53h0A.53.53,0,0,0,116.037,215.34Z" transform="translate(-79.743 -172.422)" fill="#d1e6ec"/>
      <path id="Path_5677" data-name="Path 5677" d="M116.037,224.3H105.28a.527.527,0,0,0-.53.53h0a.527.527,0,0,0,.53.527h10.757a.527.527,0,0,0,.53-.527h0a.527.527,0,0,0-.53-.53Z" transform="translate(-79.743 -178.448)" fill="#d1e6ec"/>
      <path id="Path_5678" data-name="Path 5678" d="M116.037,233.25H105.28a.53.53,0,0,0-.53.53h0a.53.53,0,0,0,.53.53h10.757a.53.53,0,0,0,.53-.53h0A.53.53,0,0,0,116.037,233.25Z" transform="translate(-79.743 -184.467)" fill="#d1e6ec"/>
      <path id="Path_5679" data-name="Path 5679" d="M116.037,273.11H105.28a.53.53,0,0,0-.53.53h0a.527.527,0,0,0,.53.53h10.757a.527.527,0,0,0,.53-.53h0A.53.53,0,0,0,116.037,273.11Z" transform="translate(-79.743 -211.275)" fill="#d1e6ec"/>
      <path id="Path_5680" data-name="Path 5680" d="M116.037,282.07H105.28a.527.527,0,0,0-.53.53h0a.527.527,0,0,0,.53.527h10.757a.527.527,0,0,0,.53-.527h0a.527.527,0,0,0-.53-.53Z" transform="translate(-79.743 -217.301)" fill="#d1e6ec"/>
      <path id="Path_5681" data-name="Path 5681" d="M116.037,291H105.28a.53.53,0,0,0-.53.53h0a.53.53,0,0,0,.53.53h10.757a.53.53,0,0,0,.53-.53h0A.53.53,0,0,0,116.037,291Z" transform="translate(-79.743 -223.307)" fill="#d1e6ec"/>
      <path id="Path_5682" data-name="Path 5682" d="M116.037,300H105.28a.527.527,0,0,0-.53.527h0a.527.527,0,0,0,.53.53h10.757a.527.527,0,0,0,.53-.53h0a.527.527,0,0,0-.53-.527Z" transform="translate(-79.743 -229.359)" fill="#d1e6ec"/>
      <path id="Path_5683" data-name="Path 5683" d="M116.037,334.8H105.28a.53.53,0,0,0-.53.53h0a.527.527,0,0,0,.53.53h10.757a.527.527,0,0,0,.53-.53h0A.53.53,0,0,0,116.037,334.8Z" transform="translate(-79.743 -252.764)" fill="#d1e6ec"/>
      <path id="Path_5684" data-name="Path 5684" d="M116.037,343.76H105.28a.527.527,0,0,0-.53.53h0a.527.527,0,0,0,.53.527h10.757a.527.527,0,0,0,.53-.527h0a.527.527,0,0,0-.53-.53Z" transform="translate(-79.743 -258.79)" fill="#d1e6ec"/>
      <path id="Path_5685" data-name="Path 5685" d="M116.037,352.71H105.28a.53.53,0,0,0-.53.53h0a.53.53,0,0,0,.53.531h10.757a.53.53,0,0,0,.53-.531h0A.53.53,0,0,0,116.037,352.71Z" transform="translate(-79.743 -264.809)" fill="#d1e6ec"/>
      <path id="Path_5686" data-name="Path 5686" d="M116.037,361.67H105.28a.527.527,0,0,0-.53.527h0a.527.527,0,0,0,.53.53h10.757a.527.527,0,0,0,.53-.53h0a.527.527,0,0,0-.53-.527Z" transform="translate(-79.743 -270.835)" fill="#d1e6ec"/>
      <path id="Path_5687" data-name="Path 5687" d="M343,256.572H320.22a.527.527,0,0,0-.53.53h0a.53.53,0,0,0,.53.53H343a.616.616,0,0,0,.675-.53h0A.612.612,0,0,0,343,256.572Z" transform="translate(-224.299 -200.15)" fill="#d1e6ec"/>
      <path id="Path_5688" data-name="Path 5688" d="M343,265.523H320.22a.531.531,0,0,0-.53.53h0a.53.53,0,0,0,.53.53H343a.616.616,0,0,0,.675-.53h0A.616.616,0,0,0,343,265.523Z" transform="translate(-224.299 -206.17)" fill="#d1e6ec"/>
      <path id="Path_5689" data-name="Path 5689" d="M343,274.483H320.22a.527.527,0,0,0-.53.527h0a.527.527,0,0,0,.53.53H343a.612.612,0,0,0,.675-.53h0A.616.616,0,0,0,343,274.483Z" transform="translate(-224.299 -212.196)" fill="#d1e6ec"/>
      <path id="Path_5690" data-name="Path 5690" d="M343,283.432H320.22a.527.527,0,0,0-.53.53h0a.531.531,0,0,0,.53.531H343a.616.616,0,0,0,.675-.531h0A.612.612,0,0,0,343,283.432Z" transform="translate(-224.299 -218.215)" fill="#d1e6ec"/>
      <rect id="Rectangle_2419" data-name="Rectangle 2419" width="23.98" height="8.321" rx="3.76" transform="translate(95.391 72.569)" fill="#d1e6ec"/>
      <rect id="Rectangle_2420" data-name="Rectangle 2420" width="23.98" height="8.321" rx="3.76" transform="translate(95.391 85.065)" fill="#d1e6ec"/>
      <path id="Path_5691" data-name="Path 5691" d="M77.915,432.446c0,.933-8.753,1.686-19.546,1.686s-19.549-.753-19.549-1.686,8.753-1.686,19.549-1.686S77.915,431.516,77.915,432.446Z" transform="translate(-35.403 -317.301)" fill="#d1e6ec"/>
      <path id="Path_5692" data-name="Path 5692" d="M160.684,326.9c-.039-.18-.655-.409-1.238-.593v-.065c.822.164,2.243.39,2.122,0-.082-.252-1.29-.485-2.024-.6v-.118c.874.128,2.58.327,2.417-.1-.108-.285-1.6-.475-2.374-.553v-.1c.747.082,2.181.18,2.02-.246s-2.341-.419-2.341-.419h0l-.825-.115s0-.291.6-.485.864-.612.108-.566c-.858.049-1.588.36-2.187.377a2.259,2.259,0,0,0-1.215.612l-.242,1.614a8.914,8.914,0,0,0,3.6,1.271h0C159.836,327.016,160.746,327.209,160.684,326.9Z" transform="translate(-113.875 -244.78)" fill="#fda893"/>
      <path id="Path_5693" data-name="Path 5693" d="M154.766,356.166v2.646c-.655-.655-1.876-1.637-1.876-1.637l.9-.881A1.34,1.34,0,0,1,154.766,356.166Z" transform="translate(-112.119 -267.106)" fill="#fda893"/>
      <path id="Path_5694" data-name="Path 5694" d="M126.385,298.942c-.367,2.358.242,9.123,1.005,10.407.982,1.667,4.7,5.616,6.628,7.649.35.367-1.781,1.529-1.781,1.529s-5.717-4.28-7.505-6.972c-.5-.766-1.352-2.977-1.925-6.906-.174-1.189-.711-3.641-.272-5.03C123.035,298.012,125.036,297.73,126.385,298.942Z" transform="translate(-91.59 -228.144)" fill="#e2615a"/>
      <path id="Path_5695" data-name="Path 5695" d="M128.809,418.7l-.049,2.508a2.576,2.576,0,0,0,1.906.2l.485-2.7Z" transform="translate(-95.891 -309.19)" fill="#fda893"/>
      <path id="Path_5696" data-name="Path 5696" d="M129.426,424.775s.426-.612.779-.6,3.147,2.106,4.087,2.256.91,1.31.547,1.457c-.419.157-7.351.131-7.351.131a13.526,13.526,0,0,1-.082-3.134C127.625,424.219,128.7,424.952,129.426,424.775Z" transform="translate(-94.926 -312.875)" fill="#fe7062"/>
      <path id="Path_5697" data-name="Path 5697" d="M138.123,428.37a.131.131,0,0,1-.1,0,.128.128,0,0,1-.052-.177,2.03,2.03,0,0,1,.655-.73.907.907,0,0,1,.93.016.132.132,0,0,1-.151.216.629.629,0,0,0-.655,0,1.735,1.735,0,0,0-.557.622A.134.134,0,0,1,138.123,428.37Z" transform="translate(-102.071 -315.003)" fill="#fff"/>
      <path id="Path_5698" data-name="Path 5698" d="M136.9,427.28a.125.125,0,0,1-.1,0,.131.131,0,0,1-.056-.177,2.053,2.053,0,0,1,.655-.73.9.9,0,0,1,.927.016.131.131,0,0,1-.147.216.655.655,0,0,0-.655,0,1.768,1.768,0,0,0-.553.625A.128.128,0,0,1,136.9,427.28Z" transform="translate(-101.247 -314.27)" fill="#fff"/>
      <path id="Path_5699" data-name="Path 5699" d="M139.767,429.236a.147.147,0,0,1-.1,0,.134.134,0,0,1-.052-.177,1.965,1.965,0,0,1,.655-.73.891.891,0,0,1,.927.016.128.128,0,0,1,.033.18.131.131,0,0,1-.183.033.655.655,0,0,0-.655,0,1.733,1.733,0,0,0-.553.622A.147.147,0,0,1,139.767,429.236Z" transform="translate(-103.178 -315.584)" fill="#fff"/>
      <path id="Path_5700" data-name="Path 5700" d="M108.234,375.157a3.32,3.32,0,0,1-2.014-.092,2.555,2.555,0,0,1-.3-.115,2.375,2.375,0,0,1-.655-.426s-.933-2.4-.213-9.392a30.454,30.454,0,0,1,.887-6.8,18.185,18.185,0,0,1-11.625-.783l4.467-4.306s11.291-1.271,13.052,2.178C113.008,357.74,108.234,375.157,108.234,375.157Z" transform="translate(-72.722 -265.012)" fill="#0056c5"/>
      <path id="Path_5701" data-name="Path 5701" d="M114.543,365.4a36.813,36.813,0,0,0-.851,6.526,19.268,19.268,0,0,1-.213,2.8,25.939,25.939,0,0,0,0,8.131,2.555,2.555,0,0,1-.3-.115,26.719,26.719,0,0,1,.036-8.049,18.338,18.338,0,0,0,.21-2.754,36.1,36.1,0,0,1,.858-6.588.393.393,0,0,0-.491-.458,32.144,32.144,0,0,1-8.586.743.141.141,0,0,1-.131-.147.134.134,0,0,1,.147-.131,32.144,32.144,0,0,0,8.494-.733.652.652,0,0,1,.832.779Z" transform="translate(-79.958 -272.796)" fill="#023386"/>
      <path id="Path_5702" data-name="Path 5702" d="M98.433,332.11l-.013,1.343,3.481.377.249-1.316Z" transform="translate(-66.219 -223.357)" fill="#0172d0"/>
      <path id="Path_5703" data-name="Path 5703" d="M56.462,411.09l-2.253,1.11a2.565,2.565,0,0,0,.7,1.788l2.62-.815Z" transform="translate(-45.749 -304.072)" fill="#fda893"/>
      <path id="Path_5704" data-name="Path 5704" d="M49.082,415.125s.74.1.891.422-.422,3.759-.124,4.663-.753,1.418-1.045,1.156-3.494-6.48-3.494-6.48a13.4,13.4,0,0,1,2.744-1.51C48.752,413.265,48.591,414.558,49.082,415.125Z" transform="translate(-39.767 -305.605)" fill="#fe7062"/>
      <path id="Path_5705" data-name="Path 5705" d="M54.919,424.543a.121.121,0,0,1-.039-.1.128.128,0,0,1,.131-.128,2.046,2.046,0,0,1,.953.249.9.9,0,0,1,.413.832.13.13,0,1,1-.259-.023.655.655,0,0,0-.3-.58,1.751,1.751,0,0,0-.809-.206A.131.131,0,0,1,54.919,424.543Z" transform="translate(-46.203 -312.97)" fill="#fff"/>
      <path id="Path_5706" data-name="Path 5706" d="M55.353,422.953a.131.131,0,0,1,.095-.223,2.047,2.047,0,0,1,.953.249.907.907,0,0,1,.409.822.128.128,0,0,1-.144.115.131.131,0,0,1-.115-.147.655.655,0,0,0-.3-.58,1.761,1.761,0,0,0-.809-.206.131.131,0,0,1-.092-.029Z" transform="translate(-46.497 -311.901)" fill="#fff"/>
      <path id="Path_5707" data-name="Path 5707" d="M54.919,426.4a.141.141,0,0,1-.039-.095.134.134,0,0,1,.134-.131,2.024,2.024,0,0,1,.953.252.9.9,0,0,1,.409.832.128.128,0,0,1-.144.111.131.131,0,0,1-.115-.147.655.655,0,0,0-.3-.58,1.807,1.807,0,0,0-.809-.206A.128.128,0,0,1,54.919,426.4Z" transform="translate(-46.204 -314.214)" fill="#fff"/>
      <path id="Path_5708" data-name="Path 5708" d="M80.355,368.718c-1.5,2.132-19.183,5.894-19.183,5.894a3.294,3.294,0,0,1-.835-1.762,2.555,2.555,0,0,1-.039-.308,2.335,2.335,0,0,1,.062-.868s.861-1.051,7.4-3.625a39.862,39.862,0,0,1,5.518-2.859c-2.446-4.316-4.44-8.514-4.561-12.191l1.293.35.291.082,5.537,1.513C78.141,359.32,81.583,367.009,80.355,368.718Z" transform="translate(-49.837 -265.004)" fill="#0172d0"/>
      <path id="Path_5709" data-name="Path 5709" d="M74.481,366.084a.687.687,0,0,1-.327.409,52.854,52.854,0,0,0-5.171,2.908,29.074,29.074,0,0,1-3.9,1.9,38.678,38.678,0,0,0-4.653,2.269,2.556,2.556,0,0,1-.039-.308,39.751,39.751,0,0,1,4.584-2.217,28.56,28.56,0,0,0,3.851-1.876,49.62,49.62,0,0,1,5.19-2.931.4.4,0,0,0,.2-.239.406.406,0,0,0-.033-.327,32.39,32.39,0,0,1-4.1-11.605l.291.082a33.137,33.137,0,0,0,4.06,11.4.684.684,0,0,1,.043.531Z" transform="translate(-49.909 -265.724)" fill="#0056c5"/>
      <path id="Path_5710" data-name="Path 5710" d="M31.165,324.27l-1.215.566,1.159,3.3L32.4,327.8Z" transform="translate(-20.17 -218.084)" fill="#0096e2"/>
      <path id="Path_5711" data-name="Path 5711" d="M95.081,282.829a14.208,14.208,0,0,0-4.584.678c-1.755.727-1.965,3.458-2.679,5.469s-4.365,15.089-1.965,17.565c1.8,1.87,11.6,3.356,11.962.121A103.479,103.479,0,0,1,99.6,295.38c.74-3.409,1.739-5.773,1.844-7.256s-3.6-4.516-3.6-4.516Z" transform="translate(-66.492 -217.811)" fill="#fe7062"/>
      <path id="Path_5712" data-name="Path 5712" d="M114.622,287.072c-1.31-.458-2.063-2.292-2.1-2.371a.1.1,0,0,1,.056-.128.095.095,0,0,1,.128.056c0,.02.779,1.935,2.092,2.292a.1.1,0,0,1,.069.121.1.1,0,0,1-.121.072Z" transform="translate(-84.968 -218.979)" fill="#e51c4a"/>
      <path id="Path_5713" data-name="Path 5713" d="M98.571,329.261a.1.1,0,1,1,.052-.19c3.563.789,7.027-4.65,7.063-4.706a.1.1,0,0,1,.167.1c-.144.229-3.576,5.613-7.273,4.794Z" transform="translate(-75.539 -245.715)" fill="#e51c4a"/>
      <path id="Path_5714" data-name="Path 5714" d="M104.64,330.612a.092.092,0,0,1-.066-.072.1.1,0,0,1,.075-.118,4.66,4.66,0,0,0,3.058-2.073.1.1,0,0,1,.177.092,4.775,4.775,0,0,1-3.193,2.174A.1.1,0,0,1,104.64,330.612Z" transform="translate(-79.624 -248.39)" fill="#e51c4a"/>
      <path id="Path_5715" data-name="Path 5715" d="M118.78,257.685a3.969,3.969,0,1,1-2.986-4.751A3.969,3.969,0,0,1,118.78,257.685Z" transform="translate(-83.907 -197.638)" fill="#29245d"/>
      <path id="Path_5716" data-name="Path 5716" d="M112.516,253.017a2.015,2.015,0,0,1,.914-1.965c1.1-.576,1.765-.167,2.711-.655s4.8-.383,4.882,1.438a1.664,1.664,0,0,1-1.575,1.88Z" transform="translate(-84.959 -195.832)" fill="#29245d"/>
      <path id="Path_5717" data-name="Path 5717" d="M130.691,269.949s.8-.678,1.1.1-.8,2.62-1.8,1.886Z" transform="translate(-96.718 -208.965)" fill="#ff877c"/>
      <path id="Path_5718" data-name="Path 5718" d="M131.007,272.978a.1.1,0,0,0,.108-.049,1.493,1.493,0,0,1,1.015-.681.1.1,0,1,0-.026-.19,1.637,1.637,0,0,0-1.159.779.095.095,0,0,0,.039.131Z" transform="translate(-97.352 -210.567)" fill="#f25b56"/>
      <path id="Path_5719" data-name="Path 5719" d="M132.664,273.321a.093.093,0,0,0,.111-.124.891.891,0,0,0-.288-.367.1.1,0,0,0-.118.157.756.756,0,0,1,.226.275.088.088,0,0,0,.069.059Z" transform="translate(-98.292 -211.073)" fill="#f25b56"/>
      <path id="Path_5720" data-name="Path 5720" d="M115.065,278.82l-.455,1.984a3.265,3.265,0,0,0,1.4,1.31c.783.249,1.49-.586,1.49-.586l.436-1.909Z" transform="translate(-86.374 -215.115)" fill="#fda893"/>
      <path id="Path_5721" data-name="Path 5721" d="M115.583,278.82l-.2.881c.4.717,1.31,1.084,2.783,1.2l.291-1.277Z" transform="translate(-86.892 -215.115)" fill="#ff877c"/>
      <path id="Path_5722" data-name="Path 5722" d="M119.667,259.6a15.957,15.957,0,0,1-.583,2.079c-.072.2-.151.4-.236.593-.6,1.4-1.526,2.7-2.924,2.872-2.869.327-3.527-1.886-3.684-3.465,0-.164-.029-.327-.036-.465s0-.363,0-.566a19.651,19.651,0,0,1,.327-2.564,2.112,2.112,0,0,1,1.785-1.726,5.645,5.645,0,0,1,4.712,1.238A2.132,2.132,0,0,1,119.667,259.6Z" transform="translate(-84.754 -199.956)" fill="#fda893"/>
      <path id="Path_5723" data-name="Path 5723" d="M127.428,269.588c-.049.213.023.409.157.439s.282-.115.327-.327-.02-.406-.157-.439S127.477,269.379,127.428,269.588Z" transform="translate(-94.985 -208.683)" fill="#29245d"/>
      <path id="Path_5724" data-name="Path 5724" d="M118.707,267.6c-.049.213.02.409.157.439s.282-.115.327-.327-.023-.409-.157-.439S118.757,267.387,118.707,267.6Z" transform="translate(-89.12 -207.346)" fill="#29245d"/>
      <path id="Path_5725" data-name="Path 5725" d="M127.785,266.371A2.79,2.79,0,0,0,126,265.9l0,.377a3.409,3.409,0,0,1,1.637.5C127.722,266.624,127.811,266.568,127.785,266.371Z" transform="translate(-94.035 -206.406)" fill="#29245d"/>
      <path id="Path_5726" data-name="Path 5726" d="M117.129,264.1a2.8,2.8,0,0,1,1.814.347l-.151.347a3.363,3.363,0,0,0-1.7-.262C117.076,264.357,117.024,264.262,117.129,264.1Z" transform="translate(-88.025 -205.201)" fill="#29245d"/>
      <path id="Path_5727" data-name="Path 5727" d="M121.8,269.809a1.025,1.025,0,0,1-.327-.151.1.1,0,0,1,.111-.157c.079.052.269.154.37.121a.1.1,0,0,0,.065-.075c.111-.327.272-1.447.275-1.457a.1.1,0,1,1,.19.026,13.728,13.728,0,0,1-.282,1.493.282.282,0,0,1-.19.2A.4.4,0,0,1,121.8,269.809Z" transform="translate(-90.965 -207.843)" fill="#ff877c"/>
      <path id="Path_5728" data-name="Path 5728" d="M120.669,275.761a1.051,1.051,0,0,1-1.231.678,1.009,1.009,0,0,1-.773-1.169Z" transform="translate(-89.09 -212.728)" fill="#fff"/>
      <path id="Path_5729" data-name="Path 5729" d="M118.731,261.591a4,4,0,0,0,.354-1.13c0-.475-.3-.828-.079-1.238a.961.961,0,0,0-.455-1.149,5.756,5.756,0,0,1-1.86-.72c-.7-.553-2.03-.573-2.354-.138-.39.524-.052.655-.9,1.13-.327.187-.157.914-.206,1.349a2.837,2.837,0,0,1-.095.5l-.029.1-.838-.19c.056-.681.17-1.418.278-2.03a2.122,2.122,0,0,1,1.788-1.726,5.657,5.657,0,0,1,4.715,1.238,2.125,2.125,0,0,1,.655,2,15.525,15.525,0,0,1-.58,2.079Z" transform="translate(-84.801 -199.956)" fill="#29245d"/>
      <path id="Path_5730" data-name="Path 5730" d="M110.464,266.1a3.577,3.577,0,0,0,.1-.655.809.809,0,0,0-.285-.789.527.527,0,0,0-.727,0c-.609.57-.583,2.79.655,2.557Z" transform="translate(-82.71 -205.488)" fill="#fda893"/>
      <path id="Path_5731" data-name="Path 5731" d="M111.093,267.824a.1.1,0,0,1-.059-.1,1.477,1.477,0,0,0-.4-1.156.1.1,0,0,1,0-.138.095.095,0,0,1,.138,0,1.667,1.667,0,0,1,.455,1.31.1.1,0,0,1-.111.079Z" transform="translate(-83.683 -206.762)" fill="#ff877c"/>
      <path id="Path_5732" data-name="Path 5732" d="M110.524,268.408a.1.1,0,0,1-.039-.036.095.095,0,0,1,.026-.134.91.91,0,0,1,.452-.118.1.1,0,0,1,0,.193.681.681,0,0,0-.347.088A.1.1,0,0,1,110.524,268.408Z" transform="translate(-83.588 -207.919)" fill="#ff877c"/>
      <path id="Path_5733" data-name="Path 5733" d="M97.206,285.93c1.66,1.965,7.712,8.792,9.028,9.5,1.713.92,7.076,2.318,9.778,3.072.488.134-.3,2.6-.3,2.6s-7.712-1.018-10.633-2.42a28.628,28.628,0,0,1-6.448-5.121,13.672,13.672,0,0,1-2.492-3.769A3.133,3.133,0,0,1,97.206,285.93Z" transform="translate(-73.781 -219.897)" fill="#e2615a"/>
      <path id="Path_5734" data-name="Path 5734" d="M368.6,435c0,.933-5.521,1.686-12.335,1.686S343.93,435.93,343.93,435s5.524-1.686,12.335-1.686S368.6,434.066,368.6,435Z" transform="translate(-240.602 -319.016)" fill="#d1e6ec"/>
      <path id="Path_5735" data-name="Path 5735" d="M341.19,338.347v2l1.83-.029.121-2.122Z" transform="translate(-229.492 -227.452)" fill="#fda893"/>
      <path id="Path_5736" data-name="Path 5736" d="M358.967,427.3s-.458-.6-.819-.573-3.1,2.266-4.054,2.459-.753.891-.576,1.244,7.532-.092,7.532-.092a12.024,12.024,0,0,0-.02-3.006C360.781,426.662,359.713,427.452,358.967,427.3Z" transform="translate(-246.951 -314.589)" fill="#fe7062"/>
      <path id="Path_5737" data-name="Path 5737" d="M362.669,431.173a.125.125,0,0,0,.1,0,.134.134,0,0,0,.049-.183,2.073,2.073,0,0,0-.7-.714.914.914,0,0,0-.94.056.131.131,0,0,0-.026.187.134.134,0,0,0,.187.026.655.655,0,0,1,.655-.03,1.834,1.834,0,0,1,.589.609A.125.125,0,0,0,362.669,431.173Z" transform="translate(-252.166 -316.906)" fill="#fff"/>
      <path id="Path_5738" data-name="Path 5738" d="M363.833,430.014a.131.131,0,0,0,.1,0,.134.134,0,0,0,.049-.183,2.073,2.073,0,0,0-.7-.714.92.92,0,0,0-.943.056.131.131,0,0,0-.023.187.134.134,0,0,0,.187.026.655.655,0,0,1,.655-.029,1.8,1.8,0,0,1,.589.612.134.134,0,0,0,.082.046Z" transform="translate(-252.95 -316.126)" fill="#fff"/>
      <path id="Path_5739" data-name="Path 5739" d="M361.066,432.125a.141.141,0,0,0,.1,0,.134.134,0,0,0,.049-.183,2.073,2.073,0,0,0-.7-.714.923.923,0,0,0-.943.056.134.134,0,0,0,.164.21.655.655,0,0,1,.655-.026,1.833,1.833,0,0,1,.606.6A.134.134,0,0,0,361.066,432.125Z" transform="translate(-251.096 -317.546)" fill="#fff"/>
      <path id="Path_5740" data-name="Path 5740" d="M370.54,320.54c-.049.776-.1,1.637-.157,2.59,0,.174-.023.347-.033.524l-.02.327c-.37,6.015-.894,14.172-1.162,16.786-.55,5.3-.576,13.344-.576,13.344h-2.921c-.275-5.708-.75-21.717-.982-30.057,0-.265,0-.521-.023-.77-.03-1.084-.056-2.011-.075-2.731Z" transform="translate(-254.496 -243.173)" fill="#0172d0"/>
      <path id="Path_5741" data-name="Path 5741" d="M370.52,320.527c-.049.776-.1,1.637-.157,2.59H370.3a35.692,35.692,0,0,1-5.662.134c-.029-1.084-.056-2.011-.075-2.731Z" transform="translate(-254.476 -243.16)" fill="#0056c5"/>
      <path id="Path_5742" data-name="Path 5742" d="M375.308,320.54c-.272,5.449-.7,13.465-1.022,16.8-.327,3.448-.655,12.954-.776,16.756h.38c.108-3.805.436-13.288.763-16.707.327-3.347.753-11.382,1.022-16.838Z" transform="translate(-260.495 -243.173)" fill="#0056c5"/>
      <path id="Path_5743" data-name="Path 5743" d="M338.61,335.53l.131,1.336h3.5l.1-1.336Z" transform="translate(-227.757 -225.657)" fill="#0096e2"/>
      <path id="Path_5744" data-name="Path 5744" d="M360.46,337.823l.075,2,1.831-.1.039-2.125Z" transform="translate(-242.452 -227.049)" fill="#fda893"/>
      <path id="Path_5745" data-name="Path 5745" d="M389.134,426.6a8.453,8.453,0,0,1,1.241-.2c.265.016,1.965,2.092,2.557,2.237,1.081.262,1.009,1.965.327,2.02a18.943,18.943,0,0,1-5.177-.8,15.433,15.433,0,0,1-.043-2.878C388.2,426.3,388.587,426.78,389.134,426.6Z" transform="translate(-270.225 -314.369)" fill="#fe7062"/>
      <path id="Path_5746" data-name="Path 5746" d="M395.787,431.064a.151.151,0,0,1-.1-.023.134.134,0,0,1-.026-.187,2,2,0,0,1,.773-.635.92.92,0,0,1,.93.154.137.137,0,0,1,0,.19.134.134,0,0,1-.19,0,.655.655,0,0,0-.655-.1,1.8,1.8,0,0,0-.655.544A.131.131,0,0,1,395.787,431.064Z" transform="translate(-275.372 -316.895)" fill="#fff"/>
      <path id="Path_5747" data-name="Path 5747" d="M394.679,429.784a.125.125,0,0,1-.1-.023.134.134,0,0,1-.029-.187,2.059,2.059,0,0,1,.773-.635.92.92,0,0,1,.93.154.137.137,0,0,1,0,.19.134.134,0,0,1-.19,0,.655.655,0,0,0-.655-.1,1.84,1.84,0,0,0-.655.544.125.125,0,0,1-.072.056Z" transform="translate(-274.627 -316.034)" fill="#fff"/>
      <path id="Path_5748" data-name="Path 5748" d="M397.307,432.177a.154.154,0,0,1-.1-.026.134.134,0,0,1-.026-.187,2.033,2.033,0,0,1,.773-.635.91.91,0,0,1,.93.157.134.134,0,0,1,0,.187.138.138,0,0,1-.19,0,.655.655,0,0,0-.655-.1,1.771,1.771,0,0,0-.655.544A.138.138,0,0,1,397.307,432.177Z" transform="translate(-276.394 -317.64)" fill="#fff"/>
      <path id="Path_5749" data-name="Path 5749" d="M387.566,320.54c0,.436-.026.946-.043,1.519v.131c-.216,7.561-.747,25.742-1.045,31.908h-2.921s-.026-8.039-.576-13.344c-.268-2.62-.792-10.773-1.162-16.792l-.02-.308c0-.174-.023-.347-.033-.517-.056-.943-.108-1.821-.157-2.6Z" transform="translate(-265.943 -243.173)" fill="#0172d0"/>
      <path id="Path_5750" data-name="Path 5750" d="M387.56,320.486c0,.435-.026.946-.043,1.519A34.92,34.92,0,0,1,382,323.057h-.246c-.056-.943-.108-1.821-.157-2.6Z" transform="translate(-265.936 -243.12)" fill="#0056c5"/>
      <path id="Path_5751" data-name="Path 5751" d="M384.62,320.54h-.38c.269,5.455.7,13.491,1.022,16.838.327,3.432.655,12.915.776,16.72h.38c-.121-3.8-.442-13.308-.776-16.756C385.317,334.005,384.892,325.989,384.62,320.54Z" transform="translate(-267.712 -243.173)" fill="#0056c5"/>
      <path id="Path_5752" data-name="Path 5752" d="M361.476,335.53l-.131,1.336h-3.5l-.1-1.336Z" transform="translate(-240.622 -225.657)" fill="#0096e2"/>
      <path id="Path_5753" data-name="Path 5753" d="M349.443,256.812c-1.811,2.659-6.71,4.977-6.71,4.977a13.57,13.57,0,0,1-4.074-1.546,12.2,12.2,0,0,0,.655-2.682c1.673.468,3.117.714,3.117.714,3.53-1.637,7.672-9.886,7.672-9.886C351.261,250.741,349.443,256.812,349.443,256.812Z" transform="translate(-237.057 -194.65)" fill="#e51c4a"/>
      <path id="Path_5754" data-name="Path 5754" d="M363.918,270.339c3.582,2.639,11.867.138,11.867.138.933-1.14-.363-3.746-.743-6.795a31.246,31.246,0,0,1,.524-8.625c.088-.485.18-.933.272-1.343a43.593,43.593,0,0,0,.655-6.877c-.452-.229-1.176-.54-1.909-.838-.458-.187-.92-.367-1.31-.524-.714-.278-1.244-.475-1.244-.475l-2.947.452-.583.18-.959.291-.655.2s-.452,2.918-.884,4.689a7.031,7.031,0,0,1-.344,1.113c-.491,1.071-.37,1.588.147,3.006a4.457,4.457,0,0,1,.246,1.081c0,.095.02.193.026.295a20.113,20.113,0,0,1-.547,4.692c-.455,2.345-1.562,6.877-1.942,8.409A.9.9,0,0,0,363.918,270.339Z" transform="translate(-253.805 -192.37)" fill="#fe7062"/>
      <path id="Path_5755" data-name="Path 5755" d="M371.1,278.59c0,.095.02.193.026.295a11.261,11.261,0,0,0,6.9,2.947.1.1,0,1,0,0-.206C375.085,281.619,372.518,279.821,371.1,278.59Z" transform="translate(-258.875 -214.96)" fill="#e51c4a"/>
      <path id="Path_5756" data-name="Path 5756" d="M379.7,260.431a4.628,4.628,0,0,0,2.882-1.637.1.1,0,0,0-.157-.134c-.016,0-1.434,1.637-2.852,1.555a.1.1,0,0,0-.111.095.108.108,0,0,0,.1.111Z" transform="translate(-264.497 -201.54)" fill="#e51c4a"/>
      <path id="Path_5757" data-name="Path 5757" d="M379.193,294.388a.1.1,0,0,0,0-.206c-3.8-.439-5.367-7-5.383-7.073a.1.1,0,0,0-.124-.075.108.108,0,0,0-.079.124c.065.275,1.637,6.775,5.567,7.227Z" transform="translate(-260.559 -220.637)" fill="#e51c4a"/>
      <path id="Path_5758" data-name="Path 5758" d="M380.98,296.493a.111.111,0,0,0,.088-.049.1.1,0,0,0-.036-.144,4.912,4.912,0,0,1-2.322-3.094.1.1,0,0,0-.118-.088.1.1,0,0,0-.085.118,5.022,5.022,0,0,0,2.417,3.242A.111.111,0,0,0,380.98,296.493Z" transform="translate(-263.856 -224.729)" fill="#e51c4a"/>
      <path id="Path_5759" data-name="Path 5759" d="M374.979,219.946h3.851a2.747,2.747,0,0,0,2.734-3.032.483.483,0,0,0,0-.065c-.108-1.143-.275-2.724-.275-2.724a4.5,4.5,0,0,0-3.907-3.828c-4.228-.567-5.429,2.993-5.413,4.945a2.743,2.743,0,0,0,.02.4h0a14.515,14.515,0,0,0,.38,2.161,2.672,2.672,0,0,0,2.61,2.145Z" transform="translate(-259.459 -168.989)" fill="#29245d"/>
      <path id="Path_5760" data-name="Path 5760" d="M373.644,226.707s-.629-.792-1.094-.134.193,2.593,1.333,2.122Z" transform="translate(-259.749 -179.801)" fill="#ff877c"/>
      <path id="Path_5761" data-name="Path 5761" d="M374.509,232.75a.21.21,0,1,1-.206-.21.206.206,0,0,1,.206.21Z" transform="translate(-260.886 -183.99)" fill="#fff"/>
      <path id="Path_5762" data-name="Path 5762" d="M374.134,229.522a.092.092,0,0,1-.092-.069,1.444,1.444,0,0,0-.838-.842.092.092,0,0,1-.056-.118.1.1,0,0,1,.124-.056,1.637,1.637,0,0,1,.953.982.088.088,0,0,1-.065.115Z" transform="translate(-260.249 -181.227)" fill="#f25b56"/>
      <path id="Path_5763" data-name="Path 5763" d="M373.96,229.962a.1.1,0,0,1-.052-.016.085.085,0,0,1-.029-.124.825.825,0,0,1,.363-.278.1.1,0,0,1,.124.046.088.088,0,0,1-.046.121.655.655,0,0,0-.278.21A.108.108,0,0,1,373.96,229.962Z" transform="translate(-260.732 -181.969)" fill="#f25b56"/>
      <path id="Path_5764" data-name="Path 5764" d="M384.584,239.92v2.138a4.416,4.416,0,0,1-1.965,1.169c-.861.075-1.159-.943-1.159-.943v-2.214Z" transform="translate(-265.842 -188.953)" fill="#fda893"/>
      <path id="Path_5765" data-name="Path 5765" d="M384.577,240.63v.95c-.58.655-1.6.868-3.127.655V240.79Z" transform="translate(-265.835 -189.431)" fill="#ff877c"/>
      <path id="Path_5766" data-name="Path 5766" d="M374.8,220.647c.029.229.062.462.1.694.275,1.549,1.254,3.219,2.489,3.5,2.669.606,3.779-1.49,4.2-3.036.046-.174-.043-.37,0-.573a15.931,15.931,0,0,0,.327-1.569c.029-.373.052-.743.065-1.077a2.181,2.181,0,0,0-1.352-2.142,5.468,5.468,0,0,0-4.853.16,2.214,2.214,0,0,0-1.077,1.863A17.225,17.225,0,0,0,374.8,220.647Z" transform="translate(-261.296 -172.834)" fill="#fda893"/>
      <path id="Path_5767" data-name="Path 5767" d="M383.722,230.422a.1.1,0,0,0,.016-.2l-.357-.062.491-1.31a.1.1,0,0,0-.059-.131.1.1,0,0,0-.134.059l-.58,1.542.606.1Z" transform="translate(-266.945 -181.414)" fill="#ff877c"/>
      <path id="Path_5768" data-name="Path 5768" d="M382.1,217.632c0,.327-.039.714-.072,1.1-.174.1-.6.151-.612.429-.046.734-.082,1.238-.236,1.2-.259-.075-.422-.966-.124-1.542a2.477,2.477,0,0,0-1.212-.763,18.791,18.791,0,0,1-2.446-1.192,2.266,2.266,0,0,1-.655-.6,2.214,2.214,0,0,1-1.081,1.107,1.671,1.671,0,0,0-.851,1.49l-.03.193a1.88,1.88,0,0,1-.183.655c-.023.043-.046.049-.072.029-.029-.262-.052-.517-.069-.763v-.2c-.023-.465-.026-.894-.02-1.257a2.233,2.233,0,0,1,1.133-1.9,5.969,5.969,0,0,1,5.118-.164A2.223,2.223,0,0,1,382.1,217.632Z" transform="translate(-261.115 -172.16)" fill="#29245d"/>
      <path id="Path_5769" data-name="Path 5769" d="M379.917,227.816c0,.226-.118.413-.265.413s-.262-.187-.262-.413.118-.416.262-.416S379.917,227.6,379.917,227.816Z" transform="translate(-264.45 -180.533)" fill="#29245d"/>
      <path id="Path_5770" data-name="Path 5770" d="M388.917,227.816c0,.226-.118.413-.262.413s-.265-.187-.265-.413.118-.416.265-.416S388.917,227.6,388.917,227.816Z" transform="translate(-270.503 -180.533)" fill="#29245d"/>
      <path id="Path_5771" data-name="Path 5771" d="M377.5,225.159a5.158,5.158,0,0,1,1.094-.092c.118,0,.216.095.2.19h0a.17.17,0,0,1-.193.118,5.831,5.831,0,0,0-1.5.095.2.2,0,0,1,.082-.164A.655.655,0,0,1,377.5,225.159Z" transform="translate(-262.91 -178.963)" fill="#29245d"/>
      <path id="Path_5772" data-name="Path 5772" d="M388.56,225.287a4.912,4.912,0,0,0-1.09-.108c-.121,0-.219.092-.2.187h0a.17.17,0,0,0,.19.124,5.7,5.7,0,0,1,1.5.115.183.183,0,0,0-.075-.164A.615.615,0,0,0,388.56,225.287Z" transform="translate(-269.746 -179.039)" fill="#29245d"/>
      <path id="Path_5773" data-name="Path 5773" d="M381.48,235.83a1.179,1.179,0,0,0,1.192,1.032,1.136,1.136,0,0,0,1.189-1.032Z" transform="translate(-265.856 -186.202)" fill="#fff"/>
      <path id="Path_5774" data-name="Path 5774" d="M384.013,240.214a1,1,0,0,1-.475-.141.1.1,0,0,1,.1-.174h0a.8.8,0,0,0,.37.111.845.845,0,0,0,.393-.111.1.1,0,0,1,.138.036.1.1,0,0,1-.033.138,1.048,1.048,0,0,1-.5.141Z" transform="translate(-267.21 -188.93)" fill="#ff877c"/>
      <path id="Path_5775" data-name="Path 5775" d="M395.682,226.524s.727-.887,1.159-.249-.18,2.521-1.231,2.063Z" transform="translate(-275.359 -179.621)" fill="#fda893"/>
      <path id="Path_5776" data-name="Path 5776" d="M396.769,232.75a.21.21,0,1,1-.21-.21A.21.21,0,0,1,396.769,232.75Z" transform="translate(-275.856 -183.99)" fill="#fff"/>
      <path id="Path_5777" data-name="Path 5777" d="M396.127,229.1a.088.088,0,0,0,.085-.065,1.385,1.385,0,0,1,.773-.819.085.085,0,0,0,.049-.115.088.088,0,0,0-.115-.052,1.533,1.533,0,0,0-.878.937.088.088,0,0,0,.059.111Z" transform="translate(-275.646 -180.965)" fill="#ff877c"/>
      <path id="Path_5778" data-name="Path 5778" d="M397.387,229.559a.078.078,0,0,0,.046,0,.085.085,0,0,0,.026-.121.819.819,0,0,0-.327-.272.092.092,0,0,0-.118.046.088.088,0,0,0,.046.118.7.7,0,0,1,.259.2.092.092,0,0,0,.069.026Z" transform="translate(-276.297 -181.716)" fill="#ff877c"/>
      <circle id="Ellipse_496" data-name="Ellipse 496" cx="3.078" cy="3.078" r="3.078" transform="translate(115.422 44.617) rotate(-80.76)" fill="#29245d"/>
      <path id="Path_5779" data-name="Path 5779" d="M386.05,227.115v.177a1.319,1.319,0,0,0,1.32,1.326h.043a1.189,1.189,0,0,0,.822-.363,1.31,1.31,0,0,0,.383-.93v-.21a.471.471,0,0,0-.033-.164.452.452,0,0,0-.1-.164.462.462,0,0,0-.327-.138h-1.637a.459.459,0,0,0-.419.265.416.416,0,0,0-.046.19Zm.193,0a.272.272,0,0,1,.272-.272h1.637a.272.272,0,0,1,.272.272v.21a1.1,1.1,0,0,1-.327.792,1.012,1.012,0,0,1-.691.308h-.039a1.118,1.118,0,0,1-1.12-1.133Z" transform="translate(-268.929 -180.029)" fill="#fff"/>
      <path id="Path_5780" data-name="Path 5780" d="M375.994,227.081v.177a1.31,1.31,0,0,0,1.31,1.31h.043a1.182,1.182,0,0,0,.822-.363,1.31,1.31,0,0,0,.383-.93v-.216a.465.465,0,0,0-.465-.458h-1.637a.468.468,0,0,0-.449.327A.517.517,0,0,0,375.994,227.081Zm.193,0a.272.272,0,0,1,.272-.272H378.1a.272.272,0,0,1,.272.272v.21a1.1,1.1,0,0,1-.327.792,1,1,0,0,1-.691.308h-.039a1.118,1.118,0,0,1-1.12-1.133Z" transform="translate(-262.164 -179.995)" fill="#fff"/>
      <path id="Path_5781" data-name="Path 5781" d="M394.729,226.4a2.253,2.253,0,0,0-.982.219c-.043.02-.16.1-.167.1l.092.164s.131-.079.18-.1a1.988,1.988,0,0,1,.622-.177Z" transform="translate(-273.993 -179.86)" fill="#fff"/>
      <path id="Path_5782" data-name="Path 5782" d="M384.295,227.518l.066-.18a2.024,2.024,0,0,0-.583-.1,1.31,1.31,0,0,0-.527.1l.082.174a1.173,1.173,0,0,1,.445-.082,1.87,1.87,0,0,1,.517.085Z" transform="translate(-267.046 -180.425)" fill="#fff"/>
      <path id="Path_5783" data-name="Path 5783" d="M375.181,226.826,375.1,227a2.64,2.64,0,0,0-.278-.108,2.459,2.459,0,0,0-.327-.082v-.2a2.512,2.512,0,0,1,.367.088A2.56,2.56,0,0,1,375.181,226.826Z" transform="translate(-261.155 -180.002)" fill="#fff"/>
      <circle id="Ellipse_497" data-name="Ellipse 497" cx="9.915" cy="9.915" r="9.915" transform="translate(94.092 63.804) rotate(-45)" fill="#0172d0"/>
      <path id="Path_5784" data-name="Path 5784" d="M353.675,270.453a2.947,2.947,0,0,1-.865,2.092l-3.93,3.93-3.93-3.93a2.973,2.973,0,0,1,0-4.185c1.074-1.074,2.711-.878,3.93.937,1.221-1.814,2.859-2.011,3.93-.937A2.947,2.947,0,0,1,353.675,270.453Z" transform="translate(-240.71 -207.639)" fill="#fff"/>
      <path id="Path_5785" data-name="Path 5785" d="M356.964,300.677l-.4.2a.982.982,0,0,1-1.064-.131,5.3,5.3,0,0,0-.485-.373,2.376,2.376,0,0,0-1.238-.232c-.2.095.016.422.232.511a3.579,3.579,0,0,1,.756.344c.226.164-.6,1.146-.982,1.467s-1.244.472-1.14.864.7.157.7.157,0,.406.6.432a.485.485,0,0,0,.462.37.547.547,0,0,0,.573.344c.4-.075,1.66-.327,3.153-2.7Z" transform="translate(-246.455 -229.438)" fill="#fda893"/>
      <path id="Path_5786" data-name="Path 5786" d="M374.937,258.012a14.218,14.218,0,0,1-1.785,5.04s-1.451.865-3.671,2.335a30.359,30.359,0,0,1-3.622,1.942,3.184,3.184,0,0,1,.655,2,30.737,30.737,0,0,0,8.92-4.021c3.491-4.047,3.422-13.1,3.422-13.1s-.111-1.339-.835-1.68a3.546,3.546,0,0,0-1.965,2.259C375.546,254.522,374.937,258.012,374.937,258.012Z" transform="translate(-255.35 -196.089)" fill="#e2615a"/>
      <path id="Path_5787" data-name="Path 5787" d="M326.96,273.76a3.149,3.149,0,0,1,1.519.478c.373.39-1.192.517-1.192.517s1.889-.141,2.011.3-1.713.635-1.713.635,1.293.1,1.421.432-1.208.524-1.208.524,1.018.183,1.14.426-.982.537-1.575.481-.357-.822-.357-.822-.3-.655-.1-.914c0,0-.357-.563-.239-.927C326.665,274.9,326.23,273.953,326.96,273.76Z" transform="translate(-228.904 -211.712)" fill="#fda893"/>
      <path id="Path_5788" data-name="Path 5788" d="M301.984,434.844c0,.7-4.113,1.261-9.185,1.261s-9.169-.563-9.169-1.261,4.11-1.264,9.169-1.264S301.984,434.146,301.984,434.844Z" transform="translate(-200.047 -319.198)" fill="#d1e6ec"/>
      <circle id="Ellipse_498" data-name="Ellipse 498" cx="9.915" cy="9.915" r="9.915" transform="translate(82.075 96.64) rotate(-4.61)" fill="#fe7062"/>
      <path id="Path_5789" data-name="Path 5789" d="M298.526,402.9v-.124c-.036-1.228-.069-2.453-.1-3.681,0-.088-.029-.121-.115-.147L294.3,397.7a.242.242,0,0,1-.1-.056l.229-.082,3.821-1.392c.075-.026.092-.059.088-.138l-.108-3.959v-.1a.817.817,0,0,1,.079.085q1.31,1.582,2.62,3.167a.144.144,0,0,0,.19.052c1.189-.432,2.374-.855,3.563-1.284a.531.531,0,0,1,.157-.036l-.059.082q-1.172,1.6-2.354,3.189a.124.124,0,0,0,0,.183c.848,1.061,1.69,2.125,2.535,3.186l.069.1-.17-.046q-1.9-.54-3.805-1.087a.121.121,0,0,0-.154.056q-1.136,1.582-2.276,3.16Z" transform="translate(-207.156 -291.22)" fill="#fff"/>
    </g>
  </g>
</svg>
