<svg xmlns="http://www.w3.org/2000/svg" width="79" height="41.995" viewBox="0 0 79 41.995">
  <g id="bike" transform="translate(0 -0.078)">
    <path id="Path_5452" data-name="Path 5452" d="M342.434,25.721a.629.629,0,0,1-.627.627h-5.013a.629.629,0,0,1-.627-.627V20.7a.629.629,0,0,1,.627-.627h5.013a.629.629,0,0,1,.627.627Zm0,0" transform="translate(-283.492 -16.866)" fill="#545c66"/>
    <path id="Path_5453" data-name="Path 5453" d="M349.422,28.078a1.254,1.254,0,1,1-1.254,1.254A1.257,1.257,0,0,1,349.422,28.078Zm0,0" transform="translate(-293.611 -23.612)" fill="#656d78"/>
    <path id="Path_5454" data-name="Path 5454" d="M310.421,32.006a13.716,13.716,0,0,0,1.128,5.471c.118.271-.6.8-.6.8h-1.3v-.225l-5.492-12.31L314.181,15.71l-5.014-1.254-3.1-.777-.049-.05a10.416,10.416,0,0,0,3.147-4.187h6.268l5.172-7.922,1.1.4L321.7,5.681A13.948,13.948,0,0,1,328,17.9c0,.28-.393.679-.627.627a14.767,14.767,0,0,0-3.162-.313,13.772,13.772,0,0,0-5.34,1.066,14.085,14.085,0,0,0-2.218,1.191,13.743,13.743,0,0,0-6.231,11.532Zm0,0" transform="translate(-256.493 -1.215)" fill="#5c5df1"/>
    <path id="Path_5455" data-name="Path 5455" d="M344.789,228.7a.627.627,0,1,1-.627-.627A.626.626,0,0,1,344.789,228.7Zm0,0" transform="translate(-289.704 -192.273)" fill="#a0d468"/>
    <path id="Path_5456" data-name="Path 5456" d="M162.109,214.58a.627.627,0,1,1-.627-.627A.627.627,0,0,1,162.109,214.58Zm0,0" transform="translate(-135.65 -180.361)" fill="#e6e9ed"/>
    <path id="Path_5457" data-name="Path 5457" d="M425.234,190.1l-6.876-6.876a.627.627,0,0,1,.886-.886l6.876,6.876a.627.627,0,0,1-.886.886Zm0,0" transform="translate(-352.649 -153.549)" fill="#e6e9ed"/>
    <path id="Path_5458" data-name="Path 5458" d="M394.327,168.956l10.64-10.64a.627.627,0,0,1,.886.886l-10.64,10.64a.627.627,0,1,1-.886-.886Zm0,0" transform="translate(-332.383 -133.288)" fill="#e6e9ed"/>
    <path id="Path_5459" data-name="Path 5459" d="M50.988,57.332H44.717a.627.627,0,0,1,0-1.254h6.272a.627.627,0,1,1,0,1.254Zm0,0" transform="translate(-37.181 -47.225)" fill="#8cc152"/>
    <path id="Path_5460" data-name="Path 5460" d="M28.713,59.845a.626.626,0,0,1-.444-1.069l2.507-2.507a.626.626,0,1,1,.886.886l-2.507,2.507a.622.622,0,0,1-.442.183Zm0,0" transform="translate(-23.685 -47.232)" fill="#ed5565"/>
    <path id="Path_5461" data-name="Path 5461" d="M148.706,104.6a.607.607,0,0,1-.294-.075.626.626,0,0,1-.258-.848L153,94.618a.627.627,0,0,1,1.107.591l-4.842,9.057a.631.631,0,0,1-.555.332Zm0,0" transform="translate(-124.876 -79.446)" fill="#aab2bd"/>
    <path id="Path_5462" data-name="Path 5462" d="M47.905,163.905a.629.629,0,0,1-.888,0L35.495,152.381a.627.627,0,0,1,.888-.886l11.523,11.524A.625.625,0,0,1,47.905,163.905Zm0,0" transform="translate(-29.779 -127.536)" fill="#e6e9ed"/>
    <path id="Path_5463" data-name="Path 5463" d="M35.495,163.905a.628.628,0,0,1,0-.886l11.523-11.524a.628.628,0,0,1,.888.888L36.382,163.905A.627.627,0,0,1,35.495,163.905Zm0,0" transform="translate(-29.778 -127.536)" fill="#e6e9ed"/>
    <path id="Path_5464" data-name="Path 5464" d="M371.442,124.078a11.282,11.282,0,1,0,11.282,11.282A11.281,11.281,0,0,0,371.442,124.078Zm0,18.8a7.521,7.521,0,1,1,7.521-7.521A7.523,7.523,0,0,1,371.442,142.882Zm0,0" transform="translate(-303.724 -104.57)" fill="#656d78"/>
    <path id="Path_5465" data-name="Path 5465" d="M410.189,169.092a5.014,5.014,0,1,1-5.014-5.014A5.014,5.014,0,0,1,410.189,169.092Zm0,0" transform="translate(-337.456 -138.302)" fill="#ccd1d9"/>
    <path id="Path_5466" data-name="Path 5466" d="M11.909,116.078a11.909,11.909,0,1,0,11.909,11.909A11.91,11.91,0,0,0,11.909,116.078Zm0,20.057a8.148,8.148,0,1,1,8.148-8.148A8.149,8.149,0,0,1,11.909,136.135Zm0,0" transform="translate(0 -97.823)" fill="#656d78"/>
    <path id="Path_5467" data-name="Path 5467" d="M56.935,168.465a4.387,4.387,0,1,1-4.387-4.387A4.387,4.387,0,0,1,56.935,168.465Zm0,0" transform="translate(-40.614 -138.302)" fill="#ccd1d9"/>
    <path id="Path_5468" data-name="Path 5468" d="M67.921,181.958a1.88,1.88,0,1,1-1.88-1.88A1.88,1.88,0,0,1,67.921,181.958Zm0,0" transform="translate(-54.107 -151.795)" fill="#e6e9ed"/>
    <path id="Path_5469" data-name="Path 5469" d="M273.414,172.078a1.254,1.254,0,1,1-1.254,1.254A1.257,1.257,0,0,1,273.414,172.078Zm0,0" transform="translate(-229.514 -145.048)" fill="#e6e9ed"/>
    <path id="Path_5470" data-name="Path 5470" d="M237.414,144.078a1.254,1.254,0,1,1-1.254,1.254A1.257,1.257,0,0,1,237.414,144.078Zm0,0" transform="translate(-199.155 -121.436)" fill="#ccd1d9"/>
    <path id="Path_5471" data-name="Path 5471" d="M228.547,135.212a1.254,1.254,0,1,0-1.254,1.254A1.257,1.257,0,0,0,228.547,135.212Zm-1.254,3.134a3.134,3.134,0,1,1,3.134-3.134A3.136,3.136,0,0,1,227.294,138.346Zm0,0" transform="translate(-189.035 -111.316)" fill="#e6e9ed"/>
    <path id="Path_5472" data-name="Path 5472" d="M392.585,127.013a1.25,1.25,0,1,1-2.206,1.178l-5.091-9.577-1.366-2.544a13.932,13.932,0,0,1,2.218-1.191v.014l1.354,2.557Zm0,0" transform="translate(-323.763 -96.812)" fill="#e6e9ed"/>
    <path id="Path_5473" data-name="Path 5473" d="M166.217,198.2l-3.812-2.119-1.069,3.134s.1.745.384.921c1.071.669,3.717,2.213,5.7,2.213h6.268Zm0,0" transform="translate(-136.055 -165.288)" fill="#e6e9ed"/>
    <path id="Path_5474" data-name="Path 5474" d="M171.442,113.423l-7.5,7.548-3.786-2.533,5.847-5.508Zm0,0" transform="translate(-135.064 -95.168)" fill="#ccd1d9"/>
    <path id="Path_5475" data-name="Path 5475" d="M185.71,95.924a1.254,1.254,0,1,0-1.254-1.254A1.256,1.256,0,0,0,185.71,95.924Zm-8.775-5.641a3.134,3.134,0,1,0,3.134-3.134A3.136,3.136,0,0,0,176.935,90.283Zm1.254-8.148H180.7c5.215,0,8.562-1.6,10.643-3.334l.05.05,3.1.777,5.014,1.254L189.471,90.91l5.621,12.536H179.442l-7.47-4.149-3.812-2.119.714-2.117,1.793-.39h3.761l-3.734-2.481.1-.15,7.395-7.4Zm0,0" transform="translate(-141.81 -66.387)" fill="#ccd1d9"/>
    <path id="Path_5476" data-name="Path 5476" d="M228.7,26.979c5.178,1.141,6.268,3.761,6.268,3.761a10.424,10.424,0,0,1-3.147,4.187c-2.08,1.73-5.427,3.334-10.643,3.334h-2.507l-2.507-5.014S221.688,25.424,228.7,26.979Zm0,0" transform="translate(-182.289 -22.513)" fill="#656d78"/>
    <path id="Path_5477" data-name="Path 5477" d="M62.7,48.019c-4.168-.965-11.055-7.177-13.933-9.9l.384-1.113L61.2,38.114c5.428,5.478,13.789,3.761,13.789,3.761L77.5,46.889V49.4l-3.46-.313-6.556-.6-3.773-.34a5,5,0,0,1-1.015-.124Zm0,0" transform="translate(-41.121 -31.143)" fill="#5c5df1"/>
    <path id="Path_5478" data-name="Path 5478" d="M265.719,217.332H260.7a.627.627,0,1,1,0-1.254h5.014a.627.627,0,1,1,0,1.254Zm0,0" transform="translate(-219.325 -182.153)" fill="#aab2bd"/>
    <path id="Path_5479" data-name="Path 5479" d="M423.214,53.093a.625.625,0,0,1-.521-.279l-2.507-3.761a.626.626,0,0,1,1.042-.695l2.507,3.761a.626.626,0,0,1-.174.869A.619.619,0,0,1,423.214,53.093Zm0,0" transform="translate(-354.255 -40.479)" fill="#e6e9ed"/>
    <g id="Group_4052" data-name="Group 4052" transform="translate(30.725 18.883)">
      <path id="Path_5480" data-name="Path 5480" d="M292.7,210.585a.627.627,0,1,1,0-1.254.628.628,0,0,0,.627-.627.627.627,0,1,1,1.254,0A1.882,1.882,0,0,1,292.7,210.585Zm0,0" transform="translate(-277.035 -194.29)" fill="#aab2bd"/>
      <path id="Path_5481" data-name="Path 5481" d="M300.7,195.839a.627.627,0,0,1-.627-.627V192.7a.627.627,0,0,1,1.254,0v2.507A.626.626,0,0,1,300.7,195.839Zm0,0" transform="translate(-283.782 -180.797)" fill="#aab2bd"/>
      <path id="Path_5482" data-name="Path 5482" d="M276.7,139.845a.626.626,0,0,1-.444-1.069l2.507-2.507a.627.627,0,0,1,.886.886l-2.507,2.507A.622.622,0,0,1,276.7,139.845Zm0,0" transform="translate(-263.541 -133.579)" fill="#aab2bd"/>
      <path id="Path_5483" data-name="Path 5483" d="M276.7,123.845a.626.626,0,0,1-.444-1.069l2.507-2.507a.627.627,0,0,1,.886.886l-2.507,2.507A.622.622,0,0,1,276.7,123.845Zm0,0" transform="translate(-263.541 -120.086)" fill="#aab2bd"/>
      <path id="Path_5484" data-name="Path 5484" d="M220.275,183.6a.625.625,0,0,1-.608-.475L218.1,176.86a.627.627,0,0,1,1.216-.3l1.567,6.268a.627.627,0,0,1-.457.76A.644.644,0,0,1,220.275,183.6Zm0,0" transform="translate(-214.634 -167.307)" fill="#aab2bd"/>
      <path id="Path_5485" data-name="Path 5485" d="M237.961,190.351a.625.625,0,0,1-.608-.475l-1.254-5.014a.627.627,0,1,1,1.216-.3l1.254,5.014a.627.627,0,0,1-.457.76A.645.645,0,0,1,237.961,190.351Zm0,0" transform="translate(-229.813 -174.056)" fill="#aab2bd"/>
      <path id="Path_5486" data-name="Path 5486" d="M197.958,193.332H196.7a.627.627,0,1,1,0-1.254h1.254a.627.627,0,0,1,0,1.254Zm0,0" transform="translate(-196.078 -180.797)" fill="#aab2bd"/>
    </g>
    <path id="Path_5487" data-name="Path 5487" d="M71.756,156.853l-.818-3.572,13.981-5.2,7.521,5.014Zm0,0" transform="translate(-59.822 -124.809)" fill="#e6e9ed"/>
    <path id="Path_5488" data-name="Path 5488" d="M48.468,37.642a.627.627,0,1,1-.627-.627A.626.626,0,0,1,48.468,37.642Zm0,0" transform="translate(-39.816 -31.15)" fill="#a0d468"/>
    <path id="Path_5489" data-name="Path 5489" d="M409.461.7a.627.627,0,1,1-.627-.627A.626.626,0,0,1,409.461.7Zm0,0" transform="translate(-344.242 0)" fill="#a0d468"/>
    <path id="Path_5490" data-name="Path 5490" d="M449.59,102.7a.627.627,0,1,1-.627-.627A.626.626,0,0,1,449.59,102.7Zm0,0" transform="translate(-378.083 -86.017)" fill="#a0d468"/>
  </g>
</svg>
