<svg id="car-1" xmlns="http://www.w3.org/2000/svg" width="81.906" height="44.5" viewBox="0 0 81.906 44.5">
  <path id="Path_5296" data-name="Path 5296" d="M86.64,201.29H28.645a.645.645,0,1,1,0-1.29H86.64a.645.645,0,1,1,0,1.29Zm0,0" transform="translate(-23.486 -167.754)" fill="#5c5df1"/>
  <path id="Path_5297" data-name="Path 5297" d="M102.167,21.283A8.388,8.388,0,0,0,93.783,12.9H80.029l-5-12.5a.648.648,0,0,0-.6-.4H33.159a.647.647,0,0,0-.645.645c0,.016.016.048.016.064A3.865,3.865,0,0,0,29.29,4.514V29.022h-.645L28,29.667v3.225h6.449l1.451.242a8.4,8.4,0,0,1,16.446,0l1.451-.242H90.413l4.288-2.58h7.465ZM33.159,4.514H53.8v9.029H33.159Zm24.507,9.029V4.514H71.855l2.58,9.029Zm0,0" transform="translate(-23.485)" fill="#5c5df1"/>
  <path id="Path_5298" data-name="Path 5298" d="M409.4,167.886a1.294,1.294,0,0,0,1.29,1.29h13.318a1.294,1.294,0,0,0,1.29-1.29v-2.6a1.294,1.294,0,0,0-1.29-1.29H410.688a1.294,1.294,0,0,0-1.29,1.29Zm0,0" transform="translate(-343.39 -137.558)" fill="#545c66"/>
  <path id="Path_5299" data-name="Path 5299" d="M4.934,62.058H1.29A1.294,1.294,0,0,1,0,60.768V45.29A1.284,1.284,0,0,1,1.29,44h3.87V62.058Zm0,0" transform="translate(0 -36.906)" fill="#656d78"/>
  <path id="Path_5300" data-name="Path 5300" d="M226.188,28l2.58,9.029H212V28Zm0,0" transform="translate(-177.819 -23.486)" fill="#5d9cec"/>
  <path id="Path_5301" data-name="Path 5301" d="M60,28H80.638v9.029H60Zm0,0" transform="translate(-50.326 -23.486)" fill="#5d9cec"/>
  <path id="Path_5302" data-name="Path 5302" d="M106.461,37.029,108.88,28h-2.66L103.8,37.029Zm0,0" transform="translate(-87.065 -23.486)" fill="#87bcf4"/>
  <path id="Path_5303" data-name="Path 5303" d="M125.162,37.029,127.58,28h-.661L124.5,37.029Zm0,0" transform="translate(-104.427 -23.486)" fill="#87bcf4"/>
  <path id="Path_5304" data-name="Path 5304" d="M240.1,37.029h2.676L245.2,28H242.52Zm0,0" transform="translate(-201.39 -23.486)" fill="#87bcf4"/>
  <path id="Path_5305" data-name="Path 5305" d="M260.8,37.029h.661L263.88,28h-.661Zm0,0" transform="translate(-218.752 -23.486)" fill="#87bcf4"/>
  <path id="Path_5306" data-name="Path 5306" d="M212.514,105.29h-3.87a.645.645,0,1,1,0-1.29h3.87a.645.645,0,0,1,0,1.29Zm0,0" transform="translate(-174.464 -87.232)" fill="#e6e9ed"/>
  <path id="Path_5307" data-name="Path 5307" d="M32.645,49.8A.647.647,0,0,1,32,49.152V24.645a.645.645,0,1,1,1.29,0V49.152A.647.647,0,0,1,32.645,49.8Zm0,0" transform="translate(-26.841 -20.13)" fill="#5c5df1"/>
  <path id="Path_5308" data-name="Path 5308" d="M8.646,134.5a.636.636,0,0,1-.452-.193.643.643,0,0,1,0-.919l1.29-1.29a.65.65,0,0,1,.919.919l-1.29,1.29A.7.7,0,0,1,8.646,134.5Zm0,0" transform="translate(-6.711 -110.634)" fill="#545c66"/>
  <path id="Path_5309" data-name="Path 5309" d="M8.646,118.5a.636.636,0,0,1-.452-.193.643.643,0,0,1,0-.919l1.29-1.29a.65.65,0,0,1,.919.919l-1.29,1.29A.7.7,0,0,1,8.646,118.5Zm0,0" transform="translate(-6.711 -97.214)" fill="#545c66"/>
  <path id="Path_5310" data-name="Path 5310" d="M8.646,102.5a.637.637,0,0,1-.452-.193.643.643,0,0,1,0-.919l1.29-1.29a.65.65,0,0,1,.919.919l-1.29,1.29A.7.7,0,0,1,8.646,102.5Zm0,0" transform="translate(-6.711 -83.793)" fill="#545c66"/>
  <path id="Path_5311" data-name="Path 5311" d="M8.646,86.5a.636.636,0,0,1-.452-.193.643.643,0,0,1,0-.919l1.29-1.29a.65.65,0,0,1,.919.919L9.113,86.3A.7.7,0,0,1,8.646,86.5Zm0,0" transform="translate(-6.711 -70.373)" fill="#545c66"/>
  <path id="Path_5312" data-name="Path 5312" d="M8.646,70.5a.637.637,0,0,1-.452-.193.643.643,0,0,1,0-.919l1.29-1.29a.65.65,0,1,1,.919.919L9.113,70.3A.7.7,0,0,1,8.646,70.5Zm0,0" transform="translate(-6.711 -56.953)" fill="#545c66"/>
  <path id="Path_5313" data-name="Path 5313" d="M8.646,54.5a.636.636,0,0,1-.452-.193.643.643,0,0,1,0-.919l1.29-1.29a.65.65,0,1,1,.919.919L9.113,54.3A.7.7,0,0,1,8.646,54.5Zm0,0" transform="translate(-6.711 -43.532)" fill="#545c66"/>
  <path id="Path_5314" data-name="Path 5314" d="M77.283,34.319H56.645A.647.647,0,0,1,56,33.674V24.645A.647.647,0,0,1,56.645,24H77.283a.647.647,0,0,1,.645.645v9.029A.647.647,0,0,1,77.283,34.319ZM57.29,33.029H76.638V25.29H57.29Zm0,0" transform="translate(-46.971 -20.13)" fill="#5c5df1"/>
  <path id="Path_5315" data-name="Path 5315" d="M225.445,34.319h-16.8a.647.647,0,0,1-.645-.645V24.645a.647.647,0,0,1,.645-.645h14.188a.625.625,0,0,1,.613.467l2.531,8.868a.6.6,0,0,1,.1.339A.624.624,0,0,1,225.445,34.319Zm-16.155-1.29h15.269l-2.209-7.739H209.29Zm0,0" transform="translate(-174.464 -20.13)" fill="#5c5df1"/>
  <path id="Path_5316" data-name="Path 5316" d="M32.645,5.159A.647.647,0,0,1,32,4.514,4.528,4.528,0,0,1,36.514,0a.645.645,0,0,1,0,1.29A3.234,3.234,0,0,0,33.29,4.514.647.647,0,0,1,32.645,5.159Zm0,0" transform="translate(-26.841)" fill="#5c5df1"/>
  <path id="Path_5317" data-name="Path 5317" d="M80.655,146.364a1.277,1.277,0,0,1-1.08-.581l-2.193-3.289H64.58l-2.193,3.289a1.29,1.29,0,1,1-2.145-1.435l2.58-3.87A1.317,1.317,0,0,1,63.9,139.9H78.091a1.277,1.277,0,0,1,1.08.581l2.58,3.87a1.281,1.281,0,0,1-.355,1.79,1.325,1.325,0,0,1-.742.225Zm0,0" transform="translate(-50.343 -117.342)" fill="#e6e9ed"/>
  <path id="Path_5318" data-name="Path 5318" d="M363.263,167.273a9.037,9.037,0,1,1-2.064,5.756,9.581,9.581,0,0,1,.178-1.822A9.21,9.21,0,0,1,363.263,167.273Zm0,0" transform="translate(-302.962 -137.558)" fill="#656d78"/>
  <path id="Path_5319" data-name="Path 5319" d="M398.228,196.514A4.514,4.514,0,1,1,393.713,192,4.514,4.514,0,0,1,398.228,196.514Zm0,0" transform="translate(-326.448 -161.044)" fill="#ccd1d9"/>
  <path id="Path_5320" data-name="Path 5320" d="M411.779,213.29a1.29,1.29,0,1,1-1.29-1.29A1.29,1.29,0,0,1,411.779,213.29Zm0,0" transform="translate(-343.223 -177.819)" fill="#aab2bd"/>
  <g id="Group_4045" data-name="Group 4045" transform="translate(58.249 26.442)">
    <path id="Path_5321" data-name="Path 5321" d="M411.9,164.049l1.048,1.048a.644.644,0,1,0,.9-.919l-.129-.129q-.484-.048-.967-.048A7.416,7.416,0,0,0,411.9,164.049Zm0,0" transform="translate(-403.736 -164)" fill="#545c66"/>
    <path id="Path_5322" data-name="Path 5322" d="M410.313,268.194a.65.65,0,1,0-.92.919l.129.129q.484.048.967.049a7.92,7.92,0,0,0,.871-.049Zm0,0" transform="translate(-401.473 -251.233)" fill="#545c66"/>
    <path id="Path_5323" data-name="Path 5323" d="M384.8,169.7l1.435.387a.615.615,0,0,0,.484-.065.738.738,0,0,0,.307-.387.648.648,0,0,0-.452-.79l-.178-.048q-.436.194-.87.435A7.886,7.886,0,0,0,384.8,169.7Zm0,0" transform="translate(-381.007 -168.026)" fill="#545c66"/>
    <path id="Path_5324" data-name="Path 5324" d="M436.567,263.077a.643.643,0,1,0-.339,1.241l.178.048q.435-.194.87-.435a7.879,7.879,0,0,0,.726-.467Zm0,0" transform="translate(-423.744 -247.082)" fill="#545c66"/>
    <path id="Path_5325" data-name="Path 5325" d="M366.3,188.206l1.435-.387a.622.622,0,0,0,.387-.306.634.634,0,0,0,.064-.484.648.648,0,0,0-.79-.452l-.178.048a8.786,8.786,0,0,0-.532.806C366.543,187.69,366.43,187.947,366.3,188.206Zm0,0" transform="translate(-365.49 -182.917)" fill="#545c66"/>
    <path id="Path_5326" data-name="Path 5326" d="M456.728,243.587a.643.643,0,1,0,.339,1.241l.177-.048a8.642,8.642,0,0,0,.532-.806c.146-.258.274-.516.4-.774Zm0,0" transform="translate(-440.939 -230.43)" fill="#545c66"/>
    <path id="Path_5327" data-name="Path 5327" d="M361.309,214.207l1.048-1.048a.624.624,0,0,0,0-.9.653.653,0,0,0-.9,0l-.129.129a9.569,9.569,0,0,0-.048.967A7.312,7.312,0,0,0,361.309,214.207Zm0,0" transform="translate(-361.273 -204.323)" fill="#545c66"/>
    <path id="Path_5328" data-name="Path 5328" d="M465.393,215.747a.65.65,0,1,0,.92.919l.128-.128a9.569,9.569,0,0,0,.048-.967,7.765,7.765,0,0,0-.048-.871Zm0,0" transform="translate(-448.443 -206.525)" fill="#545c66"/>
    <path id="Path_5329" data-name="Path 5329" d="M367,240.8l.387-1.435a.617.617,0,0,0-.065-.484.668.668,0,0,0-.387-.307.648.648,0,0,0-.79.452l-.048.178q.193.435.435.87A6.175,6.175,0,0,0,367,240.8Zm0,0" transform="translate(-365.323 -226.533)" fill="#545c66"/>
    <path id="Path_5330" data-name="Path 5330" d="M460.276,188.934a.644.644,0,0,0,1.242.339l.048-.178q-.193-.435-.435-.87a7.881,7.881,0,0,0-.467-.726Zm0,0" transform="translate(-444.294 -183.711)" fill="#545c66"/>
    <path id="Path_5331" data-name="Path 5331" d="M385.4,260.967l-.387-1.435a.621.621,0,0,0-.307-.387.634.634,0,0,0-.484-.065.649.649,0,0,0-.452.79l.049.193c.258.177.532.355.806.532C384.889,260.725,385.147,260.854,385.4,260.967Zm0,0" transform="translate(-380.128 -243.732)" fill="#545c66"/>
    <path id="Path_5332" data-name="Path 5332" d="M440.786,170.451a.643.643,0,1,0,1.241-.339l-.048-.177a8.689,8.689,0,0,0-.806-.532c-.258-.145-.516-.274-.774-.4Zm0,0" transform="translate(-427.641 -168.194)" fill="#545c66"/>
  </g>
  <path id="Path_5333" data-name="Path 5333" d="M414.043,197.935a.647.647,0,0,1-.645-.645v-.645a.645.645,0,1,1,1.29,0v.645A.647.647,0,0,1,414.043,197.935Zm0,0" transform="translate(-346.745 -164.399)" fill="#aab2bd"/>
  <path id="Path_5334" data-name="Path 5334" d="M413.844,233.935a.647.647,0,0,1-.645-.645v-.645a.645.645,0,1,1,1.29,0v.645A.647.647,0,0,1,413.844,233.935Zm0,0" transform="translate(-346.578 -194.594)" fill="#aab2bd"/>
  <path id="Path_5335" data-name="Path 5335" d="M400.3,203.53a.694.694,0,0,1-.452-.178l-.468-.452a.65.65,0,0,1,.9-.935l.467.452a.657.657,0,0,1,.016.919A.673.673,0,0,1,400.3,203.53Zm0,0" transform="translate(-334.826 -169.252)" fill="#aab2bd"/>
  <path id="Path_5336" data-name="Path 5336" d="M425.6,229.03a.691.691,0,0,1-.451-.178l-.468-.452a.65.65,0,0,1,.9-.935l.467.452a.657.657,0,0,1,.016.919A.674.674,0,0,1,425.6,229.03Zm0,0" transform="translate(-356.047 -190.64)" fill="#aab2bd"/>
  <path id="Path_5337" data-name="Path 5337" d="M394.688,217.29h-.645a.645.645,0,1,1,0-1.29h.645a.645.645,0,1,1,0,1.29Zm0,0" transform="translate(-329.97 -181.174)" fill="#aab2bd"/>
  <path id="Path_5338" data-name="Path 5338" d="M430.688,217.29h-.645a.645.645,0,1,1,0-1.29h.645a.645.645,0,1,1,0,1.29Zm0,0" transform="translate(-360.165 -181.174)" fill="#aab2bd"/>
  <path id="Path_5339" data-name="Path 5339" d="M399.845,228.989a.611.611,0,0,1-.452-.194.643.643,0,0,1,0-.919l.452-.452a.657.657,0,0,1,.919,0,.643.643,0,0,1,0,.92l-.451.451A.7.7,0,0,1,399.845,228.989Zm0,0" transform="translate(-334.836 -190.599)" fill="#aab2bd"/>
  <path id="Path_5340" data-name="Path 5340" d="M425.234,203.53a.674.674,0,0,1-.468-.194.657.657,0,0,1,.016-.919l.467-.452a.65.65,0,0,1,.9.935l-.468.452A.617.617,0,0,1,425.234,203.53Zm0,0" transform="translate(-356.13 -169.252)" fill="#aab2bd"/>
  <path id="Path_5341" data-name="Path 5341" d="M73.665,167.273a9.037,9.037,0,1,1-2.063,5.756,9.58,9.58,0,0,1,.177-1.822,9.217,9.217,0,0,1,1.886-3.934Zm0,0" transform="translate(-60.057 -137.558)" fill="#656d78"/>
  <path id="Path_5342" data-name="Path 5342" d="M108.631,196.514A4.514,4.514,0,1,1,104.116,192,4.515,4.515,0,0,1,108.631,196.514Zm0,0" transform="translate(-83.543 -161.044)" fill="#ccd1d9"/>
  <path id="Path_5343" data-name="Path 5343" d="M122.182,213.29a1.29,1.29,0,1,1-1.29-1.29A1.29,1.29,0,0,1,122.182,213.29Zm0,0" transform="translate(-100.318 -177.819)" fill="#aab2bd"/>
  <path id="Path_5344" data-name="Path 5344" d="M122.3,164.049l1.048,1.048a.644.644,0,0,0,.9-.919l-.128-.129q-.484-.048-.967-.048A7.408,7.408,0,0,0,122.3,164.049Zm0,0" transform="translate(-102.582 -137.558)" fill="#545c66"/>
  <path id="Path_5345" data-name="Path 5345" d="M120.613,268.194a.65.65,0,1,0-.919.919l.129.129q.484.048.967.049a7.9,7.9,0,0,0,.87-.049Zm0,0" transform="translate(-100.233 -224.79)" fill="#545c66"/>
  <path id="Path_5346" data-name="Path 5346" d="M95.1,169.7l1.435.387a.615.615,0,0,0,.484-.065.734.734,0,0,0,.306-.387.647.647,0,0,0-.451-.79L96.7,168.8q-.436.194-.87.435C95.569,169.38,95.343,169.542,95.1,169.7Zm0,0" transform="translate(-79.768 -141.584)" fill="#545c66"/>
  <path id="Path_5347" data-name="Path 5347" d="M146.967,263.077a.643.643,0,0,0-.338,1.241l.177.048q.436-.194.871-.435a8.058,8.058,0,0,0,.726-.467Zm0,0" transform="translate(-122.589 -220.64)" fill="#545c66"/>
  <path id="Path_5348" data-name="Path 5348" d="M76.7,188.206l1.435-.387a.622.622,0,0,0,.387-.306.634.634,0,0,0,.064-.484.647.647,0,0,0-.79-.452l-.178.048a8.77,8.77,0,0,0-.532.806A8.53,8.53,0,0,0,76.7,188.206Zm0,0" transform="translate(-64.333 -156.475)" fill="#545c66"/>
  <path id="Path_5349" data-name="Path 5349" d="M167.129,243.587a.643.643,0,0,0,.338,1.241l.178-.048a8.769,8.769,0,0,0,.532-.806c.145-.258.274-.516.4-.774Zm0,0" transform="translate(-139.784 -203.988)" fill="#545c66"/>
  <path id="Path_5350" data-name="Path 5350" d="M71.7,214.207l1.048-1.048a.623.623,0,0,0,0-.9.652.652,0,0,0-.9,0l-.129.129q-.048.484-.048.967A5.041,5.041,0,0,0,71.7,214.207Zm0,0" transform="translate(-60.107 -177.881)" fill="#545c66"/>
  <path id="Path_5351" data-name="Path 5351" d="M175.793,215.747a.65.65,0,0,0,.919.919l.129-.128q.048-.484.048-.967a7.916,7.916,0,0,0-.048-.871Zm0,0" transform="translate(-147.288 -180.083)" fill="#545c66"/>
  <path id="Path_5352" data-name="Path 5352" d="M77.4,240.8l.387-1.435a.614.614,0,0,0-.064-.484.669.669,0,0,0-.387-.307.647.647,0,0,0-.79.452l-.048.178q.194.435.435.87A6.1,6.1,0,0,0,77.4,240.8Zm0,0" transform="translate(-64.166 -200.091)" fill="#545c66"/>
  <path id="Path_5353" data-name="Path 5353" d="M170.677,188.934a.643.643,0,1,0,1.241.339l.049-.178q-.194-.435-.435-.87a8.024,8.024,0,0,0-.468-.726Zm0,0" transform="translate(-143.139 -157.269)" fill="#545c66"/>
  <path id="Path_5354" data-name="Path 5354" d="M95.8,260.967l-.387-1.435a.622.622,0,0,0-.306-.387.635.635,0,0,0-.484-.065.648.648,0,0,0-.452.79l.049.193c.258.177.532.355.806.532C95.289,260.725,95.547,260.854,95.8,260.967Zm0,0" transform="translate(-78.973 -217.29)" fill="#545c66"/>
  <path id="Path_5355" data-name="Path 5355" d="M151.187,170.451a.643.643,0,1,0,1.241-.339l-.048-.177a8.764,8.764,0,0,0-.806-.532c-.258-.145-.516-.274-.774-.4Zm0,0" transform="translate(-126.487 -141.752)" fill="#545c66"/>
  <path id="Path_5356" data-name="Path 5356" d="M124.344,197.935a.647.647,0,0,1-.645-.645v-.645a.645.645,0,1,1,1.29,0v.645A.647.647,0,0,1,124.344,197.935Zm0,0" transform="translate(-103.755 -164.399)" fill="#aab2bd"/>
  <path id="Path_5357" data-name="Path 5357" d="M124.247,233.935a.647.647,0,0,1-.645-.645v-.645a.645.645,0,0,1,1.29,0v.645A.647.647,0,0,1,124.247,233.935Zm0,0" transform="translate(-103.673 -194.594)" fill="#aab2bd"/>
  <path id="Path_5358" data-name="Path 5358" d="M110.6,203.53a.691.691,0,0,1-.451-.178l-.468-.452a.65.65,0,0,1,.9-.935l.467.452a.657.657,0,0,1,.016.919.646.646,0,0,1-.468.194Zm0,0" transform="translate(-91.835 -169.252)" fill="#aab2bd"/>
  <path id="Path_5359" data-name="Path 5359" d="M136,229.03a.694.694,0,0,1-.452-.178l-.467-.452a.65.65,0,1,1,.9-.935l.468.452a.657.657,0,0,1,.016.919A.7.7,0,0,1,136,229.03Zm0,0" transform="translate(-113.139 -190.64)" fill="#aab2bd"/>
  <path id="Path_5360" data-name="Path 5360" d="M104.989,217.29h-.645a.645.645,0,1,1,0-1.29h.645a.645.645,0,0,1,0,1.29Zm0,0" transform="translate(-86.979 -181.174)" fill="#aab2bd"/>
  <path id="Path_5361" data-name="Path 5361" d="M140.989,217.29h-.645a.645.645,0,0,1,0-1.29h.645a.645.645,0,0,1,0,1.29Zm0,0" transform="translate(-117.175 -181.174)" fill="#aab2bd"/>
  <path id="Path_5362" data-name="Path 5362" d="M110.245,228.989a.61.61,0,0,1-.452-.194.642.642,0,0,1,0-.919l.452-.452a.657.657,0,0,1,.919,0,.644.644,0,0,1,0,.92l-.452.451A.7.7,0,0,1,110.245,228.989Zm0,0" transform="translate(-91.929 -190.599)" fill="#aab2bd"/>
  <path id="Path_5363" data-name="Path 5363" d="M135.635,203.53a.672.672,0,0,1-.467-.194.657.657,0,0,1,.016-.919l.468-.452a.65.65,0,0,1,.9.935l-.467.452A.619.619,0,0,1,135.635,203.53Zm0,0" transform="translate(-113.224 -169.252)" fill="#aab2bd"/>
  <path id="Path_5364" data-name="Path 5364" d="M345.316,147.739a1.243,1.243,0,0,1-.774-.258,1.3,1.3,0,0,1-.258-1.806l3.87-5.159a1.3,1.3,0,0,1,1.032-.516h18.058a1.29,1.29,0,1,1,0,2.58H349.831l-3.483,4.644A1.3,1.3,0,0,1,345.316,147.739Zm0,0" transform="translate(-288.563 -117.428)" fill="#e6e9ed"/>
  <path id="Path_5365" data-name="Path 5365" d="M29.29,180.645a.645.645,0,1,1-.645-.645A.645.645,0,0,1,29.29,180.645Zm0,0" transform="translate(-23.486 -150.978)" fill="#545c66"/>
  <path id="Path_5366" data-name="Path 5366" d="M33.935,108H32v7.739h1.935a.647.647,0,0,0,.645-.645v-6.449A.647.647,0,0,0,33.935,108Zm0,0" transform="translate(-26.841 -90.587)" fill="#e6e9ed"/>
</svg>
