<svg xmlns="http://www.w3.org/2000/svg" width="89.444" height="36.022" viewBox="0 0 89.444 36.022">
  <g id="car" transform="translate(0)">
    <path id="Path_5367" data-name="Path 5367" d="M0,173.68v4.628s1.476,2.6,2.452,3.006h17.7l1.3-.405.57,1.3h44.17l.117-.042,1.994-.691,15.021,1.949s.475-.022,1.158-.112c1.913-.249,5.444-1.023,4.608-3.3,0,0,.8-4.314,0-6.82,0,0-.243-3.492-3.246-4.711a105.566,105.566,0,0,0-16.726-4.3s-4.3-1.3-6.171-3.006a53.814,53.814,0,0,0-9.417-5.43,28.738,28.738,0,0,0-8.852-2.237c-5.9-.554-18.714-1.406-26.873.6a28.3,28.3,0,0,0-13.944,8.24,7.744,7.744,0,0,0-2.052,5.271v1.756l-.568,2.03A3.11,3.11,0,0,0,0,173.68Z" transform="translate(0 -152.847)" fill="#5c5df1"/>
    <path id="Path_5368" data-name="Path 5368" d="M27.179,272.406c0,.277.011.554.036.825l1.994-.691,15.021,1.949s.475-.022,1.158-.112a9.211,9.211,0,1,0-18.208-1.971Z" transform="translate(39.094 -243.912)" fill="#2e3235"/>
    <ellipse id="Ellipse_478" data-name="Ellipse 478" cx="7.527" cy="7.527" rx="7.527" ry="7.527" transform="translate(67.957 20.967)" fill="#3e4347"/>
    <path id="Path_5369" data-name="Path 5369" d="M406.477,272.373l-.176-.4-1.3.405H388.059a9.209,9.209,0,0,1,18.418,0Z" transform="translate(-384.849 -243.912)" fill="#2e3235"/>
    <g id="Group_4046" data-name="Group 4046" transform="translate(4.893 2.309)">
      <ellipse id="Ellipse_479" data-name="Ellipse 479" cx="7.527" cy="7.527" rx="7.527" ry="7.527" transform="translate(0 18.658)" fill="#3e4347"/>
      <path id="Path_5370" data-name="Path 5370" d="M151.771,166.652c1.563.053,2.553.106,2.572.109l.056,0h.056c.157-.006.313-.006.47-.006,6.825,0,13.625,4.054,17.073,6.47a9.98,9.98,0,0,1,3.492,4.359l-21.751-1.736Z" transform="translate(-117.463 -166.549)" fill="#5d9cec"/>
      <path id="Path_5371" data-name="Path 5371" d="M306.3,167.525c2.161-.945,7.309-1.465,14.517-1.465.844,0,1.664.008,2.435.02l.783,8.917h0l-21.555-1.72c-.07-.4-.129-.786-.171-1.135l0-.028-.006-.028C302.071,170.766,304.526,168.6,306.3,167.525Z" transform="translate(-292.307 -166.06)" fill="#5d9cec"/>
    </g>
    <g id="Group_4047" data-name="Group 4047" transform="translate(1.745 12.454)">
      <path id="Path_5372" data-name="Path 5372" d="M17.013,246.177s-2.995-3.487-6.35-3.224c-.816.064-3.257,1.158.559,3.224a13.721,13.721,0,0,0,5.329,1.054C18,247.251,17.013,246.177,17.013,246.177Z" transform="translate(68.761 -239.649)" fill="#e6e9ed"/>
      <path id="Path_5373" data-name="Path 5373" d="M478.366,228.189v-1.756a7.808,7.808,0,0,1,.349-2.206c1.208-.151,2.721-.226,3.213.266a3.737,3.737,0,0,1,0,3.7c-.548.548-2.377.394-3.621.212Z" transform="translate(-478.307 -224.113)" fill="#ed5565"/>
    </g>
    <ellipse id="Ellipse_480" data-name="Ellipse 480" cx="5.025" cy="5.025" rx="5.025" ry="5.025" transform="translate(70.459 23.47)" fill="#cbd6e0"/>
    <ellipse id="Ellipse_481" data-name="Ellipse 481" cx="4.099" cy="4.099" rx="4.099" ry="4.099" transform="translate(71.385 24.396)" fill="#939799"/>
    <g id="Group_4048" data-name="Group 4048" transform="translate(7.396 23.47)">
      <ellipse id="Ellipse_482" data-name="Ellipse 482" cx="2.95" cy="2.95" rx="2.95" ry="2.95" transform="translate(65.138 2.075)" fill="#cbd6e0"/>
      <ellipse id="Ellipse_483" data-name="Ellipse 483" cx="5.025" cy="5.025" rx="5.025" ry="5.025" transform="translate(0)" fill="#cbd6e0"/>
    </g>
    <ellipse id="Ellipse_484" data-name="Ellipse 484" cx="4.099" cy="4.099" rx="4.099" ry="4.099" transform="translate(8.321 24.396)" fill="#939799"/>
    <ellipse id="Ellipse_485" data-name="Ellipse 485" cx="2.95" cy="2.95" rx="2.95" ry="2.95" transform="translate(9.47 25.545)" fill="#cbd6e0"/>
    <g id="Group_4049" data-name="Group 4049" transform="translate(22.181 2.359)">
      <path id="Path_5374" data-name="Path 5374" d="M191.209,180.956l-4.577-.366-5.757-9.361a31.112,31.112,0,0,1,5.648,2.108Z" transform="translate(-155.556 -170.375)" fill="#87bcf4"/>
      <path id="Path_5375" data-name="Path 5375" d="M224.634,177.49l-2.388-.19-5.947-9.672a20.444,20.444,0,0,1,2.441.277Z" transform="translate(-195.172 -167.404)" fill="#87bcf4"/>
      <path id="Path_5376" data-name="Path 5376" d="M319.033,175.136l-4.577-.366-5.053-8.218c1.275-.1,2.69-.165,4.228-.2Z" transform="translate(-305.841 -166.348)" fill="#87bcf4"/>
      <path id="Path_5377" data-name="Path 5377" d="M351.815,176.186l-2.388-.19-4.616-7.508c.643-.1,1.334-.193,2.105-.268Z" transform="translate(-344.811 -167.893)" fill="#87bcf4"/>
    </g>
  </g>
</svg>
