<svg xmlns="http://www.w3.org/2000/svg" xmlns:xlink="http://www.w3.org/1999/xlink" width="167.105" height="97.802" viewBox="0 0 167.105 97.802">
  <defs>
    <linearGradient id="linear-gradient" x1="-0.743" y1="2.431" x2="0.257" y2="2.431" gradientUnits="objectBoundingBox">
      <stop offset="0" stop-color="#dae3fe"/>
      <stop offset="1" stop-color="#e9effd"/>
    </linearGradient>
    <linearGradient id="linear-gradient-2" x1="0" y1="0.5" x2="1" y2="0.5" xlink:href="#linear-gradient"/>
    <linearGradient id="linear-gradient-3" x1="0.935" y1="0.026" x2="-3.23" y2="4.958" gradientUnits="objectBoundingBox">
      <stop offset="0" stop-color="#fe7062"/>
      <stop offset="1" stop-color="#ff928e"/>
    </linearGradient>
    <linearGradient id="linear-gradient-4" x1="0.187" y1="1.135" x2="0.845" y2="0.273" xlink:href="#linear-gradient-3"/>
    <linearGradient id="linear-gradient-5" x1="1.008" y1="-1.105" x2="-0.524" y2="3.653" gradientUnits="objectBoundingBox">
      <stop offset="0" stop-color="#e1473d"/>
      <stop offset="1" stop-color="#e9605a"/>
    </linearGradient>
    <linearGradient id="linear-gradient-6" x1="0" y1="0.5" x2="1" y2="0.5" xlink:href="#linear-gradient-5"/>
    <linearGradient id="linear-gradient-7" x1="0.239" y1="1.573" x2="0.953" y2="-0.93" xlink:href="#linear-gradient-5"/>
    <linearGradient id="linear-gradient-8" x1="-11.491" y1="-4.855" x2="-12.283" y2="-0.989" gradientUnits="objectBoundingBox">
      <stop offset="0" stop-color="#9cfffb"/>
      <stop offset="1" stop-color="#9bfffa"/>
    </linearGradient>
    <linearGradient id="linear-gradient-10" x1="0.457" y1="1.094" x2="-1.014" y2="13.535" xlink:href="#linear-gradient-3"/>
    <linearGradient id="linear-gradient-11" x1="3.3" y1="-3.424" x2="1.715" y2="-1.185" gradientUnits="objectBoundingBox">
      <stop offset="0" stop-color="#ff928e"/>
      <stop offset="1" stop-color="#feb3b1"/>
    </linearGradient>
    <linearGradient id="linear-gradient-12" x1="0.911" y1="-1.258" x2="0.693" y2="-0.325" xlink:href="#linear-gradient-11"/>
    <linearGradient id="linear-gradient-13" x1="1.685" y1="-4.745" x2="0.962" y2="-1.544" xlink:href="#linear-gradient-11"/>
    <linearGradient id="linear-gradient-14" x1="0.431" y1="0.972" x2="0.938" y2="-2.485" xlink:href="#linear-gradient-5"/>
    <linearGradient id="linear-gradient-15" x1="0.722" y1="0.146" x2="-0.769" y2="2.519" xlink:href="#linear-gradient-3"/>
    <linearGradient id="linear-gradient-16" x1="0.501" y1="0.491" x2="1.008" y2="-2.967" xlink:href="#linear-gradient-5"/>
    <linearGradient id="linear-gradient-17" x1="1.601" y1="-1.004" x2="-0.423" y2="1.761" xlink:href="#linear-gradient-3"/>
    <linearGradient id="linear-gradient-18" x1="8.033" y1="-0.797" x2="3.966" y2="-0.096" xlink:href="#linear-gradient-5"/>
    <linearGradient id="linear-gradient-19" x1="-2.776" y1="3.661" x2="-0.246" y2="1.22" xlink:href="#linear-gradient-5"/>
    <linearGradient id="linear-gradient-20" x1="0" y1="0.5" x2="1" y2="0.5" xlink:href="#linear-gradient"/>
    <linearGradient id="linear-gradient-21" x1="-0.001" y1="0.5" x2="1" y2="0.5" xlink:href="#linear-gradient"/>
    <linearGradient id="linear-gradient-22" x1="0" y1="0.5" x2="1" y2="0.5" xlink:href="#linear-gradient"/>
    <linearGradient id="linear-gradient-23" x1="0" y1="0.5" x2="1" y2="0.5" xlink:href="#linear-gradient"/>
    <linearGradient id="linear-gradient-24" x1="0" y1="0.5" x2="1" y2="0.5" xlink:href="#linear-gradient"/>
    <linearGradient id="linear-gradient-25" x1="0" y1="0.5" x2="1" y2="0.5" xlink:href="#linear-gradient"/>
    <linearGradient id="linear-gradient-27" x1="0" y1="0.5" x2="1" y2="0.5" xlink:href="#linear-gradient"/>
    <linearGradient id="linear-gradient-30" x1="0" y1="0.5" x2="1" y2="0.5" xlink:href="#linear-gradient"/>
    <linearGradient id="linear-gradient-31" x1="0.492" y1="0.791" x2="0.386" y2="4.576" gradientUnits="objectBoundingBox">
      <stop offset="0" stop-color="#4042e2"/>
      <stop offset="1" stop-color="#4f52ff"/>
    </linearGradient>
    <linearGradient id="linear-gradient-32" x1="-12.571" y1="0.183" x2="-11.436" y2="1.47" xlink:href="#linear-gradient-31"/>
    <linearGradient id="linear-gradient-33" x1="0" y1="0.5" x2="1" y2="0.5" xlink:href="#linear-gradient-31"/>
    <linearGradient id="linear-gradient-34" x1="3.701" y1="-3.024" x2="1.845" y2="-1.047" xlink:href="#linear-gradient-31"/>
    <linearGradient id="linear-gradient-35" x1="0.789" y1="1.037" x2="0.013" y2="-0.631" xlink:href="#linear-gradient-31"/>
    <linearGradient id="linear-gradient-36" x1="0.677" y1="-2.899" x2="0.585" y2="-1.202" xlink:href="#linear-gradient-31"/>
    <linearGradient id="linear-gradient-37" x1="0.583" y1="1.989" x2="0.472" y2="0.226" xlink:href="#linear-gradient-31"/>
    <linearGradient id="linear-gradient-38" x1="-8.324" y1="1.305" x2="-7.69" y2="-0.372" xlink:href="#linear-gradient-5"/>
    <linearGradient id="linear-gradient-39" x1="-8.238" y1="1.094" x2="-8.537" y2="1.908" xlink:href="#linear-gradient-3"/>
    <linearGradient id="linear-gradient-40" x1="139.181" y1="0.5" x2="140.181" y2="0.5" gradientUnits="objectBoundingBox">
      <stop offset="0" stop-color="#09005d"/>
      <stop offset="1" stop-color="#1a0f91"/>
    </linearGradient>
    <linearGradient id="linear-gradient-41" x1="343.077" y1="0.5" x2="344.077" y2="0.5" xlink:href="#linear-gradient-11"/>
    <linearGradient id="linear-gradient-42" x1="88.691" y1="0.5" x2="89.691" y2="0.5" xlink:href="#linear-gradient-40"/>
    <linearGradient id="linear-gradient-43" x1="345.187" y1="0.5" x2="346.188" y2="0.5" xlink:href="#linear-gradient-11"/>
    <linearGradient id="linear-gradient-44" x1="-6.748" y1="-0.599" x2="-9.579" y2="1.765" xlink:href="#linear-gradient-31"/>
    <linearGradient id="linear-gradient-45" x1="-44.137" y1="0.809" x2="-49.649" y2="5.692" xlink:href="#linear-gradient-31"/>
    <linearGradient id="linear-gradient-46" x1="-3.358" y1="-0.125" x2="-4.729" y2="3.485" xlink:href="#linear-gradient-31"/>
    <linearGradient id="linear-gradient-47" x1="-15.57" y1="-0.909" x2="-16.656" y2="1.064" xlink:href="#linear-gradient-11"/>
    <linearGradient id="linear-gradient-48" x1="118.576" y1="-0.181" x2="115.926" y2="3.775" xlink:href="#linear-gradient-11"/>
    <linearGradient id="linear-gradient-49" x1="3.149" y1="-0.151" x2="1.71" y2="0.206" xlink:href="#linear-gradient-11"/>
    <linearGradient id="linear-gradient-50" x1="-2.782" y1="0.246" x2="-1.793" y2="1.678" xlink:href="#linear-gradient-40"/>
    <linearGradient id="linear-gradient-51" x1="239.391" y1="336.497" x2="242.093" y2="333.96" xlink:href="#linear-gradient-11"/>
    <linearGradient id="linear-gradient-52" x1="1.807" y1="-1.63" x2="1.178" y2="-0.649" xlink:href="#linear-gradient-11"/>
    <linearGradient id="linear-gradient-53" x1="-10.95" y1="-0.337" x2="-11.987" y2="4.591" xlink:href="#linear-gradient-31"/>
    <linearGradient id="linear-gradient-54" x1="4.701" y1="0.328" x2="5.913" y2="0.635" xlink:href="#linear-gradient-31"/>
    <linearGradient id="linear-gradient-55" x1="48.333" y1="0.5" x2="49.352" y2="0.5" xlink:href="#linear-gradient-40"/>
    <linearGradient id="linear-gradient-56" x1="47.575" y1="-37.467" x2="47.365" y2="-58.288" xlink:href="#linear-gradient-31"/>
    <linearGradient id="linear-gradient-57" x1="92.651" y1="0.5" x2="93.651" y2="0.5" xlink:href="#linear-gradient-40"/>
    <linearGradient id="linear-gradient-58" x1="95.116" y1="-100.022" x2="94.654" y2="-156.014" xlink:href="#linear-gradient-31"/>
    <linearGradient id="linear-gradient-59" x1="116.603" y1="8.984" x2="117.448" y2="8.984" xlink:href="#linear-gradient-11"/>
    <linearGradient id="linear-gradient-60" x1="184.837" y1="0.5" x2="185.837" y2="0.5" xlink:href="#linear-gradient-11"/>
    <linearGradient id="linear-gradient-61" x1="21.116" y1="-0.024" x2="19.012" y2="1.306" xlink:href="#linear-gradient-31"/>
    <linearGradient id="linear-gradient-62" x1="-1.471" y1="2.333" x2="-8.905" y2="9.249" xlink:href="#linear-gradient-31"/>
    <linearGradient id="linear-gradient-63" x1="4.606" y1="0.141" x2="5.288" y2="1.241" xlink:href="#linear-gradient-31"/>
    <linearGradient id="linear-gradient-64" x1="0.582" y1="-0.406" x2="0.442" y2="1.478" xlink:href="#linear-gradient-11"/>
    <linearGradient id="linear-gradient-65" x1="60.15" y1="28.033" x2="60.471" y2="26.776" xlink:href="#linear-gradient-11"/>
    <linearGradient id="linear-gradient-66" x1="0.14" y1="0.779" x2="1.136" y2="-0.127" xlink:href="#linear-gradient-40"/>
    <linearGradient id="linear-gradient-67" x1="241.584" y1="89.957" x2="242.898" y2="85.854" xlink:href="#linear-gradient-11"/>
    <linearGradient id="linear-gradient-68" x1="9.146" y1="0.064" x2="10.608" y2="1.734" xlink:href="#linear-gradient-31"/>
    <linearGradient id="linear-gradient-69" x1="-0.745" y1="1.216" x2="-3.986" y2="3.316" xlink:href="#linear-gradient-31"/>
    <linearGradient id="linear-gradient-70" x1="6.095" y1="7.312" x2="7.152" y2="3.403" xlink:href="#linear-gradient-11"/>
    <linearGradient id="linear-gradient-71" x1="-2.595" y1="-11.333" x2="-1.522" y2="-11.333" xlink:href="#linear-gradient-40"/>
    <linearGradient id="linear-gradient-72" x1="-1.726" y1="-7.097" x2="-0.789" y2="-7.097" xlink:href="#linear-gradient-40"/>
    <linearGradient id="linear-gradient-73" x1="12.155" y1="7.417" x2="14.355" y2="3.356" xlink:href="#linear-gradient-11"/>
    <linearGradient id="linear-gradient-74" x1="24.126" y1="0.466" x2="27.379" y2="1.735" xlink:href="#linear-gradient-11"/>
    <linearGradient id="linear-gradient-75" x1="-3.729" y1="0.589" x2="-16.522" y2="0.861" xlink:href="#linear-gradient-31"/>
    <linearGradient id="linear-gradient-76" x1="0.005" y1="1.571" x2="0.765" y2="0.155" xlink:href="#linear-gradient-31"/>
    <linearGradient id="linear-gradient-77" x1="-0.267" y1="-3.231" x2="0.131" y2="-1.293" xlink:href="#linear-gradient-40"/>
    <linearGradient id="linear-gradient-78" x1="1.088" y1="-2.105" x2="0.425" y2="0.834" xlink:href="#linear-gradient-40"/>
    <linearGradient id="linear-gradient-79" x1="0.632" y1="-3.597" x2="0.574" y2="-1.803" xlink:href="#linear-gradient-40"/>
    <linearGradient id="linear-gradient-80" x1="1.168" y1="0.494" x2="-20.188" y2="0.689" xlink:href="#linear-gradient-31"/>
    <linearGradient id="linear-gradient-81" x1="-0.962" y1="0.513" x2="-22.318" y2="0.708" xlink:href="#linear-gradient-31"/>
  </defs>
  <g id="Illustration" transform="translate(-731 -761.548)">
    <g id="Group_40" data-name="Group 40" transform="translate(731 761.548)">
      <path id="Path_4873" data-name="Path 4873" d="M94.868,203.7c1.939,3.557,5.02,6.549,7.393,9.876,6.859,9.612-.278,20.86,2.853,31.222,2.728,9.028,14.072,11.449,22.365,11.815,13.973.617,27.931-.308,41.4-4.238,9.349-2.728,18.709-6.3,28.563-6.514,10.073-.221,19.548,3.974,29.28,5.957,10.686,2.178,23.466-.187,26.042-12.563,1.6-7.667-2.7-14.728-3.1-22.277-.532-9.994,9.074-15.478,10.317-24.821.784-5.89-2.144-11.154-5.965-15.416-4.031-4.5-9.452-8.47-15.671-8.839-6.5-.386-12.3,3.154-18.378,4.844-17.074,4.749-26.766-11.09-42.48-13.3-7.086-1-15.795-.523-22.229,2.9-5.983,3.181-8.886,10.249-15.6,12.324-7.1,2.2-13.6-2.193-20.352-3.6a17.658,17.658,0,0,0-17.965,6.775c-4.238,5.478-8.826,12.693-8.3,19.925A14.4,14.4,0,0,0,94.868,203.7Z" transform="translate(-93.002 -158.986)" fill="url(#linear-gradient)"/>
      <g id="Group_9" data-name="Group 9" transform="translate(17.504 8.209)">
        <g id="Group_5" data-name="Group 5" transform="translate(0)">
          <g id="Group_2" data-name="Group 2" transform="translate(14.448)">
            <path id="Path_4874" data-name="Path 4874" d="M570.966,314.676a27.747,27.747,0,0,0-9.4-16.008,19.678,19.678,0,0,1-7.285-12.863q-.1-.8-.271-1.608c-1.714-8.161-8.1-13.727-14.273-12.43s-9.779,8.962-8.064,17.123a19.548,19.548,0,0,0,1.6,4.644,19.764,19.764,0,0,1,1.291,14.529,29,29,0,0,0-.507,14.37c1.594,7.588,5.792,13.758,11.026,17.185a19.381,19.381,0,0,1,5.1,4.862c2.3,3.187,5.812,4.936,9.275,4.208,3.736-.784,6.366-4.232,6.96-8.508a20.675,20.675,0,0,1,2.3-6.9A27.686,27.686,0,0,0,570.966,314.676Z" transform="translate(-531.245 -271.579)" fill="#bdd0fb"/>
            <path id="Path_4875" data-name="Path 4875" d="M699.428,387c1.939,5.224,3.708,10.507,5.422,15.807.429,1.325.837,2.657,1.249,3.987l.618,2,.6,2c.4,1.336.809,2.666,1.19,4.006l1.142,4.019c.727,2.69,1.476,5.373,2.153,8.076.341,1.351.707,2.695,1.02,4.053l.957,4.068c1.221,5.438,2.307,10.908,3.113,16.423l-.238.037-.76-4.1-.188-1.026-.214-1.021-.431-2.041-.427-2.041c-.141-.681-.308-1.356-.46-2.035-.314-1.355-.617-2.712-.94-4.065-1.326-5.4-2.723-10.788-4.232-16.144-.775-2.672-1.527-5.351-2.32-8.018l-.59-2-.607-2c-.4-1.331-.807-2.663-1.224-3.99q-1.216-3.993-2.493-7.967c-.838-2.654-1.7-5.3-2.571-7.943Z" transform="translate(-686.955 -378.585)" fill="#91b3fa"/>
            <g id="Group_1" data-name="Group 1" transform="translate(2.393 3.8)" opacity="0.5">
              <path id="Path_4876" data-name="Path 4876" d="M566.993,343.417a.2.2,0,0,1-.14-.1c-3.637-6.6-3.051-11.565-1.92-14.568a12.239,12.239,0,0,1,3.383-5,.2.2,0,0,1,.252.316,12.092,12.092,0,0,0-3.264,4.848c-1.1,2.92-1.654,7.756,1.9,14.21a.2.2,0,0,1-.079.275A.205.205,0,0,1,566.993,343.417Z" transform="translate(-564.068 -323.702)" fill="#bdd0fb"/>
            </g>
          </g>
          <g id="Group_4" data-name="Group 4" transform="translate(0 42.428)">
            <path id="Path_4877" data-name="Path 4877" d="M361.211,869.142a15.62,15.62,0,0,0-8.542-5.988,11.078,11.078,0,0,1-6.726-4.875q-.238-.385-.515-.758c-2.784-3.77-7.346-5.125-10.188-3.026s-2.89,6.858-.106,10.628a11.034,11.034,0,0,0,1.9,2,11.134,11.134,0,0,1,4.059,7.122,16.337,16.337,0,0,0,3.1,7.46,15.249,15.249,0,0,0,9.646,6.212,10.89,10.89,0,0,1,3.739,1.3,5.212,5.212,0,0,0,5.715-.011,5.346,5.346,0,0,0,1.559-5.968,11.619,11.619,0,0,1-.443-4.059A15.589,15.589,0,0,0,361.211,869.142Z" transform="translate(-333.077 -853.507)" fill="#91b3fa"/>
            <path id="Path_4878" data-name="Path 4878" d="M415.787,911.99c2.211,2.217,4.35,4.5,6.465,6.813.529.577,1.048,1.162,1.57,1.746l.782.876.775.882c.514.59,1.037,1.173,1.544,1.77l1.523,1.788c1,1.205,2.011,2.4,2.988,3.624.49.611.992,1.213,1.468,1.833l1.441,1.855c1.9,2.494,3.729,5.036,5.431,7.666l-.112.074L438.314,939l-.336-.48-.348-.472-.7-.943-.7-.943c-.231-.315-.474-.621-.711-.932-.478-.619-.949-1.242-1.43-1.858q-2.911-3.678-5.936-7.262c-1.021-1.185-2.031-2.378-3.059-3.556l-.769-.885-.776-.879c-.518-.586-1.035-1.172-1.558-1.753q-1.555-1.756-3.136-3.49t-3.171-3.459Z" transform="translate(-409.667 -907.726)" fill="#7d97f4"/>
            <g id="Group_3" data-name="Group 3" transform="translate(1.624 2.433)" opacity="0.5">
              <path id="Path_4879" data-name="Path 4879" d="M360.579,897.762a.123.123,0,0,1-.1-.015c-3.763-2.494-4.83-5.293-5.063-7.2a7.333,7.333,0,0,1,.408-3.594.121.121,0,1,1,.222.1,7.233,7.233,0,0,0-.387,3.48c.229,1.854,1.274,4.577,4.955,7.016a.121.121,0,0,1,.034.168A.124.124,0,0,1,360.579,897.762Z" transform="translate(-355.353 -886.878)" fill="#bdd0fb"/>
            </g>
          </g>
        </g>
        <g id="Group_8" data-name="Group 8" transform="translate(90.564 11.537)">
          <g id="Group_6" data-name="Group 6">
            <path id="Path_4880" data-name="Path 4880" d="M1575.783,465.4a22.906,22.906,0,0,1,7.764-13.217,16.244,16.244,0,0,0,6.015-10.62q.083-.66.224-1.328c1.415-6.738,6.692-11.333,11.784-10.263s8.074,7.4,6.658,14.138a16.131,16.131,0,0,1-1.318,3.834,16.321,16.321,0,0,0-1.066,11.995,23.948,23.948,0,0,1,.419,11.864,22.37,22.37,0,0,1-9.1,14.19,15.988,15.988,0,0,0-4.21,4.014c-1.9,2.631-4.8,4.075-7.658,3.475-3.085-.648-5.257-3.494-5.746-7.024a17.042,17.042,0,0,0-1.9-5.695A22.856,22.856,0,0,1,1575.783,465.4Z" transform="translate(-1575.235 -429.82)" fill="#bdd0fb"/>
            <path id="Path_4881" data-name="Path 4881" d="M1707.95,525.11c-1.6,4.313-3.062,8.675-4.477,13.051-.354,1.094-.691,2.194-1.031,3.292l-.51,1.648-.5,1.652c-.327,1.1-.669,2.2-.983,3.307l-.943,3.319c-.6,2.221-1.219,4.436-1.778,6.667-.281,1.116-.583,2.225-.842,3.346l-.79,3.359c-1.009,4.489-1.9,9.006-2.57,13.559l.2.031.628-3.388.155-.847.177-.843.356-1.686.352-1.686c.117-.562.254-1.12.38-1.68.259-1.118.51-2.239.776-3.356,1.094-4.461,2.249-8.907,3.494-13.329.639-2.206,1.261-4.417,1.915-6.619l.487-1.653.5-1.648c.333-1.1.666-2.2,1.01-3.295q1-3.3,2.058-6.578,1.038-3.286,2.123-6.558Z" transform="translate(-1684.905 -518.162)" fill="#91b3fa"/>
            <path id="Path_4882" data-name="Path 4882" d="M1955.012,489.13a.167.167,0,0,0,.116-.084c3-5.449,2.52-9.549,1.585-12.028a10.115,10.115,0,0,0-2.793-4.13.167.167,0,0,0-.208.262,9.974,9.974,0,0,1,2.695,4c.9,2.411,1.365,6.4-1.571,11.732a.166.166,0,0,0,.065.227A.173.173,0,0,0,1955.012,489.13Z" transform="translate(-1926.059 -469.715)" fill="url(#linear-gradient-2)"/>
          </g>
          <g id="Group_7" data-name="Group 7" transform="translate(18.789 30.703)">
            <path id="Path_4883" data-name="Path 4883" d="M1836.66,865.7a14.744,14.744,0,0,1,8.064-5.653,10.456,10.456,0,0,0,6.35-4.6q.225-.363.485-.716c2.629-3.559,6.935-4.838,9.618-2.856s2.728,6.474.1,10.033a10.4,10.4,0,0,1-1.794,1.888,10.511,10.511,0,0,0-3.831,6.724,15.412,15.412,0,0,1-2.931,7.042,14.394,14.394,0,0,1-9.105,5.864,10.28,10.28,0,0,0-3.53,1.223,4.92,4.92,0,0,1-5.4-.01,5.046,5.046,0,0,1-1.471-5.634,10.973,10.973,0,0,0,.418-3.832A14.712,14.712,0,0,1,1836.66,865.7Z" transform="translate(-1832.938 -850.938)" fill="#91b3fa"/>
            <path id="Path_4884" data-name="Path 4884" d="M1881.076,906.14c-2.088,2.093-4.107,4.252-6.1,6.432-.5.545-.99,1.1-1.482,1.648l-.739.827-.731.833c-.486.557-.979,1.107-1.458,1.67l-1.438,1.688c-.944,1.137-1.9,2.267-2.821,3.422-.462.577-.936,1.145-1.387,1.731l-1.36,1.752c-1.789,2.354-3.521,4.754-5.127,7.236l.106.07,1.273-1.812.317-.453.328-.446.658-.89.657-.891c.218-.3.448-.587.671-.88.451-.585.9-1.172,1.35-1.754q2.748-3.471,5.6-6.856c.963-1.118,1.917-2.245,2.888-3.357l.726-.835.733-.83q.733-.83,1.471-1.656,1.467-1.658,2.961-3.295t2.993-3.266Z" transform="translate(-1856.572 -902.115)" fill="#7d97f4"/>
            <path id="Path_4885" data-name="Path 4885" d="M2158.569,892.7a.115.115,0,0,0,.1-.014c3.553-2.355,4.56-5,4.78-6.8a6.923,6.923,0,0,0-.385-3.393.114.114,0,0,0-.209.093,6.822,6.822,0,0,1,.365,3.285c-.216,1.75-1.2,4.321-4.677,6.623a.115.115,0,0,0-.032.159A.108.108,0,0,0,2158.569,892.7Z" transform="translate(-2134.753 -880.13)" fill="#bdd0fb"/>
          </g>
        </g>
      </g>
      <g id="Group_15" data-name="Group 15" transform="translate(17.04 44.285)">
        <g id="Group_14" data-name="Group 14" transform="translate(0)">
          <path id="Path_4886" data-name="Path 4886" d="M2024.83,1157.806l7.554-2.046s1.787.517,1.523,3.174-7.8,2.172-7.8,2.172Z" transform="translate(-1901.023 -1127.372)" fill="url(#linear-gradient-3)"/>
          <path id="Path_4887" data-name="Path 4887" d="M404.312,767.6c-14.41,3.6-22.865,13.236-27.034,14.209s-20.869,1.865-23.592,4.395-.122,4.328-3.623,7.581c-3.874,10.93,8.12,14.2,8.12,14.2l109.022-.886s7.357.661,7.52-4.593-1.624-7.908-2.011-12.64-.4-4.97-1.449-7.424-11.289-2.72-13.28-5.449-4.363-7.082-12.814-8.565C433.5,766.376,412.671,765.507,404.312,767.6Z" transform="translate(-347.647 -766.395)" fill="url(#linear-gradient-4)"/>
          <path id="Path_4888" data-name="Path 4888" d="M1908.2,1220.557c-.187,6.039-10.427,4.969-10.472,4.965,0,0-8.141-6.231,3.058-5.992a18.036,18.036,0,0,0,6.778-1.869Z" transform="translate(-1780.543 -1184.759)" fill="url(#linear-gradient-5)"/>
          <path id="Path_4889" data-name="Path 4889" d="M328.471,1179.05s-.107,1.541,2.779,3.114c3.577,1.95,16-.194,16-.194l1.417,7.992-11.706.6C337.233,1190.633,321.587,1189.732,328.471,1179.05Z" transform="translate(-326.719 -1148.964)" fill="url(#linear-gradient-6)"/>
          <path id="Path_4890" data-name="Path 4890" d="M1417.521,842.385s.351-2.743-2.53-6.1-4.563-5.58-6.778-6.151-18.431-2.814-19.5-1.088-2.437,12.321-2.437,12.321Z" transform="translate(-1309.029 -823.88)" fill="url(#linear-gradient-7)"/>
          <g id="Group_10" data-name="Group 10" transform="translate(78.799 4.462)" opacity="0.3">
            <path id="Path_4891" data-name="Path 4891" d="M1427.6,829.088c-1.817-.27-15.609-1.874-19.17-1.417l-.922,3.545,29.707,10.416a7.959,7.959,0,0,0-1.342-4.482C1433.381,833.411,1429.5,829.327,1427.6,829.088Z" transform="translate(-1407.51 -827.59)" fill="url(#linear-gradient-8)"/>
          </g>
          <path id="Path_4892" data-name="Path 4892" d="M880.587,824.939c-.449,2.047-2.1,12.03-2.1,12.03l-35.062-.162s11.052-10.157,19.549-11.764S880.873,823.857,880.587,824.939Z" transform="translate(-805.748 -819.78)" fill="url(#linear-gradient-6)"/>
          <path id="Path_4893" data-name="Path 4893" d="M1066.4,819.72c6.921-.961,9.458-.778,16.713-.143l-.7,2.9s-10.8-2.117-20.858-.893A15.6,15.6,0,0,1,1066.4,819.72Z" transform="translate(-1007.984 -815.211)" fill="url(#linear-gradient-10)"/>
          <path id="Path_4894" data-name="Path 4894" d="M364.281,1026.235s5.681-1.821,7.066,2.67c1.321,4.281-11.5,5.433-11.5,5.433S360.8,1027.987,364.281,1026.235Z" transform="translate(-357.434 -1006.952)" fill="url(#linear-gradient-11)"/>
          <path id="Path_4895" data-name="Path 4895" d="M1475.582,800.652a.337.337,0,0,1-.1-.014c-1.334-.4-2.458-1.808-3.759-3.435-1.9-2.376-4.053-5.069-7.566-5.739-6.735-1.285-16.945-2.176-17.047-2.185a.33.33,0,0,1-.3-.357.325.325,0,0,1,.357-.3c.1.009,10.346.9,17.114,2.195,3.751.716,6.083,3.632,7.957,5.976,1.232,1.541,2.3,2.872,3.434,3.216a.33.33,0,0,1-.1.645Z" transform="translate(-1365.149 -786.999)" fill="url(#linear-gradient-12)"/>
          <path id="Path_4896" data-name="Path 4896" d="M1877.212,960.347a.331.331,0,0,1-.3-.183c-.553-1.115-3-1.621-5.372-2.11-.847-.175-1.723-.356-2.529-.567a.33.33,0,1,1,.167-.638c.789.207,1.656.386,2.5.559,2.64.545,5.134,1.06,5.83,2.464a.329.329,0,0,1-.149.442A.347.347,0,0,1,1877.212,960.347Z" transform="translate(-1756.34 -942.954)" fill="url(#linear-gradient-13)"/>
          <g id="Group_11" data-name="Group 11" transform="translate(92.333 29.835)">
            <circle id="Ellipse_1" data-name="Ellipse 1" cx="10.501" cy="10.501" r="10.501" fill="url(#linear-gradient-14)"/>
            <circle id="Ellipse_2" data-name="Ellipse 2" cx="6.7" cy="6.7" r="6.7" transform="translate(3.914 3.683)" fill="url(#linear-gradient-15)"/>
          </g>
          <g id="Group_12" data-name="Group 12" transform="translate(17.404 29.188)">
            <circle id="Ellipse_3" data-name="Ellipse 3" cx="10.501" cy="10.501" r="10.501" fill="url(#linear-gradient-16)"/>
            <circle id="Ellipse_4" data-name="Ellipse 4" cx="6.7" cy="6.7" r="6.7" transform="translate(3.915 3.683)" fill="url(#linear-gradient-17)"/>
          </g>
          <g id="Group_13" data-name="Group 13" transform="translate(72.323 18.751)">
            <path id="Path_4897" data-name="Path 4897" d="M1319.055,1044.794h-.033a.317.317,0,0,1-.343-.315.323.323,0,0,1,.2-.293c.683-1.1,1.568-12.962,1.972-20.281a.343.343,0,0,1,.365-.323.349.349,0,0,1,.327.367c0,.052-.289,5.178-.7,10.272C1320.018,1044.589,1319.5,1044.794,1319.055,1044.794Z" transform="translate(-1318.68 -1023.581)" fill="url(#linear-gradient-18)"/>
          </g>
          <path id="Path_4898" data-name="Path 4898" d="M880.947,1042.623a2.4,2.4,0,0,1-2.4,2.4h-7.131a2.4,2.4,0,0,1-2.4-2.4h0a2.4,2.4,0,0,1,2.4-2.4h7.131a2.4,2.4,0,0,1,2.4,2.4Z" transform="translate(-829.472 -1020.256)" fill="url(#linear-gradient-19)"/>
        </g>
      </g>
      <g id="Group_21" data-name="Group 21" transform="translate(40.952 11.721)">
        <g id="Group_20" data-name="Group 20" transform="translate(35.369 24.456)">
          <path id="Path_4899" data-name="Path 4899" d="M1188.124,674.445a.524.524,0,0,1-.467-.54c0-.085,0-.169,0-.254a8.467,8.467,0,0,0-2.055-5.542,3.484,3.484,0,0,1-.773-2.739,10.253,10.253,0,0,0-2.158-7.482,2.909,2.909,0,0,0-.685-.665c-3.812-2.641-7.758-2.51-10.66-.8a7.627,7.627,0,0,1-6.129.72,9.865,9.865,0,0,0-5.153-.166,3.247,3.247,0,0,1-2.666-.588,6.2,6.2,0,0,0-3.687-1.207c-3.443,0-6.68,6.744-6.885,6.957a1.2,1.2,0,0,1-1.411.256,4.166,4.166,0,0,0-4.507.545.563.563,0,0,0-.115.115c-2.323,3.139-.133,6.565,2.856,6.565a3.841,3.841,0,0,0,.632-.053,1.656,1.656,0,0,1,1.686.736,6.689,6.689,0,0,0,7.313,2.951,2.817,2.817,0,0,1,2.569.591,9.8,9.8,0,0,0,7.91,2.354,3.194,3.194,0,0,1,2.336.567,5.73,5.73,0,0,0,4.15,1.025,2.163,2.163,0,0,1,2.053.873,8.493,8.493,0,0,0,6.873,3.5c.214,0,.426-.008.635-.023a1.912,1.912,0,0,1,1.9,1.094c1.538,3.414,6.046,5.2,10.232,2.065a.559.559,0,0,0,.112-.112C1195.694,680.292,1192.641,674.966,1188.124,674.445Z" transform="translate(-1139.804 -655.18)" fill="#7d97f4"/>
          <path id="Path_4900" data-name="Path 4900" d="M1747.982,943.067a4.767,4.767,0,0,1,2.965,3.033,4.7,4.7,0,0,1,.185,2.186,4.915,4.915,0,0,1-.811,2.044,4.842,4.842,0,0,1-3.745,2.073,4.742,4.742,0,0,1-3.88-1.718.078.078,0,0,1,.117-.1,4.677,4.677,0,0,0,3.748,1.522,4.3,4.3,0,0,0,1.508-.35l.237-.1.228-.124.114-.062.108-.072.216-.143.2-.161a1.853,1.853,0,0,0,.2-.169l.189-.178c.06-.062.116-.128.175-.191a4.705,4.705,0,0,0,.324-.4,4.558,4.558,0,0,0,.624-3.96,4.675,4.675,0,0,0-1.034-1.794,4.746,4.746,0,0,0-1.719-1.178.078.078,0,0,1-.044-.1A.077.077,0,0,1,1747.982,943.067Z" transform="translate(-1698.724 -922.074)" fill="url(#linear-gradient-20)"/>
          <path id="Path_4901" data-name="Path 4901" d="M1751.017,845.389a5.2,5.2,0,0,1,.639.776,5.984,5.984,0,0,1,.826,1.834,5.377,5.377,0,0,1,.166.992.076.076,0,0,1-.072.082.078.078,0,0,1-.081-.061c-.07-.32-.15-.636-.25-.945a8.189,8.189,0,0,0-.351-.906,8.034,8.034,0,0,0-.453-.859c-.165-.279-.349-.548-.541-.813a.077.077,0,0,1,.018-.109A.078.078,0,0,1,1751.017,845.389Z" transform="translate(-1706.332 -831.501)" fill="url(#linear-gradient-21)"/>
          <path id="Path_4902" data-name="Path 4902" d="M1164.834,785.458a3.27,3.27,0,0,0-1.828-.971,3.313,3.313,0,0,0-1.032-.011c-.079.013-.19.032-.285.039a2.044,2.044,0,0,1-.3,0,2.546,2.546,0,0,1-.587-.1,2.411,2.411,0,0,1-1.686-2.759,2.974,2.974,0,0,1,.428-1.048.078.078,0,0,1,.136.075h0a3.074,3.074,0,0,0-.308,1.01,2.163,2.163,0,0,0,.671,1.855,2.088,2.088,0,0,0,1.363.57,2.218,2.218,0,0,0,.252,0c.088-.006.158-.017.26-.032a3.338,3.338,0,0,1,1.156.043,3.149,3.149,0,0,1,1.062.44,3.019,3.019,0,0,1,.817.786.077.077,0,0,1-.119.1Z" transform="translate(-1157.669 -771.436)" fill="url(#linear-gradient-22)"/>
          <g id="Group_16" data-name="Group 16" transform="translate(10.116 2.574)" opacity="0.72">
            <path id="Path_4903" data-name="Path 4903" d="M1283.868,696.77a3.479,3.479,0,0,1-1.99.5,3.678,3.678,0,0,1-1.034-.2,3.728,3.728,0,0,1-.939-.5,3.378,3.378,0,0,1-1.218-1.748,3.063,3.063,0,0,1-.128-1.082,3.146,3.146,0,0,1,.238-1.067,3.541,3.541,0,0,1,.567-.933,3.6,3.6,0,0,1,1.826-1.128,3.823,3.823,0,0,1,1.071-.114,3.562,3.562,0,0,1,1.993.695,3.167,3.167,0,0,1,1.18,1.69.078.078,0,0,1-.146.052,3.274,3.274,0,0,0-1.257-1.416,3.376,3.376,0,0,0-3.53.01,3.423,3.423,0,0,0-.69.594,2.956,2.956,0,0,0-.477.77,2.667,2.667,0,0,0-.206.879,3.043,3.043,0,0,0,0,.455,2.948,2.948,0,0,0,1.065,1.974,3.449,3.449,0,0,0,3.6.439.078.078,0,0,1,.073.136Z" transform="translate(-1278.554 -690.491)" fill="url(#linear-gradient-23)"/>
            <path id="Path_4904" data-name="Path 4904" d="M1352,733.954a2.127,2.127,0,1,1,2.127-2.127A2.129,2.129,0,0,1,1352,733.954Zm0-4.1a1.971,1.971,0,1,0,1.971,1.971A1.974,1.974,0,0,0,1352,729.855Z" transform="translate(-1344.671 -726.841)" fill="url(#linear-gradient-24)"/>
            <path id="Path_4905" data-name="Path 4905" d="M1386.6,751a.4.4,0,1,1-.4-.4A.4.4,0,0,1,1386.6,751Z" transform="translate(-1377.981 -746.217)" fill="url(#linear-gradient-25)"/>
          </g>
          <g id="Group_17" data-name="Group 17" transform="translate(33.264 1.865)" opacity="0.72">
            <path id="Path_4906" data-name="Path 4906" d="M1596.05,684.142a4.9,4.9,0,0,1,4.412-3.376,4.708,4.708,0,0,1,1.964.325,4.487,4.487,0,0,1,1.643,1.141,4.425,4.425,0,0,1,.581.822,4.055,4.055,0,0,1,.219.453c.034.077.056.158.085.237a2.291,2.291,0,0,1,.073.24,4.479,4.479,0,0,1-.674,3.766.078.078,0,0,1-.133-.08,4.806,4.806,0,0,0,.324-3.544,4.077,4.077,0,0,0-2.318-2.548,4.473,4.473,0,0,0-3.5.062,4.906,4.906,0,0,0-2.531,2.554.077.077,0,0,1-.145-.053Z" transform="translate(-1596.047 -680.762)" fill="url(#linear-gradient-24)"/>
          </g>
          <g id="Group_18" data-name="Group 18" transform="translate(39.471 8.739)" opacity="0.72">
            <path id="Path_4907" data-name="Path 4907" d="M1683.089,778.415a.077.077,0,0,1-.017-.153,1.546,1.546,0,0,0,1.176-1.325,1.467,1.467,0,1,0-2.9-.384,1.621,1.621,0,0,0,.087.779.077.077,0,1,1-.145.055,1.765,1.765,0,0,1-.1-.854,1.622,1.622,0,1,1,3.212.425,1.7,1.7,0,0,1-1.3,1.456Z" transform="translate(-1681.174 -775.041)" fill="url(#linear-gradient-27)"/>
          </g>
          <g id="Group_19" data-name="Group 19" transform="translate(31.012 16.23)" opacity="0.72">
            <path id="Path_4908" data-name="Path 4908" d="M1607.9,888.37a4.272,4.272,0,0,1,2.484-.435,4.381,4.381,0,0,1,2.354,1.04,4.152,4.152,0,0,1,1.331,2.243,4.428,4.428,0,0,1,.087.662,4.531,4.531,0,0,1-.034.667,3.815,3.815,0,0,1-.383,1.276,4.3,4.3,0,0,1-.777,1.079,4.417,4.417,0,0,1-3.624,1.252,4.376,4.376,0,0,1-2.367-1,3.964,3.964,0,0,1-1.326-2.145.078.078,0,0,1,.059-.093.077.077,0,0,1,.089.05,3.976,3.976,0,0,0,1.409,1.893,4.174,4.174,0,0,0,4.419.308,4.28,4.28,0,0,0,.916-.687,3.671,3.671,0,0,0,.656-.929,3.322,3.322,0,0,0,.332-1.083,3.8,3.8,0,0,0,.034-.569,4,4,0,0,0-.068-.566,3.372,3.372,0,0,0-.391-1.071,4.146,4.146,0,0,0-.708-.909,4.3,4.3,0,0,0-4.43-.844.078.078,0,0,1-.1-.045A.076.076,0,0,1,1607.9,888.37Z" transform="translate(-1602.692 -887.165)" fill="url(#linear-gradient-20)"/>
            <path id="Path_4909" data-name="Path 4909" d="M1567.773,883.008q-.093,0-.186-.006a2.6,2.6,0,1,1,.186.006Zm-.007-5.063a2.474,2.474,0,1,0,.175.007C1567.882,877.947,1567.823,877.945,1567.766,877.945Z" transform="translate(-1565.16 -877.79)" fill="url(#linear-gradient-23)"/>
            <path id="Path_4910" data-name="Path 4910" d="M1578.834,909.623a.494.494,0,1,1,.459.527A.494.494,0,0,1,1578.834,909.623Z" transform="translate(-1577.836 -906.876)" fill="url(#linear-gradient-30)"/>
          </g>
        </g>
        <circle id="Ellipse_5" data-name="Ellipse 5" cx="0.786" cy="0.786" r="0.786" transform="translate(93.219 52.193) rotate(-43.436)" fill="#fff" opacity="0.49"/>
        <path id="Path_4911" data-name="Path 4911" d="M825.635,465.539a5.085,5.085,0,1,1,5.085-5.085A5.091,5.091,0,0,1,825.635,465.539Zm0-9.9a4.817,4.817,0,1,0,4.817,4.817A4.823,4.823,0,0,0,825.635,455.638Z" transform="translate(-808.457 -445.482)" fill="#fff"/>
        <path id="Path_4912" data-name="Path 4912" d="M1071.177,600.844a2.137,2.137,0,1,1,2.137-2.137A2.14,2.14,0,0,1,1071.177,600.844Zm0-3.964a1.827,1.827,0,1,0,1.827,1.827A1.829,1.829,0,0,0,1071.177,596.88Z" transform="translate(-1038.83 -576.387)" fill="#fff"/>
        <path id="Path_4913" data-name="Path 4913" d="M1645.445,628.61a1.365,1.365,0,1,1,1.365-1.365A1.367,1.367,0,0,1,1645.445,628.61Zm0-2.42a1.055,1.055,0,1,0,1.055,1.055A1.056,1.056,0,0,0,1645.445,626.19Z" transform="translate(-1571.945 -603.561)" fill="#fff"/>
        <path id="Path_4914" data-name="Path 4914" d="M1666.258,475.685a5.587,5.587,0,1,1,5.587-5.588A5.594,5.594,0,0,1,1666.258,475.685Zm0-10.865a5.277,5.277,0,1,0,5.277,5.277A5.283,5.283,0,0,0,1666.258,464.82Z" transform="translate(-1587.325 -453.956)" fill="#fff"/>
        <path id="Path_4915" data-name="Path 4915" d="M657.455,751.1a2.765,2.765,0,1,1,2.765-2.765A2.768,2.768,0,0,1,657.455,751.1Zm0-5.219a2.455,2.455,0,1,0,2.455,2.455A2.458,2.458,0,0,0,657.455,745.881Z" transform="translate(-654.69 -714.524)" fill="#fff"/>
        <path id="Path_4916" data-name="Path 4916" d="M1211.36,335.211a7.731,7.731,0,1,1,7.731-7.731A7.739,7.739,0,0,1,1211.36,335.211Zm0-15.151a7.421,7.421,0,1,0,7.421,7.421A7.429,7.429,0,0,0,1211.36,320.06Z" transform="translate(-1163.607 -319.75)" fill="#fff"/>
        <path id="Path_4917" data-name="Path 4917" d="M1970.769,719.62a4.989,4.989,0,1,0,4.989,4.989A4.99,4.99,0,0,0,1970.769,719.62Zm2.113,4.388c-.485.157-.794-.46-1.053-1.261s-.373-1.481.113-1.639a1.558,1.558,0,0,1,.941,2.9Z" transform="translate(-1870.19 -690.466)" fill="#fff" opacity="0.49"/>
        <path id="Path_4918" data-name="Path 4918" d="M1680.279,466.31a4.989,4.989,0,1,0,4.989,4.989A4.989,4.989,0,0,0,1680.279,466.31Zm2.113,4.388c-.485.157-.794-.46-1.053-1.261s-.373-1.482.113-1.639a1.558,1.558,0,0,1,.94,2.9Z" transform="translate(-1600.879 -455.625)" fill="#fff" opacity="0.49"/>
        <path id="Path_4919" data-name="Path 4919" d="M839.133,466.1a4.3,4.3,0,1,0,4.3,4.3A4.3,4.3,0,0,0,839.133,466.1Zm1.822,3.785c-.419.136-.685-.4-.908-1.087s-.321-1.277.1-1.414a1.344,1.344,0,0,1,.812,2.5Z" transform="translate(-821.696 -455.43)" fill="#fff" opacity="0.49"/>
        <path id="Path_4920" data-name="Path 4920" d="M1238.612,331.33a6.261,6.261,0,1,0,6.261,6.261A6.262,6.262,0,0,0,1238.612,331.33Zm2.651,5.508c-.609.2-1-.577-1.323-1.581s-.467-1.859.142-2.057a1.956,1.956,0,0,1,1.181,3.638Z" transform="translate(-1190.233 -330.486)" fill="#fff" opacity="0.49"/>
        <path id="Path_4921" data-name="Path 4921" d="M672.77,753.48a1.92,1.92,0,1,0,1.92,1.92A1.92,1.92,0,0,0,672.77,753.48Zm.814,1.689c-.187.06-.305-.177-.405-.485s-.144-.57.043-.631a.6.6,0,0,1,.362,1.115Z" transform="translate(-669.672 -721.857)" fill="#fff" opacity="0.49"/>
        <path id="Path_4922" data-name="Path 4922" d="M2071.4,605.6a2.765,2.765,0,1,1,2.764-2.765A2.768,2.768,0,0,1,2071.4,605.6Zm0-5.219a2.455,2.455,0,1,0,2.455,2.455A2.457,2.457,0,0,0,2071.4,600.381Z" transform="translate(-1965.542 -579.632)" fill="#fff"/>
        <path id="Path_4923" data-name="Path 4923" d="M2086.71,607.97a1.92,1.92,0,1,0,1.921,1.92A1.92,1.92,0,0,0,2086.71,607.97Zm.814,1.69c-.187.06-.305-.177-.405-.485s-.144-.57.043-.631a.6.6,0,0,1,.362,1.116Z" transform="translate(-1980.523 -586.956)" fill="#fff" opacity="0.49"/>
      </g>
      <g id="Group_25" data-name="Group 25" transform="translate(26.307 56.022)">
        <path id="Path_4924" data-name="Path 4924" d="M569.34,1071.7h4.837v-1.637H569.34Z" transform="translate(-560.918 -1059.657)" fill="url(#linear-gradient-31)"/>
        <path id="Path_4925" data-name="Path 4925" d="M461.191,1085.722c-5.244,6.743-9.83,18.856-5.88,26.922a2.382,2.382,0,0,0,2.168,1.116h14.932a2.348,2.348,0,0,0,2.2-1.185,23.113,23.113,0,0,0,1.891-8.494,9.157,9.157,0,0,0-3.979-7.366l-3.134-2.38a1.5,1.5,0,0,1-.652-1.2l.093-6.544a1.439,1.439,0,0,0-.488-1.064h0a2.675,2.675,0,0,0-1.821-.655h-3.329A2.544,2.544,0,0,0,461.191,1085.722Z" transform="translate(-453.823 -1073.387)" fill="url(#linear-gradient-32)"/>
        <path id="Path_4926" data-name="Path 4926" d="M555.245,1036.827h5.972a.5.5,0,0,0,.5-.526l-.133-2.5a.5.5,0,0,0-.5-.473H555.4a.5.5,0,0,0-.5.468l-.16,2.5A.5.5,0,0,0,555.245,1036.827Z" transform="translate(-547.387 -1025.605)" fill="#7d97f4"/>
        <g id="Group_24" data-name="Group 24" transform="translate(12.967 2.58)">
          <path id="Path_4927" data-name="Path 4927" d="M639.409,964.443c-.08,1.479-.2,6.785,1.939,9.249a.481.481,0,0,1,.009.623h0a.478.478,0,0,1-.656.075c-.99-.751-3.654-3.04-4.133-6.235a.474.474,0,0,0-.3-.372l-3.224-1.245a.478.478,0,0,1-.12-.825c1.1-.844,3.484-2.334,6.11-1.764A.478.478,0,0,1,639.409,964.443Z" transform="translate(-632.66 -963.745)" fill="url(#linear-gradient-33)"/>
          <g id="Group_23" data-name="Group 23">
            <g id="Group_22" data-name="Group 22">
              <path id="Path_4928" data-name="Path 4928" d="M640.007,973.579a.549.549,0,0,1-.335-.112c-1.093-.829-3.686-3.1-4.163-6.286a.4.4,0,0,0-.252-.311l-3.224-1.245a.556.556,0,0,1-.14-.958,8.571,8.571,0,0,1,4.966-1.907,5.69,5.69,0,0,1,1.207.128.554.554,0,0,1,.437.573c-.084,1.543-.192,6.765,1.92,9.194a.556.556,0,0,1-.417.924Zm-3.148-10.664a8.417,8.417,0,0,0-4.871,1.875.4.4,0,0,0,.1.69l3.224,1.245a.556.556,0,0,1,.349.433c.469,3.128,3.026,5.368,4.1,6.185a.408.408,0,0,0,.549-.063.4.4,0,0,0-.009-.523c-2.149-2.473-2.042-7.747-1.958-9.3a.4.4,0,0,0-.316-.413A5.567,5.567,0,0,0,636.859,962.915Z" transform="translate(-631.678 -962.76)" fill="#91b3fa"/>
            </g>
          </g>
        </g>
        <path id="Path_4929" data-name="Path 4929" d="M730.73,930.24V934.3l2.536-.4a.632.632,0,0,0,.534-.6l.073-2.064a.633.633,0,0,0-.552-.65Z" transform="translate(-710.541 -930.031)" fill="url(#linear-gradient-34)"/>
        <path id="Path_4930" data-name="Path 4930" d="M525.215,927.752,521.2,930.86a1.817,1.817,0,0,0-.683,1.154l-.093.588a1.819,1.819,0,0,0,1.465,2.073l2.28.422H528.8l.711-2.112,4.4-1.05,1.823-.3v-4.056l-9.364-.209A1.814,1.814,0,0,0,525.215,927.752Z" transform="translate(-515.545 -927.373)" fill="url(#linear-gradient-35)"/>
        <path id="Path_4931" data-name="Path 4931" d="M540.534,945.543l-1.072,4.751a.846.846,0,0,1-.959.649l-2-.319a.847.847,0,0,1-.713-.836v-.648a.846.846,0,0,1,.329-.67l4.077-3.143A.213.213,0,0,1,540.534,945.543Z" transform="translate(-529.814 -943.976)" fill="url(#linear-gradient-36)"/>
        <path id="Path_4932" data-name="Path 4932" d="M563.268,1041.869h-.181a.077.077,0,0,1-.077-.077v-2.526a.077.077,0,0,1,.077-.077h.181a.077.077,0,0,1,.077.077v2.526A.077.077,0,0,1,563.268,1041.869Z" transform="translate(-555.049 -1031.037)" fill="#91b3fa"/>
        <path id="Path_4933" data-name="Path 4933" d="M573.988,1041.869h-.182a.077.077,0,0,1-.076-.077v-2.526a.076.076,0,0,1,.076-.077h.182a.076.076,0,0,1,.077.077v2.526A.077.077,0,0,1,573.988,1041.869Z" transform="translate(-564.988 -1031.037)" fill="#91b3fa"/>
        <path id="Path_4934" data-name="Path 4934" d="M584.7,1041.869h-.181a.077.077,0,0,1-.077-.077v-2.526a.077.077,0,0,1,.077-.077h.181a.077.077,0,0,1,.077.077v2.526A.076.076,0,0,1,584.7,1041.869Z" transform="translate(-574.917 -1031.037)" fill="#91b3fa"/>
        <path id="Path_4935" data-name="Path 4935" d="M595.418,1041.869h-.182a.077.077,0,0,1-.077-.077v-2.526a.077.077,0,0,1,.077-.077h.182a.076.076,0,0,1,.077.077v2.526A.077.077,0,0,1,595.418,1041.869Z" transform="translate(-584.855 -1031.037)" fill="#91b3fa"/>
        <path id="Path_4936" data-name="Path 4936" d="M606.138,1041.869h-.182a.077.077,0,0,1-.076-.077v-2.526a.076.076,0,0,1,.076-.077h.182a.076.076,0,0,1,.076.077v2.526A.077.077,0,0,1,606.138,1041.869Z" transform="translate(-594.794 -1031.037)" fill="#91b3fa"/>
        <path id="Path_4937" data-name="Path 4937" d="M616.848,1041.869h-.181a.077.077,0,0,1-.077-.077v-2.526a.077.077,0,0,1,.077-.077h.181a.077.077,0,0,1,.077.077v2.526A.076.076,0,0,1,616.848,1041.869Z" transform="translate(-604.723 -1031.037)" fill="#91b3fa"/>
        <path id="Path_4938" data-name="Path 4938" d="M627.568,1041.869h-.182a.077.077,0,0,1-.077-.077v-2.526a.076.076,0,0,1,.077-.077h.182a.077.077,0,0,1,.077.077v2.526A.077.077,0,0,1,627.568,1041.869Z" transform="translate(-614.661 -1031.037)" fill="#91b3fa"/>
        <path id="Path_4939" data-name="Path 4939" d="M638.288,1041.869h-.182a.077.077,0,0,1-.077-.077v-2.526a.077.077,0,0,1,.077-.077h.182a.076.076,0,0,1,.076.077v2.526A.077.077,0,0,1,638.288,1041.869Z" transform="translate(-624.6 -1031.037)" fill="#91b3fa"/>
        <path id="Path_4940" data-name="Path 4940" d="M503.019,1234.832a26.82,26.82,0,0,0-1.744,10.716,2.449,2.449,0,0,0,2.449,2.323h10.685a2.453,2.453,0,0,0,2.407-1.98l.891-4.539a2.452,2.452,0,0,0-.9-2.408c-2.09-1.624-6.626-4.81-11.034-5.641A2.456,2.456,0,0,0,503.019,1234.832Z" transform="translate(-497.787 -1210.957)" fill="#91b3fa"/>
        <path id="Path_4941" data-name="Path 4941" d="M520.989,1256.89a22.494,22.494,0,0,0-1.463,8.987,2.055,2.055,0,0,0,2.054,1.948h8.961a2.056,2.056,0,0,0,2.018-1.661l.747-3.807a2.058,2.058,0,0,0-.756-2.021c-1.753-1.362-5.558-4.034-9.255-4.732A2.061,2.061,0,0,0,520.989,1256.89Z" transform="translate(-514.712 -1231.641)" fill="#bdd0fb"/>
        <path id="Path_4942" data-name="Path 4942" d="M587.579,1303.366c-.1-1.141-.736-2.609-2.4-4.461a.245.245,0,0,0-.383.023c-.5.712-1.875,2.857-1.705,4.825a2.25,2.25,0,1,0,4.483-.387Z" transform="translate(-573.658 -1271.742)" fill="url(#linear-gradient-37)"/>
      </g>
      <path id="Path_4943" data-name="Path 4943" d="M1074.078,924.157a3.111,3.111,0,0,1,2.474-3.219c.106-.021.211-.037.317-.047a3.808,3.808,0,0,0,2.385-1.084,4.683,4.683,0,0,1,7.031.371,1.906,1.906,0,0,0,1.578.7h.028a2.762,2.762,0,0,1,.663,5.459,2.622,2.622,0,0,1-4.589,1.222,4.691,4.691,0,0,1-.841.173,4.774,4.774,0,0,1-.573.027,3.488,3.488,0,0,1-6.791-.676s0-.007,0-.011a.745.745,0,0,0-.326-.54A3.083,3.083,0,0,1,1074.078,924.157Z" transform="translate(-1002.544 -863.025)" fill="#7d97f4"/>
      <g id="Group_28" data-name="Group 28" transform="translate(54.726 51.684)">
        <g id="Group_26" data-name="Group 26" transform="translate(17.839 7.868)">
          <path id="Path_4944" data-name="Path 4944" d="M1095.352,984.813a10.392,10.392,0,0,1-4.741-1.125,1.741,1.741,0,0,0-2.1,1.292l-.187.79a1.74,1.74,0,0,0,1.292,2.095,14.711,14.711,0,0,1,4.741,1.125,1.741,1.741,0,0,0,2.1-1.292l.187-.79A1.741,1.741,0,0,0,1095.352,984.813Z" transform="translate(-1088.281 -983.069)" fill="url(#linear-gradient-38)"/>
          <path id="Path_4945" data-name="Path 4945" d="M1095.352,976.963a10.394,10.394,0,0,1-4.741-1.125,1.741,1.741,0,0,0-2.1,1.292l-.187.79a1.74,1.74,0,0,0,1.292,2.095,14.711,14.711,0,0,1,4.741,1.125,1.741,1.741,0,0,0,2.1-1.291l.187-.79A1.741,1.741,0,0,0,1095.352,976.963Z" transform="translate(-1088.281 -975.791)" fill="url(#linear-gradient-39)"/>
        </g>
        <path id="Path_4946" data-name="Path 4946" d="M850.275,1439.508a4.633,4.633,0,0,0-.421,2.014.241.241,0,0,0,.24.256h2.631a.155.155,0,0,0,.147-.2,4.207,4.207,0,0,0-1.66-2.2Z" transform="translate(-849.399 -1397.703)" fill="url(#linear-gradient-40)"/>
        <path id="Path_4947" data-name="Path 4947" d="M854.07,1425.708l.149,1.248a.235.235,0,0,0,.2.206,2.06,2.06,0,0,0,.556-.005.386.386,0,0,0,.318-.382v-1.2Z" transform="translate(-853.307 -1384.909)" fill="url(#linear-gradient-41)"/>
        <path id="Path_4948" data-name="Path 4948" d="M938.641,1439.37a3.673,3.673,0,0,0-.493,1.857.465.465,0,0,0,.467.455H942.7a.2.2,0,0,0,.112-.356,17.771,17.771,0,0,0-3.392-1.956Z" transform="translate(-931.255 -1397.703)" fill="url(#linear-gradient-42)"/>
        <path id="Path_4949" data-name="Path 4949" d="M939.14,1413.278l.317,1.541a.318.318,0,0,0,.375.25,1.154,1.154,0,0,0,.359-.15.364.364,0,0,0,.163-.373l-.328-1.866Z" transform="translate(-932.175 -1372.959)" fill="url(#linear-gradient-43)"/>
        <path id="Path_4950" data-name="Path 4950" d="M844.951,1127.05a4.418,4.418,0,0,0-1.311,2.144c-.208,1.17.588,20.2.588,20.2a3.088,3.088,0,0,0,1.672-.161s.674-12.347,1.188-15.2c0,0,2.69,12.79,3.435,15.1a3.5,3.5,0,0,0,1.406-.073s-.7-16.579-1.589-19.527Z" transform="translate(-843.606 -1108.153)" fill="url(#linear-gradient-44)"/>
        <path id="Path_4951" data-name="Path 4951" d="M871.393,1183.536l-.46-1.764-.983-.631.1-.152,1.043.669.478,1.832Z" transform="translate(-868.029 -1158.161)" fill="url(#linear-gradient-45)"/>
        <path id="Path_4952" data-name="Path 4952" d="M868.9,967.252c-1.635-1.762-4.751-2.558-6.554-2.886a1.654,1.654,0,0,0-1.849,1.049c-.811,2.182-3.019,7.858-3.447,8.834-.351.8-.717,1.582-.951,2.071a.586.586,0,0,0,.274.782,42.943,42.943,0,0,0,5.354,1.882.379.379,0,0,0,.486-.365,1.182,1.182,0,0,1,.169-.61l4.192-6.986c2.613,2.9,4.9,3.162,6.659,2.528a13.223,13.223,0,0,1-.582-2.746C870.055,970.359,868.9,967.252,868.9,967.252Z" transform="translate(-855.134 -957.306)" fill="url(#linear-gradient-46)"/>
        <path id="Path_4953" data-name="Path 4953" d="M1088.172,1038.395l-.469-.625a5.179,5.179,0,0,1-3.823,1.111,13.24,13.24,0,0,0,.582,2.746A8.163,8.163,0,0,0,1088.172,1038.395Z" transform="translate(-1066.362 -1025.383)" fill="url(#linear-gradient-47)"/>
        <path id="Path_4954" data-name="Path 4954" d="M958.813,920.33l-1.393,3.4a5.581,5.581,0,0,0,2.889,1l.7-3.057Z" transform="translate(-949.122 -916.505)" fill="url(#linear-gradient-48)"/>
        <g id="Group_27" data-name="Group 27" transform="translate(8.58 0.367)">
          <path id="Path_4955" data-name="Path 4955" d="M977.8,886c.032.045,1.008,3.571,1.008,3.571l-2.025.515-1.422-3.2S977.264,885.244,977.8,886Z" transform="translate(-974.334 -884.861)" fill="url(#linear-gradient-49)"/>
          <path id="Path_4956" data-name="Path 4956" d="M963.075,875.417l.616,1.745a.255.255,0,0,0,.032.063c.084.119.4.507.778.157a2.32,2.32,0,0,1,.951-.652.257.257,0,0,1,.294.185,11.2,11.2,0,0,1,.34,1.7.258.258,0,0,1-.21.278,8.359,8.359,0,0,1-1.934.161.258.258,0,0,1-.218-.15c-.193-.421-.784-1.7-1-2.031-.206-.311-.713-.3-.924-.283a.255.255,0,0,1-.19-.062.67.67,0,0,1-.042-1.075.259.259,0,0,0-.006-.373.671.671,0,0,1-.086-1,.948.948,0,0,1,1.131-.27.258.258,0,0,0,.311-.115.205.205,0,0,1,.211-.1.255.255,0,0,0,.272-.261c-.005-.287.14-.213.638-.368.884-.276.661.443.715,1.08s-.188.581-.762.538c-.437-.033-.76.4-.89.609A.26.26,0,0,0,963.075,875.417Z" transform="translate(-961.286 -872.909)" fill="url(#linear-gradient-50)"/>
          <path id="Path_4957" data-name="Path 4957" d="M968.3,921.127s-.143-1.107-.6-1.161-.908.324-.451.946C967.812,921.685,968.3,921.127,968.3,921.127Z" transform="translate(-966.63 -916.53)" fill="url(#linear-gradient-51)"/>
        </g>
        <path id="Path_4958" data-name="Path 4958" d="M1120.91,1000.035l.043-.6a1.122,1.122,0,0,1-.814-.569c-.184-.469-.788-1.123,0-.537s1.341-.017,1.743-1.005.8-.972,1.106-.838.1,2.054-1.567,3.575Z" transform="translate(-1099.612 -987.044)" fill="url(#linear-gradient-52)"/>
        <path id="Path_4959" data-name="Path 4959" d="M961.231,870.78s5.041-1.284,5.857-1.6c0,0,.2-.573-2.326,0,0,0-.26-1.8-2.3-1.174A1.791,1.791,0,0,0,961.231,870.78Z" transform="translate(-952.372 -867.869)" fill="url(#linear-gradient-53)"/>
      </g>
      <g id="Group_31" data-name="Group 31" transform="translate(5.474 15.928)">
        <g id="Group_29" data-name="Group 29" transform="translate(0 0)">
          <path id="Path_4960" data-name="Path 4960" d="M180.383,402.636a.451.451,0,0,1-.069-.005l-2.753-.386a.5.5,0,0,1-.421-.4l-.41-2.108a10.394,10.394,0,0,1-2.612-1.539l-2.044.663a.5.5,0,0,1-.554-.175l-1.673-2.22a.5.5,0,0,1-.015-.581l1.2-1.781a10.386,10.386,0,0,1-.76-2.935l-1.912-.976a.5.5,0,0,1-.268-.515l.386-2.753a.5.5,0,0,1,.4-.421l2.107-.411a10.4,10.4,0,0,1,1.539-2.612l-.663-2.043a.5.5,0,0,1,.175-.554l2.22-1.673a.5.5,0,0,1,.581-.015l1.781,1.2a10.387,10.387,0,0,1,2.935-.76l.976-1.912a.5.5,0,0,1,.515-.268l2.753.386a.5.5,0,0,1,.421.4l.41,2.107a10.421,10.421,0,0,1,2.612,1.539l2.044-.663a.5.5,0,0,1,.554.174l1.673,2.22a.5.5,0,0,1,.015.581l-1.2,1.781a10.387,10.387,0,0,1,.76,2.935l1.912.976a.5.5,0,0,1,.268.515l-.386,2.753a.5.5,0,0,1-.4.421l-2.107.411a10.407,10.407,0,0,1-1.539,2.612l.663,2.043a.5.5,0,0,1-.175.554l-2.22,1.673a.5.5,0,0,1-.581.015l-1.781-1.2a10.378,10.378,0,0,1-2.935.76l-.976,1.912A.5.5,0,0,1,180.383,402.636Zm-2.652-.994,2.584.363,1.091-2.14.171-.015a9.778,9.778,0,0,0,3.069-.795l.157-.069,1.993,1.343,2.084-1.57-.742-2.286.109-.131a9.775,9.775,0,0,0,1.61-2.732l.062-.16,2.358-.459.363-2.584-2.14-1.091-.015-.171a9.775,9.775,0,0,0-.8-3.069l-.069-.157,1.343-1.993-1.57-2.084-2.286.742-.131-.109a9.783,9.783,0,0,0-2.731-1.61l-.16-.062-.459-2.357-2.584-.363-1.091,2.14-.171.015a9.776,9.776,0,0,0-3.069.8l-.157.069-1.993-1.343-2.084,1.57.742,2.286-.109.131a9.772,9.772,0,0,0-1.61,2.731l-.062.16-2.358.459-.363,2.584,2.14,1.091.015.171a9.775,9.775,0,0,0,.8,3.069l.069.157-1.343,1.993,1.57,2.084,2.286-.742.131.109a9.761,9.761,0,0,0,2.731,1.61l.16.062Zm3-4.536a7.205,7.205,0,0,1-.991-.069,7.017,7.017,0,0,1-5.973-7.926,7.066,7.066,0,0,1,.362-1.449.31.31,0,1,1,.583.214,6.439,6.439,0,0,0-.331,1.322,6.4,6.4,0,1,0,3.846-5,.31.31,0,0,1-.241-.572,7.019,7.019,0,1,1,2.746,13.485Z" transform="translate(-168.085 -377.45)" fill="#91b3fa"/>
          <path id="Path_4961" data-name="Path 4961" d="M305.47,517.618a2.779,2.779,0,0,1-2.757-2.48h0a2.779,2.779,0,1,1,3.061,2.464A2.675,2.675,0,0,1,305.47,517.618Zm.007-4.937a2.3,2.3,0,0,0-.234.012,2.162,2.162,0,0,0-1.914,2.378h0a2.158,2.158,0,1,0,2.148-2.391Z" transform="translate(-292.882 -502.246)" fill="#91b3fa"/>
        </g>
        <g id="Group_30" data-name="Group 30" transform="translate(18.315 22.976)">
          <path id="Path_4962" data-name="Path 4962" d="M425.657,704.851a.325.325,0,0,1-.286-.172l-.462-.873a5.08,5.08,0,0,1-1.353-.328l-.811.565a.323.323,0,0,1-.376,0l-1.081-.788a.324.324,0,0,1-.119-.356l.29-.945a5.093,5.093,0,0,1-.726-1.188l-.972-.174a.324.324,0,0,1-.263-.269l-.206-1.32a.323.323,0,0,1,.168-.336l.873-.462a5.077,5.077,0,0,1,.328-1.353l-.565-.811a.324.324,0,0,1,0-.376l.788-1.08a.325.325,0,0,1,.357-.119l.944.29a5.081,5.081,0,0,1,1.188-.725l.173-.972a.324.324,0,0,1,.269-.263l1.321-.207a.327.327,0,0,1,.337.168l.462.873a5.078,5.078,0,0,1,1.353.328l.811-.565a.324.324,0,0,1,.376,0l1.081.788a.324.324,0,0,1,.119.357l-.29.944a5.08,5.08,0,0,1,.725,1.188l.973.174a.324.324,0,0,1,.263.269l.206,1.321a.325.325,0,0,1-.169.337l-.872.462a5.076,5.076,0,0,1-.328,1.353l.565.811a.325.325,0,0,1,0,.376l-.788,1.081a.326.326,0,0,1-.357.119l-.944-.29a5.111,5.111,0,0,1-1.188.726l-.174.972a.324.324,0,0,1-.269.263l-1.321.207C425.69,704.85,425.673,704.851,425.657,704.851Zm-2.159-1.9.118.05a4.6,4.6,0,0,0,1.456.353l.128.009.534,1.009,1.123-.176.2-1.124.119-.048a4.6,4.6,0,0,0,1.278-.781l.1-.084,1.092.335.669-.918-.653-.938.05-.118a4.614,4.614,0,0,0,.353-1.455l.009-.128,1.009-.534-.176-1.123-1.124-.2-.048-.119a4.618,4.618,0,0,0-.781-1.278l-.084-.1.335-1.092-.918-.669-.938.653-.118-.05a4.6,4.6,0,0,0-1.456-.353l-.128-.009-.534-1.009-1.122.176-.2,1.124-.119.048a4.634,4.634,0,0,0-1.278.78l-.1.084-1.092-.335-.669.918.653.938-.05.118a4.62,4.62,0,0,0-.353,1.456l-.009.128-1.009.534.176,1.123,1.124.2.048.119a4.6,4.6,0,0,0,.781,1.278l.084.1-.335,1.092.918.669Zm-3.541-2.7Zm-.114-.117h0Zm11.329-1.772Zm-.166-1.057Zm-5.564,4.889a3.46,3.46,0,0,1-3.41-2.925,3.5,3.5,0,0,1-.036-.736.233.233,0,1,1,.464.027,2.991,2.991,0,1,0,1.073-2.128.232.232,0,1,1-.3-.356,3.457,3.457,0,1,1,2.206,6.118Z" transform="translate(-419.287 -692.581)" fill="#91b3fa"/>
        </g>
      </g>
      <g id="Group_34" data-name="Group 34" transform="translate(30.745 9.801)">
        <g id="Group_32" data-name="Group 32" transform="translate(0 6.039)">
          <path id="Path_4963" data-name="Path 4963" d="M649.3,816.824l-.433.155h0a.142.142,0,1,1-.1-.268h0l.443-.157a.142.142,0,0,1,.095.267Z" transform="translate(-638.907 -784.446)" fill="#fff"/>
          <path id="Path_4964" data-name="Path 4964" d="M629.869,824.76l-.412.2,0,0a.144.144,0,0,1-.128-.257h0l.422-.208a.143.143,0,1,1,.127.257Z" transform="translate(-620.893 -791.807)" fill="#fff"/>
          <path id="Path_4965" data-name="Path 4965" d="M611.535,834.924l-.386.249,0,0a.146.146,0,0,1-.158-.244h0l.4-.254a.145.145,0,0,1,.157.244Z" transform="translate(-603.904 -801.234)" fill="#fff"/>
          <path id="Path_4966" data-name="Path 4966" d="M594.472,847.047l-.358.289,0,0a.147.147,0,0,1-.185-.229h0l.366-.294a.147.147,0,1,1,.185.228Z" transform="translate(-588.097 -812.478)" fill="#fff"/>
          <path id="Path_4967" data-name="Path 4967" d="M578.841,860.978l-.327.325,0,0a.149.149,0,0,1-.209-.211h0l.334-.33a.148.148,0,1,1,.208.211Z" transform="translate(-573.624 -825.401)" fill="#fff"/>
          <path id="Path_4968" data-name="Path 4968" d="M564.7,876.443l-.293.356,0,0a.15.15,0,0,1-.232-.191h0l.3-.362a.15.15,0,0,1,.23.191Z" transform="translate(-560.535 -839.746)" fill="#fff"/>
          <path id="Path_4969" data-name="Path 4969" d="M552.16,893.228l-.258.382,0,0a.152.152,0,0,1-.252-.171h0l.263-.389a.152.152,0,0,1,.251.171Z" transform="translate(-548.928 -855.314)" fill="#fff"/>
          <path id="Path_4970" data-name="Path 4970" d="M541.3,911.189l-.221.4,0,0a.154.154,0,0,1-.27-.147h0l.226-.411a.153.153,0,0,1,.268.147Z" transform="translate(-538.888 -871.974)" fill="#fff"/>
          <path id="Path_4971" data-name="Path 4971" d="M532.2,930.127l-.182.424v0a.155.155,0,1,1-.285-.123h0l.187-.431a.155.155,0,1,1,.284.123Z" transform="translate(-530.481 -889.542)" fill="#fff"/>
          <path id="Path_4972" data-name="Path 4972" d="M524.927,949.875l-.141.438,0,0a.157.157,0,0,1-.3-.1h0l.145-.446a.157.157,0,1,1,.3.1Z" transform="translate(-523.764 -907.86)" fill="#fff"/>
          <path id="Path_4973" data-name="Path 4973" d="M519.563,970.245l-.1.45v0a.159.159,0,0,1-.311-.069h0l.1-.458a.158.158,0,1,1,.309.068Z" transform="translate(-518.823 -926.755)" fill="#fff"/>
          <path id="Path_4974" data-name="Path 4974" d="M516.228,991.107l-.055.457v.005a.16.16,0,0,1-.319-.039h0l.057-.467a.16.16,0,0,1,.317.039Z" transform="translate(-515.768 -946.109)" fill="#fff"/>
          <path id="Path_4975" data-name="Path 4975" d="M515.022,1012.25l-.008.46v.005a.162.162,0,0,1-.324-.005h0l.009-.47a.161.161,0,1,1,.323.006Z" transform="translate(-514.69 -965.723)" fill="#fff"/>
          <path id="Path_4976" data-name="Path 4976" d="M515.509,1033.467l.039.459v.005a.164.164,0,0,1-.327.028h0l-.039-.468a.164.164,0,1,1,.326-.027Z" transform="translate(-515.147 -985.407)" fill="#fff"/>
          <path id="Path_4977" data-name="Path 4977" d="M517.963,1054.526l.082.453v0a.166.166,0,0,1-.326.059h0l-.083-.462a.165.165,0,0,1,.325-.058Z" transform="translate(-517.42 -1004.943)" fill="#fff"/>
          <path id="Path_4978" data-name="Path 4978" d="M522.414,1075.291l.124.443v0a.167.167,0,0,1-.322.09h0l-.125-.453a.166.166,0,1,1,.321-.089Z" transform="translate(-521.546 -1024.208)" fill="#fff"/>
          <path id="Path_4979" data-name="Path 4979" d="M528.729,1095.543l.163.431v0a.169.169,0,0,1-.316.12h0l-.165-.44a.168.168,0,0,1,.315-.118Z" transform="translate(-527.401 -1042.997)" fill="#fff"/>
          <path id="Path_4980" data-name="Path 4980" d="M536.835,1115.16l.2.416,0,0a.17.17,0,0,1-.307.148h0l-.2-.424a.17.17,0,0,1,.307-.146Z" transform="translate(-534.919 -1061.195)" fill="#fff"/>
          <path id="Path_4981" data-name="Path 4981" d="M546.547,1134.008l.233.4,0,0a.172.172,0,1,1-.3.174h0l-.237-.405a.172.172,0,0,1,.3-.174Z" transform="translate(-543.926 -1078.68)" fill="#fff"/>
          <path id="Path_4982" data-name="Path 4982" d="M557.8,1152.008l.265.377,0,0a.174.174,0,1,1-.284.2h0l-.269-.384a.173.173,0,1,1,.284-.2Z" transform="translate(-554.362 -1095.378)" fill="#fff"/>
          <path id="Path_4983" data-name="Path 4983" d="M570.464,1169.019l.295.354,0,0a.176.176,0,1,1-.271.224h0l-.3-.362a.175.175,0,1,1,.27-.223Z" transform="translate(-566.108 -1111.158)" fill="#fff"/>
          <path id="Path_4984" data-name="Path 4984" d="M584.432,1184.982l.322.33,0,0a.177.177,0,0,1-.255.247h0l-.327-.337a.177.177,0,1,1,.254-.246Z" transform="translate(-579.063 -1125.967)" fill="#fff"/>
          <path id="Path_4985" data-name="Path 4985" d="M599.631,1199.808l.346.3,0,0a.179.179,0,1,1-.235.269h0l-.352-.31a.178.178,0,0,1,.235-.268Z" transform="translate(-593.161 -1139.722)" fill="#fff"/>
          <path id="Path_4986" data-name="Path 4986" d="M615.939,1213.355l.37.276,0,0a.181.181,0,1,1-.216.29h0l-.376-.281a.18.18,0,1,1,.216-.289Z" transform="translate(-608.287 -1152.289)" fill="#fff"/>
          <path id="Path_4987" data-name="Path 4987" d="M633.294,1225.54l.391.244,0,0a.182.182,0,0,1-.194.309h0l-.4-.25a.182.182,0,0,1,.194-.308Z" transform="translate(-624.385 -1163.591)" fill="#fff"/>
          <path id="Path_4988" data-name="Path 4988" d="M651.6,1236.29l.409.211,0,0a.184.184,0,0,1-.168.327h0l-.417-.216a.183.183,0,1,1,.168-.326Z" transform="translate(-641.366 -1173.566)" fill="#fff"/>
          <path id="Path_4989" data-name="Path 4989" d="M670.7,1245.47l.425.178,0,0a.186.186,0,1,1-.143.343h0l-.433-.182a.185.185,0,0,1,.144-.342Z" transform="translate(-659.087 -1182.081)" fill="#fff"/>
          <path id="Path_4990" data-name="Path 4990" d="M690.5,1253.138l.438.144h0a.187.187,0,0,1-.118.356h0l-.445-.148a.187.187,0,1,1,.118-.354Z" transform="translate(-677.447 -1189.196)" fill="#fff"/>
          <path id="Path_4991" data-name="Path 4991" d="M710.822,1259.261l.447.112h0a.189.189,0,0,1-.091.367h0l-.455-.115a.189.189,0,0,1,.092-.366Z" transform="translate(-696.301 -1194.876)" fill="#fff"/>
          <path id="Path_4992" data-name="Path 4992" d="M731.508,1263.884l.454.079h0a.191.191,0,1,1-.066.376h0l-.462-.082a.19.19,0,1,1,.066-.375Z" transform="translate(-715.489 -1199.165)" fill="#fff"/>
          <path id="Path_4993" data-name="Path 4993" d="M752.512,1267.026l.459.047h0a.192.192,0,1,1-.039.383h0l-.467-.049a.192.192,0,0,1,.04-.381Z" transform="translate(-734.972 -1202.08)" fill="#fff"/>
          <path id="Path_4994" data-name="Path 4994" d="M773.663,1268.679l.461.016h0a.194.194,0,0,1-.013.388h0l-.469-.018a.194.194,0,1,1,.014-.387Z" transform="translate(-754.592 -1203.613)" fill="#fff"/>
          <path id="Path_4995" data-name="Path 4995" d="M794.893,1268.733l.461-.015h0a.2.2,0,1,1,.012.391h0l-.469.014a.2.2,0,0,1-.012-.391Z" transform="translate(-774.284 -1203.65)" fill="#fff"/>
          <path id="Path_4996" data-name="Path 4996" d="M816.1,1267.194l.459-.045h0a.2.2,0,0,1,.037.392h0l-.467.044a.2.2,0,1,1-.037-.391Z" transform="translate(-793.956 -1202.194)" fill="#fff"/>
          <path id="Path_4997" data-name="Path 4997" d="M837.194,1264.312l.456-.074h0a.2.2,0,1,1,.063.389h0l-.463.074a.2.2,0,1,1-.063-.389Z" transform="translate(-813.524 -1199.493)" fill="#fff"/>
          <path id="Path_4998" data-name="Path 4998" d="M858.09,1260.09l.45-.1h0a.2.2,0,0,1,.088.385h0l-.457.1a.2.2,0,0,1-.088-.385Z" transform="translate(-832.907 -1195.551)" fill="#fff"/>
          <path id="Path_4999" data-name="Path 4999" d="M878.7,1254.559l.443-.13h0a.2.2,0,0,1,.112.379h0l-.45.133a.2.2,0,1,1-.112-.379Z" transform="translate(-852.021 -1190.394)" fill="#fff"/>
          <path id="Path_5000" data-name="Path 5000" d="M898.926,1247.715l.433-.159h0a.2.2,0,1,1,.136.372h0l-.44.161a.2.2,0,0,1-.136-.373Z" transform="translate(-870.788 -1184.018)" fill="#fff"/>
          <path id="Path_5001" data-name="Path 5001" d="M918.709,1239.621l.422-.186h0a.2.2,0,0,1,.16.364h0l-.429.189a.2.2,0,0,1-.16-.364Z" transform="translate(-889.139 -1176.485)" fill="#fff"/>
          <path id="Path_5002" data-name="Path 5002" d="M937.985,1230.353l.411-.21h0a.2.2,0,1,1,.181.354h0l-.417.213a.2.2,0,0,1-.181-.354Z" transform="translate(-907.02 -1167.865)" fill="#fff"/>
          <path id="Path_5003" data-name="Path 5003" d="M956.71,1220.038l.4-.232,0,0a.2.2,0,0,1,.2.345h0l-.4.235a.2.2,0,0,1-.2-.345Z" transform="translate(-924.388 -1158.278)" fill="#fff"/>
          <path id="Path_5004" data-name="Path 5004" d="M974.877,1208.76l.387-.252h0a.2.2,0,0,1,.218.335h0l-.392.255a.2.2,0,1,1-.218-.335Z" transform="translate(-941.238 -1147.797)" fill="#fff"/>
          <path id="Path_5005" data-name="Path 5005" d="M992.475,1196.629l.375-.271h0a.2.2,0,0,1,.234.324h0l-.38.273a.2.2,0,1,1-.234-.324Z" transform="translate(-957.561 -1136.53)" fill="#fff"/>
          <path id="Path_5006" data-name="Path 5006" d="M1009.53,1183.729l.363-.287h0a.2.2,0,1,1,.248.315h0l-.367.289a.2.2,0,0,1-.248-.315Z" transform="translate(-973.379 -1124.551)" fill="#fff"/>
          <path id="Path_5007" data-name="Path 5007" d="M1026.043,1170.17l.352-.3h0a.2.2,0,1,1,.26.306h0l-.356.3a.2.2,0,1,1-.26-.306Z" transform="translate(-988.693 -1111.962)" fill="#fff"/>
          <path id="Path_5008" data-name="Path 5008" d="M1042.068,1156.047l.343-.312h0a.2.2,0,1,1,.271.3h0l-.345.314a.2.2,0,1,1-.271-.3Z" transform="translate(-1003.555 -1098.854)" fill="#fff"/>
          <path id="Path_5009" data-name="Path 5009" d="M1057.628,1141.463l.333-.322h0a.2.2,0,1,1,.28.29h0l-.336.324a.2.2,0,1,1-.28-.29Z" transform="translate(-1017.984 -1085.322)" fill="#fff"/>
          <path id="Path_5010" data-name="Path 5010" d="M1072.8,1126.456l.326-.33h0a.2.2,0,0,1,.288.284h0l-.328.332a.2.2,0,0,1-.287-.284Z" transform="translate(-1032.05 -1071.397)" fill="#fff"/>
          <path id="Path_5011" data-name="Path 5011" d="M1087.631,1111.136l.319-.337h0a.2.2,0,0,1,.294.278h0l-.321.339a.2.2,0,0,1-.293-.279Z" transform="translate(-1045.807 -1057.185)" fill="#fff"/>
          <path id="Path_5012" data-name="Path 5012" d="M1102.164,1095.557l.314-.342h0a.2.2,0,1,1,.3.274h0l-.316.343a.2.2,0,0,1-.287.012.2.2,0,0,1-.012-.286Z" transform="translate(-1059.282 -1042.735)" fill="#fff"/>
          <path id="Path_5013" data-name="Path 5013" d="M1116.485,1079.8l.311-.346a.2.2,0,1,1,.3.271h0l-.311.347a.2.2,0,1,1-.3-.272Z" transform="translate(-1072.56 -1028.124)" fill="#fff"/>
          <path id="Path_5014" data-name="Path 5014" d="M1130.639,1063.9l.307-.349a.2.2,0,0,1,.306.269h0l-.308.349a.2.2,0,1,1-.3-.27Z" transform="translate(-1085.683 -1013.377)" fill="#fff"/>
          <path id="Path_5015" data-name="Path 5015" d="M1144.686,1047.935l.306-.349a.2.2,0,1,1,.307.269h0l-.307.35a.2.2,0,1,1-.306-.27Z" transform="translate(-1098.707 -998.576)" fill="#fff"/>
          <path id="Path_5016" data-name="Path 5016" d="M1158.7,1031.936l.307-.35a.2.2,0,1,1,.307.269h0l-.307.349a.2.2,0,1,1-.307-.268Z" transform="translate(-1111.696 -983.742)" fill="#fff"/>
          <path id="Path_5017" data-name="Path 5017" d="M1172.734,1015.97l.308-.349a.2.2,0,0,1,.307.271h0l-.308.348a.205.205,0,0,1-.308-.271Z" transform="translate(-1124.709 -968.942)" fill="#fff"/>
          <path id="Path_5018" data-name="Path 5018" d="M1186.842,1000.08l.311-.347a.2.2,0,1,1,.305.273h0l-.311.346a.2.2,0,1,1-.3-.273Z" transform="translate(-1137.788 -954.213)" fill="#fff"/>
          <path id="Path_5019" data-name="Path 5019" d="M1201.094,984.347l.315-.343a.205.205,0,1,1,.3.278h0l-.314.342h0a.205.205,0,1,1-.3-.278Z" transform="translate(-1150.999 -939.632)" fill="#fff"/>
          <path id="Path_5020" data-name="Path 5020" d="M1215.544,968.8l.32-.339a.206.206,0,1,1,.3.283h0l-.319.337h0a.205.205,0,1,1-.3-.282Z" transform="translate(-1164.393 -925.226)" fill="#fff"/>
          <path id="Path_5021" data-name="Path 5021" d="M1230.254,953.525l.327-.332a.206.206,0,1,1,.295.289h0l-.325.331h0a.206.206,0,0,1-.295-.289Z" transform="translate(-1178.028 -911.072)" fill="#fff"/>
          <path id="Path_5022" data-name="Path 5022" d="M1245.274,938.564l.335-.325a.207.207,0,0,1,.288.3h0l-.332.323h0a.206.206,0,1,1-.287-.3Z" transform="translate(-1191.949 -897.212)" fill="#fff"/>
          <path id="Path_5023" data-name="Path 5023" d="M1260.659,924l.344-.316a.207.207,0,1,1,.28.3h0l-.341.313h0a.207.207,0,1,1-.279-.305Z" transform="translate(-1206.209 -883.722)" fill="#fff"/>
          <path id="Path_5024" data-name="Path 5024" d="M1276.468,909.9l.354-.305a.207.207,0,1,1,.271.313h0l-.351.3h0a.207.207,0,1,1-.271-.313Z" transform="translate(-1220.862 -870.667)" fill="#fff"/>
          <path id="Path_5025" data-name="Path 5025" d="M1292.738,896.368l.365-.292a.208.208,0,1,1,.26.324h0l-.361.289h0a.208.208,0,0,1-.26-.324Z" transform="translate(-1235.939 -858.134)" fill="#fff"/>
          <path id="Path_5026" data-name="Path 5026" d="M1309.508,883.478l.376-.278a.208.208,0,1,1,.247.335h0l-.372.275h0a.208.208,0,0,1-.247-.335Z" transform="translate(-1251.48 -846.202)" fill="#fff"/>
          <path id="Path_5027" data-name="Path 5027" d="M1326.809,871.33l.389-.26a.209.209,0,0,1,.233.346h0l-.384.257h0a.209.209,0,0,1-.233-.346Z" transform="translate(-1267.513 -834.961)" fill="#fff"/>
          <path id="Path_5028" data-name="Path 5028" d="M1344.674,860.009l.4-.242a.209.209,0,1,1,.216.357h0l-.4.238,0,0a.209.209,0,0,1-.217-.357Z" transform="translate(-1284.068 -824.487)" fill="#fff"/>
          <path id="Path_5029" data-name="Path 5029" d="M1363.057,849.563l.412-.223a.209.209,0,0,1,.2.368h0l-.407.219h0a.209.209,0,1,1-.2-.367Z" transform="translate(-1301.102 -814.825)" fill="#fff"/>
          <path id="Path_5030" data-name="Path 5030" d="M1381.923,840l.421-.2a.21.21,0,1,1,.182.378h0l-.416.2,0,0a.21.21,0,1,1-.182-.378Z" transform="translate(-1318.584 -805.979)" fill="#fff"/>
          <path id="Path_5031" data-name="Path 5031" d="M1401.218,831.286l.43-.184a.21.21,0,1,1,.165.386h0l-.425.182h0a.21.21,0,1,1-.165-.386Z" transform="translate(-1336.464 -797.924)" fill="#fff"/>
          <path id="Path_5032" data-name="Path 5032" d="M1420.9,823.463l.438-.165a.211.211,0,0,1,.149.394h0l-.433.163h0a.21.21,0,1,1-.148-.393Z" transform="translate(-1354.704 -790.692)" fill="#fff"/>
          <path id="Path_5033" data-name="Path 5033" d="M1440.914,816.511l.445-.146a.211.211,0,1,1,.131.4h0l-.44.144h0a.21.21,0,0,1-.13-.4Z" transform="translate(-1373.25 -784.267)" fill="#fff"/>
          <path id="Path_5034" data-name="Path 5034" d="M1461.222,810.447l.451-.126a.211.211,0,0,1,.114.407h0l-.446.125h0a.211.211,0,1,1-.113-.407Z" transform="translate(-1392.068 -778.666)" fill="#fff"/>
          <path id="Path_5035" data-name="Path 5035" d="M1481.8,805.273l.456-.106a.212.212,0,1,1,.1.412h0l-.45.1h0a.212.212,0,0,1-.1-.412Z" transform="translate(-1411.138 -773.89)" fill="#fff"/>
          <path id="Path_5036" data-name="Path 5036" d="M1502.571,800.97l.46-.087a.212.212,0,1,1,.079.416h0l-.454.086h0a.212.212,0,0,1-.079-.416Z" transform="translate(-1430.386 -769.92)" fill="#fff"/>
          <path id="Path_5037" data-name="Path 5037" d="M1523.514,797.55l.463-.068a.212.212,0,1,1,.061.42h0l-.458.067h0a.212.212,0,1,1-.061-.421Z" transform="translate(-1449.793 -766.769)" fill="#fff"/>
          <path id="Path_5038" data-name="Path 5038" d="M1544.6,795l.465-.049a.213.213,0,1,1,.044.423h0l-.46.048h0a.212.212,0,1,1-.043-.422Z" transform="translate(-1469.332 -764.427)" fill="#fff"/>
          <path id="Path_5039" data-name="Path 5039" d="M1565.785,793.354l.467-.029a.213.213,0,0,1,.027.425h0l-.461.029h0a.213.213,0,1,1-.026-.424Z" transform="translate(-1488.966 -762.916)" fill="#fff"/>
          <path id="Path_5040" data-name="Path 5040" d="M1587.029,792.579l.467-.009a.213.213,0,1,1,.01.426h0l-.462.009h0a.213.213,0,1,1-.009-.427Z" transform="translate(-1508.652 -762.217)" fill="#fff"/>
          <path id="Path_5041" data-name="Path 5041" d="M1608.288,792.56l.467.009a.214.214,0,1,1-.009.427h0l-.462-.009h0a.214.214,0,1,1,.01-.427Z" transform="translate(-1528.352 -762.207)" fill="#fff"/>
          <path id="Path_5042" data-name="Path 5042" d="M1629.542,793.3l.467.029a.214.214,0,0,1-.026.427h0l-.462-.029h0a.214.214,0,1,1,.027-.427Z" transform="translate(-1548.048 -762.898)" fill="#fff"/>
          <path id="Path_5043" data-name="Path 5043" d="M1650.751,794.935l.465.049a.214.214,0,1,1-.045.426h0l-.46-.048h0a.215.215,0,0,1,.045-.427Z" transform="translate(-1567.702 -764.408)" fill="#fff"/>
          <path id="Path_5044" data-name="Path 5044" d="M1671.873,797.45l.463.068a.215.215,0,0,1-.063.426h0l-.457-.068h0a.215.215,0,0,1,.063-.424Z" transform="translate(-1587.277 -766.739)" fill="#fff"/>
          <path id="Path_5045" data-name="Path 5045" d="M1692.871,800.85l.459.087a.215.215,0,0,1-.08.423h0l-.454-.087h0a.215.215,0,0,1,.081-.422Z" transform="translate(-1606.735 -769.89)" fill="#fff"/>
          <path id="Path_5046" data-name="Path 5046" d="M1713.687,805.148l.456.107a.216.216,0,0,1-.1.42h0l-.45-.106h0a.215.215,0,1,1,.1-.419Z" transform="translate(-1626.024 -773.872)" fill="#fff"/>
          <path id="Path_5047" data-name="Path 5047" d="M1734.32,810.344l.451.127a.216.216,0,0,1-.117.416h0l-.445-.125h0a.216.216,0,0,1,.117-.416Z" transform="translate(-1645.144 -778.688)" fill="#fff"/>
          <path id="Path_5048" data-name="Path 5048" d="M1754.691,816.432l.444.146a.217.217,0,1,1-.135.411h0l-.439-.145h0a.217.217,0,0,1,.136-.411Z" transform="translate(-1664.02 -784.329)" fill="#fff"/>
          <path id="Path_5049" data-name="Path 5049" d="M1774.781,823.421l.438.167a.217.217,0,1,1-.155.405h0l-.432-.165h0a.217.217,0,0,1,.155-.406Z" transform="translate(-1682.637 -790.806)" fill="#fff"/>
          <path id="Path_5050" data-name="Path 5050" d="M1794.533,831.308l.429.187a.217.217,0,1,1-.173.4h0l-.423-.185h0a.217.217,0,0,1,.173-.4Z" transform="translate(-1700.94 -798.114)" fill="#fff"/>
          <path id="Path_5051" data-name="Path 5051" d="M1813.9,840.09l.421.206a.217.217,0,0,1-.191.391h0l-.415-.2,0,0a.218.218,0,0,1,.191-.391Z" transform="translate(-1718.89 -806.252)" fill="#fff"/>
          <path id="Path_5052" data-name="Path 5052" d="M1832.834,849.764l.41.226a.218.218,0,1,1-.21.382h0l0,0-.4-.223h0a.218.218,0,1,1,.21-.382Z" transform="translate(-1736.431 -815.216)" fill="#fff"/>
          <path id="Path_5053" data-name="Path 5053" d="M1851.286,860.323l.4.245a.218.218,0,1,1-.228.373h0l-.394-.242h0a.219.219,0,0,1,.229-.373Z" transform="translate(-1753.528 -825)" fill="#fff"/>
          <path id="Path_5054" data-name="Path 5054" d="M1869.264,871.721l.389.26a.219.219,0,0,1-.243.364h0l-.385-.257h0a.219.219,0,0,1,.242-.364Z" transform="translate(-1770.189 -835.563)" fill="#fff"/>
          <path id="Path_5055" data-name="Path 5055" d="M1886.829,883.7l.381.268a.219.219,0,1,1-.252.359h0l-.379-.267h0a.219.219,0,0,1,.252-.359Z" transform="translate(-1786.469 -846.67)" fill="#fff"/>
          <path id="Path_5056" data-name="Path 5056" d="M1904.153,896.03l.377.272a.219.219,0,1,1-.257.356h0l-.377-.272a.219.219,0,1,1,.256-.356Z" transform="translate(-1802.526 -858.096)" fill="#fff"/>
          <path id="Path_5057" data-name="Path 5057" d="M1921.386,908.473l.377.271a.22.22,0,0,1-.256.358h0l-.377-.272a.22.22,0,0,1,.257-.357Z" transform="translate(-1818.502 -869.631)" fill="#fff"/>
          <path id="Path_5058" data-name="Path 5058" d="M1938.669,920.821l.38.266h0a.22.22,0,1,1-.253.361h0l-.382-.268a.22.22,0,1,1,.253-.361Z" transform="translate(-1834.525 -881.08)" fill="#fff"/>
          <path id="Path_5059" data-name="Path 5059" d="M1956.175,932.886l.385.256h0a.22.22,0,1,1-.243.368h0l-.389-.259a.221.221,0,0,1,.244-.368Z" transform="translate(-1850.759 -892.268)" fill="#fff"/>
          <path id="Path_5060" data-name="Path 5060" d="M1974.015,944.43l.394.241h0a.221.221,0,1,1-.23.378h0l-.4-.244a.221.221,0,1,1,.23-.377Z" transform="translate(-1867.304 -902.975)" fill="#fff"/>
          <path id="Path_5061" data-name="Path 5061" d="M1992.344,955.153l.406.219,0,0a.221.221,0,1,1-.21.389h0l-.413-.223a.221.221,0,1,1,.21-.389Z" transform="translate(-1884.305 -912.92)" fill="#fff"/>
          <path id="Path_5062" data-name="Path 5062" d="M2011.243,964.816l.419.19,0,0a.222.222,0,1,1-.184.4h0l-.428-.195a.221.221,0,1,1,.183-.4Z" transform="translate(-1901.836 -921.885)" fill="#fff"/>
          <path id="Path_5063" data-name="Path 5063" d="M2030.818,973.029l.432.153.006,0a.222.222,0,0,1-.149.419h0l-.444-.157a.222.222,0,1,1,.149-.419Z" transform="translate(-1919.998 -929.505)" fill="#fff"/>
          <path id="Path_5064" data-name="Path 5064" d="M2051.06,979.446l.445.109h.007a.223.223,0,0,1-.105.432h0l-.459-.113a.222.222,0,1,1,.106-.432Z" transform="translate(-1938.784 -935.461)" fill="#fff"/>
          <path id="Path_5065" data-name="Path 5065" d="M2071.844,983.709l.454.058h.008a.223.223,0,1,1-.057.442h0l-.469-.06a.223.223,0,1,1,.057-.442Z" transform="translate(-1958.074 -939.417)" fill="#fff"/>
          <path id="Path_5066" data-name="Path 5066" d="M2092.973,985.541h.465a.223.223,0,1,1,0,.446h0l-.474,0a.223.223,0,1,1,0-.446h.009Z" transform="translate(-1977.686 -941.118)" fill="#fff"/>
          <path id="Path_5067" data-name="Path 5067" d="M2114.17,983.906l.453-.058h.009a.224.224,0,0,1,.056.444h0l-.469.059a.224.224,0,1,1-.056-.444Z" transform="translate(-1997.365 -939.547)" fill="#fff"/>
          <path id="Path_5068" data-name="Path 5068" d="M2135.09,979.586l.443-.113.008,0a.224.224,0,0,1,.111.435h0l-.459.117a.224.224,0,1,1-.11-.434Z" transform="translate(-2016.785 -935.484)" fill="#fff"/>
          <path id="Path_5069" data-name="Path 5069" d="M2155.415,972.816l.427-.164.007,0a.225.225,0,0,1,.161.419h0l-.441.17a.224.224,0,0,1-.161-.418Z" transform="translate(-2035.652 -929.153)" fill="#fff"/>
          <path id="Path_5070" data-name="Path 5070" d="M2174.923,963.815l.406-.211.007,0a.225.225,0,1,1,.207.4h0l-.419.217a.225.225,0,0,1-.206-.4Z" transform="translate(-2053.76 -920.755)" fill="#fff"/>
          <path id="Path_5071" data-name="Path 5071" d="M2193.388,952.821l.383-.252.006,0a.225.225,0,1,1,.248.376h0l-.395.26a.225.225,0,1,1-.248-.375Z" transform="translate(-2070.897 -910.513)" fill="#fff"/>
          <path id="Path_5072" data-name="Path 5072" d="M2210.694,940.029l.355-.289.005,0a.226.226,0,1,1,.285.35h0l-.366.3a.225.225,0,1,1-.284-.35Z" transform="translate(-2086.958 -898.606)" fill="#fff"/>
          <path id="Path_5073" data-name="Path 5073" d="M2226.7,925.649l.326-.323,0,0a.226.226,0,1,1,.318.321h0l-.336.332a.226.226,0,0,1-.318-.321Z" transform="translate(-2101.811 -885.229)" fill="#fff"/>
          <path id="Path_5074" data-name="Path 5074" d="M2241.29,909.818l.294-.352,0-.005a.226.226,0,1,1,.348.289h0l-.3.362a.226.226,0,1,1-.348-.289Z" transform="translate(-2115.354 -870.51)" fill="#fff"/>
          <path id="Path_5075" data-name="Path 5075" d="M2254.319,892.726l.258-.378,0-.005a.227.227,0,1,1,.375.255h0l-.266.389a.226.226,0,1,1-.374-.256Z" transform="translate(-2127.445 -854.623)" fill="#fff"/>
          <path id="Path_5076" data-name="Path 5076" d="M2265.685,874.479l.22-.4,0-.006a.227.227,0,0,1,.4.219h0l-.227.413a.227.227,0,1,1-.4-.219Z" transform="translate(-2137.993 -837.667)" fill="#fff"/>
          <path id="Path_5077" data-name="Path 5077" d="M2275.238,855.231l.179-.422,0-.007a.228.228,0,1,1,.419.177h0l-.184.435a.227.227,0,0,1-.419-.178Z" transform="translate(-2146.86 -819.783)" fill="#fff"/>
          <path id="Path_5078" data-name="Path 5078" d="M2282.792,835.22c.045-.146.091-.291.134-.438a.227.227,0,1,1,.437.125h0c-.043.151-.091.3-.138.451a.228.228,0,1,1-.435-.135Z" transform="translate(-2153.87 -801.198)" fill="#fff"/>
          <path id="Path_5079" data-name="Path 5079" d="M2288.338,814.536l.093-.45v-.006a.228.228,0,1,1,.448.092h0l-.095.461a.228.228,0,1,1-.446-.093Z" transform="translate(-2159.02 -781.99)" fill="#fff"/>
          <path id="Path_5080" data-name="Path 5080" d="M2291.934,793.525l.052-.456v-.006a.229.229,0,1,1,.454.052h0l-.054.468a.229.229,0,1,1-.454-.052Z" transform="translate(-2162.354 -762.486)" fill="#fff"/>
          <path id="Path_5081" data-name="Path 5081" d="M2293.709,772.326l.013-.459v-.006a.229.229,0,0,1,.458.013h0l-.014.47a.229.229,0,1,1-.458-.013Z" transform="translate(-2164.003 -742.812)" fill="#fff"/>
          <path id="Path_5082" data-name="Path 5082" d="M2293.4,751.091l-.024-.459v-.005a.229.229,0,0,1,.458-.025h0l.025.47a.229.229,0,0,1-.457.024Z" transform="translate(-2163.694 -723.108)" fill="#fff"/>
          <path id="Path_5083" data-name="Path 5083" d="M2291.225,729.972l-.06-.456v0a.23.23,0,0,1,.455-.06h0l.061.467a.229.229,0,0,1-.455.06Z" transform="translate(-2161.642 -703.516)" fill="#fff"/>
          <path id="Path_5084" data-name="Path 5084" d="M2287.493,709.047l-.093-.451v-.005a.23.23,0,1,1,.45-.093h0l.095.46a.23.23,0,0,1-.451.093Z" transform="translate(-2158.149 -684.105)" fill="#fff"/>
          <path id="Path_5085" data-name="Path 5085" d="M2282.257,688.452l-.125-.443v0a.231.231,0,0,1,.444-.125h0l.127.452a.231.231,0,0,1-.444.125Z" transform="translate(-2153.261 -665.004)" fill="#fff"/>
          <path id="Path_5086" data-name="Path 5086" d="M2275.634,668.261l-.155-.434v0a.231.231,0,1,1,.435-.155h0l.158.443a.231.231,0,1,1-.435.155Z" transform="translate(-2147.088 -646.279)" fill="#fff"/>
          <path id="Path_5087" data-name="Path 5087" d="M2267.67,648.557l-.183-.423v0a.231.231,0,0,1,.425-.184h0l.186.431a.231.231,0,0,1-.425.184Z" transform="translate(-2139.673 -628.008)" fill="#fff"/>
          <path id="Path_5088" data-name="Path 5088" d="M2258.457,629.411l-.209-.41,0,0a.231.231,0,1,1,.412-.211h0l.214.419a.231.231,0,1,1-.412.21Z" transform="translate(-2131.102 -610.258)" fill="#fff"/>
          <path id="Path_5089" data-name="Path 5089" d="M2248.052,610.882l-.234-.4,0,0a.232.232,0,1,1,.4-.237h0l.24.4a.232.232,0,0,1-.4.237Z" transform="translate(-2121.424 -593.081)" fill="#fff"/>
          <path id="Path_5090" data-name="Path 5090" d="M2236.5,593.053l-.26-.381,0,0a.232.232,0,1,1,.384-.262h0l.265.388a.232.232,0,1,1-.384.262Z" transform="translate(-2110.683 -576.554)" fill="#fff"/>
          <path id="Path_5091" data-name="Path 5091" d="M2223.788,576.055l-.285-.36,0,0a.231.231,0,0,1,.362-.287l.293.368a.232.232,0,0,1-.364.289h0Z" transform="translate(-2098.866 -560.803)" fill="#fff"/>
          <path id="Path_5092" data-name="Path 5092" d="M2209.932,560.042l-.309-.342,0,0a.228.228,0,0,1,.337-.306l.316.346a.228.228,0,1,1-.338.308h0Z" transform="translate(-2085.99 -545.97)" fill="#fff"/>
          <path id="Path_5093" data-name="Path 5093" d="M2195.219,544.785l-.326-.328,0,0a.225.225,0,0,1,.319-.317l.331.33a.226.226,0,0,1-.319.319h0Z" transform="translate(-2072.33 -531.836)" fill="#fff"/>
          <path id="Path_5094" data-name="Path 5094" d="M2179.919,530.13l-.338-.316h0a.222.222,0,0,1,.3-.324l.342.318a.222.222,0,1,1-.3.326h0Z" transform="translate(-2058.13 -518.26)" fill="#fff"/>
          <path id="Path_5095" data-name="Path 5095" d="M2164.149,515.952l-.347-.307h0a.219.219,0,0,1,.289-.328l.351.308a.22.22,0,1,1-.29.33h0Z" transform="translate(-2043.497 -505.126)" fill="#fff"/>
          <path id="Path_5096" data-name="Path 5096" d="M2148.01,502.22l-.355-.3h0a.215.215,0,0,1,.276-.33l.359.3a.216.216,0,0,1-.277.332h0Z" transform="translate(-2028.525 -492.406)" fill="#fff"/>
          <path id="Path_5097" data-name="Path 5097" d="M2131.565,488.858l-.362-.29h0a.212.212,0,1,1,.265-.331l.365.29a.213.213,0,0,1-.266.334h0Z" transform="translate(-2013.272 -480.029)" fill="#fff"/>
          <path id="Path_5098" data-name="Path 5098" d="M2114.86,475.857l-.366-.284h0a.207.207,0,0,1,.251-.328l.372.281a.209.209,0,1,1-.253.333h0Z" transform="translate(-1997.779 -467.988)" fill="#fff"/>
          <path id="Path_5099" data-name="Path 5099" d="M2097.961,463.236l-.372-.278h0a.2.2,0,0,1,.234-.318l.377.274a.2.2,0,1,1-.236.324h0Z" transform="translate(-1982.108 -456.307)" fill="#fff"/>
          <path id="Path_5100" data-name="Path 5100" d="M2080.827,450.926l-.377-.27h0a.189.189,0,0,1,.219-.308l.382.268a.192.192,0,1,1-.22.314h0Z" transform="translate(-1966.219 -444.914)" fill="#fff"/>
          <path id="Path_5101" data-name="Path 5101" d="M2063.456,438.928l-.382-.264h0a.18.18,0,0,1,.2-.3l.386.26a.183.183,0,1,1-.2.3h0Z" transform="translate(-1950.111 -433.81)" fill="#fff"/>
          <path id="Path_5102" data-name="Path 5102" d="M2045.862,427.272l-.387-.256h0a.171.171,0,0,1,.187-.286l.392.253a.173.173,0,0,1-.188.292h0Z" transform="translate(-1933.795 -423.024)" fill="#fff"/>
          <path id="Path_5103" data-name="Path 5103" d="M2028.073,415.989l-.392-.249h0a.16.16,0,0,1,.17-.272l.4.244a.165.165,0,0,1-.172.281h0Z" transform="translate(-1917.301 -412.586)" fill="#fff"/>
          <path id="Path_5104" data-name="Path 5104" d="M2010.082,405.14l-.4-.241h0a.146.146,0,0,1,.149-.251l.4.234a.15.15,0,0,1-.151.26h0Z" transform="translate(-1900.622 -402.559)" fill="#fff"/>
          <path id="Path_5105" data-name="Path 5105" d="M1991.808,394.755l-.4-.23h0a.131.131,0,0,1,.128-.23l.409.224a.136.136,0,0,1-.131.238h0Z" transform="translate(-1883.678 -392.964)" fill="#fff"/>
          <path id="Path_5106" data-name="Path 5106" d="M1973.24,384.956l-.41-.217h0a.116.116,0,0,1,.106-.207l.417.209a.122.122,0,1,1-.109.217h0Z" transform="translate(-1866.46 -383.917)" fill="#fff"/>
          <path id="Path_5107" data-name="Path 5107" d="M1955.659,376.593l-.314-.149h0a.1.1,0,0,1,.083-.179l.319.142a.1.1,0,0,1-.083.188h0Z" transform="translate(-1850.255 -376.256)" fill="#fff"/>
        </g>
        <g id="Group_33" data-name="Group 33" transform="translate(95.166 0)">
          <path id="Path_5108" data-name="Path 5108" d="M1929.779,342.95l-.52,2.218-1.279-1.306Z" transform="translate(-1920.104 -339.339)" fill="#7d97f4"/>
          <path id="Path_5109" data-name="Path 5109" d="M1819.96,293.42l4.757,6.658a.576.576,0,0,0,.822.121l6.5-5.029a.231.231,0,0,0-.116-.412Z" transform="translate(-1819.96 -293.42)" fill="#91b3fa"/>
          <path id="Path_5110" data-name="Path 5110" d="M1829.633,297.031l-9.673-3.611,8.626,4.426-.118.62Z" transform="translate(-1819.96 -293.42)" fill="#7d97f4"/>
          <path id="Path_5111" data-name="Path 5111" d="M1929.71,354.608l1.153.924-.529-1.4Z" transform="translate(-1921.708 -349.704)" fill="#7d97f4"/>
        </g>
      </g>
      <g id="Group_39" data-name="Group 39" transform="translate(85.191 41.647)">
        <path id="Path_5112" data-name="Path 5112" d="M1370.05,810.97l1.008-5.13,12.839,11.2-.251.428Z" transform="translate(-1362.133 -800.326)" fill="#91b3fa"/>
        <g id="Group_37" data-name="Group 37" transform="translate(20.854 9.115)">
          <path id="Path_5113" data-name="Path 5113" d="M1595.31,991.67a4.429,4.429,0,0,1-2.1,3.263c-1.943,1.134-4.324-1.409-4.754-2.922l-1.218.641s2.576,9.673,9.94,3.231Z" transform="translate(-1584.343 -981.723)" fill="url(#linear-gradient-54)"/>
          <path id="Path_5114" data-name="Path 5114" d="M1733.332,1441.18c-1.213.056-2.388.02-3.172-.02a15.9,15.9,0,0,1,3.735-2.054l.945-.057a3.851,3.851,0,0,1,.435,1.6C1735.118,1440.847,1734.66,1441.119,1733.332,1441.18Z" transform="translate(-1716.843 -1396.485)" fill="url(#linear-gradient-55)"/>
          <path id="Path_5115" data-name="Path 5115" d="M1729.133,1461.545l.01-.007c.784.04,1.959.075,3.172.02,1.328-.061,1.786-.334,1.942-.528.005.051.011.1.015.156a.442.442,0,0,1-.407.478c-.994.075-3.458.245-4.646.183A.166.166,0,0,1,1729.133,1461.545Z" transform="translate(-1715.826 -1416.862)" fill="url(#linear-gradient-56)"/>
          <path id="Path_5116" data-name="Path 5116" d="M1893.888,1437.024a9.158,9.158,0,0,1,.341-1.6c.173-.33.764,0,.764,0s.113-.745.3-.422c.122.205.76,1.729.989,2.127a.266.266,0,0,1,.035.141l-2.367.083A.478.478,0,0,1,1893.888,1437.024Z" transform="translate(-1868.628 -1392.653)" fill="url(#linear-gradient-57)"/>
          <path id="Path_5117" data-name="Path 5117" d="M1897.248,1467.14a.268.268,0,0,1-.262.262l-1.687.047a.476.476,0,0,1-.418-.225Z" transform="translate(-1869.553 -1422.527)" fill="url(#linear-gradient-58)"/>
          <path id="Path_5118" data-name="Path 5118" d="M1887.64,1406.029c.03.064.563,1.482.8,2.1a.372.372,0,0,0,.424.234c.1-.02.212-.047.33-.082a.449.449,0,0,0,.319-.483,6.057,6.057,0,0,0-.5-2.036C1888.635,1405.232,1887.64,1406.029,1887.64,1406.029Z" transform="translate(-1862.841 -1365.456)" fill="url(#linear-gradient-59)"/>
          <path id="Path_5119" data-name="Path 5119" d="M1780.12,1415.691c-.131,0,.052.677-.146,1.347a.344.344,0,0,1-.315.272c-.1,0-.223,0-.346-.01a.381.381,0,0,1-.351-.343l-.161-1.738Z" transform="translate(-1761.936 -1374.392)" fill="url(#linear-gradient-60)"/>
          <path id="Path_5120" data-name="Path 5120" d="M1746.56,1157.612c.058.285,2.126,12.342,2.251,18.581a.213.213,0,0,0,.183.207,4.184,4.184,0,0,0,1.269-.008.149.149,0,0,0,.123-.137c.072-1.163.654-10.993-.058-15.62,0,0,5.877,12.37,6.768,15.781a.18.18,0,0,0,.184.134,4.425,4.425,0,0,0,1.19-.211.311.311,0,0,0,.2-.365c-.5-2.041-3.986-16.1-6.355-19.2Z" transform="translate(-1732.047 -1134.785)" fill="url(#linear-gradient-61)"/>
          <path id="Path_5121" data-name="Path 5121" d="M1787.253,1198.622a.077.077,0,0,0,.055-.131l-.787-.8a.077.077,0,1,0-.111.108l.787.8A.076.076,0,0,0,1787.253,1198.622Z" transform="translate(-1768.971 -1172.696)" fill="url(#linear-gradient-62)"/>
          <path id="Path_5122" data-name="Path 5122" d="M1692.481,960.384c1.72-.451,5.111-1.2,7.42-.782l2.877,15.421a.363.363,0,0,1-.356.429l-6.213.023a.508.508,0,0,1-.481-.338l-3.6-10.2S1691.2,960.72,1692.481,960.384Z" transform="translate(-1681.282 -951.88)" fill="url(#linear-gradient-63)"/>
          <path id="Path_5123" data-name="Path 5123" d="M1722.161,915.11s.459,2.734.52,3.593c0,0-2.213.611-2.79.284l.072-3.307Z" transform="translate(-1707.321 -910.744)" fill="url(#linear-gradient-64)"/>
          <g id="Group_35" data-name="Group 35" transform="translate(11.399)">
            <path id="Path_5124" data-name="Path 5124" d="M1706.343,880.55a10.844,10.844,0,0,0-.785,2.577c-.05.886-.24,1.463.785,1.641a2.18,2.18,0,0,0,2.357-1.215s.733-1.361.569-1.919S1706.343,880.55,1706.343,880.55Z" transform="translate(-1705.391 -878.704)" fill="url(#linear-gradient-65)"/>
            <path id="Path_5125" data-name="Path 5125" d="M1706.81,859.446h-.13s.534-1.1.065-1.288-2.329-.572-2.73-1.231a1.227,1.227,0,0,1,.474-1.687.069.069,0,0,1,.088.032l.043.081a.07.07,0,0,0,.128-.013h0a.069.069,0,0,1,.125-.019,1.874,1.874,0,0,0,1.347.682c1.265.233,2.1.746,2.122,1.62a.069.069,0,0,0,.108.057c.094-.057.243-.084.443.085.347.292.2,1.05-.556,1.673a.069.069,0,0,0,0,.112c.138.09.344.3-.189.589a1.426,1.426,0,0,1-.99.229.069.069,0,0,1-.053-.072l.048-.775a.069.069,0,0,0-.069-.074Z" transform="translate(-1703.85 -855.234)" fill="url(#linear-gradient-66)"/>
            <path id="Path_5126" data-name="Path 5126" d="M1744.01,904.676s.281-1.079.765-.776-.251,1.21-.64,1.25Z" transform="translate(-1741.082 -900.302)" fill="url(#linear-gradient-67)"/>
          </g>
          <path id="Path_5127" data-name="Path 5127" d="M1787.592,961.15l-1.2,4.568s2.285,1.242,1.956,2.753c-.094.43-.594.66-1.261.769a3.043,3.043,0,0,1,.773,2.527c1.815-.015,3.365-.739,3.633-2.917C1792.092,963.978,1787.592,961.15,1787.592,961.15Z" transform="translate(-1768.973 -953.428)" fill="url(#linear-gradient-68)"/>
          <path id="Path_5128" data-name="Path 5128" d="M1785.87,1026.2a.1.1,0,0,1-.015-.192c.709-.116,1.106-.35,1.182-.694.311-1.423-1.885-2.635-1.907-2.647a.1.1,0,1,1,.093-.17c.1.052,2.345,1.295,2,2.859-.094.429-.545.714-1.339.844Z" transform="translate(-1767.757 -1010.294)" fill="url(#linear-gradient-69)"/>
          <path id="Path_5129" data-name="Path 5129" d="M1725.425,1069.394a16.844,16.844,0,0,1-4.405-.214l-1.14.775a12.581,12.581,0,0,0,6.318,1.966A3.04,3.04,0,0,0,1725.425,1069.394Z" transform="translate(-1707.312 -1053.581)" fill="url(#linear-gradient-70)"/>
          <g id="Group_36" data-name="Group 36" transform="translate(0 6.969)">
            <path id="Path_5130" data-name="Path 5130" d="M1553.466,955.537l-5.548-3.247a.81.81,0,0,1-.319-1.087l.008-.014a.81.81,0,0,1,1.1-.255l5.548,3.247Z" transform="translate(-1547.499 -950.819)" fill="url(#linear-gradient-71)"/>
            <path id="Path_5131" data-name="Path 5131" d="M1609.041,996.909l-6.258-3.661a.865.865,0,0,1-.31-1.183l1.676-2.865,7,4.1a.252.252,0,0,1,.09.345l-1.858,3.176A.253.253,0,0,1,1609.041,996.909Z" transform="translate(-1598.356 -986.402)" fill="url(#linear-gradient-72)"/>
          </g>
          <path id="Path_5132" data-name="Path 5132" d="M1697.572,1048.02l-.061-.311a2.712,2.712,0,0,0-1.328-1.547c-.937-.36-1.535.011-1.648.625s.533,1.05,1.131,1.066S1696.312,1049.543,1697.572,1048.02Z" transform="translate(-1683.803 -1032.11)" fill="url(#linear-gradient-73)"/>
          <path id="Path_5133" data-name="Path 5133" d="M1577.6,974.673a.444.444,0,0,0-.61.473,4.91,4.91,0,0,0,.29,1.148c.327.809.472.874,1.672.241l-.736-.431S1578.4,975.017,1577.6,974.673Z" transform="translate(-1574.831 -965.931)" fill="url(#linear-gradient-74)"/>
        </g>
        <path id="Path_5134" data-name="Path 5134" d="M1709.589,1107.684H1699.16a4.028,4.028,0,0,1-2.943-6.778l2.873-3.073a6.013,6.013,0,0,0-1.226-9.211l-8.03-4.847a.354.354,0,1,1,.365-.606l8.034,4.85a6.72,6.72,0,0,1,1.372,10.3l-2.873,3.073a3.32,3.32,0,0,0,2.426,5.587h10.43a.354.354,0,0,1,0,.708Z" transform="translate(-1658.443 -1057.389)" fill="#bdd0fb"/>
        <g id="Group_38" data-name="Group 38" transform="translate(49.988 37.778)">
          <path id="Path_5135" data-name="Path 5135" d="M2199.823,1261.619h-1.573V1248.36h1.573a.256.256,0,0,1,.257.257v12.745A.257.257,0,0,1,2199.823,1261.619Z" transform="translate(-2179.938 -1248.36)" fill="url(#linear-gradient-75)"/>
          <path id="Path_5136" data-name="Path 5136" d="M1966.469,1249.61v11.2a.931.931,0,0,1-.972.966h-17.345a1.007,1.007,0,0,1-1.062-.966v-5.284a6.96,6.96,0,0,1,6.981-6.929H1965.5A.967.967,0,0,1,1966.469,1249.61Z" transform="translate(-1947.09 -1248.582)" fill="url(#linear-gradient-76)"/>
          <path id="Path_5137" data-name="Path 5137" d="M1956.237,1248.61v6.663a1.124,1.124,0,0,1-1.082,1.088h-8.065v-.823a6.96,6.96,0,0,1,6.981-6.928Z" transform="translate(-1947.09 -1248.592)" fill="url(#linear-gradient-77)"/>
          <circle id="Ellipse_6" data-name="Ellipse 6" cx="3.077" cy="3.077" r="3.077" transform="translate(4.566 10.182)" fill="url(#linear-gradient-78)"/>
          <circle id="Ellipse_7" data-name="Ellipse 7" cx="2.52" cy="2.52" r="2.52" transform="translate(5.123 10.739)" fill="url(#linear-gradient-79)"/>
          <path id="Path_5138" data-name="Path 5138" d="M1958.379,1265.124h-.011a.1.1,0,0,1-.085-.106c.653-5.94,6.764-6.105,6.825-6.107a.1.1,0,0,1,.1.1.1.1,0,0,1-.095.1c-.06,0-6,.166-6.636,5.934A.1.1,0,0,1,1958.379,1265.124Z" transform="translate(-1957.466 -1258.141)" fill="#7d97f4"/>
          <path id="Path_5139" data-name="Path 5139" d="M2128.916,1280.466a.517.517,0,0,1-.517.517h-.052a.517.517,0,0,1-.517-.517v-7.959a.517.517,0,0,1,.517-.517h.052a.517.517,0,0,1,.517.517Z" transform="translate(-2114.652 -1270.267)" fill="url(#linear-gradient-80)"/>
          <path id="Path_5140" data-name="Path 5140" d="M2160.816,1280.466a.517.517,0,0,1-.517.517h-.052a.517.517,0,0,1-.517-.517v-7.959a.517.517,0,0,1,.517-.517h.052a.517.517,0,0,1,.517.517Z" transform="translate(-2144.227 -1270.267)" fill="url(#linear-gradient-81)"/>
        </g>
        <path id="Path_5141" data-name="Path 5141" d="M1266.142,731.757a2,2,0,0,1,2.491-1.482,1.941,1.941,0,0,1,1.643,1.456,1.38,1.38,0,0,0,.818.93c.391.163.827.607,1.04,1.721a3.257,3.257,0,0,1-1.134,3.089,1.105,1.105,0,0,0-.346.93,1.315,1.315,0,0,1-.572,1.1,1.048,1.048,0,0,0-.344.967c.133.826.03,2.27-2.048,2.887-3,.89-7.1-.065-6.06-4.032.479-1.82,1.377-2.557,2.209-2.821a1.353,1.353,0,0,0,.9-1.644A2.72,2.72,0,0,1,1266.142,731.757Z" transform="translate(-1261.465 -730.21)" fill="#bdd0fb"/>
        <path id="Path_5142" data-name="Path 5142" d="M1398.384,880.64a.022.022,0,0,1-.011,0c-3.554-1.958-7.217-3.83-10.884-5.564a.022.022,0,0,1-.01-.03.022.022,0,0,1,.03-.01c3.669,1.734,7.332,3.607,10.887,5.565a.022.022,0,0,1,.009.03A.024.024,0,0,1,1398.384,880.64Z" transform="translate(-1378.289 -864.472)" fill="#fff"/>
        <path id="Path_5143" data-name="Path 5143" d="M1457.351,901.019a.022.022,0,0,1-.011,0c-4.966-2.855-6.189-3.593-6.341-3.709a.023.023,0,0,1,0-.031.022.022,0,0,1,.031,0c.15.115,1.372.852,6.337,3.706a.023.023,0,0,1,.008.03A.023.023,0,0,1,1457.351,901.019Z" transform="translate(-1437.172 -885.088)" fill="#fff"/>
      </g>
    </g>
  </g>
</svg>
