<svg xmlns="http://www.w3.org/2000/svg" xmlns:xlink="http://www.w3.org/1999/xlink" width="348" height="203.675" viewBox="0 0 348 203.675">
  <defs>
    <linearGradient id="linear-gradient" x1="-0.743" y1="2.431" x2="0.257" y2="2.431" gradientUnits="objectBoundingBox">
      <stop offset="0" stop-color="#dae3fe"/>
      <stop offset="1" stop-color="#e9effd"/>
    </linearGradient>
    <linearGradient id="linear-gradient-2" x1="0" y1="0.5" x2="1" y2="0.5" xlink:href="#linear-gradient"/>
    <linearGradient id="linear-gradient-3" x1="0.935" y1="0.026" x2="-3.23" y2="4.958" gradientUnits="objectBoundingBox">
      <stop offset="0" stop-color="#fe7062"/>
      <stop offset="1" stop-color="#ff928e"/>
    </linearGradient>
    <linearGradient id="linear-gradient-4" x1="0.187" y1="1.135" x2="0.845" y2="0.273" xlink:href="#linear-gradient-3"/>
    <linearGradient id="linear-gradient-5" x1="1.008" y1="-1.105" x2="-0.524" y2="3.653" gradientUnits="objectBoundingBox">
      <stop offset="0" stop-color="#e1473d"/>
      <stop offset="1" stop-color="#e9605a"/>
    </linearGradient>
    <linearGradient id="linear-gradient-6" x1="0" y1="0.5" x2="1" y2="0.5" xlink:href="#linear-gradient-5"/>
    <linearGradient id="linear-gradient-7" x1="0.239" y1="1.573" x2="0.953" y2="-0.93" xlink:href="#linear-gradient-5"/>
    <linearGradient id="linear-gradient-8" x1="-11.491" y1="-4.855" x2="-12.283" y2="-0.989" gradientUnits="objectBoundingBox">
      <stop offset="0" stop-color="#9cfffb"/>
      <stop offset="1" stop-color="#9bfffa"/>
    </linearGradient>
    <linearGradient id="linear-gradient-10" x1="0.457" y1="1.094" x2="-1.014" y2="13.535" xlink:href="#linear-gradient-3"/>
    <linearGradient id="linear-gradient-11" x1="3.3" y1="-3.424" x2="1.715" y2="-1.185" gradientUnits="objectBoundingBox">
      <stop offset="0" stop-color="#ff928e"/>
      <stop offset="1" stop-color="#feb3b1"/>
    </linearGradient>
    <linearGradient id="linear-gradient-12" x1="0.911" y1="-1.258" x2="0.693" y2="-0.325" xlink:href="#linear-gradient-11"/>
    <linearGradient id="linear-gradient-13" x1="1.685" y1="-4.745" x2="0.962" y2="-1.544" xlink:href="#linear-gradient-11"/>
    <linearGradient id="linear-gradient-14" x1="0.431" y1="0.972" x2="0.938" y2="-2.485" xlink:href="#linear-gradient-5"/>
    <linearGradient id="linear-gradient-15" x1="0.722" y1="0.146" x2="-0.769" y2="2.519" xlink:href="#linear-gradient-3"/>
    <linearGradient id="linear-gradient-16" x1="0.501" y1="0.491" x2="1.008" y2="-2.967" xlink:href="#linear-gradient-5"/>
    <linearGradient id="linear-gradient-17" x1="1.601" y1="-1.004" x2="-0.423" y2="1.761" xlink:href="#linear-gradient-3"/>
    <linearGradient id="linear-gradient-18" x1="8.033" y1="-0.797" x2="3.966" y2="-0.096" xlink:href="#linear-gradient-5"/>
    <linearGradient id="linear-gradient-19" x1="-2.776" y1="3.661" x2="-0.246" y2="1.22" xlink:href="#linear-gradient-5"/>
    <linearGradient id="linear-gradient-20" x1="0" y1="0.5" x2="1" y2="0.5" xlink:href="#linear-gradient"/>
    <linearGradient id="linear-gradient-21" x1="-0.001" y1="0.5" x2="1" y2="0.5" xlink:href="#linear-gradient"/>
    <linearGradient id="linear-gradient-22" x1="0" y1="0.5" x2="1" y2="0.5" xlink:href="#linear-gradient"/>
    <linearGradient id="linear-gradient-23" x1="0" y1="0.5" x2="1" y2="0.5" xlink:href="#linear-gradient"/>
    <linearGradient id="linear-gradient-24" x1="0" y1="0.5" x2="1" y2="0.5" xlink:href="#linear-gradient"/>
    <linearGradient id="linear-gradient-25" x1="0" y1="0.5" x2="1" y2="0.5" xlink:href="#linear-gradient"/>
    <linearGradient id="linear-gradient-27" x1="0" y1="0.5" x2="1" y2="0.5" xlink:href="#linear-gradient"/>
    <linearGradient id="linear-gradient-30" x1="0" y1="0.5" x2="1" y2="0.5" xlink:href="#linear-gradient"/>
    <linearGradient id="linear-gradient-31" x1="0.492" y1="0.791" x2="0.386" y2="4.576" gradientUnits="objectBoundingBox">
      <stop offset="0" stop-color="#4042e2"/>
      <stop offset="1" stop-color="#4f52ff"/>
    </linearGradient>
    <linearGradient id="linear-gradient-32" x1="-12.571" y1="0.183" x2="-11.436" y2="1.47" xlink:href="#linear-gradient-31"/>
    <linearGradient id="linear-gradient-33" x1="0" y1="0.5" x2="1" y2="0.5" xlink:href="#linear-gradient-31"/>
    <linearGradient id="linear-gradient-34" x1="3.701" y1="-3.024" x2="1.845" y2="-1.047" xlink:href="#linear-gradient-31"/>
    <linearGradient id="linear-gradient-35" x1="0.789" y1="1.037" x2="0.013" y2="-0.631" xlink:href="#linear-gradient-31"/>
    <linearGradient id="linear-gradient-36" x1="0.677" y1="-2.899" x2="0.585" y2="-1.202" xlink:href="#linear-gradient-31"/>
    <linearGradient id="linear-gradient-37" x1="0.583" y1="1.989" x2="0.472" y2="0.226" xlink:href="#linear-gradient-31"/>
    <linearGradient id="linear-gradient-38" x1="-8.324" y1="1.305" x2="-7.69" y2="-0.372" xlink:href="#linear-gradient-5"/>
    <linearGradient id="linear-gradient-39" x1="-8.238" y1="1.094" x2="-8.537" y2="1.908" xlink:href="#linear-gradient-3"/>
    <linearGradient id="linear-gradient-40" x1="139.181" y1="0.5" x2="140.181" y2="0.5" gradientUnits="objectBoundingBox">
      <stop offset="0" stop-color="#09005d"/>
      <stop offset="1" stop-color="#1a0f91"/>
    </linearGradient>
    <linearGradient id="linear-gradient-41" x1="343.077" y1="0.5" x2="344.077" y2="0.5" xlink:href="#linear-gradient-11"/>
    <linearGradient id="linear-gradient-42" x1="88.691" y1="0.5" x2="89.691" y2="0.5" xlink:href="#linear-gradient-40"/>
    <linearGradient id="linear-gradient-43" x1="345.187" y1="0.5" x2="346.188" y2="0.5" xlink:href="#linear-gradient-11"/>
    <linearGradient id="linear-gradient-44" x1="-6.748" y1="-0.599" x2="-9.579" y2="1.765" xlink:href="#linear-gradient-31"/>
    <linearGradient id="linear-gradient-45" x1="-44.137" y1="0.809" x2="-49.649" y2="5.692" xlink:href="#linear-gradient-31"/>
    <linearGradient id="linear-gradient-46" x1="-3.358" y1="-0.125" x2="-4.729" y2="3.485" xlink:href="#linear-gradient-31"/>
    <linearGradient id="linear-gradient-47" x1="-15.57" y1="-0.909" x2="-16.656" y2="1.064" xlink:href="#linear-gradient-11"/>
    <linearGradient id="linear-gradient-48" x1="118.576" y1="-0.181" x2="115.926" y2="3.775" xlink:href="#linear-gradient-11"/>
    <linearGradient id="linear-gradient-49" x1="3.149" y1="-0.151" x2="1.71" y2="0.206" xlink:href="#linear-gradient-11"/>
    <linearGradient id="linear-gradient-50" x1="-2.782" y1="0.246" x2="-1.793" y2="1.678" xlink:href="#linear-gradient-40"/>
    <linearGradient id="linear-gradient-51" x1="239.391" y1="336.497" x2="242.093" y2="333.96" xlink:href="#linear-gradient-11"/>
    <linearGradient id="linear-gradient-52" x1="1.807" y1="-1.63" x2="1.178" y2="-0.649" xlink:href="#linear-gradient-11"/>
    <linearGradient id="linear-gradient-53" x1="-10.95" y1="-0.337" x2="-11.987" y2="4.591" xlink:href="#linear-gradient-31"/>
    <linearGradient id="linear-gradient-54" x1="4.701" y1="0.328" x2="5.913" y2="0.635" xlink:href="#linear-gradient-31"/>
    <linearGradient id="linear-gradient-55" x1="48.333" y1="0.5" x2="49.352" y2="0.5" xlink:href="#linear-gradient-40"/>
    <linearGradient id="linear-gradient-56" x1="47.575" y1="-37.467" x2="47.365" y2="-58.288" xlink:href="#linear-gradient-31"/>
    <linearGradient id="linear-gradient-57" x1="92.651" y1="0.5" x2="93.651" y2="0.5" xlink:href="#linear-gradient-40"/>
    <linearGradient id="linear-gradient-58" x1="95.116" y1="-100.022" x2="94.654" y2="-156.014" xlink:href="#linear-gradient-31"/>
    <linearGradient id="linear-gradient-59" x1="116.603" y1="8.984" x2="117.448" y2="8.984" xlink:href="#linear-gradient-11"/>
    <linearGradient id="linear-gradient-60" x1="184.837" y1="0.5" x2="185.837" y2="0.5" xlink:href="#linear-gradient-11"/>
    <linearGradient id="linear-gradient-61" x1="21.116" y1="-0.024" x2="19.012" y2="1.306" xlink:href="#linear-gradient-31"/>
    <linearGradient id="linear-gradient-62" x1="-1.471" y1="2.333" x2="-8.905" y2="9.249" xlink:href="#linear-gradient-31"/>
    <linearGradient id="linear-gradient-63" x1="4.606" y1="0.141" x2="5.288" y2="1.241" xlink:href="#linear-gradient-31"/>
    <linearGradient id="linear-gradient-64" x1="0.582" y1="-0.406" x2="0.442" y2="1.478" xlink:href="#linear-gradient-11"/>
    <linearGradient id="linear-gradient-65" x1="60.15" y1="28.033" x2="60.471" y2="26.776" xlink:href="#linear-gradient-11"/>
    <linearGradient id="linear-gradient-66" x1="0.14" y1="0.779" x2="1.136" y2="-0.127" xlink:href="#linear-gradient-40"/>
    <linearGradient id="linear-gradient-67" x1="241.584" y1="89.957" x2="242.898" y2="85.854" xlink:href="#linear-gradient-11"/>
    <linearGradient id="linear-gradient-68" x1="9.146" y1="0.064" x2="10.608" y2="1.734" xlink:href="#linear-gradient-31"/>
    <linearGradient id="linear-gradient-69" x1="-0.745" y1="1.216" x2="-3.986" y2="3.316" xlink:href="#linear-gradient-31"/>
    <linearGradient id="linear-gradient-70" x1="6.095" y1="7.312" x2="7.152" y2="3.403" xlink:href="#linear-gradient-11"/>
    <linearGradient id="linear-gradient-71" x1="-2.595" y1="-11.333" x2="-1.522" y2="-11.333" xlink:href="#linear-gradient-40"/>
    <linearGradient id="linear-gradient-72" x1="-1.726" y1="-7.097" x2="-0.789" y2="-7.097" xlink:href="#linear-gradient-40"/>
    <linearGradient id="linear-gradient-73" x1="12.155" y1="7.417" x2="14.355" y2="3.356" xlink:href="#linear-gradient-11"/>
    <linearGradient id="linear-gradient-74" x1="24.126" y1="0.466" x2="27.379" y2="1.735" xlink:href="#linear-gradient-11"/>
    <linearGradient id="linear-gradient-75" x1="-3.729" y1="0.589" x2="-16.522" y2="0.861" xlink:href="#linear-gradient-31"/>
    <linearGradient id="linear-gradient-76" x1="0.005" y1="1.571" x2="0.765" y2="0.155" xlink:href="#linear-gradient-31"/>
    <linearGradient id="linear-gradient-77" x1="-0.267" y1="-3.231" x2="0.131" y2="-1.293" xlink:href="#linear-gradient-40"/>
    <linearGradient id="linear-gradient-78" x1="1.088" y1="-2.105" x2="0.425" y2="0.834" xlink:href="#linear-gradient-40"/>
    <linearGradient id="linear-gradient-79" x1="0.632" y1="-3.597" x2="0.574" y2="-1.803" xlink:href="#linear-gradient-40"/>
    <linearGradient id="linear-gradient-80" x1="1.168" y1="0.494" x2="-20.188" y2="0.689" xlink:href="#linear-gradient-31"/>
    <linearGradient id="linear-gradient-81" x1="-0.962" y1="0.513" x2="-22.318" y2="0.708" xlink:href="#linear-gradient-31"/>
  </defs>
  <g id="Illustration" transform="translate(-731 -761.548)">
    <g id="Group_40" data-name="Group 40" transform="translate(731 761.548)">
      <path id="Path_4873" data-name="Path 4873" d="M96.887,252.1c4.037,7.408,10.454,13.639,15.4,20.567,14.285,20.018-.578,43.441,5.941,65.021,5.68,18.8,29.305,23.842,46.575,24.6,29.1,1.286,58.166-.641,86.222-8.826,19.47-5.68,38.962-13.117,59.482-13.566,20.977-.46,40.71,8.275,60.976,12.4,22.253,4.535,48.869-.39,54.234-26.163,3.324-15.967-5.624-30.672-6.462-46.391-1.108-20.812,18.9-32.233,21.484-51.69,1.632-12.267-4.465-23.228-12.422-32.1-8.395-9.365-19.684-17.639-32.635-18.407-13.537-.8-25.62,6.568-38.273,10.088-35.558,9.89-55.741-23.1-88.464-27.7-14.757-2.076-32.893-1.09-46.293,6.035-12.459,6.625-18.505,21.343-32.482,25.664-14.792,4.575-28.328-4.567-42.384-7.488-14.547-3.023-28.306,2.343-37.412,14.108-8.826,11.407-18.379,26.434-17.283,41.495A30,30,0,0,0,96.887,252.1Z" transform="translate(-93.002 -158.986)" fill="url(#linear-gradient)"/>
      <g id="Group_9" data-name="Group 9" transform="translate(36.452 17.095)">
        <g id="Group_5" data-name="Group 5" transform="translate(0)">
          <g id="Group_2" data-name="Group 2" transform="translate(30.089)">
            <path id="Path_4874" data-name="Path 4874" d="M613.966,361.328c-2.968-14.131-10.275-25.9-19.582-33.337a40.981,40.981,0,0,1-15.171-26.786q-.212-1.665-.563-3.349c-3.57-16.995-16.878-28.586-29.723-25.886s-20.364,18.663-16.794,35.658a40.7,40.7,0,0,0,3.325,9.67,41.16,41.16,0,0,1,2.689,30.256,60.393,60.393,0,0,0-1.055,29.925c3.319,15.8,12.062,28.651,22.962,35.789a40.361,40.361,0,0,1,10.621,10.126c4.786,6.637,12.1,10.279,19.316,8.764,7.78-1.634,13.258-8.812,14.494-17.717a43.06,43.06,0,0,1,4.784-14.365C614.938,389.478,616.968,375.616,613.966,361.328Z" transform="translate(-531.245 -271.579)" fill="#bdd0fb"/>
            <path id="Path_4875" data-name="Path 4875" d="M699.675,387c4.037,10.879,7.722,21.881,11.292,32.919.894,2.759,1.743,5.533,2.6,8.3l1.286,4.156,1.251,4.166c.824,2.782,1.685,5.551,2.478,8.342l2.378,8.371c1.514,5.6,3.075,11.189,4.484,16.819.709,2.814,1.473,5.612,2.124,8.44l1.994,8.472c2.543,11.324,4.8,22.716,6.483,34.2l-.495.077-1.584-8.545-.392-2.136-.445-2.127-.9-4.251-.888-4.251c-.293-1.418-.641-2.824-.958-4.238-.654-2.821-1.285-5.648-1.957-8.465-2.76-11.251-5.671-22.467-8.812-33.621-1.614-5.565-3.179-11.143-4.831-16.7l-1.228-4.169-1.263-4.159c-.84-2.772-1.681-5.545-2.548-8.31q-2.533-8.315-5.191-16.592c-1.744-5.527-3.542-11.038-5.355-16.541Z" transform="translate(-673.699 -369.475)" fill="#91b3fa"/>
            <g id="Group_1" data-name="Group 1" transform="translate(4.984 7.914)" opacity="0.5">
              <path id="Path_4876" data-name="Path 4876" d="M570.158,364.759a.417.417,0,0,1-.292-.211c-7.575-13.744-6.354-24.084-4-30.338a25.487,25.487,0,0,1,7.045-10.416.421.421,0,1,1,.525.659,25.183,25.183,0,0,0-6.8,10.1c-2.281,6.081-3.445,16.152,3.963,29.592a.422.422,0,0,1-.165.572A.427.427,0,0,1,570.158,364.759Z" transform="translate(-564.068 -323.702)" fill="#bdd0fb"/>
            </g>
          </g>
          <g id="Group_4" data-name="Group 4" transform="translate(0 88.356)">
            <path id="Path_4877" data-name="Path 4877" d="M391.667,886.067a32.529,32.529,0,0,0-17.789-12.47,23.068,23.068,0,0,1-14.007-10.152q-.5-.8-1.072-1.579c-5.8-7.851-15.3-10.672-21.217-6.3s-6.019,14.282-.22,22.133a22.991,22.991,0,0,0,3.958,4.166,23.188,23.188,0,0,1,8.453,14.833,34.024,34.024,0,0,0,6.465,15.536c5.392,7.3,12.857,11.828,20.088,12.936a22.678,22.678,0,0,1,7.786,2.7c3.995,2.276,8.579,2.431,11.9-.023,3.585-2.648,4.7-7.592,3.246-12.429a24.2,24.2,0,0,1-.922-8.454A32.465,32.465,0,0,0,391.667,886.067Z" transform="translate(-333.077 -853.507)" fill="#91b3fa"/>
            <path id="Path_4878" data-name="Path 4878" d="M415.892,911.99c4.605,4.617,9.06,9.38,13.463,14.189,1.1,1.2,2.183,2.42,3.271,3.636l1.629,1.824,1.614,1.837c1.07,1.228,2.159,2.443,3.216,3.685l3.172,3.723c2.083,2.51,4.188,5,6.224,7.548,1.02,1.272,2.065,2.525,3.058,3.817l3,3.864c3.948,5.193,7.766,10.487,11.31,15.964l-.234.155-2.809-4-.7-1-.724-.982-1.453-1.963-1.448-1.965c-.481-.656-.987-1.294-1.48-1.942-.994-1.289-1.977-2.586-2.979-3.869q-6.063-7.659-12.362-15.124c-2.126-2.467-4.229-4.953-6.371-7.4l-1.6-1.843-1.617-1.831c-1.078-1.221-2.154-2.442-3.245-3.652q-3.239-3.658-6.53-7.268-3.275-3.626-6.6-7.2Z" transform="translate(-403.147 -903.11)" fill="#7d97f4"/>
            <g id="Group_3" data-name="Group 3" transform="translate(3.382 5.067)" opacity="0.5">
              <path id="Path_4879" data-name="Path 4879" d="M366.235,909.543a.257.257,0,0,1-.214-.03c-7.836-5.194-10.059-11.023-10.543-15a15.272,15.272,0,0,1,.849-7.485.252.252,0,1,1,.462.2,15.061,15.061,0,0,0-.806,7.247c.477,3.861,2.654,9.53,10.319,14.611a.251.251,0,0,1,.071.349A.258.258,0,0,1,366.235,909.543Z" transform="translate(-355.353 -886.879)" fill="#bdd0fb"/>
            </g>
          </g>
        </g>
        <g id="Group_8" data-name="Group 8" transform="translate(188.602 24.026)">
          <g id="Group_6" data-name="Group 6">
            <path id="Path_4880" data-name="Path 4880" d="M1576.376,503.921c2.45-11.667,8.483-21.386,16.169-27.524a33.828,33.828,0,0,0,12.526-22.116q.173-1.373.466-2.765c2.947-14.033,13.935-23.6,24.541-21.374s16.814,15.41,13.865,29.442a33.6,33.6,0,0,1-2.745,7.983,33.987,33.987,0,0,0-2.22,24.98,49.872,49.872,0,0,1,.871,24.706c-2.741,13.046-9.959,23.656-18.958,29.55a33.289,33.289,0,0,0-8.768,8.36c-3.952,5.48-9.994,8.486-15.949,7.236-6.424-1.35-10.947-7.276-11.967-14.628a35.5,35.5,0,0,0-3.951-11.86C1575.574,527.162,1573.9,515.717,1576.376,503.921Z" transform="translate(-1575.235 -429.82)" fill="#bdd0fb"/>
            <path id="Path_4881" data-name="Path 4881" d="M1723.561,525.11c-3.334,8.982-6.375,18.065-9.324,27.18-.738,2.278-1.439,4.569-2.147,6.855l-1.063,3.431-1.034,3.441c-.68,2.3-1.392,4.584-2.047,6.887l-1.963,6.911c-1.25,4.625-2.539,9.238-3.7,13.885-.585,2.323-1.215,4.634-1.754,6.969l-1.646,6.995c-2.1,9.348-3.966,18.755-5.352,28.237l.408.064,1.307-7.056.323-1.764.368-1.755.741-3.51.733-3.51c.243-1.171.528-2.332.791-3.5.539-2.329,1.061-4.663,1.616-6.989,2.279-9.289,4.683-18.55,7.276-27.758,1.332-4.594,2.625-9.2,3.989-13.785l1.014-3.442,1.043-3.433c.694-2.29,1.388-4.579,2.1-6.861q2.091-6.864,4.286-13.7,2.162-6.844,4.421-13.657Z" transform="translate(-1675.569 -510.642)" fill="#91b3fa"/>
            <path id="Path_4882" data-name="Path 4882" d="M1956.488,506.75a.348.348,0,0,0,.241-.175c6.254-11.348,5.247-19.886,3.3-25.048a21.069,21.069,0,0,0-5.817-8.6.349.349,0,0,0-.434.545,20.77,20.77,0,0,1,5.612,8.336c1.883,5.021,2.844,13.336-3.272,24.433a.347.347,0,0,0,.136.472A.36.36,0,0,0,1956.488,506.75Z" transform="translate(-1896.192 -466.318)" fill="url(#linear-gradient-2)"/>
          </g>
          <g id="Group_7" data-name="Group 7" transform="translate(39.128 63.94)">
            <path id="Path_4883" data-name="Path 4883" d="M1840.689,881.674a30.7,30.7,0,0,1,16.794-11.772,21.777,21.777,0,0,0,13.223-9.582q.469-.756,1.011-1.491c5.474-7.412,14.443-10.076,20.03-5.947s5.682,13.481.208,20.894a21.685,21.685,0,0,1-3.737,3.932,21.889,21.889,0,0,0-7.979,14,32.1,32.1,0,0,1-6.1,14.666c-5.089,6.892-12.137,11.166-18.962,12.212a21.411,21.411,0,0,0-7.35,2.548c-3.77,2.149-8.1,2.3-11.237-.021-3.384-2.5-4.436-7.166-3.064-11.734a22.844,22.844,0,0,0,.87-7.98A30.64,30.64,0,0,1,1840.689,881.674Z" transform="translate(-1832.938 -850.938)" fill="#91b3fa"/>
            <path id="Path_4884" data-name="Path 4884" d="M1905.59,906.14c-4.349,4.359-8.553,8.855-12.71,13.395-1.04,1.134-2.062,2.285-3.087,3.433l-1.538,1.722-1.523,1.734c-1.011,1.16-2.038,2.306-3.037,3.479l-2.994,3.515c-1.966,2.369-3.952,4.72-5.875,7.126-.963,1.2-1.948,2.384-2.888,3.6l-2.832,3.649c-3.726,4.9-7.332,9.9-10.677,15.07l.22.146,2.651-3.773.661-.944.683-.928,1.371-1.854,1.368-1.855c.454-.62.932-1.222,1.4-1.833.938-1.218,1.866-2.442,2.812-3.653q5.724-7.229,11.672-14.278c2.006-2.329,3.992-4.675,6.014-6.99l1.512-1.74,1.526-1.728q1.526-1.729,3.063-3.448,3.056-3.453,6.166-6.861,3.091-3.423,6.233-6.8Z" transform="translate(-1854.56 -897.758)" fill="#7d97f4"/>
            <path id="Path_4885" data-name="Path 4885" d="M2158.656,903.822a.241.241,0,0,0,.2-.029c7.4-4.9,9.5-10.407,9.954-14.158a14.422,14.422,0,0,0-.8-7.066.238.238,0,0,0-.436.193,14.22,14.22,0,0,1,.761,6.842c-.451,3.646-2.505,9-9.74,13.793a.239.239,0,0,0-.067.331A.226.226,0,0,0,2158.656,903.822Z" transform="translate(-2109.059 -877.645)" fill="#bdd0fb"/>
          </g>
        </g>
      </g>
      <g id="Group_15" data-name="Group 15" transform="translate(35.486 92.225)">
        <g id="Group_14" data-name="Group 14" transform="translate(0)">
          <path id="Path_4886" data-name="Path 4886" d="M2024.83,1160.02l15.731-4.26s3.721,1.077,3.172,6.609-16.237,4.523-16.237,4.523Z" transform="translate(-1766.999 -1096.641)" fill="url(#linear-gradient-3)"/>
          <path id="Path_4887" data-name="Path 4887" d="M463.871,768.9c-30.01,7.5-47.617,27.564-56.3,29.591s-43.459,3.884-49.13,9.153-.254,9.013-7.545,15.788C342.831,846.191,367.807,853,367.807,853l227.04-1.845s15.322,1.377,15.66-9.564-3.383-16.469-4.188-26.323-.823-10.351-3.017-15.46-23.508-5.665-27.657-11.348-9.086-14.748-26.686-17.837C524.652,766.355,481.279,764.545,463.871,768.9Z" transform="translate(-345.866 -766.395)" fill="url(#linear-gradient-4)"/>
          <path id="Path_4888" data-name="Path 4888" d="M1922.634,1223.693c-.39,12.576-21.714,10.349-21.808,10.34,0,0-16.954-12.977,6.369-12.479,7.009-.181,14.114-3.893,14.114-3.893Z" transform="translate(-1656.776 -1149.143)" fill="url(#linear-gradient-5)"/>
          <path id="Path_4889" data-name="Path 4889" d="M330.368,1179.05s-.223,3.208,5.786,6.485c7.449,4.062,33.314-.4,33.314-.4l2.952,16.644-24.378,1.244C348.614,1203.172,316.03,1201.3,330.368,1179.05Z" transform="translate(-326.719 -1116.395)" fill="url(#linear-gradient-6)"/>
          <path id="Path_4890" data-name="Path 4890" d="M1451.339,857.525s.732-5.712-5.269-12.713-9.5-11.62-14.116-12.81-38.382-5.861-40.6-2.267-5.074,25.658-5.074,25.658Z" transform="translate(-1225.403 -818.986)" fill="url(#linear-gradient-7)"/>
          <g id="Group_10" data-name="Group 10" transform="translate(164.101 9.291)" opacity="0.3">
            <path id="Path_4891" data-name="Path 4891" d="M1449.351,830.71c-3.784-.563-32.506-3.9-39.922-2.95l-1.919,7.382,61.866,21.691a16.576,16.576,0,0,0-2.8-9.335C1461.387,839.712,1453.3,831.208,1449.351,830.71Z" transform="translate(-1407.51 -827.59)" fill="url(#linear-gradient-8)"/>
          </g>
          <path id="Path_4892" data-name="Path 4892" d="M920.82,825.978c-.935,4.264-4.382,25.053-4.382,25.053l-73.018-.337s23.016-21.152,40.711-24.5S921.417,823.725,920.82,825.978Z" transform="translate(-764.967 -815.235)" fill="url(#linear-gradient-6)"/>
          <path id="Path_4893" data-name="Path 4893" d="M1071.646,820.445c14.413-2,19.7-1.62,34.8-.3L1105,826.191s-22.485-4.409-43.437-1.86C1061.56,824.329,1066.941,821.1,1071.646,820.445Z" transform="translate(-949.986 -811.055)" fill="url(#linear-gradient-10)"/>
          <path id="Path_4894" data-name="Path 4894" d="M369.078,1026.631s11.831-3.793,14.716,5.56c2.751,8.916-23.944,11.315-23.944,11.315S361.819,1030.279,369.078,1026.631Z" transform="translate(-354.82 -986.473)" fill="url(#linear-gradient-11)"/>
          <path id="Path_4895" data-name="Path 4895" d="M1506.724,813.678a.7.7,0,0,1-.2-.029c-2.779-.84-5.118-3.766-7.827-7.154-3.957-4.948-8.442-10.557-15.756-11.952-14.026-2.677-35.288-4.532-35.5-4.55a.688.688,0,0,1-.625-.744.677.677,0,0,1,.744-.626c.214.018,21.545,1.88,35.64,4.57,7.812,1.491,12.669,7.564,16.571,12.444,2.566,3.21,4.783,5.981,7.151,6.7a.687.687,0,0,1-.2,1.344Z" transform="translate(-1276.746 -785.245)" fill="url(#linear-gradient-12)"/>
          <path id="Path_4896" data-name="Path 4896" d="M1886.353,964.144a.687.687,0,0,1-.616-.381c-1.152-2.323-6.254-3.377-11.187-4.394-1.764-.365-3.589-.741-5.267-1.18a.687.687,0,0,1,.348-1.329c1.643.431,3.449.8,5.2,1.165,5.5,1.136,10.691,2.208,12.141,5.13a.686.686,0,0,1-.31.92A.726.726,0,0,1,1886.353,964.144Z" transform="translate(-1634.633 -927.923)" fill="url(#linear-gradient-13)"/>
          <g id="Group_11" data-name="Group 11" transform="translate(192.285 62.133)">
            <circle id="Ellipse_1" data-name="Ellipse 1" cx="21.869" cy="21.869" r="21.869" fill="url(#linear-gradient-14)"/>
            <circle id="Ellipse_2" data-name="Ellipse 2" cx="13.952" cy="13.952" r="13.952" transform="translate(8.152 7.669)" fill="url(#linear-gradient-15)"/>
          </g>
          <g id="Group_12" data-name="Group 12" transform="translate(36.244 60.784)">
            <circle id="Ellipse_3" data-name="Ellipse 3" cx="21.869" cy="21.869" r="21.869" fill="url(#linear-gradient-16)"/>
            <circle id="Ellipse_4" data-name="Ellipse 4" cx="13.952" cy="13.952" r="13.952" transform="translate(8.153 7.669)" fill="url(#linear-gradient-17)"/>
          </g>
          <g id="Group_13" data-name="Group 13" transform="translate(150.613 39.049)">
            <path id="Path_4897" data-name="Path 4897" d="M1319.462,1067.757h-.068a.659.659,0,0,1-.714-.656.672.672,0,0,1,.424-.61c1.421-2.288,3.266-26.993,4.106-42.235a.714.714,0,0,1,.761-.673.727.727,0,0,1,.682.765c-.006.108-.6,10.783-1.453,21.392C1321.466,1067.33,1320.4,1067.757,1319.462,1067.757Z" transform="translate(-1318.68 -1023.581)" fill="url(#linear-gradient-18)"/>
          </g>
          <path id="Path_4898" data-name="Path 4898" d="M893.87,1045.224a5.005,5.005,0,0,1-5,5H874.014a5.005,5.005,0,0,1-5-5h0a5.005,5.005,0,0,1,5-5h14.851a5.005,5.005,0,0,1,5,5Z" transform="translate(-786.672 -998.644)" fill="url(#linear-gradient-19)"/>
        </g>
      </g>
      <g id="Group_21" data-name="Group 21" transform="translate(85.283 24.409)">
        <g id="Group_20" data-name="Group 20" transform="translate(73.657 50.93)">
          <path id="Path_4899" data-name="Path 4899" d="M1240.431,695.3a1.091,1.091,0,0,1-.973-1.125c.006-.176.009-.352.009-.53a17.633,17.633,0,0,0-4.28-11.542,7.256,7.256,0,0,1-1.609-5.7c.636-4.836-.577-10.253-4.494-15.581a6.052,6.052,0,0,0-1.426-1.385c-7.938-5.5-16.155-5.228-22.2-1.664a15.885,15.885,0,0,1-12.763,1.5,20.543,20.543,0,0,0-10.732-.346,6.762,6.762,0,0,1-5.553-1.225,12.916,12.916,0,0,0-7.678-2.514c-7.17,0-13.911,14.045-14.338,14.488a2.5,2.5,0,0,1-2.938.533c-2.612-1.363-6.072-1.322-9.386,1.134a1.162,1.162,0,0,0-.24.24c-4.837,6.538-.278,13.673,5.947,13.673a8.009,8.009,0,0,0,1.316-.109,3.449,3.449,0,0,1,3.51,1.534,13.931,13.931,0,0,0,15.229,6.145,5.867,5.867,0,0,1,5.349,1.23,20.4,20.4,0,0,0,16.472,4.9,6.651,6.651,0,0,1,4.865,1.18,11.932,11.932,0,0,0,8.642,2.135,4.505,4.505,0,0,1,4.276,1.819,17.686,17.686,0,0,0,14.313,7.28c.445,0,.887-.017,1.322-.049a3.982,3.982,0,0,1,3.96,2.279c3.2,7.109,12.59,10.83,21.308,4.3a1.174,1.174,0,0,0,.234-.234C1256.2,707.476,1249.838,696.385,1240.431,695.3Z" transform="translate(-1139.804 -655.18)" fill="#7d97f4"/>
          <path id="Path_4900" data-name="Path 4900" d="M1753.722,943.072a9.928,9.928,0,0,1,6.175,6.316,9.783,9.783,0,0,1,.386,4.552,10.232,10.232,0,0,1-1.688,4.256,10.083,10.083,0,0,1-7.8,4.317,9.873,9.873,0,0,1-8.081-3.579.162.162,0,0,1,.244-.213,9.74,9.74,0,0,0,7.8,3.17,8.943,8.943,0,0,0,3.14-.729l.494-.217.474-.258.237-.129.225-.15.449-.3.422-.336a3.9,3.9,0,0,0,.408-.352l.393-.37c.125-.129.241-.266.364-.4a9.755,9.755,0,0,0,.674-.843,9.489,9.489,0,0,0,1.3-8.248,9.734,9.734,0,0,0-2.153-3.735,9.882,9.882,0,0,0-3.58-2.453.162.162,0,0,1-.091-.21A.159.159,0,0,1,1753.722,943.072Z" transform="translate(-1651.142 -899.353)" fill="url(#linear-gradient-20)"/>
          <path id="Path_4901" data-name="Path 4901" d="M1751.159,845.413a10.8,10.8,0,0,1,1.332,1.617,12.456,12.456,0,0,1,1.72,3.82,11.223,11.223,0,0,1,.344,2.066.159.159,0,0,1-.15.172.162.162,0,0,1-.169-.128c-.146-.667-.313-1.324-.521-1.968a17.039,17.039,0,0,0-.73-1.887,16.827,16.827,0,0,0-.943-1.79c-.343-.582-.727-1.14-1.127-1.693a.161.161,0,0,1,.036-.226A.163.163,0,0,1,1751.159,845.413Z" transform="translate(-1658.102 -816.49)" fill="url(#linear-gradient-21)"/>
          <path id="Path_4902" data-name="Path 4902" d="M1171.068,790.74a6.809,6.809,0,0,0-3.807-2.022,6.9,6.9,0,0,0-2.15-.023c-.164.027-.4.067-.594.08a4.246,4.246,0,0,1-.621.009,5.294,5.294,0,0,1-1.222-.2,5.021,5.021,0,0,1-3.512-5.745,6.194,6.194,0,0,1,.891-2.183.162.162,0,0,1,.282.156v0a6.4,6.4,0,0,0-.641,2.1,4.506,4.506,0,0,0,1.4,3.863,4.526,4.526,0,0,0,1.807,1.025,4.477,4.477,0,0,0,1.032.161,4.672,4.672,0,0,0,.524,0c.182-.012.328-.035.541-.067a6.962,6.962,0,0,1,2.406.09,6.561,6.561,0,0,1,2.212.916,6.289,6.289,0,0,1,1.7,1.637.161.161,0,0,1-.247.2Z" transform="translate(-1156.148 -761.539)" fill="url(#linear-gradient-22)"/>
          <g id="Group_16" data-name="Group 16" transform="translate(21.067 5.361)" opacity="0.72">
            <path id="Path_4903" data-name="Path 4903" d="M1289.621,703.568a7.245,7.245,0,0,1-4.143,1.034,7.665,7.665,0,0,1-2.154-.422,7.773,7.773,0,0,1-1.956-1.045,7.035,7.035,0,0,1-2.536-3.639,6.376,6.376,0,0,1-.266-2.253,6.552,6.552,0,0,1,.495-2.221,7.372,7.372,0,0,1,1.18-1.943,7.5,7.5,0,0,1,3.8-2.349,7.961,7.961,0,0,1,2.23-.237,7.416,7.416,0,0,1,4.151,1.447,6.6,6.6,0,0,1,2.457,3.52.162.162,0,0,1-.3.109,6.816,6.816,0,0,0-2.618-2.949,7.03,7.03,0,0,0-7.35.021,7.133,7.133,0,0,0-1.438,1.237,6.149,6.149,0,0,0-.993,1.6,5.548,5.548,0,0,0-.43,1.831,6.357,6.357,0,0,0,0,.947,6.139,6.139,0,0,0,2.218,4.11,7.182,7.182,0,0,0,7.5.914.162.162,0,0,1,.153.284Z" transform="translate(-1278.554 -690.491)" fill="url(#linear-gradient-23)"/>
            <path id="Path_4904" data-name="Path 4904" d="M1354.3,738.558a4.429,4.429,0,1,1,4.429-4.429A4.434,4.434,0,0,1,1354.3,738.558Zm0-8.535a4.106,4.106,0,1,0,4.105,4.106A4.11,4.11,0,0,0,1354.3,730.023Z" transform="translate(-1339.042 -723.747)" fill="url(#linear-gradient-24)"/>
            <path id="Path_4905" data-name="Path 4905" d="M1387.467,751.434a.834.834,0,1,1-.834-.834A.834.834,0,0,1,1387.467,751.434Z" transform="translate(-1369.516 -741.473)" fill="url(#linear-gradient-25)"/>
          </g>
          <g id="Group_17" data-name="Group 17" transform="translate(69.273 3.884)" opacity="0.72">
            <path id="Path_4906" data-name="Path 4906" d="M1596.053,687.8a10.2,10.2,0,0,1,9.188-7.03,9.805,9.805,0,0,1,4.089.677,9.344,9.344,0,0,1,3.421,2.376,9.239,9.239,0,0,1,1.21,1.713,8.449,8.449,0,0,1,.455.944c.071.159.117.33.176.493a4.837,4.837,0,0,1,.153.5,9.329,9.329,0,0,1-1.4,7.844.162.162,0,0,1-.276-.167,10.007,10.007,0,0,0,.674-7.381,8.491,8.491,0,0,0-4.827-5.307,9.315,9.315,0,0,0-7.286.129,10.217,10.217,0,0,0-5.27,5.319.161.161,0,0,1-.3-.111Z" transform="translate(-1596.047 -680.762)" fill="url(#linear-gradient-24)"/>
          </g>
          <g id="Group_18" data-name="Group 18" transform="translate(82.198 18.199)" opacity="0.72">
            <path id="Path_4907" data-name="Path 4907" d="M1685.162,782.066a.161.161,0,0,1-.035-.319,3.22,3.22,0,0,0,2.449-2.759,3.056,3.056,0,1,0-6.049-.8,3.377,3.377,0,0,0,.181,1.623.161.161,0,0,1-.3.114,3.681,3.681,0,0,1-.2-1.779,3.378,3.378,0,1,1,6.69.885,3.543,3.543,0,0,1-2.7,3.032A.237.237,0,0,1,1685.162,782.066Z" transform="translate(-1681.174 -775.041)" fill="url(#linear-gradient-27)"/>
          </g>
          <g id="Group_19" data-name="Group 19" transform="translate(64.583 33.8)" opacity="0.72">
            <path id="Path_4908" data-name="Path 4908" d="M1610.344,888.876a8.9,8.9,0,0,1,5.173-.907,9.123,9.123,0,0,1,4.9,2.167,8.648,8.648,0,0,1,2.773,4.672,9.182,9.182,0,0,1,.181,1.379,9.456,9.456,0,0,1-.07,1.389,7.952,7.952,0,0,1-.8,2.657,8.937,8.937,0,0,1-1.617,2.247,9.2,9.2,0,0,1-7.548,2.607,9.114,9.114,0,0,1-4.93-2.082,8.253,8.253,0,0,1-2.762-4.467.162.162,0,0,1,.123-.193.16.16,0,0,1,.187.1,8.276,8.276,0,0,0,2.935,3.942,8.691,8.691,0,0,0,9.2.641A8.9,8.9,0,0,0,1620,901.6a7.641,7.641,0,0,0,1.366-1.934,6.918,6.918,0,0,0,.691-2.256,7.93,7.93,0,0,0,.071-1.184,8.327,8.327,0,0,0-.143-1.178,7.027,7.027,0,0,0-.814-2.23,8.655,8.655,0,0,0-1.474-1.893,8.962,8.962,0,0,0-9.225-1.758.162.162,0,0,1-.209-.093A.159.159,0,0,1,1610.344,888.876Z" transform="translate(-1599.497 -886.366)" fill="url(#linear-gradient-20)"/>
            <path id="Path_4909" data-name="Path 4909" d="M1570.6,888.657q-.194,0-.387-.014a5.418,5.418,0,1,1,.387.014Zm-.015-10.545a5.151,5.151,0,1,0,.364.014Q1570.767,878.112,1570.587,878.112Z" transform="translate(-1565.16 -877.79)" fill="url(#linear-gradient-23)"/>
            <path id="Path_4910" data-name="Path 4910" d="M1578.836,910.121a1.029,1.029,0,1,1,.955,1.1A1.029,1.029,0,0,1,1578.836,910.121Z" transform="translate(-1576.758 -904.4)" fill="url(#linear-gradient-30)"/>
          </g>
        </g>
        <circle id="Ellipse_5" data-name="Ellipse 5" cx="1.637" cy="1.637" r="1.637" transform="translate(194.13 108.694) rotate(-43.436)" fill="#fff" opacity="0.49"/>
        <path id="Path_4911" data-name="Path 4911" d="M831.139,476.548a10.589,10.589,0,1,1,10.589-10.589A10.6,10.6,0,0,1,831.139,476.548Zm0-20.621a10.032,10.032,0,1,0,10.032,10.032A10.043,10.043,0,0,0,831.139,455.927Z" transform="translate(-795.367 -434.778)" fill="#fff"/>
        <path id="Path_4912" data-name="Path 4912" d="M1073.49,605.471a4.45,4.45,0,1,1,4.45-4.45A4.456,4.456,0,0,1,1073.49,605.471Zm0-8.255a3.8,3.8,0,1,0,3.805,3.8A3.809,3.809,0,0,0,1073.49,597.215Z" transform="translate(-1006.128 -554.539)" fill="#fff"/>
        <path id="Path_4913" data-name="Path 4913" d="M1646.923,631.565a2.842,2.842,0,1,1,2.842-2.842A2.846,2.846,0,0,1,1646.923,631.565Zm0-5.039a2.2,2.2,0,1,0,2.2,2.2A2.2,2.2,0,0,0,1646.923,626.525Z" transform="translate(-1493.857 -579.399)" fill="#fff"/>
        <path id="Path_4914" data-name="Path 4914" d="M1672.307,487.782a11.636,11.636,0,1,1,11.635-11.637A11.65,11.65,0,0,1,1672.307,487.782Zm0-22.626a10.99,10.99,0,1,0,10.99,10.99A11,11,0,0,0,1672.307,465.155Z" transform="translate(-1507.928 -442.531)" fill="#fff"/>
        <path id="Path_4915" data-name="Path 4915" d="M660.448,757.085a5.758,5.758,0,1,1,5.758-5.758A5.764,5.764,0,0,1,660.448,757.085Zm0-10.868a5.112,5.112,0,1,0,5.112,5.112A5.118,5.118,0,0,0,660.448,746.217Z" transform="translate(-654.69 -680.916)" fill="#fff"/>
        <path id="Path_4916" data-name="Path 4916" d="M1219.729,351.948a16.1,16.1,0,1,1,16.1-16.1A16.117,16.117,0,0,1,1219.729,351.948Zm0-31.553a15.454,15.454,0,1,0,15.454,15.454A15.471,15.471,0,0,0,1219.729,320.4Z" transform="translate(-1120.282 -319.75)" fill="#fff"/>
        <path id="Path_4917" data-name="Path 4917" d="M1976.17,719.62a10.39,10.39,0,1,0,10.39,10.39A10.391,10.391,0,0,0,1976.17,719.62Zm4.4,9.139c-1.01.328-1.653-.958-2.194-2.625s-.776-3.085.235-3.413,2.882.559,3.422,2.226S1981.58,728.431,1980.57,728.759Z" transform="translate(-1766.712 -658.906)" fill="#fff" opacity="0.49"/>
        <path id="Path_4918" data-name="Path 4918" d="M1685.68,466.31a10.39,10.39,0,1,0,10.39,10.39A10.391,10.391,0,0,0,1685.68,466.31Zm4.4,9.139c-1.01.328-1.653-.958-2.194-2.625s-.776-3.085.235-3.413,2.882.559,3.422,2.226S1691.09,475.122,1690.08,475.449Z" transform="translate(-1520.328 -444.057)" fill="#fff" opacity="0.49"/>
        <path id="Path_4919" data-name="Path 4919" d="M843.791,466.1a8.961,8.961,0,1,0,8.961,8.961A8.961,8.961,0,0,0,843.791,466.1Zm3.794,7.883c-.872.282-1.426-.826-1.892-2.264s-.668-2.66.2-2.944a2.8,2.8,0,0,1,1.69,5.208Z" transform="translate(-807.479 -443.879)" fill="#fff" opacity="0.49"/>
        <path id="Path_4920" data-name="Path 4920" d="M1245.39,331.33a13.039,13.039,0,1,0,13.039,13.039A13.04,13.04,0,0,0,1245.39,331.33Zm5.522,11.471c-1.268.411-2.074-1.2-2.754-3.293s-.973-3.872.295-4.283,3.617.7,4.3,2.794S1252.18,342.39,1250.912,342.8Z" transform="translate(-1144.642 -329.572)" fill="#fff" opacity="0.49"/>
        <path id="Path_4921" data-name="Path 4921" d="M674.849,753.48a4,4,0,1,0,4,4A4,4,0,0,0,674.849,753.48ZM676.544,757c-.389.126-.636-.369-.844-1.01s-.3-1.187.09-1.313a1.249,1.249,0,0,1,.755,2.323Z" transform="translate(-668.396 -687.625)" fill="#fff" opacity="0.49"/>
        <path id="Path_4922" data-name="Path 4922" d="M2074.388,611.585a5.758,5.758,0,1,1,5.757-5.758A5.764,5.764,0,0,1,2074.388,611.585Zm0-10.868a5.112,5.112,0,1,0,5.112,5.112A5.118,5.118,0,0,0,2074.388,600.717Z" transform="translate(-1853.947 -557.508)" fill="#fff"/>
        <path id="Path_4923" data-name="Path 4923" d="M2088.789,607.97a4,4,0,1,0,4,4A4,4,0,0,0,2088.789,607.97Zm1.694,3.52c-.388.126-.636-.369-.844-1.01s-.3-1.187.09-1.313a1.249,1.249,0,0,1,.754,2.323Z" transform="translate(-1867.652 -564.209)" fill="#fff" opacity="0.49"/>
      </g>
      <g id="Group_25" data-name="Group 25" transform="translate(54.785 116.667)">
        <path id="Path_4924" data-name="Path 4924" d="M569.34,1073.47h10.073v-3.41H569.34Z" transform="translate(-551.801 -1048.395)" fill="url(#linear-gradient-31)"/>
        <path id="Path_4925" data-name="Path 4925" d="M469.168,1086.645c-10.92,14.043-20.472,39.267-12.245,56.066a4.96,4.96,0,0,0,4.516,2.325h31.1a4.891,4.891,0,0,0,4.582-2.467,48.137,48.137,0,0,0,3.939-17.689c.1-5.72-2.882-11.234-8.287-15.34l-6.527-4.957a3.128,3.128,0,0,1-1.357-2.5l.194-13.629a3,3,0,0,0-1.017-2.217h0a5.571,5.571,0,0,0-3.791-1.364h-6.933A5.3,5.3,0,0,0,469.168,1086.645Z" transform="translate(-453.823 -1060.957)" fill="url(#linear-gradient-32)"/>
        <path id="Path_4926" data-name="Path 4926" d="M555.786,1040.612h12.437a1.042,1.042,0,0,0,1.04-1.1l-.276-5.2a1.04,1.04,0,0,0-1.04-.985H556.118a1.04,1.04,0,0,0-1.039.975l-.333,5.2A1.04,1.04,0,0,0,555.786,1040.612Z" transform="translate(-539.422 -1017.242)" fill="#7d97f4"/>
        <g id="Group_24" data-name="Group 24" transform="translate(27.004 5.373)">
          <path id="Path_4927" data-name="Path 4927" d="M646.632,965.115c-.167,3.081-.422,14.13,4.037,19.26a1,1,0,0,1,.02,1.3h0a1,1,0,0,1-1.366.156c-2.062-1.564-7.61-6.33-8.607-12.985a.988.988,0,0,0-.626-.774l-6.714-2.592a1,1,0,0,1-.25-1.717c2.281-1.757,7.255-4.862,12.724-3.674A1,1,0,0,1,646.632,965.115Z" transform="translate(-632.576 -963.662)" fill="url(#linear-gradient-33)"/>
          <g id="Group_23" data-name="Group 23">
            <g id="Group_22" data-name="Group 22">
              <path id="Path_4928" data-name="Path 4928" d="M649.024,985.291a1.144,1.144,0,0,1-.7-.234c-2.276-1.726-7.677-6.458-8.67-13.09a.832.832,0,0,0-.524-.648l-6.714-2.592a1.157,1.157,0,0,1-.292-2c1.925-1.484,5.829-3.972,10.341-3.972a11.845,11.845,0,0,1,2.514.267,1.153,1.153,0,0,1,.911,1.193c-.175,3.213-.4,14.087,4,19.146a1.158,1.158,0,0,1-.868,1.924Zm-6.556-22.207c-4.415,0-8.251,2.446-10.144,3.905a.834.834,0,0,0,.21,1.438l6.714,2.592a1.156,1.156,0,0,1,.727.9c.976,6.515,6.3,11.178,8.547,12.88a.851.851,0,0,0,1.143-.132.836.836,0,0,0-.018-1.089c-4.476-5.15-4.251-16.132-4.077-19.375a.831.831,0,0,0-.657-.861A11.574,11.574,0,0,0,642.468,963.083Z" transform="translate(-631.678 -962.76)" fill="#91b3fa"/>
            </g>
          </g>
        </g>
        <path id="Path_4929" data-name="Path 4929" d="M730.73,930.24v8.447l5.281-.837a1.317,1.317,0,0,0,1.111-1.257l.152-4.3a1.318,1.318,0,0,0-1.149-1.354Z" transform="translate(-688.686 -929.805)" fill="url(#linear-gradient-34)"/>
        <path id="Path_4930" data-name="Path 4930" d="M530.429,928.163l-8.366,6.473a3.782,3.782,0,0,0-1.423,2.4l-.194,1.224a3.788,3.788,0,0,0,3.052,4.318l4.748.878H537.9l1.48-4.4,9.154-2.187,3.8-.619v-8.446l-19.5-.434A3.777,3.777,0,0,0,530.429,928.163Z" transform="translate(-510.29 -927.373)" fill="url(#linear-gradient-35)"/>
        <path id="Path_4931" data-name="Path 4931" d="M545.67,945.825l-2.232,9.9a1.761,1.761,0,0,1-2,1.351l-4.166-.665a1.764,1.764,0,0,1-1.485-1.74v-1.35a1.762,1.762,0,0,1,.686-1.4l8.491-6.546A.444.444,0,0,1,545.67,945.825Z" transform="translate(-523.345 -942.563)" fill="url(#linear-gradient-36)"/>
        <path id="Path_4932" data-name="Path 4932" d="M563.548,1044.768h-.378a.159.159,0,0,1-.159-.159v-5.26a.159.159,0,0,1,.159-.159h.378a.159.159,0,0,1,.159.159v5.26A.159.159,0,0,1,563.548,1044.768Z" transform="translate(-546.432 -1022.212)" fill="#91b3fa"/>
        <path id="Path_4933" data-name="Path 4933" d="M574.268,1044.768h-.378a.159.159,0,0,1-.159-.159v-5.26a.159.159,0,0,1,.159-.159h.378a.159.159,0,0,1,.159.159v5.26A.159.159,0,0,1,574.268,1044.768Z" transform="translate(-555.524 -1022.212)" fill="#91b3fa"/>
        <path id="Path_4934" data-name="Path 4934" d="M584.977,1044.768H584.6a.159.159,0,0,1-.159-.159v-5.26a.159.159,0,0,1,.159-.159h.378a.159.159,0,0,1,.159.159v5.26A.158.158,0,0,1,584.977,1044.768Z" transform="translate(-564.608 -1022.212)" fill="#91b3fa"/>
        <path id="Path_4935" data-name="Path 4935" d="M595.7,1044.768h-.378a.159.159,0,0,1-.159-.159v-5.26a.159.159,0,0,1,.159-.159h.378a.159.159,0,0,1,.159.159v5.26A.159.159,0,0,1,595.7,1044.768Z" transform="translate(-573.7 -1022.212)" fill="#91b3fa"/>
        <path id="Path_4936" data-name="Path 4936" d="M606.418,1044.768h-.378a.159.159,0,0,1-.159-.159v-5.26a.159.159,0,0,1,.159-.159h.378a.159.159,0,0,1,.159.159v5.26A.159.159,0,0,1,606.418,1044.768Z" transform="translate(-582.793 -1022.212)" fill="#91b3fa"/>
        <path id="Path_4937" data-name="Path 4937" d="M617.128,1044.768h-.378a.159.159,0,0,1-.159-.159v-5.26a.159.159,0,0,1,.159-.159h.378a.159.159,0,0,1,.159.159v5.26A.158.158,0,0,1,617.128,1044.768Z" transform="translate(-591.876 -1022.212)" fill="#91b3fa"/>
        <path id="Path_4938" data-name="Path 4938" d="M627.847,1044.768h-.378a.159.159,0,0,1-.159-.159v-5.26a.159.159,0,0,1,.159-.159h.378a.159.159,0,0,1,.159.159v5.26A.159.159,0,0,1,627.847,1044.768Z" transform="translate(-600.969 -1022.212)" fill="#91b3fa"/>
        <path id="Path_4939" data-name="Path 4939" d="M638.568,1044.768h-.378a.159.159,0,0,1-.159-.159v-5.26a.159.159,0,0,1,.159-.159h.378a.159.159,0,0,1,.159.159v5.26A.159.159,0,0,1,638.568,1044.768Z" transform="translate(-610.061 -1022.212)" fill="#91b3fa"/>
        <path id="Path_4940" data-name="Path 4940" d="M504.94,1236.536a55.853,55.853,0,0,0-3.632,22.315,5.1,5.1,0,0,0,5.1,4.837h22.251a5.108,5.108,0,0,0,5.012-4.124l1.855-9.453a5.106,5.106,0,0,0-1.877-5.015c-4.352-3.383-13.8-10.016-22.979-11.747A5.115,5.115,0,0,0,504.94,1236.536Z" transform="translate(-494.045 -1186.815)" fill="#91b3fa"/>
        <path id="Path_4941" data-name="Path 4941" d="M522.6,1258.319a46.842,46.842,0,0,0-3.046,18.717,4.279,4.279,0,0,0,4.277,4.057h18.662a4.281,4.281,0,0,0,4.2-3.459l1.556-7.929a4.286,4.286,0,0,0-1.574-4.208c-3.65-2.838-11.574-8.4-19.274-9.854A4.292,4.292,0,0,0,522.6,1258.319Z" transform="translate(-509.529 -1205.738)" fill="#bdd0fb"/>
        <path id="Path_4942" data-name="Path 4942" d="M592.448,1308.283c-.2-2.376-1.532-5.434-4.988-9.289a.511.511,0,0,0-.8.047c-1.048,1.483-3.905,5.949-3.551,10.048a4.685,4.685,0,1,0,9.336-.806Z" transform="translate(-563.456 -1242.425)" fill="url(#linear-gradient-37)"/>
      </g>
      <path id="Path_4943" data-name="Path 4943" d="M1074.084,930.4a6.48,6.48,0,0,1,5.152-6.7,6.643,6.643,0,0,1,.659-.1,7.932,7.932,0,0,0,4.966-2.258,9.752,9.752,0,0,1,14.643.773,3.97,3.97,0,0,0,3.286,1.464h.059a5.752,5.752,0,0,1,1.38,11.368,5.459,5.459,0,0,1-9.556,2.545,9.77,9.77,0,0,1-1.752.36,9.9,9.9,0,0,1-1.193.056,7.264,7.264,0,0,1-14.142-1.408c0-.008,0-.015,0-.023a1.553,1.553,0,0,0-.679-1.125A6.42,6.42,0,0,1,1074.084,930.4Z" transform="translate(-925.113 -803.089)" fill="#7d97f4"/>
      <g id="Group_28" data-name="Group 28" transform="translate(113.967 107.632)">
        <g id="Group_26" data-name="Group 26" transform="translate(37.15 16.386)">
          <path id="Path_4944" data-name="Path 4944" d="M1103.007,986.082a21.647,21.647,0,0,1-9.874-2.343,3.626,3.626,0,0,0-4.364,2.691l-.39,1.646a3.624,3.624,0,0,0,2.691,4.362,30.629,30.629,0,0,1,9.874,2.343,3.626,3.626,0,0,0,4.364-2.69l.39-1.646A3.625,3.625,0,0,0,1103.007,986.082Z" transform="translate(-1088.281 -982.449)" fill="url(#linear-gradient-38)"/>
          <path id="Path_4945" data-name="Path 4945" d="M1103.007,978.232a21.645,21.645,0,0,1-9.874-2.343,3.626,3.626,0,0,0-4.364,2.69l-.39,1.646a3.624,3.624,0,0,0,2.691,4.362,30.629,30.629,0,0,1,9.874,2.343,3.626,3.626,0,0,0,4.364-2.689l.39-1.646A3.626,3.626,0,0,0,1103.007,978.232Z" transform="translate(-1088.281 -975.791)" fill="url(#linear-gradient-39)"/>
        </g>
        <path id="Path_4946" data-name="Path 4946" d="M850.731,1439.657s-.7,1.1-.876,4.2a.5.5,0,0,0,.5.533h5.478a.323.323,0,0,0,.307-.425,8.761,8.761,0,0,0-3.457-4.59Z" transform="translate(-848.906 -1352.597)" fill="url(#linear-gradient-40)"/>
        <path id="Path_4947" data-name="Path 4947" d="M854.07,1425.857l.31,2.6a.489.489,0,0,0,.427.43,4.3,4.3,0,0,0,1.158-.011.8.8,0,0,0,.662-.8v-2.508Z" transform="translate(-852.481 -1340.892)" fill="url(#linear-gradient-41)"/>
        <path id="Path_4948" data-name="Path 4948" d="M939.174,1439.37a7.649,7.649,0,0,0-1.026,3.867.968.968,0,0,0,.973.948h8.509a.407.407,0,0,0,.234-.741,37.011,37.011,0,0,0-7.063-4.074Z" transform="translate(-923.793 -1352.597)" fill="url(#linear-gradient-42)"/>
        <path id="Path_4949" data-name="Path 4949" d="M939.14,1413.927l.661,3.208a.663.663,0,0,0,.782.521,2.406,2.406,0,0,0,.749-.313.758.758,0,0,0,.339-.776l-.683-3.887Z" transform="translate(-924.635 -1329.959)" fill="url(#linear-gradient-43)"/>
        <path id="Path_4950" data-name="Path 4950" d="M846.408,1127.05a9.2,9.2,0,0,0-2.73,4.464c-.433,2.437,1.225,42.058,1.225,42.058s2.3.383,3.483-.335c0,0,1.4-25.713,2.473-31.654,0,0,5.6,26.635,7.153,31.448,0,0,2.214.269,2.927-.152,0,0-1.467-34.527-3.31-40.666Z" transform="translate(-843.606 -1087.698)" fill="url(#linear-gradient-44)"/>
        <path id="Path_4951" data-name="Path 4951" d="M872.955,1186.292l-.958-3.673-2.047-1.313.2-.316,2.171,1.392.995,3.816Z" transform="translate(-865.95 -1133.448)" fill="url(#linear-gradient-45)"/>
        <path id="Path_4952" data-name="Path 4952" d="M882.818,970.405c-3.406-3.67-9.894-5.328-13.648-6.01a3.445,3.445,0,0,0-3.851,2.185c-1.69,4.543-6.287,16.365-7.179,18.4-.73,1.667-1.494,3.295-1.98,4.312a1.221,1.221,0,0,0,.571,1.628,89.448,89.448,0,0,0,11.151,3.919.79.79,0,0,0,1.011-.761,2.461,2.461,0,0,1,.352-1.271l8.73-14.549c5.442,6.034,10.206,6.585,13.867,5.264a27.551,27.551,0,0,1-1.212-5.718C885.226,976.876,882.818,970.405,882.818,970.405Z" transform="translate(-854.152 -949.692)" fill="url(#linear-gradient-46)"/>
        <path id="Path_4953" data-name="Path 4953" d="M1092.818,1039.071l-.976-1.3c-3.16,2.17-5.8,2.684-7.962,2.314a27.544,27.544,0,0,0,1.211,5.718C1089.914,1044.062,1092.818,1039.071,1092.818,1039.071Z" transform="translate(-1047.398 -1011.973)" fill="url(#linear-gradient-47)"/>
        <path id="Path_4954" data-name="Path 4954" d="M960.322,920.33l-2.9,7.08s3.333,2.308,6.016,2.088l1.448-6.366Z" transform="translate(-940.139 -912.365)" fill="url(#linear-gradient-48)"/>
        <g id="Group_27" data-name="Group 27" transform="translate(17.868 0.765)">
          <path id="Path_4955" data-name="Path 4955" d="M980.439,886.217c.067.094,2.1,7.437,2.1,7.437l-4.216,1.072-2.961-6.673S979.326,884.641,980.439,886.217Z" transform="translate(-973.223 -883.844)" fill="url(#linear-gradient-49)"/>
          <path id="Path_4956" data-name="Path 4956" d="M965.011,878.131l1.283,3.635a.529.529,0,0,0,.067.131c.175.247.835,1.055,1.62.328a4.835,4.835,0,0,1,1.981-1.359.536.536,0,0,1,.612.386,23.343,23.343,0,0,1,.709,3.542.537.537,0,0,1-.437.578,17.409,17.409,0,0,1-4.028.336.537.537,0,0,1-.454-.313c-.4-.878-1.632-3.542-2.091-4.23-.43-.647-1.484-.629-1.925-.589a.532.532,0,0,1-.4-.129,1.4,1.4,0,0,1-.088-2.24.538.538,0,0,0-.012-.776,1.4,1.4,0,0,1-.179-2.077,1.974,1.974,0,0,1,2.355-.563.538.538,0,0,0,.648-.24.427.427,0,0,1,.439-.2.531.531,0,0,0,.566-.544c-.011-.6.292-.443,1.329-.767,1.842-.574,1.376.922,1.489,2.249s-.392,1.21-1.587,1.12c-.909-.068-1.584.832-1.854,1.268A.541.541,0,0,0,965.011,878.131Z" transform="translate(-961.286 -872.909)" fill="url(#linear-gradient-50)"/>
          <path id="Path_4957" data-name="Path 4957" d="M969.645,922.39s-.3-2.3-1.257-2.419-1.892.676-.938,1.969C968.636,923.551,969.645,922.39,969.645,922.39Z" transform="translate(-966.175 -912.816)" fill="url(#linear-gradient-51)"/>
        </g>
        <path id="Path_4958" data-name="Path 4958" d="M1122.172,1003.953l.09-1.257a2.337,2.337,0,0,1-1.695-1.186c-.382-.978-1.641-2.338,0-1.117s2.792-.035,3.63-2.094,1.676-2.024,2.3-1.746.211,4.277-3.263,7.444Z" transform="translate(-1077.818 -976.899)" fill="url(#linear-gradient-52)"/>
        <path id="Path_4959" data-name="Path 4959" d="M961.562,873.931s10.5-2.674,12.2-3.339c0,0,.418-1.193-4.843,0,0,0-.542-3.753-4.787-2.446C959.012,869.722,961.562,873.931,961.562,873.931Z" transform="translate(-943.113 -867.869)" fill="url(#linear-gradient-53)"/>
      </g>
      <g id="Group_31" data-name="Group 31" transform="translate(11.4 33.17)">
        <g id="Group_29" data-name="Group 29" transform="translate(0 0)">
          <path id="Path_4960" data-name="Path 4960" d="M193.7,429.9a.939.939,0,0,1-.144-.011l-5.733-.8a1.042,1.042,0,0,1-.878-.832l-.855-4.39a21.648,21.648,0,0,1-5.439-3.205l-4.256,1.38a1.043,1.043,0,0,1-1.154-.364l-3.485-4.623a1.043,1.043,0,0,1-.032-1.21l2.5-3.709a21.63,21.63,0,0,1-1.584-6.111l-3.983-2.032a1.044,1.044,0,0,1-.559-1.073l.8-5.733a1.042,1.042,0,0,1,.832-.878l4.388-.855a21.649,21.649,0,0,1,3.205-5.439l-1.38-4.254a1.042,1.042,0,0,1,.364-1.154l4.623-3.485a1.043,1.043,0,0,1,1.21-.032l3.709,2.5A21.628,21.628,0,0,1,191.963,382l2.032-3.983a1.04,1.04,0,0,1,1.073-.559l5.733.8a1.042,1.042,0,0,1,.878.832l.855,4.388a21.7,21.7,0,0,1,5.439,3.205l4.256-1.38a1.044,1.044,0,0,1,1.154.363l3.485,4.623a1.043,1.043,0,0,1,.032,1.21l-2.5,3.709a21.63,21.63,0,0,1,1.584,6.111l3.983,2.032a1.044,1.044,0,0,1,.559,1.073l-.8,5.733a1.042,1.042,0,0,1-.832.878l-4.388.855a21.675,21.675,0,0,1-3.205,5.439l1.382,4.254a1.043,1.043,0,0,1-.364,1.154l-4.623,3.485a1.043,1.043,0,0,1-1.21.032l-3.709-2.5a21.618,21.618,0,0,1-6.111,1.584l-2.032,3.983A1.048,1.048,0,0,1,193.7,429.9Zm-5.522-2.069,5.381.756,2.273-4.456.355-.032a20.364,20.364,0,0,0,6.391-1.655l.326-.144,4.151,2.8,4.339-3.27-1.546-4.76.228-.273a20.357,20.357,0,0,0,3.352-5.689l.129-.333,4.91-.957.756-5.381-4.456-2.273-.032-.355a20.356,20.356,0,0,0-1.657-6.392l-.144-.326,2.8-4.151-3.271-4.339-4.762,1.546-.273-.228a20.372,20.372,0,0,0-5.688-3.352l-.333-.129-.957-4.909-5.381-.756-2.273,4.456-.355.032a20.356,20.356,0,0,0-6.392,1.656l-.326.144-4.151-2.8-4.339,3.271,1.546,4.761-.228.273a20.35,20.35,0,0,0-3.352,5.688l-.129.333-4.91.957-.756,5.381,4.456,2.273.032.355a20.357,20.357,0,0,0,1.657,6.392l.144.326-2.8,4.151,3.27,4.339,4.762-1.546.273.228a20.326,20.326,0,0,0,5.688,3.352l.333.129Zm6.249-9.446a15.02,15.02,0,0,1-2.063-.144,14.613,14.613,0,0,1-12.44-16.506,14.717,14.717,0,0,1,.755-3.018.646.646,0,0,1,1.213.445,13.412,13.412,0,0,0-.689,2.753,13.318,13.318,0,1,0,8.009-10.422.646.646,0,0,1-.5-1.19,14.616,14.616,0,1,1,5.718,28.083Z" transform="translate(-168.085 -377.45)" fill="#91b3fa"/>
          <path id="Path_4961" data-name="Path 4961" d="M308.472,523.634a5.788,5.788,0,0,1-5.741-5.165h0a5.787,5.787,0,1,1,6.375,5.131A5.622,5.622,0,0,1,308.472,523.634Zm.015-10.282a4.821,4.821,0,0,0-.487.026,4.5,4.5,0,0,0-3.986,4.953h0a4.495,4.495,0,1,0,4.473-4.979Z" transform="translate(-282.258 -491.622)" fill="#91b3fa"/>
        </g>
        <g id="Group_30" data-name="Group 30" transform="translate(38.141 47.848)">
          <path id="Path_4962" data-name="Path 4962" d="M432.552,718.134a.677.677,0,0,1-.6-.358l-.963-1.818a10.573,10.573,0,0,1-2.818-.683l-1.688,1.177a.673.673,0,0,1-.783-.008l-2.25-1.641a.676.676,0,0,1-.247-.742l.6-1.968a10.607,10.607,0,0,1-1.512-2.475l-2.024-.361a.674.674,0,0,1-.548-.56l-.43-2.75a.673.673,0,0,1,.351-.7l1.817-.963a10.576,10.576,0,0,1,.683-2.818l-1.177-1.688a.675.675,0,0,1,.009-.783l1.641-2.249a.676.676,0,0,1,.744-.248l1.966.6a10.584,10.584,0,0,1,2.475-1.511l.361-2.024a.674.674,0,0,1,.56-.548l2.751-.431a.682.682,0,0,1,.7.351l.963,1.818a10.575,10.575,0,0,1,2.818.683l1.688-1.177a.675.675,0,0,1,.783.009l2.25,1.641a.676.676,0,0,1,.247.744l-.6,1.966a10.58,10.58,0,0,1,1.511,2.475l2.025.361a.674.674,0,0,1,.548.56l.43,2.751a.676.676,0,0,1-.352.7l-1.816.963a10.574,10.574,0,0,1-.683,2.818l1.177,1.688a.678.678,0,0,1-.008.783l-1.641,2.25a.678.678,0,0,1-.744.247l-1.966-.6a10.641,10.641,0,0,1-2.475,1.512l-.361,2.024a.674.674,0,0,1-.56.548l-2.751.431C432.622,718.131,432.587,718.134,432.552,718.134Zm-4.5-3.958.246.1a9.577,9.577,0,0,0,3.032.735l.267.02,1.113,2.1,2.338-.366.418-2.341.247-.1a9.569,9.569,0,0,0,2.662-1.626l.2-.175,2.274.7,1.394-1.912-1.36-1.953.1-.246a9.608,9.608,0,0,0,.735-3.031l.02-.266,2.1-1.113-.366-2.338-2.341-.419-.1-.247a9.616,9.616,0,0,0-1.626-2.662l-.175-.2.7-2.274-1.912-1.394-1.953,1.36-.246-.1a9.576,9.576,0,0,0-3.032-.735l-.267-.02-1.113-2.1-2.337.366-.419,2.341-.247.1A9.648,9.648,0,0,0,425.753,698l-.2.175-2.274-.7-1.394,1.912,1.36,1.953-.1.246a9.619,9.619,0,0,0-.735,3.032l-.02.266-2.1,1.113.366,2.338,2.341.419.1.247a9.571,9.571,0,0,0,1.626,2.662l.175.2-.7,2.274,1.912,1.394Zm-7.375-5.633Zm-.238-.243h0Zm23.592-3.691Zm-.345-2.2ZM432.1,712.589A7.2,7.2,0,0,1,425,706.5a7.293,7.293,0,0,1-.076-1.532.484.484,0,1,1,.967.056,6.234,6.234,0,1,0,12.384-.6,6.237,6.237,0,0,0-10.149-3.829.483.483,0,1,1-.619-.742,7.2,7.2,0,1,1,4.594,12.74Z" transform="translate(-419.287 -692.581)" fill="#91b3fa"/>
        </g>
      </g>
      <g id="Group_34" data-name="Group 34" transform="translate(64.026 20.412)">
        <g id="Group_32" data-name="Group 32" transform="translate(0 12.577)">
          <path id="Path_4963" data-name="Path 4963" d="M649.983,817.123l-.9.323-.009,0a.3.3,0,1,1-.2-.557h0l.922-.328a.295.295,0,0,1,.2.556Z" transform="translate(-628.333 -749.696)" fill="#fff"/>
          <path id="Path_4964" data-name="Path 4964" d="M630.544,825.057l-.858.427-.009,0a.3.3,0,0,1-.266-.536h0l.878-.434a.3.3,0,1,1,.264.534Z" transform="translate(-611.852 -756.43)" fill="#fff"/>
          <path id="Path_4965" data-name="Path 4965" d="M612.2,835.214l-.8.519-.008.006a.3.3,0,0,1-.329-.509h0l.823-.528a.3.3,0,0,1,.326.509Z" transform="translate(-596.309 -765.054)" fill="#fff"/>
          <path id="Path_4966" data-name="Path 4966" d="M595.123,847.333l-.745.6-.008.006a.307.307,0,1,1-.386-.477h0l.762-.613a.306.306,0,1,1,.384.475Z" transform="translate(-581.848 -775.341)" fill="#fff"/>
          <path id="Path_4967" data-name="Path 4967" d="M579.472,861.255l-.68.677-.006.006a.309.309,0,1,1-.436-.439h0l.7-.688a.309.309,0,1,1,.434.439Z" transform="translate(-568.607 -787.164)" fill="#fff"/>
          <path id="Path_4968" data-name="Path 4968" d="M565.311,876.711l-.61.741-.006.008a.313.313,0,0,1-.483-.4h0l.624-.753a.312.312,0,1,1,.48.4Z" transform="translate(-556.632 -800.288)" fill="#fff"/>
          <path id="Path_4969" data-name="Path 4969" d="M552.743,893.488l-.538.8,0,.008a.317.317,0,1,1-.525-.355h0l.548-.809a.316.316,0,1,1,.522.355Z" transform="translate(-546.014 -814.531)" fill="#fff"/>
          <path id="Path_4970" data-name="Path 4970" d="M541.857,911.437l-.46.843,0,.008a.32.32,0,0,1-.562-.307h0l.471-.856a.319.319,0,1,1,.559.307Z" transform="translate(-536.828 -829.773)" fill="#fff"/>
          <path id="Path_4971" data-name="Path 4971" d="M532.726,930.365l-.38.882,0,.008a.323.323,0,1,1-.594-.255h0l.389-.9a.323.323,0,1,1,.592.257Z" transform="translate(-529.137 -845.845)" fill="#fff"/>
          <path id="Path_4972" data-name="Path 4972" d="M525.413,950.1l-.295.913,0,.009a.327.327,0,0,1-.622-.2h0l.3-.929a.326.326,0,0,1,.621.2Z" transform="translate(-522.992 -862.604)" fill="#fff"/>
          <path id="Path_4973" data-name="Path 4973" d="M520.011,970.458l-.207.937v.009a.331.331,0,0,1-.647-.143h0l.213-.955a.33.33,0,1,1,.644.143Z" transform="translate(-518.472 -879.89)" fill="#fff"/>
          <path id="Path_4974" data-name="Path 4974" d="M516.635,991.307l-.114.952,0,.011a.334.334,0,0,1-.664-.081h0l.118-.972a.333.333,0,0,1,.66.08Z" transform="translate(-515.676 -897.596)" fill="#fff"/>
          <path id="Path_4975" data-name="Path 4975" d="M515.382,1012.434l-.017.958v.011a.338.338,0,1,1-.676-.011h0l.018-.979a.336.336,0,1,1,.673.012Z" transform="translate(-514.69 -915.54)" fill="#fff"/>
          <path id="Path_4976" data-name="Path 4976" d="M515.862,1033.634l.08.955,0,.011a.341.341,0,0,1-.68.058v0l-.081-.975a.341.341,0,0,1,.679-.056Z" transform="translate(-515.108 -933.549)" fill="#fff"/>
          <path id="Path_4977" data-name="Path 4977" d="M518.318,1054.678l.172.943,0,.009a.345.345,0,0,1-.679.123v0l-.173-.963a.344.344,0,0,1,.677-.121Z" transform="translate(-517.187 -951.422)" fill="#fff"/>
          <path id="Path_4978" data-name="Path 4978" d="M522.769,1075.427l.258.923,0,.009a.349.349,0,0,1-.671.188h0l-.261-.943a.347.347,0,1,1,.668-.185Z" transform="translate(-520.962 -969.047)" fill="#fff"/>
          <path id="Path_4979" data-name="Path 4979" d="M529.084,1095.665l.34.9,0,.009a.352.352,0,0,1-.659.249h0l-.345-.916a.35.35,0,1,1,.656-.246Z" transform="translate(-526.319 -986.236)" fill="#fff"/>
          <path id="Path_4980" data-name="Path 4980" d="M537.186,1115.268l.416.865,0,.008a.355.355,0,1,1-.639.308h0l-.422-.882a.354.354,0,1,1,.639-.305Z" transform="translate(-533.197 -1002.885)" fill="#fff"/>
          <path id="Path_4981" data-name="Path 4981" d="M546.9,1134.1l.486.828,0,.008a.358.358,0,0,1-.618.363h0l-.493-.844a.357.357,0,1,1,.616-.361Z" transform="translate(-541.437 -1018.881)" fill="#fff"/>
          <path id="Path_4982" data-name="Path 4982" d="M558.142,1152.091l.553.785,0,.007a.362.362,0,1,1-.592.416h0l-.56-.8a.361.361,0,1,1,.591-.415Z" transform="translate(-550.984 -1034.158)" fill="#fff"/>
          <path id="Path_4983" data-name="Path 4983" d="M570.8,1169.091l.613.738.006.006a.366.366,0,1,1-.563.466h0l-.623-.753a.365.365,0,1,1,.562-.464Z" transform="translate(-561.731 -1048.594)" fill="#fff"/>
          <path id="Path_4984" data-name="Path 4984" d="M584.764,1185.044l.67.688.006.006a.369.369,0,1,1-.53.515h0l-.68-.7a.368.368,0,0,1,.528-.513Z" transform="translate(-573.583 -1062.142)" fill="#fff"/>
          <path id="Path_4985" data-name="Path 4985" d="M599.955,1199.858l.721.633.006.006a.372.372,0,0,1-.49.56h0l-.733-.645a.371.371,0,0,1,.49-.557Z" transform="translate(-586.481 -1074.726)" fill="#fff"/>
          <path id="Path_4986" data-name="Path 4986" d="M616.254,1213.4l.77.574.008.006a.377.377,0,1,1-.449.6h0l-.783-.586a.375.375,0,0,1,.449-.6Z" transform="translate(-600.319 -1086.224)" fill="#fff"/>
          <path id="Path_4987" data-name="Path 4987" d="M633.6,1225.573l.814.509.008,0a.38.38,0,1,1-.4.644h0l-.828-.521a.379.379,0,0,1,.4-.642Z" transform="translate(-615.047 -1096.564)" fill="#fff"/>
          <path id="Path_4988" data-name="Path 4988" d="M651.894,1236.314l.852.439.009,0a.383.383,0,1,1-.351.682h0l-.868-.449a.382.382,0,1,1,.351-.679Z" transform="translate(-630.582 -1105.689)" fill="#fff"/>
          <path id="Path_4989" data-name="Path 4989" d="M670.988,1245.488l.885.37.008,0a.387.387,0,0,1-.3.714h0l-.9-.38a.386.386,0,0,1,.3-.712Z" transform="translate(-646.795 -1113.48)" fill="#fff"/>
          <path id="Path_4990" data-name="Path 4990" d="M690.768,1253.149l.911.3.009,0a.39.39,0,0,1-.246.741h0l-.928-.308a.389.389,0,0,1,.246-.738Z" transform="translate(-663.591 -1119.989)" fill="#fff"/>
          <path id="Path_4991" data-name="Path 4991" d="M711.08,1259.268l.931.233h.009a.393.393,0,0,1-.19.764h0l-.947-.238a.393.393,0,0,1,.191-.762Z" transform="translate(-680.841 -1125.185)" fill="#fff"/>
          <path id="Path_4992" data-name="Path 4992" d="M731.755,1263.888l.946.164.008,0a.4.4,0,1,1-.137.783h0l-.963-.17a.4.4,0,0,1,.137-.78Z" transform="translate(-698.394 -1129.109)" fill="#fff"/>
          <path id="Path_4993" data-name="Path 4993" d="M752.746,1267.026l.955.1.008,0a.4.4,0,1,1-.082.8h0l-.972-.1a.4.4,0,0,1,.083-.794Z" transform="translate(-716.219 -1131.777)" fill="#fff"/>
          <path id="Path_4994" data-name="Path 4994" d="M773.885,1268.68l.96.033h.008a.4.4,0,0,1-.027.808h0l-.976-.036a.4.4,0,0,1,.029-.806Z" transform="translate(-734.169 -1133.178)" fill="#fff"/>
          <path id="Path_4995" data-name="Path 4995" d="M795.1,1268.749l.96-.03h.008a.408.408,0,0,1,.026.815h0l-.976.029a.407.407,0,0,1-.024-.814Z" transform="translate(-752.184 -1133.213)" fill="#fff"/>
          <path id="Path_4996" data-name="Path 4996" d="M816.3,1267.244l.957-.093.008,0a.41.41,0,0,1,.077.815h0l-.972.093a.409.409,0,1,1-.077-.815Z" transform="translate(-770.181 -1131.88)" fill="#fff"/>
          <path id="Path_4997" data-name="Path 4997" d="M837.378,1264.395l.949-.154h.008a.411.411,0,1,1,.131.811h0l-.964.155a.411.411,0,1,1-.131-.811Z" transform="translate(-788.083 -1129.409)" fill="#fff"/>
          <path id="Path_4998" data-name="Path 4998" d="M858.26,1260.207l.937-.213.008,0a.411.411,0,0,1,.182.8h0l-.952.216a.411.411,0,0,1-.182-.8Z" transform="translate(-805.817 -1125.803)" fill="#fff"/>
          <path id="Path_4999" data-name="Path 4999" d="M878.852,1254.71l.922-.272.008,0a.412.412,0,0,1,.234.79h0l-.937.276a.412.412,0,0,1-.234-.79Z" transform="translate(-823.304 -1121.085)" fill="#fff"/>
          <path id="Path_5000" data-name="Path 5000" d="M899.071,1247.9l.9-.331.008,0a.413.413,0,0,1,.284.776h0l-.917.336a.413.413,0,0,1-.284-.776Z" transform="translate(-840.473 -1115.252)" fill="#fff"/>
          <path id="Path_5001" data-name="Path 5001" d="M918.841,1239.843l.879-.387.006,0a.414.414,0,0,1,.334.758h0l-.893.393a.414.414,0,1,1-.332-.757Z" transform="translate(-857.262 -1108.36)" fill="#fff"/>
          <path id="Path_5002" data-name="Path 5002" d="M938.106,1230.605l.856-.437.006,0a.414.414,0,1,1,.377.738h0l-.869.443a.414.414,0,0,1-.376-.738Z" transform="translate(-873.62 -1100.474)" fill="#fff"/>
          <path id="Path_5003" data-name="Path 5003" d="M956.821,1220.32l.831-.483.006,0a.415.415,0,0,1,.418.718h0l-.843.489a.415.415,0,0,1-.417-.718Z" transform="translate(-889.51 -1091.703)" fill="#fff"/>
          <path id="Path_5004" data-name="Path 5004" d="M974.979,1209.07l.806-.525,0,0a.416.416,0,0,1,.454.7h0l-.817.531a.416.416,0,1,1-.454-.7Z" transform="translate(-904.926 -1082.115)" fill="#fff"/>
          <path id="Path_5005" data-name="Path 5005" d="M992.569,1196.965l.78-.563,0,0a.417.417,0,0,1,.487.676h0l-.791.569a.417.417,0,1,1-.487-.676Z" transform="translate(-919.859 -1071.806)" fill="#fff"/>
          <path id="Path_5006" data-name="Path 5006" d="M1009.615,1184.088l.756-.6,0,0a.417.417,0,1,1,.516.656h0l-.765.6a.417.417,0,1,1-.516-.656Z" transform="translate(-934.33 -1060.847)" fill="#fff"/>
          <path id="Path_5007" data-name="Path 5007" d="M1026.122,1170.549l.733-.626,0,0a.418.418,0,0,1,.542.638h0l-.741.63a.418.418,0,1,1-.542-.636Z" transform="translate(-948.34 -1049.33)" fill="#fff"/>
          <path id="Path_5008" data-name="Path 5008" d="M1042.14,1156.443l.714-.65,0,0a.419.419,0,1,1,.565.619h0l-.72.654a.419.419,0,0,1-.565-.62Z" transform="translate(-961.937 -1037.338)" fill="#fff"/>
          <path id="Path_5009" data-name="Path 5009" d="M1057.7,1141.873l.694-.67h0a.42.42,0,0,1,.583.6h0l-.7.674a.42.42,0,0,1-.583-.6Z" transform="translate(-975.138 -1024.958)" fill="#fff"/>
          <path id="Path_5010" data-name="Path 5010" d="M1072.86,1126.88l.679-.688h0a.421.421,0,1,1,.6.591h0l-.683.691a.421.421,0,0,1-.6-.592Z" transform="translate(-988.006 -1012.219)" fill="#fff"/>
          <path id="Path_5011" data-name="Path 5011" d="M1087.691,1111.57l.665-.7v0a.422.422,0,0,1,.612.58h0l-.668.7a.421.421,0,0,1-.61-.58Z" transform="translate(-1000.592 -999.216)" fill="#fff"/>
          <path id="Path_5012" data-name="Path 5012" d="M1102.223,1096l.654-.712h0a.422.422,0,1,1,.623.571h0l-.657.714a.422.422,0,1,1-.621-.571Z" transform="translate(-1012.92 -985.996)" fill="#fff"/>
          <path id="Path_5013" data-name="Path 5013" d="M1116.542,1080.249l.647-.72a.423.423,0,0,1,.63.563h0l-.648.721a.422.422,0,1,1-.627-.566Z" transform="translate(-1025.068 -972.629)" fill="#fff"/>
          <path id="Path_5014" data-name="Path 5014" d="M1130.694,1064.352l.641-.726a.424.424,0,1,1,.636.56v0l-.642.726a.424.424,0,1,1-.635-.562Z" transform="translate(-1037.073 -959.138)" fill="#fff"/>
          <path id="Path_5015" data-name="Path 5015" d="M1144.741,1048.388l.638-.727a.425.425,0,1,1,.639.56h0l-.639.729a.425.425,0,1,1-.638-.562Z" transform="translate(-1048.988 -945.596)" fill="#fff"/>
          <path id="Path_5016" data-name="Path 5016" d="M1158.752,1032.39l.639-.729a.425.425,0,1,1,.639.56h0l-.639.727a.424.424,0,1,1-.639-.559Z" transform="translate(-1060.872 -932.026)" fill="#fff"/>
          <path id="Path_5017" data-name="Path 5017" d="M1172.789,1016.422l.642-.726a.426.426,0,1,1,.639.563v0l-.641.726a.427.427,0,0,1-.641-.565Z" transform="translate(-1072.777 -918.485)" fill="#fff"/>
          <path id="Path_5018" data-name="Path 5018" d="M1186.9,1000.529l.647-.723a.427.427,0,0,1,.636.569l0,0-.647.72a.426.426,0,1,1-.635-.568Z" transform="translate(-1084.742 -905.01)" fill="#fff"/>
          <path id="Path_5019" data-name="Path 5019" d="M1201.152,984.791l.656-.715a.428.428,0,0,1,.63.578h0l0,0-.654.712v0a.427.427,0,1,1-.629-.578Z" transform="translate(-1096.829 -891.671)" fill="#fff"/>
          <path id="Path_5020" data-name="Path 5020" d="M1215.605,969.239l.666-.706a.429.429,0,0,1,.623.589h0l-.665.7,0,0a.427.427,0,1,1-.621-.588Z" transform="translate(-1109.083 -878.492)" fill="#fff"/>
          <path id="Path_5021" data-name="Path 5021" d="M1230.317,953.952l.68-.692a.429.429,0,1,1,.613.6h0v0l-.677.689h0a.429.429,0,0,1-.613-.6Z" transform="translate(-1121.557 -865.542)" fill="#fff"/>
          <path id="Path_5022" data-name="Path 5022" d="M1245.341,938.979l.7-.677a.431.431,0,0,1,.6.618h0l0,0-.692.673,0,0a.429.429,0,1,1-.6-.616Z" transform="translate(-1134.293 -852.862)" fill="#fff"/>
          <path id="Path_5023" data-name="Path 5023" d="M1260.732,924.4l.715-.657a.431.431,0,0,1,.583.635h0l0,0-.71.653,0,0a.431.431,0,1,1-.581-.636Z" transform="translate(-1147.339 -840.52)" fill="#fff"/>
          <path id="Path_5024" data-name="Path 5024" d="M1276.546,910.29l.736-.636a.431.431,0,1,1,.563.653h0l0,0-.73.63,0,0a.431.431,0,1,1-.563-.653Z" transform="translate(-1160.744 -828.577)" fill="#fff"/>
          <path id="Path_5025" data-name="Path 5025" d="M1292.823,896.735l.759-.609a.433.433,0,1,1,.542.674h0l0,0-.751.6,0,0a.432.432,0,0,1-.541-.674Z" transform="translate(-1174.538 -817.111)" fill="#fff"/>
          <path id="Path_5026" data-name="Path 5026" d="M1309.6,883.823l.784-.578a.433.433,0,1,1,.515.7h0l0,0-.774.572,0,0a.433.433,0,0,1-.515-.7Z" transform="translate(-1188.756 -806.194)" fill="#fff"/>
          <path id="Path_5027" data-name="Path 5027" d="M1326.909,871.65l.809-.542a.434.434,0,1,1,.484.721h0l0,0-.8.536,0,0a.434.434,0,0,1-.484-.721Z" transform="translate(-1203.424 -795.911)" fill="#fff"/>
          <path id="Path_5028" data-name="Path 5028" d="M1344.783,860.3l.835-.5a.435.435,0,0,1,.449.744h0l0,0-.824.5,0,0a.434.434,0,0,1-.451-.743Z" transform="translate(-1218.57 -786.328)" fill="#fff"/>
          <path id="Path_5029" data-name="Path 5029" d="M1363.177,849.832l.858-.465a.436.436,0,1,1,.414.767h0l-.006,0-.847.457-.006,0a.435.435,0,1,1-.413-.765Z" transform="translate(-1234.153 -777.488)" fill="#fff"/>
          <path id="Path_5030" data-name="Path 5030" d="M1382.051,840.241l.878-.424a.437.437,0,1,1,.38.786h0l-.006,0-.867.419-.006,0a.437.437,0,1,1-.378-.788Z" transform="translate(-1250.147 -769.396)" fill="#fff"/>
          <path id="Path_5031" data-name="Path 5031" d="M1401.356,831.5l.9-.384a.437.437,0,0,1,.345.8h0l-.006,0-.885.378-.006,0a.437.437,0,1,1-.343-.8Z" transform="translate(-1266.505 -762.026)" fill="#fff"/>
          <path id="Path_5032" data-name="Path 5032" d="M1421.048,823.656l.912-.343a.438.438,0,0,1,.31.82h0l-.006,0-.9.339h-.006a.437.437,0,0,1-.308-.818Z" transform="translate(-1283.192 -755.41)" fill="#fff"/>
          <path id="Path_5033" data-name="Path 5033" d="M1441.072,816.68l.926-.3a.439.439,0,1,1,.273.835h0l-.006,0-.916.3h-.006a.438.438,0,0,1-.272-.834Z" transform="translate(-1300.159 -749.533)" fill="#fff"/>
          <path id="Path_5034" data-name="Path 5034" d="M1461.389,810.592l.938-.263a.44.44,0,0,1,.237.847h0l-.006,0-.928.26-.006,0a.44.44,0,1,1-.235-.847Z" transform="translate(-1317.375 -744.408)" fill="#fff"/>
          <path id="Path_5035" data-name="Path 5035" d="M1481.976,805.395l.949-.222a.441.441,0,1,1,.2.858h-.006l-.937.219-.006,0a.441.441,0,0,1-.2-.858Z" transform="translate(-1334.822 -740.039)" fill="#fff"/>
          <path id="Path_5036" data-name="Path 5036" d="M1502.757,801.069l.958-.182a.441.441,0,0,1,.165.867h0l-.006,0-.946.179-.006,0a.441.441,0,0,1-.165-.867Z" transform="translate(-1352.431 -736.406)" fill="#fff"/>
          <path id="Path_5037" data-name="Path 5037" d="M1523.711,797.625l.964-.141a.442.442,0,1,1,.128.875h0l-.006,0-.953.14h-.006a.443.443,0,1,1-.126-.876Z" transform="translate(-1370.186 -733.524)" fill="#fff"/>
          <path id="Path_5038" data-name="Path 5038" d="M1544.805,795.058l.969-.1a.443.443,0,0,1,.091.881h-.006l-.958.1h-.006a.442.442,0,1,1-.09-.879Z" transform="translate(-1388.061 -731.381)" fill="#fff"/>
          <path id="Path_5039" data-name="Path 5039" d="M1566,793.386l.972-.061a.444.444,0,1,1,.056.885h-.006l-.961.059h-.006a.443.443,0,1,1-.055-.884Z" transform="translate(-1406.024 -729.999)" fill="#fff"/>
          <path id="Path_5040" data-name="Path 5040" d="M1587.255,792.589l.973-.02a.444.444,0,1,1,.02.888h-.006l-.963.02h-.006a.444.444,0,1,1-.018-.888Z" transform="translate(-1424.034 -729.359)" fill="#fff"/>
          <path id="Path_5041" data-name="Path 5041" d="M1608.525,792.56l.973.02a.445.445,0,1,1-.018.89h-.006l-.963-.02h-.006a.445.445,0,1,1,.02-.89Z" transform="translate(-1442.057 -729.351)" fill="#fff"/>
          <path id="Path_5042" data-name="Path 5042" d="M1629.789,793.305l.972.061a.446.446,0,0,1-.055.89h-.006l-.961-.061h-.006a.446.446,0,1,1,.056-.89Z" transform="translate(-1460.077 -729.982)" fill="#fff"/>
          <path id="Path_5043" data-name="Path 5043" d="M1651.008,794.936l.969.1a.447.447,0,1,1-.093.888h-.006l-.958-.1h-.006a.447.447,0,0,1,.094-.89Z" transform="translate(-1478.057 -731.364)" fill="#fff"/>
          <path id="Path_5044" data-name="Path 5044" d="M1672.14,797.452l.964.141a.448.448,0,0,1-.13.887h0l-.006,0-.952-.141-.006,0a.447.447,0,0,1,.131-.884Z" transform="translate(-1495.965 -733.496)" fill="#fff"/>
          <path id="Path_5045" data-name="Path 5045" d="M1693.148,800.854l.957.182a.448.448,0,1,1-.167.881h-.006l-.946-.181-.006,0a.448.448,0,0,1,.169-.879Z" transform="translate(-1513.767 -736.379)" fill="#fff"/>
          <path id="Path_5046" data-name="Path 5046" d="M1713.974,805.154l.949.223a.449.449,0,0,1-.206.875h0l-.006,0-.937-.222h-.006a.449.449,0,1,1,.207-.873Z" transform="translate(-1531.414 -740.023)" fill="#fff"/>
          <path id="Path_5047" data-name="Path 5047" d="M1734.617,810.353l.938.264a.45.45,0,0,1-.245.867h-.006l-.926-.261-.006,0a.45.45,0,0,1,.244-.867Z" transform="translate(-1548.906 -744.428)" fill="#fff"/>
          <path id="Path_5048" data-name="Path 5048" d="M1755,816.444l.925.305a.451.451,0,1,1-.282.856h-.006l-.914-.3-.006,0a.451.451,0,0,1,.284-.856Z" transform="translate(-1566.175 -749.589)" fill="#fff"/>
          <path id="Path_5049" data-name="Path 5049" d="M1775.1,823.436l.911.348a.452.452,0,1,1-.322.844h0l-.006,0-.9-.343h-.006a.452.452,0,0,1,.322-.846Z" transform="translate(-1583.207 -755.514)" fill="#fff"/>
          <path id="Path_5050" data-name="Path 5050" d="M1794.861,831.328l.894.389a.453.453,0,1,1-.36.831h0l-.006,0-.882-.384-.006,0a.452.452,0,0,1,.36-.829Z" transform="translate(-1599.952 -762.2)" fill="#fff"/>
          <path id="Path_5051" data-name="Path 5051" d="M1814.243,840.114l.876.43a.453.453,0,1,1-.4.814h0l-.006,0-.864-.424-.006,0a.453.453,0,0,1,.4-.814Z" transform="translate(-1616.374 -769.646)" fill="#fff"/>
          <path id="Path_5052" data-name="Path 5052" d="M1833.184,849.794l.855.471a.454.454,0,1,1-.437.8h0l-.006,0-.843-.465-.006,0a.454.454,0,0,1,.437-.8Z" transform="translate(-1632.422 -777.847)" fill="#fff"/>
          <path id="Path_5053" data-name="Path 5053" d="M1851.647,860.357l.831.51a.455.455,0,1,1-.475.776h0l-.006,0-.82-.5-.006,0a.455.455,0,0,1,.477-.776Z" transform="translate(-1648.063 -786.798)" fill="#fff"/>
          <path id="Path_5054" data-name="Path 5054" d="M1869.631,871.761l.809.541a.455.455,0,0,1-.506.758h0l0,0-.8-.536,0,0a.455.455,0,0,1,.5-.758Z" transform="translate(-1663.306 -796.462)" fill="#fff"/>
          <path id="Path_5055" data-name="Path 5055" d="M1887.2,883.747l.794.559a.457.457,0,0,1-.525.747h0v0l-.79-.556h0a.456.456,0,0,1,.524-.747Z" transform="translate(-1678.2 -806.623)" fill="#fff"/>
          <path id="Path_5056" data-name="Path 5056" d="M1904.528,896.074l.786.566a.457.457,0,1,1-.534.741h0l-.785-.566a.456.456,0,1,1,.533-.741Z" transform="translate(-1692.89 -817.076)" fill="#fff"/>
          <path id="Path_5057" data-name="Path 5057" d="M1921.763,908.518l.785.565a.458.458,0,0,1-.533.745h0l-.786-.566a.458.458,0,0,1,.536-.742Z" transform="translate(-1707.506 -827.629)" fill="#fff"/>
          <path id="Path_5058" data-name="Path 5058" d="M1939.046,920.866l.791.554,0,0a.459.459,0,0,1-.527.752h0l-.8-.557a.459.459,0,1,1,.527-.752Z" transform="translate(-1722.165 -838.103)" fill="#fff"/>
          <path id="Path_5059" data-name="Path 5059" d="M1956.547,932.927l.8.533,0,0a.459.459,0,1,1-.507.765h0l-.811-.539a.459.459,0,0,1,.509-.765Z" transform="translate(-1737.017 -848.339)" fill="#fff"/>
          <path id="Path_5060" data-name="Path 5060" d="M1974.382,944.466l.821.5.006,0a.461.461,0,1,1-.48.786h0l-.832-.507a.46.46,0,1,1,.478-.785Z" transform="translate(-1752.153 -858.134)" fill="#fff"/>
          <path id="Path_5061" data-name="Path 5061" d="M1992.7,955.185l.845.455.008,0a.461.461,0,0,1-.437.811h0l-.859-.465a.461.461,0,1,1,.437-.811Z" transform="translate(-1767.707 -867.233)" fill="#fff"/>
          <path id="Path_5062" data-name="Path 5062" d="M2011.587,964.839l.873.4.009,0a.462.462,0,0,1-.383.841h0l-.891-.405a.461.461,0,1,1,.381-.84Z" transform="translate(-1783.745 -875.434)" fill="#fff"/>
          <path id="Path_5063" data-name="Path 5063" d="M2031.145,973.045l.9.319.012,0a.463.463,0,1,1-.31.872h0l-.925-.328a.463.463,0,0,1,.31-.872Z" transform="translate(-1800.362 -882.406)" fill="#fff"/>
          <path id="Path_5064" data-name="Path 5064" d="M2051.365,979.455l.926.228.015,0a.463.463,0,0,1-.22.9h0l-.955-.235a.463.463,0,1,1,.222-.9Z" transform="translate(-1817.548 -887.855)" fill="#fff"/>
          <path id="Path_5065" data-name="Path 5065" d="M2072.124,983.713l.945.121h.017a.464.464,0,1,1-.118.92h0l-.976-.126a.464.464,0,1,1,.118-.92Z" transform="translate(-1835.196 -891.474)" fill="#fff"/>
          <path id="Path_5066" data-name="Path 5066" d="M2093.224,985.542l.951,0h.018a.465.465,0,0,1,0,.929h0l-.987,0a.465.465,0,1,1,0-.929h.018Z" transform="translate(-1853.139 -893.03)" fill="#fff"/>
          <path id="Path_5067" data-name="Path 5067" d="M2114.391,983.971l.943-.12h.018a.466.466,0,1,1,.117.925h0l-.978.123a.466.466,0,0,1-.117-.925Z" transform="translate(-1871.142 -891.593)" fill="#fff"/>
          <path id="Path_5068" data-name="Path 5068" d="M2135.281,979.718l.922-.235.017,0a.467.467,0,1,1,.231.9h0l-.955.243a.466.466,0,1,1-.229-.9Z" transform="translate(-1888.909 -887.876)" fill="#fff"/>
          <path id="Path_5069" data-name="Path 5069" d="M2155.578,973.013l.888-.342.015-.006a.468.468,0,0,1,.336.873h0l-.919.354a.467.467,0,1,1-.334-.872Z" transform="translate(-1906.17 -882.084)" fill="#fff"/>
          <path id="Path_5070" data-name="Path 5070" d="M2175.061,964.074l.846-.439.014-.008a.468.468,0,1,1,.431.832h0l-.873.453a.468.468,0,0,1-.43-.831Z" transform="translate(-1922.736 -874.401)" fill="#fff"/>
          <path id="Path_5071" data-name="Path 5071" d="M2193.5,953.139l.8-.525.012-.008a.469.469,0,0,1,.516.783h0l-.822.541a.468.468,0,1,1-.516-.782Z" transform="translate(-1938.414 -865.031)" fill="#fff"/>
          <path id="Path_5072" data-name="Path 5072" d="M2210.79,940.4l.741-.6.011-.009a.47.47,0,1,1,.592.729h0l-.762.619a.47.47,0,0,1-.592-.729Z" transform="translate(-1953.108 -854.137)" fill="#fff"/>
          <path id="Path_5073" data-name="Path 5073" d="M2226.776,926.074l.679-.673.009-.009a.47.47,0,0,1,.662.668h0l-.7.691a.47.47,0,0,1-.662-.668Z" transform="translate(-1966.696 -841.899)" fill="#fff"/>
          <path id="Path_5074" data-name="Path 5074" d="M2241.35,910.294l.612-.733.009-.011a.471.471,0,0,1,.724.6h0l-.629.755a.471.471,0,0,1-.724-.6Z" transform="translate(-1979.086 -828.433)" fill="#fff"/>
          <path id="Path_5075" data-name="Path 5075" d="M2254.366,893.248l.537-.788.008-.011a.472.472,0,0,1,.781.531h0l-.554.811a.472.472,0,0,1-.779-.533Z" transform="translate(-1990.148 -813.899)" fill="#fff"/>
          <path id="Path_5076" data-name="Path 5076" d="M2265.72,875.047l.458-.837.006-.012a.473.473,0,0,1,.829.455h0l-.472.861a.473.473,0,0,1-.829-.456Z" transform="translate(-1999.798 -798.386)" fill="#fff"/>
          <path id="Path_5077" data-name="Path 5077" d="M2275.26,855.846l.372-.879.006-.014a.474.474,0,1,1,.873.369h0l-.384.9a.473.473,0,1,1-.871-.37Z" transform="translate(-2007.91 -782.025)" fill="#fff"/>
          <path id="Path_5078" data-name="Path 5078" d="M2282.805,835.873c.094-.3.19-.606.278-.912a.474.474,0,1,1,.911.261h0v0c-.089.314-.189.627-.287.94a.475.475,0,1,1-.906-.281Z" transform="translate(-2014.324 -765.022)" fill="#fff"/>
          <path id="Path_5079" data-name="Path 5079" d="M2288.343,815.227l.193-.937,0-.012a.476.476,0,0,1,.932.191h0l-.2.961a.474.474,0,1,1-.929-.193Z" transform="translate(-2019.035 -747.449)" fill="#fff"/>
          <path id="Path_5080" data-name="Path 5080" d="M2291.937,794.245l.108-.951,0-.012a.476.476,0,1,1,.946.108h0l-.112.975a.476.476,0,0,1-.946-.108Z" transform="translate(-2022.085 -729.606)" fill="#fff"/>
          <path id="Path_5081" data-name="Path 5081" d="M2293.711,773.071l.027-.956V772.1a.477.477,0,0,1,.954.027h0l-.029.979a.477.477,0,1,1-.953-.027Z" transform="translate(-2023.594 -711.606)" fill="#fff"/>
          <path id="Path_5082" data-name="Path 5082" d="M2293.427,751.855l-.05-.957v-.011a.477.477,0,0,1,.953-.052h0l.052.978a.477.477,0,1,1-.952.05Z" transform="translate(-2023.311 -693.58)" fill="#fff"/>
          <path id="Path_5083" data-name="Path 5083" d="M2291.293,730.752l-.125-.949,0-.01a.478.478,0,0,1,.948-.125h0l.127.972a.478.478,0,0,1-.948.125Z" transform="translate(-2021.433 -675.655)" fill="#fff"/>
          <path id="Path_5084" data-name="Path 5084" d="M2287.6,709.84l-.194-.938,0-.011a.479.479,0,1,1,.938-.194h0l.2.958a.479.479,0,0,1-.938.194Z" transform="translate(-2018.238 -657.897)" fill="#fff"/>
          <path id="Path_5085" data-name="Path 5085" d="M2282.4,689.254l-.26-.923,0-.009a.48.48,0,0,1,.925-.26h0l.264.941a.48.48,0,0,1-.925.26Z" transform="translate(-2013.766 -640.422)" fill="#fff"/>
          <path id="Path_5086" data-name="Path 5086" d="M2275.817,669.07l-.322-.9,0-.009a.481.481,0,1,1,.906-.323h0l.328.922a.48.48,0,1,1-.905.322Z" transform="translate(-2008.119 -623.291)" fill="#fff"/>
          <path id="Path_5087" data-name="Path 5087" d="M2267.891,649.369l-.381-.881,0-.009a.482.482,0,1,1,.884-.383h0l.387.9a.482.482,0,0,1-.884.383Z" transform="translate(-2001.336 -606.576)" fill="#fff"/>
          <path id="Path_5088" data-name="Path 5088" d="M2258.714,630.224l-.436-.855,0-.008a.482.482,0,1,1,.858-.439h0l.445.872a.482.482,0,0,1-.859.437Z" transform="translate(-1993.493 -590.337)" fill="#fff"/>
          <path id="Path_5089" data-name="Path 5089" d="M2248.344,611.694l-.489-.824,0-.008a.483.483,0,0,1,.831-.493h0l.5.841a.483.483,0,1,1-.83.494Z" transform="translate(-1984.64 -574.622)" fill="#fff"/>
          <path id="Path_5090" data-name="Path 5090" d="M2236.825,593.863l-.541-.793,0-.008a.484.484,0,1,1,.8-.545h0l.551.808a.484.484,0,1,1-.8.545Z" transform="translate(-1974.813 -559.502)" fill="#fff"/>
          <path id="Path_5091" data-name="Path 5091" d="M2224.155,576.855l-.594-.75-.008-.009a.481.481,0,0,1,.753-.6l.61.767a.483.483,0,0,1-.757.6v0Z" transform="translate(-1964.002 -545.092)" fill="#fff"/>
          <path id="Path_5092" data-name="Path 5092" d="M2210.333,560.828l-.644-.712,0-.006a.474.474,0,0,1,.7-.638l.657.721a.476.476,0,1,1-.7.641v0Z" transform="translate(-1952.223 -531.522)" fill="#fff"/>
          <path id="Path_5093" data-name="Path 5093" d="M2195.645,545.557l-.679-.683,0,0a.468.468,0,0,1,.664-.66l.689.688a.47.47,0,0,1-.665.665l0,0Z" transform="translate(-1939.725 -518.591)" fill="#fff"/>
          <path id="Path_5094" data-name="Path 5094" d="M2180.362,530.889l-.7-.659,0,0a.462.462,0,0,1,.63-.676l.712.662a.463.463,0,1,1-.63.679h0Z" transform="translate(-1926.734 -506.171)" fill="#fff"/>
          <path id="Path_5095" data-name="Path 5095" d="M2164.606,516.7l-.723-.639,0,0a.455.455,0,0,1,.6-.683l.732.641a.457.457,0,0,1-.6.688l0,0Z" transform="translate(-1913.347 -494.155)" fill="#fff"/>
          <path id="Path_5096" data-name="Path 5096" d="M2148.479,502.956l-.74-.621,0,0a.448.448,0,0,1,.575-.688l.747.622a.451.451,0,0,1-.577.692v0Z" transform="translate(-1899.649 -482.518)" fill="#fff"/>
          <path id="Path_5097" data-name="Path 5097" d="M2132.043,489.582l-.753-.6v0a.441.441,0,1,1,.551-.689l.759.6a.444.444,0,1,1-.553.7v0Z" transform="translate(-1885.695 -471.194)" fill="#fff"/>
          <path id="Path_5098" data-name="Path 5098" d="M2115.345,476.567l-.764-.592v0a.43.43,0,0,1,.523-.683l.774.586a.436.436,0,1,1-.527.694v0Z" transform="translate(-1871.521 -460.179)" fill="#fff"/>
          <path id="Path_5099" data-name="Path 5099" d="M2098.451,463.923l-.774-.579v0a.411.411,0,0,1,.489-.662l.785.571a.417.417,0,0,1-.492.674v0Z" transform="translate(-1857.184 -449.492)" fill="#fff"/>
          <path id="Path_5100" data-name="Path 5100" d="M2081.321,451.59l-.785-.563,0,0a.393.393,0,0,1,.456-.641l.8.557a.4.4,0,1,1-.459.653v0Z" transform="translate(-1842.648 -439.069)" fill="#fff"/>
          <path id="Path_5101" data-name="Path 5101" d="M2063.955,439.569l-.8-.55h0a.374.374,0,0,1,.422-.618l.8.542a.381.381,0,0,1-.425.632l0,0Z" transform="translate(-1827.911 -428.91)" fill="#fff"/>
          <path id="Path_5102" data-name="Path 5102" d="M2046.365,427.889l-.806-.533h0a.356.356,0,0,1,.39-.6l.815.527a.361.361,0,1,1-.392.607l0,0Z" transform="translate(-1812.984 -419.043)" fill="#fff"/>
          <path id="Path_5103" data-name="Path 5103" d="M2028.577,416.58l-.815-.519v0a.334.334,0,0,1,.354-.566l.828.507a.343.343,0,0,1-.358.586l0,0Z" transform="translate(-1797.895 -409.494)" fill="#fff"/>
          <path id="Path_5104" data-name="Path 5104" d="M2010.589,405.694l-.826-.5v0a.3.3,0,0,1,.311-.522l.84.487a.313.313,0,1,1-.314.542l0,0Z" transform="translate(-1782.635 -400.32)" fill="#fff"/>
          <path id="Path_5105" data-name="Path 5105" d="M1992.318,395.27l-.84-.478v0a.274.274,0,0,1,.267-.478l.852.466a.283.283,0,0,1-.272.5l0,0Z" transform="translate(-1767.133 -391.542)" fill="#fff"/>
          <path id="Path_5106" data-name="Path 5106" d="M1973.753,385.429l-.854-.451h0a.242.242,0,0,1,.222-.431l.868.436a.253.253,0,1,1-.228.452h0Z" transform="translate(-1751.381 -383.265)" fill="#fff"/>
          <path id="Path_5107" data-name="Path 5107" d="M1956.061,376.958l-.653-.31,0,0a.206.206,0,0,1,.172-.373l.665.3a.214.214,0,0,1-.173.392l0,0Z" transform="translate(-1736.556 -376.256)" fill="#fff"/>
        </g>
        <g id="Group_33" data-name="Group 33" transform="translate(198.184 0)">
          <path id="Path_5108" data-name="Path 5108" d="M1931.726,342.95l-1.083,4.619-2.663-2.719Z" transform="translate(-1911.579 -335.43)" fill="#7d97f4"/>
          <path id="Path_5109" data-name="Path 5109" d="M1819.96,293.42l9.907,13.865a1.2,1.2,0,0,0,1.711.252l13.547-10.472a.481.481,0,0,0-.241-.858Z" transform="translate(-1819.96 -293.42)" fill="#91b3fa"/>
          <path id="Path_5110" data-name="Path 5110" d="M1840.105,300.94l-20.145-7.52,17.964,9.218-.246,1.292Z" transform="translate(-1819.96 -293.42)" fill="#7d97f4"/>
          <path id="Path_5111" data-name="Path 5111" d="M1929.71,355.126l2.4,1.925-1.1-2.921Z" transform="translate(-1913.047 -344.912)" fill="#7d97f4"/>
        </g>
      </g>
      <g id="Group_39" data-name="Group 39" transform="translate(177.412 86.731)">
        <path id="Path_5112" data-name="Path 5112" d="M1370.05,816.523l2.1-10.683,26.737,23.328-.522.891Z" transform="translate(-1353.563 -794.357)" fill="#91b3fa"/>
        <g id="Group_37" data-name="Group 37" transform="translate(43.43 18.983)">
          <path id="Path_5113" data-name="Path 5113" d="M1604.045,991.67a9.223,9.223,0,0,1-4.368,6.795c-4.046,2.363-9.005-2.933-9.9-6.085l-2.537,1.335s5.365,20.145,20.7,6.729Z" transform="translate(-1581.206 -970.954)" fill="url(#linear-gradient-54)"/>
          <path id="Path_5114" data-name="Path 5114" d="M1736.766,1443.486c-2.526.117-4.972.043-6.606-.041a33.118,33.118,0,0,1,7.778-4.277l1.968-.118a8.024,8.024,0,0,1,.9,3.334C1740.485,1442.793,1739.531,1443.359,1736.766,1443.486Z" transform="translate(-1702.426 -1350.407)" fill="url(#linear-gradient-55)"/>
          <path id="Path_5115" data-name="Path 5115" d="M1729.209,1462.1l.02-.014c1.634.084,4.08.156,6.606.041,2.766-.128,3.72-.7,4.045-1.1.011.106.023.213.032.325a.921.921,0,0,1-.847.994c-2.069.156-7.2.51-9.675.381A.346.346,0,0,1,1729.209,1462.1Z" transform="translate(-1701.496 -1369.05)" fill="url(#linear-gradient-56)"/>
          <path id="Path_5116" data-name="Path 5116" d="M1893.895,1439.305a19.115,19.115,0,0,1,.711-3.34c.36-.688,1.591,0,1.591,0s.235-1.552.633-.879c.254.428,1.584,3.6,2.059,4.429a.556.556,0,0,1,.074.295l-4.93.173A1,1,0,0,1,1893.895,1439.305Z" transform="translate(-1841.29 -1346.901)" fill="url(#linear-gradient-57)"/>
          <path id="Path_5117" data-name="Path 5117" d="M1899.81,1467.14a.559.559,0,0,1-.547.545l-3.512.1a.992.992,0,0,1-.871-.469Z" transform="translate(-1842.136 -1374.232)" fill="url(#linear-gradient-58)"/>
          <path id="Path_5118" data-name="Path 5118" d="M1887.64,1406.514c.064.134,1.174,3.085,1.661,4.382a.776.776,0,0,0,.884.487c.205-.042.442-.1.688-.172a.935.935,0,0,0,.665-1.007c-.14-1.18-.472-3.436-1.042-4.241C1889.711,1404.854,1887.64,1406.514,1887.64,1406.514Z" transform="translate(-1835.995 -1322.02)" fill="url(#linear-gradient-59)"/>
          <path id="Path_5119" data-name="Path 5119" d="M1781.548,1416.2c-.273-.009.109,1.411-.3,2.806a.717.717,0,0,1-.657.566c-.213,0-.465,0-.721-.021a.794.794,0,0,1-.73-.714l-.336-3.618Z" transform="translate(-1743.681 -1330.195)" fill="url(#linear-gradient-60)"/>
          <path id="Path_5120" data-name="Path 5120" d="M1746.56,1158.524c.122.594,4.427,25.7,4.689,38.695a.443.443,0,0,0,.381.431,8.7,8.7,0,0,0,2.643-.017.311.311,0,0,0,.257-.286c.15-2.422,1.361-22.892-.121-32.529,0,0,12.239,25.76,14.094,32.864a.374.374,0,0,0,.383.279,9.217,9.217,0,0,0,2.479-.44.647.647,0,0,0,.409-.761c-1.037-4.251-8.3-33.539-13.234-39.992Z" transform="translate(-1716.336 -1110.987)" fill="url(#linear-gradient-61)"/>
          <path id="Path_5121" data-name="Path 5121" d="M1788.188,1199.66a.161.161,0,0,0,.115-.273l-1.638-1.676a.161.161,0,1,0-.231.225l1.638,1.676A.158.158,0,0,0,1788.188,1199.66Z" transform="translate(-1750.117 -1145.67)" fill="url(#linear-gradient-62)"/>
          <path id="Path_5122" data-name="Path 5122" d="M1693.214,961.362c3.582-.94,10.644-2.493,15.452-1.628l5.991,32.114a.756.756,0,0,1-.741.894l-12.938.047a1.058,1.058,0,0,1-1-.7l-7.5-21.232S1690.545,962.062,1693.214,961.362Z" transform="translate(-1669.893 -943.653)" fill="url(#linear-gradient-63)"/>
          <path id="Path_5123" data-name="Path 5123" d="M1724.618,915.11s.955,5.694,1.083,7.482c0,0-4.608,1.272-5.811.591l.15-6.887Z" transform="translate(-1693.715 -906.019)" fill="url(#linear-gradient-64)"/>
          <g id="Group_35" data-name="Group 35" transform="translate(23.739)">
            <path id="Path_5124" data-name="Path 5124" d="M1707.244,880.55a22.588,22.588,0,0,0-1.635,5.366c-.1,1.846-.5,3.046,1.635,3.418a4.541,4.541,0,0,0,4.909-2.531s1.527-2.835,1.184-4S1707.244,880.55,1707.244,880.55Z" transform="translate(-1705.259 -876.706)" fill="url(#linear-gradient-65)"/>
            <path id="Path_5125" data-name="Path 5125" d="M1710.015,864.006h-.27s1.113-2.282.135-2.683-4.85-1.19-5.685-2.564a2.555,2.555,0,0,1,.987-3.513.143.143,0,0,1,.182.067l.089.169a.145.145,0,0,0,.267-.027h0a.144.144,0,0,1,.26-.04c.255.411.947,1.08,2.8,1.421,2.634.486,4.377,1.553,4.42,3.374a.145.145,0,0,0,.225.118c.195-.118.506-.175.922.176.722.609.427,2.186-1.159,3.485a.144.144,0,0,0,.008.232c.287.187.717.633-.395,1.227a2.97,2.97,0,0,1-2.062.477.144.144,0,0,1-.109-.15l.1-1.614a.144.144,0,0,0-.144-.153Z" transform="translate(-1703.85 -855.234)" fill="url(#linear-gradient-66)"/>
            <path id="Path_5126" data-name="Path 5126" d="M1744.01,905.574s.585-2.247,1.593-1.617-.522,2.519-1.333,2.6Z" transform="translate(-1737.912 -896.465)" fill="url(#linear-gradient-67)"/>
          </g>
          <path id="Path_5127" data-name="Path 5127" d="M1788.892,961.15l-2.5,9.514s4.76,2.587,4.074,5.733c-.2.9-1.238,1.374-2.625,1.6a6.338,6.338,0,0,1,1.611,5.263c3.781-.032,7.007-1.538,7.566-6.075C1798.264,967.04,1788.892,961.15,1788.892,961.15Z" transform="translate(-1750.119 -945.068)" fill="url(#linear-gradient-68)"/>
          <path id="Path_5128" data-name="Path 5128" d="M1786.727,1030.225a.2.2,0,0,1-.032-.4c1.476-.241,2.3-.729,2.461-1.445.647-2.964-3.926-5.487-3.972-5.513a.2.2,0,0,1,.193-.354c.2.109,4.885,2.7,4.174,5.953-.2.894-1.134,1.486-2.789,1.757Z" transform="translate(-1749.006 -997.094)" fill="url(#linear-gradient-69)"/>
          <path id="Path_5129" data-name="Path 5129" d="M1731.427,1069.626c-3.489.572-9.174-.446-9.174-.446l-2.373,1.614a26.2,26.2,0,0,0,13.156,4.095A6.331,6.331,0,0,0,1731.427,1069.626Z" transform="translate(-1693.707 -1036.696)" fill="url(#linear-gradient-70)"/>
          <g id="Group_36" data-name="Group 36" transform="translate(0 14.513)">
            <path id="Path_5130" data-name="Path 5130" d="M1559.924,960.644l-11.554-6.761a1.688,1.688,0,0,1-.665-2.264c.006-.009.011-.018.017-.029a1.687,1.687,0,0,1,2.3-.53l11.555,6.761Z" transform="translate(-1547.5 -950.819)" fill="url(#linear-gradient-71)"/>
            <path id="Path_5131" data-name="Path 5131" d="M1616.279,1005.255l-13.032-7.625a1.8,1.8,0,0,1-.645-2.464l3.491-5.966,14.587,8.536a.525.525,0,0,1,.188.718l-3.87,6.614A.525.525,0,0,1,1616.279,1005.255Z" transform="translate(-1594.026 -983.372)" fill="url(#linear-gradient-72)"/>
          </g>
          <path id="Path_5132" data-name="Path 5132" d="M1700.873,1050.183l-.127-.647s-.814-2.47-2.765-3.222-3.2.023-3.431,1.3,1.11,2.187,2.355,2.22S1698.249,1053.357,1700.873,1050.183Z" transform="translate(-1672.199 -1017.053)" fill="url(#linear-gradient-73)"/>
          <path id="Path_5133" data-name="Path 5133" d="M1578.261,974.712a.924.924,0,0,0-1.271.985,10.221,10.221,0,0,0,.6,2.391c.68,1.685.982,1.82,3.483.5l-1.533-.9S1579.937,975.43,1578.261,974.712Z" transform="translate(-1572.505 -956.507)" fill="url(#linear-gradient-74)"/>
        </g>
        <path id="Path_5134" data-name="Path 5134" d="M1731.16,1134.278h-21.72a8.389,8.389,0,0,1-6.128-14.116l5.982-6.4a12.522,12.522,0,0,0-2.552-19.181l-16.723-10.094a.737.737,0,1,1,.761-1.262l16.732,10.1a13.994,13.994,0,0,1,2.857,21.443l-5.982,6.4a6.914,6.914,0,0,0,5.052,11.635h21.72a.737.737,0,0,1,0,1.474Z" transform="translate(-1624.648 -1029.535)" fill="#bdd0fb"/>
        <g id="Group_38" data-name="Group 38" transform="translate(104.101 78.673)">
          <path id="Path_5135" data-name="Path 5135" d="M2201.525,1275.971h-3.275V1248.36h3.275a.534.534,0,0,1,.535.534v26.542A.535.535,0,0,1,2201.525,1275.971Z" transform="translate(-2160.115 -1248.36)" fill="url(#linear-gradient-75)"/>
          <path id="Path_5136" data-name="Path 5136" d="M1987.447,1250.7v23.329a1.938,1.938,0,0,1-2.024,2.012H1949.3a2.1,2.1,0,0,1-2.212-2.012v-11a14.494,14.494,0,0,1,14.538-14.429h23.8A2.014,2.014,0,0,1,1987.447,1250.7Z" transform="translate(-1947.09 -1248.564)" fill="url(#linear-gradient-76)"/>
          <path id="Path_5137" data-name="Path 5137" d="M1966.139,1248.61v13.876a2.342,2.342,0,0,1-2.253,2.267h-16.8v-1.714a14.494,14.494,0,0,1,14.538-14.429Z" transform="translate(-1947.09 -1248.572)" fill="url(#linear-gradient-77)"/>
          <circle id="Ellipse_6" data-name="Ellipse 6" cx="6.407" cy="6.407" r="6.407" transform="translate(9.509 21.204)" fill="url(#linear-gradient-78)"/>
          <circle id="Ellipse_7" data-name="Ellipse 7" cx="5.247" cy="5.247" r="5.247" transform="translate(10.669 22.364)" fill="url(#linear-gradient-79)"/>
          <path id="Path_5138" data-name="Path 5138" d="M1958.484,1271.851h-.023a.2.2,0,0,1-.177-.222c1.359-12.37,14.086-12.714,14.213-12.718a.209.209,0,0,1,.205.2.2.2,0,0,1-.2.2c-.125,0-12.5.345-13.82,12.358A.2.2,0,0,1,1958.484,1271.851Z" transform="translate(-1956.583 -1257.308)" fill="#7d97f4"/>
          <path id="Path_5139" data-name="Path 5139" d="M2130.091,1289.641a1.077,1.077,0,0,1-1.076,1.076h-.108a1.077,1.077,0,0,1-1.077-1.076v-16.574a1.077,1.077,0,0,1,1.077-1.077h.108a1.077,1.077,0,0,1,1.076,1.077Z" transform="translate(-2100.387 -1268.402)" fill="url(#linear-gradient-80)"/>
          <path id="Path_5140" data-name="Path 5140" d="M2161.991,1289.641a1.077,1.077,0,0,1-1.076,1.076h-.108a1.076,1.076,0,0,1-1.076-1.076v-16.574a1.077,1.077,0,0,1,1.076-1.077h.108a1.077,1.077,0,0,1,1.076,1.077Z" transform="translate(-2127.444 -1268.402)" fill="url(#linear-gradient-81)"/>
        </g>
        <path id="Path_5141" data-name="Path 5141" d="M1271.206,733.431a4.174,4.174,0,0,1,5.188-3.085,4.043,4.043,0,0,1,3.422,3.032,2.873,2.873,0,0,0,1.7,1.937c.815.339,1.723,1.265,2.167,3.583a6.782,6.782,0,0,1-2.362,6.433,2.3,2.3,0,0,0-.72,1.936,2.736,2.736,0,0,1-1.19,2.3,2.183,2.183,0,0,0-.717,2.015c.276,1.72.062,4.727-4.265,6.013-6.24,1.854-14.795-.137-12.62-8.4,1-3.79,2.868-5.325,4.6-5.876a2.817,2.817,0,0,0,1.877-3.424C1267.771,737.983,1268.075,735.575,1271.206,733.431Z" transform="translate(-1261.465 -730.211)" fill="#bdd0fb"/>
        <path id="Path_5142" data-name="Path 5142" d="M1410.193,886.711a.043.043,0,0,1-.023-.006c-7.4-4.077-15.029-7.976-22.667-11.586a.046.046,0,0,1-.021-.062.047.047,0,0,1,.062-.021c7.64,3.612,15.268,7.511,22.672,11.59a.046.046,0,0,1,.018.062A.05.05,0,0,1,1410.193,886.711Z" transform="translate(-1368.344 -853.042)" fill="#fff"/>
        <path id="Path_5143" data-name="Path 5143" d="M1464.236,905.081a.044.044,0,0,1-.023-.006c-10.343-5.946-12.889-7.482-13.2-7.724a.048.048,0,0,1-.009-.065.046.046,0,0,1,.065-.009c.313.24,2.858,1.775,13.2,7.718a.047.047,0,0,1,.017.062A.048.048,0,0,1,1464.236,905.081Z" transform="translate(-1422.214 -871.903)" fill="#fff"/>
      </g>
    </g>
  </g>
</svg>
