<svg id="pickup" xmlns="http://www.w3.org/2000/svg" width="94.305" height="33.891" viewBox="0 0 94.305 33.891">
  <path id="Path_5378" data-name="Path 5378" d="M283.665,14.315H260V4h4.421C276.209,4,283.665,14.315,283.665,14.315Zm0,0" transform="translate(-212.111 -3.263)" fill="#5d9cec"/>
  <path id="Path_5379" data-name="Path 5379" d="M188.209,12.841v1.474H172V4h16.209Zm0,0" transform="translate(-140.32 -3.263)" fill="#5d9cec"/>
  <path id="Path_5380" data-name="Path 5380" d="M287.566,15.666h3.052l2.5-9.342a21.242,21.242,0,0,0-2.871-.668Zm0,0" transform="translate(-234.6 -4.614)" fill="#87bcf4"/>
  <path id="Path_5381" data-name="Path 5381" d="M308.281,19.738h.763l2.368-8.838c-.227-.09-.463-.169-.7-.252Zm0,0" transform="translate(-251.499 -8.687)" fill="#87bcf4"/>
  <path id="Path_5382" data-name="Path 5382" d="M201.059,14.315,203.822,4h-3.05l-2.764,10.315Zm0,0" transform="translate(-161.537 -3.263)" fill="#87bcf4"/>
  <path id="Path_5383" data-name="Path 5383" d="M219.474,14.315,222.237,4h-.763L218.71,14.315Zm0,0" transform="translate(-178.426 -3.263)" fill="#87bcf4"/>
  <path id="Path_5384" data-name="Path 5384" d="M93.568,22.106h-.737V11.052a.737.737,0,0,0-.737-.737H71.921C70.541,8.542,63.324,0,52.31,0H31.68a.737.737,0,0,0-.737.737v9.578H2.21a.737.737,0,0,0-.737.737V20.63H.737A.737.737,0,0,0,0,21.366V27.26A.737.737,0,0,0,.737,28H14a.737.737,0,1,0,0-1.474h0a6.631,6.631,0,0,1,13.262,0c0,.017,0,.031,0,.045a.737.737,0,0,0,0,1.474H71.467a.737.737,0,1,0,0-1.474c0-.016,0-.031,0-.045a6.631,6.631,0,0,1,13.262,0h0a.737.737,0,0,0,0,1.474h8.842a.737.737,0,0,0,.737-.737V22.843a.737.737,0,0,0-.737-.737ZM47.152,10.315H32.417V1.474H47.152Zm1.474,0V1.474H52.31c8.928,0,15.357,6.212,17.679,8.841Zm0,0" transform="translate(0 0)" fill="#5c5df1"/>
  <path id="Path_5385" data-name="Path 5385" d="M187.684,81.474h-2.947a.737.737,0,0,1,0-1.474h2.947a.737.737,0,0,1,0,1.474Zm0,0" transform="translate(-150.109 -65.265)" fill="#e6e9ed"/>
  <path id="Path_5386" data-name="Path 5386" d="M11.04,104.737A.736.736,0,0,0,10.3,104H8v1.472h2.3A.737.737,0,0,0,11.04,104.737Zm0,0" transform="translate(-6.526 -84.844)" fill="#da4453"/>
  <path id="Path_5387" data-name="Path 5387" d="M487.5,112.759a.736.736,0,0,0,.737.737h2.3v-1.472h-2.3A.736.736,0,0,0,487.5,112.759Zm0,0" transform="translate(-397.711 -91.39)" fill="#da4453"/>
  <path id="Path_5388" data-name="Path 5388" d="M267.684,81.474h-2.947a.737.737,0,0,1,0-1.474h2.947a.737.737,0,0,1,0,1.474Zm0,0" transform="translate(-215.374 -65.265)" fill="#e6e9ed"/>
  <path id="Path_5389" data-name="Path 5389" d="M9.481,59.992H8.008v4.421H9.481a1.478,1.478,0,0,0,1.474-1.474V61.466A1.478,1.478,0,0,0,9.481,59.992Zm0,0" transform="translate(-6.533 -48.942)" fill="#da4453"/>
  <path id="Path_5390" data-name="Path 5390" d="M490.947,58.947v-2.21A.737.737,0,0,0,490.21,56H488A2.946,2.946,0,0,0,490.947,58.947Zm0,0" transform="translate(-398.116 -45.686)" fill="#e6e9ed"/>
  <path id="Path_5391" data-name="Path 5391" d="M89.232,115.294a6.637,6.637,0,0,1-13.2,0c-.015-.221-.029-.443-.029-.679a6.631,6.631,0,1,1,13.262,0c0,.236-.014.458-.029.679Zm0,0" transform="translate(-62.002 -88.095)" fill="#ccd1d9"/>
  <path id="Path_5392" data-name="Path 5392" d="M79.368,118.735a7.368,7.368,0,1,1,7.368-7.368A7.376,7.376,0,0,1,79.368,118.735Zm0-13.262a5.894,5.894,0,1,0,5.894,5.894A5.9,5.9,0,0,0,79.368,105.474Zm0,0" transform="translate(-58.738 -84.844)" fill="#656d78"/>
  <g id="Group_4050" data-name="Group 4050" transform="translate(16.209 22.103)">
    <path id="Path_5393" data-name="Path 5393" d="M108.943,141.474a.743.743,0,0,1-.744-.737.731.731,0,0,1,.73-.737h.016a.737.737,0,1,1,0,1.474Zm0,0" transform="translate(-104.479 -136.316)" fill="#aab2bd"/>
    <path id="Path_5394" data-name="Path 5394" d="M108.737,122.947a.737.737,0,0,1-.737-.737v-1.474a.737.737,0,1,1,1.474,0v1.474A.737.737,0,0,1,108.737,122.947Zm0,0" transform="translate(-104.316 -120)" fill="#aab2bd"/>
    <path id="Path_5395" data-name="Path 5395" d="M108.737,154.947a.737.737,0,0,1-.737-.737v-1.474a.737.737,0,0,1,1.474,0v1.474A.737.737,0,0,1,108.737,154.947Zm0,0" transform="translate(-104.316 -146.106)" fill="#aab2bd"/>
    <path id="Path_5396" data-name="Path 5396" d="M95.634,128.377a.74.74,0,0,1-.522-.215L94.07,127.12a.737.737,0,0,1,1.042-1.042l1.042,1.042a.738.738,0,0,1,0,1.042A.728.728,0,0,1,95.634,128.377Zm0,0" transform="translate(-92.776 -124.783)" fill="#aab2bd"/>
    <path id="Path_5397" data-name="Path 5397" d="M118.267,151.01a.739.739,0,0,1-.522-.215l-1.042-1.042a.737.737,0,0,1,1.042-1.042l1.042,1.042a.736.736,0,0,1-.52,1.257Zm0,0" transform="translate(-111.241 -143.247)" fill="#aab2bd"/>
    <path id="Path_5398" data-name="Path 5398" d="M90.21,141.474H88.737a.737.737,0,1,1,0-1.474H90.21a.737.737,0,1,1,0,1.474Zm0,0" transform="translate(-88 -136.316)" fill="#aab2bd"/>
    <path id="Path_5399" data-name="Path 5399" d="M122.21,141.474h-1.474a.737.737,0,1,1,0-1.474h1.474a.737.737,0,1,1,0,1.474Zm0,0" transform="translate(-114.106 -136.316)" fill="#aab2bd"/>
    <path id="Path_5400" data-name="Path 5400" d="M94.591,151.01a.736.736,0,0,1-.522-1.257l1.042-1.042a.737.737,0,0,1,1.042,1.042l-1.042,1.042A.734.734,0,0,1,94.591,151.01Zm0,0" transform="translate(-92.776 -143.247)" fill="#aab2bd"/>
    <path id="Path_5401" data-name="Path 5401" d="M117.224,128.377a.736.736,0,0,1-.522-1.257l1.042-1.042a.737.737,0,0,1,1.042,1.042l-1.042,1.042A.733.733,0,0,1,117.224,128.377Zm0,0" transform="translate(-111.24 -124.783)" fill="#aab2bd"/>
  </g>
  <path id="Path_5402" data-name="Path 5402" d="M401.232,115.294a6.637,6.637,0,0,1-13.2,0c-.015-.221-.029-.443-.029-.679a6.631,6.631,0,0,1,13.262,0C401.262,114.851,401.247,115.074,401.232,115.294Zm0,0" transform="translate(-316.535 -88.095)" fill="#ccd1d9"/>
  <path id="Path_5403" data-name="Path 5403" d="M391.368,118.735a7.368,7.368,0,1,1,7.368-7.368A7.376,7.376,0,0,1,391.368,118.735Zm0-13.262a5.894,5.894,0,1,0,5.894,5.894A5.9,5.9,0,0,0,391.368,105.474Zm0,0" transform="translate(-313.272 -84.844)" fill="#656d78"/>
  <path id="Path_5404" data-name="Path 5404" d="M420.943,141.474a.743.743,0,0,1-.744-.737.731.731,0,0,1,.73-.737h.016a.737.737,0,1,1,0,1.474Zm0,0" transform="translate(-342.803 -114.214)" fill="#aab2bd"/>
  <path id="Path_5405" data-name="Path 5405" d="M420.737,122.947a.737.737,0,0,1-.737-.737v-1.474a.737.737,0,1,1,1.473,0v1.474A.737.737,0,0,1,420.737,122.947Zm0,0" transform="translate(-342.641 -97.897)" fill="#aab2bd"/>
  <path id="Path_5406" data-name="Path 5406" d="M420.737,154.947a.737.737,0,0,1-.737-.737v-1.474a.737.737,0,1,1,1.473,0v1.474A.737.737,0,0,1,420.737,154.947Zm0,0" transform="translate(-342.641 -124.003)" fill="#aab2bd"/>
  <path id="Path_5407" data-name="Path 5407" d="M407.634,128.377a.74.74,0,0,1-.522-.215l-1.042-1.042a.737.737,0,0,1,1.042-1.042l1.042,1.042a.738.738,0,0,1,0,1.042A.728.728,0,0,1,407.634,128.377Zm0,0" transform="translate(-331.101 -102.68)" fill="#aab2bd"/>
  <path id="Path_5408" data-name="Path 5408" d="M430.267,151.01a.74.74,0,0,1-.522-.215l-1.042-1.042a.737.737,0,1,1,1.042-1.042l1.042,1.042a.736.736,0,0,1-.52,1.257Zm0,0" transform="translate(-349.565 -121.144)" fill="#aab2bd"/>
  <path id="Path_5409" data-name="Path 5409" d="M402.21,141.474h-1.474a.737.737,0,0,1,0-1.474h1.474a.737.737,0,0,1,0,1.474Zm0,0" transform="translate(-326.324 -114.214)" fill="#aab2bd"/>
  <path id="Path_5410" data-name="Path 5410" d="M434.21,141.474h-1.474a.737.737,0,0,1,0-1.474h1.474a.737.737,0,0,1,0,1.474Zm0,0" transform="translate(-352.43 -114.214)" fill="#aab2bd"/>
  <path id="Path_5411" data-name="Path 5411" d="M406.591,151.01a.736.736,0,0,1-.522-1.257l1.042-1.042a.737.737,0,0,1,1.042,1.042l-1.042,1.042A.734.734,0,0,1,406.591,151.01Zm0,0" transform="translate(-331.1 -121.144)" fill="#aab2bd"/>
  <path id="Path_5412" data-name="Path 5412" d="M429.224,128.377a.736.736,0,0,1-.522-1.257l1.042-1.042a.737.737,0,0,1,1.042,1.042l-1.042,1.042A.732.732,0,0,1,429.224,128.377Zm0,0" transform="translate(-349.565 -102.68)" fill="#aab2bd"/>
</svg>
