<svg xmlns="http://www.w3.org/2000/svg" width="208.628" height="93.225" viewBox="0 0 208.628 93.225">
  <g id="pointssvg" transform="translate(582.31 -0.006)">
    <path id="Path_5491" data-name="Path 5491" d="M294.022,235.258s-20.647-22.167-3.495-46.167c15.221-21.294,32.967-19.838,45.987-11.2,5.545,3.68,21.533.454,35.14-21.213,18.559-29.551,82.885-11.629,71.157,33.83-5.676,22,17.273,22.8,5.58,44.79Z" transform="translate(-825.442 -142.21)" fill="#ebf3fa"/>
    <path id="Path_5492" data-name="Path 5492" d="M1799.055,1154.815l1.583.26a.677.677,0,0,1,.326.148.559.559,0,0,1,.187.288.446.446,0,0,1,.016.1.462.462,0,0,1-.007.1l-3.643,22.082a.578.578,0,0,1-.667.439l-.032,0-1.584-.26-.031-.006a.58.58,0,0,1-.491-.628l3.646-22.083a.445.445,0,0,1,.025-.092.492.492,0,0,1,.047-.093.568.568,0,0,1,.27-.213A.675.675,0,0,1,1799.055,1154.815Z" transform="translate(-2232.893 -1085.412)" fill="#f26a64"/>
    <path id="Path_5493" data-name="Path 5493" d="M1799.348,1318.45l-1.952,11.83a.557.557,0,0,1-.657.381l-.031,0-1.584-.26-.031-.006a.559.559,0,0,1-.5-.572l1.713-10.377A5.294,5.294,0,0,0,1799.348,1318.45Z" transform="translate(-2232.781 -1237.843)" fill="#fe7062"/>
    <rect id="Rectangle_2302" data-name="Rectangle 2302" width="0.254" height="2.842" transform="matrix(0.163, -0.987, 0.987, 0.163, -434.941, 72.232)" fill="#dd615b"/>
    <rect id="Rectangle_2303" data-name="Rectangle 2303" width="0.255" height="2.85" transform="matrix(0.16, -0.987, 0.987, 0.16, -435.132, 72.458)" fill="#dd615b"/>
    <rect id="Rectangle_2304" data-name="Rectangle 2304" width="0.254" height="2.842" transform="translate(-435.247 74.102) rotate(-80.63)" fill="#dd615b"/>
    <rect id="Rectangle_2305" data-name="Rectangle 2305" width="0.254" height="2.842" transform="translate(-435.497 75.671) rotate(-80.63)" fill="#dd615b"/>
    <rect id="Rectangle_2306" data-name="Rectangle 2306" width="0.254" height="2.842" transform="translate(-435.772 77.319) rotate(-80.63)" fill="#dd615b"/>
    <rect id="Rectangle_2307" data-name="Rectangle 2307" width="0.255" height="2.85" transform="matrix(0.16, -0.987, 0.987, 0.16, -436.225, 79.205)" fill="#dd615b"/>
    <rect id="Rectangle_2308" data-name="Rectangle 2308" width="0.254" height="2.842" transform="matrix(0.163, -0.987, 0.987, 0.163, -436.589, 82.213)" fill="#dd615b"/>
    <rect id="Rectangle_2309" data-name="Rectangle 2309" width="0.254" height="2.842" transform="translate(-436.927 84.34) rotate(-80.63)" fill="#dd615b"/>
    <rect id="Rectangle_2310" data-name="Rectangle 2310" width="0.255" height="2.85" transform="matrix(0.16, -0.987, 0.987, 0.16, -434.867, 70.801)" fill="#dd615b"/>
    <rect id="Rectangle_2311" data-name="Rectangle 2311" width="0.254" height="2.842" transform="translate(-434.712 70.895) rotate(-80.63)" fill="#dd615b"/>
    <rect id="Rectangle_2312" data-name="Rectangle 2312" width="0.255" height="2.85" transform="matrix(0.16, -0.987, 0.987, 0.16, -434.698, 69.753)" fill="#dd615b"/>
    <path id="Path_5494" data-name="Path 5494" d="M1847.59,1160.17l2.8.461.026-.157a.482.482,0,0,0,.006-.1l-2.785-.458a.468.468,0,0,0-.025.092Z" transform="translate(-2282.153 -1090.177)" fill="#dd615b"/>
    <path id="Path_5495" data-name="Path 5495" d="M1849,1155.673l2.722.448a.564.564,0,0,0-.186-.288l-2.266-.373A.566.566,0,0,0,1849,1155.673Z" transform="translate(-2283.466 -1086.022)" fill="#dd615b"/>
    <path id="Path_5496" data-name="Path 5496" d="M1840.978,1154.812l1.584.261a.669.669,0,0,1,.325.148.561.561,0,0,1,.187.288.486.486,0,0,1,.015.1.46.46,0,0,1-.005.1l-3.644,22.082a.579.579,0,0,1-.668.439l-.031,0-1.584-.261-.031-.006a.581.581,0,0,1-.492-.629l3.644-22.083a.53.53,0,0,1,.025-.092.456.456,0,0,1,.048-.093.56.56,0,0,1,.27-.213A.679.679,0,0,1,1840.978,1154.812Z" transform="translate(-2271.943 -1085.409)" fill="#f26a64"/>
    <path id="Path_5497" data-name="Path 5497" d="M1841.276,1318.45l-1.952,11.83a.558.558,0,0,1-.658.381l-.031,0-1.584-.26-.031-.006a.558.558,0,0,1-.5-.572l1.713-10.377A5.3,5.3,0,0,0,1841.276,1318.45Z" transform="translate(-2271.836 -1237.843)" fill="#fe7062"/>
    <rect id="Rectangle_2313" data-name="Rectangle 2313" width="0.254" height="2.842" transform="matrix(0.163, -0.987, 0.987, 0.163, -432.069, 72.231)" fill="#dd615b"/>
    <rect id="Rectangle_2314" data-name="Rectangle 2314" width="0.254" height="2.842" transform="translate(-432.19 73.098) rotate(-80.64)" fill="#dd615b"/>
    <rect id="Rectangle_2315" data-name="Rectangle 2315" width="0.254" height="2.842" transform="translate(-432.374 74.102) rotate(-80.63)" fill="#dd615b"/>
    <rect id="Rectangle_2316" data-name="Rectangle 2316" width="0.254" height="2.842" transform="translate(-432.627 75.668) rotate(-80.63)" fill="#dd615b"/>
    <rect id="Rectangle_2317" data-name="Rectangle 2317" width="0.254" height="2.842" transform="translate(-432.899 77.319) rotate(-80.63)" fill="#dd615b"/>
    <rect id="Rectangle_2318" data-name="Rectangle 2318" width="0.254" height="2.842" transform="translate(-433.322 79.846) rotate(-80.63)" fill="#dd615b"/>
    <rect id="Rectangle_2319" data-name="Rectangle 2319" width="0.254" height="2.842" transform="translate(-433.708 82.221) rotate(-80.63)" fill="#dd615b"/>
    <rect id="Rectangle_2320" data-name="Rectangle 2320" width="0.254" height="2.842" transform="translate(-434.057 84.338) rotate(-80.63)" fill="#dd615b"/>
    <rect id="Rectangle_2321" data-name="Rectangle 2321" width="0.254" height="2.842" transform="translate(-431.932 71.425) rotate(-80.63)" fill="#dd615b"/>
    <rect id="Rectangle_2322" data-name="Rectangle 2322" width="0.254" height="2.842" transform="translate(-431.828 70.904) rotate(-80.64)" fill="#dd615b"/>
    <rect id="Rectangle_2323" data-name="Rectangle 2323" width="0.254" height="2.842" transform="translate(-431.749 70.385) rotate(-80.64)" fill="#dd615b"/>
    <path id="Path_5498" data-name="Path 5498" d="M1889.52,1160.17l2.8.461.026-.157a.432.432,0,0,0,.005-.1l-2.785-.458a.517.517,0,0,0-.025.092Z" transform="translate(-2321.209 -1090.177)" fill="#dd615b"/>
    <path id="Path_5499" data-name="Path 5499" d="M1891,1155.673l2.722.448a.56.56,0,0,0-.187-.288l-2.265-.373A.559.559,0,0,0,1891,1155.673Z" transform="translate(-2322.587 -1086.022)" fill="#dd615b"/>
    <path id="Path_5500" data-name="Path 5500" d="M1427.823,1455.126v1.6a.667.667,0,0,1-.093.342.573.573,0,0,1-.255.231.438.438,0,0,1-.1.031.472.472,0,0,1-.1.01l-22.381-.053a.581.581,0,0,1-.539-.588v-1.669a.581.581,0,0,1,.542-.585l22.381.053a.474.474,0,0,1,.1.01.426.426,0,0,1,.1.032.563.563,0,0,1,.254.232A.672.672,0,0,1,1427.823,1455.126Z" transform="translate(-1869.295 -1364.524)" fill="#fe7062"/>
    <path id="Path_5501" data-name="Path 5501" d="M1416.792,1457.361l-11.992-.029a.554.554,0,0,1-.48-.588v-1.669a.556.556,0,0,1,.484-.585l10.518.025A5.306,5.306,0,0,0,1416.792,1457.361Z" transform="translate(-1869.258 -1364.561)" fill="#fe7062"/>
    <rect id="Rectangle_2324" data-name="Rectangle 2324" width="2.842" height="0.254" transform="translate(-444.727 92.579) rotate(-90)" fill="#fe7062"/>
    <rect id="Rectangle_2325" data-name="Rectangle 2325" width="2.842" height="0.254" transform="translate(-445.586 92.577) rotate(-90)" fill="#fe7062"/>
    <rect id="Rectangle_2326" data-name="Rectangle 2326" width="2.842" height="0.254" transform="translate(-446.35 92.812) rotate(-89.85)" fill="#fe7062"/>
    <rect id="Rectangle_2327" data-name="Rectangle 2327" width="2.842" height="0.254" transform="translate(-447.938 92.802) rotate(-89.87)" fill="#fe7062"/>
    <rect id="Rectangle_2328" data-name="Rectangle 2328" width="2.842" height="0.254" transform="translate(-449.865 92.567) rotate(-90)" fill="#fe7062"/>
    <rect id="Rectangle_2329" data-name="Rectangle 2329" width="2.842" height="0.254" transform="translate(-452.425 92.561) rotate(-90)" fill="#fe7062"/>
    <rect id="Rectangle_2330" data-name="Rectangle 2330" width="2.842" height="0.254" transform="translate(-454.564 92.802) rotate(-89.86)" fill="#fe7062"/>
    <rect id="Rectangle_2331" data-name="Rectangle 2331" width="2.842" height="0.254" transform="translate(-456.717 92.79) rotate(-89.85)" fill="#fe7062"/>
    <rect id="Rectangle_2332" data-name="Rectangle 2332" width="2.842" height="0.254" transform="translate(-443.625 92.827) rotate(-89.86)" fill="#fe7062"/>
    <rect id="Rectangle_2333" data-name="Rectangle 2333" width="2.842" height="0.254" transform="translate(-443.094 92.821) rotate(-89.88)" fill="#fe7062"/>
    <rect id="Rectangle_2334" data-name="Rectangle 2334" width="2.842" height="0.254" transform="translate(-442.848 92.583) rotate(-90)" fill="#fe7062"/>
    <path id="Path_5502" data-name="Path 5502" d="M1736.486,1455.26l-.006,2.842h.159a.489.489,0,0,0,.1-.01l.006-2.823a.493.493,0,0,0-.1-.01Z" transform="translate(-2178.656 -1365.278)" fill="#fe7062"/>
    <path id="Path_5503" data-name="Path 5503" d="M1741.645,1455.88l0,2.759a.571.571,0,0,0,.255-.231l0-2.3A.564.564,0,0,0,1741.645,1455.88Z" transform="translate(-2183.463 -1365.856)" fill="#fe7062"/>
    <path id="Path_5504" data-name="Path 5504" d="M1392.974,1413.566v1.6a.679.679,0,0,1-.094.343.561.561,0,0,1-.254.231.461.461,0,0,1-.1.032.489.489,0,0,1-.1.01l-22.381-.053a.581.581,0,0,1-.54-.588v-1.669a.581.581,0,0,1,.541-.586l22.381.054h.1a.452.452,0,0,1,.1.031l.015.007.014.007.026.015.016.01.014.009.025.019.028.024.021.019h0l.014.015a.561.561,0,0,1,.039.046l.011.014.01.015.02.032A.673.673,0,0,1,1392.974,1413.566Z" transform="translate(-1836.833 -1325.812)" fill="#f26a64"/>
    <path id="Path_5505" data-name="Path 5505" d="M1381.952,1415.8l-11.992-.028a.554.554,0,0,1-.48-.588v-1.668a.558.558,0,0,1,.484-.586l10.517.026.014.068A5.286,5.286,0,0,0,1381.952,1415.8Z" transform="translate(-1836.805 -1325.848)" fill="#f26a64"/>
    <rect id="Rectangle_2335" data-name="Rectangle 2335" width="2.842" height="0.254" transform="translate(-446.85 89.964) rotate(-89.87)" fill="#f26a64"/>
    <rect id="Rectangle_2336" data-name="Rectangle 2336" width="2.842" height="0.254" transform="translate(-447.71 89.961) rotate(-89.87)" fill="#f26a64"/>
    <rect id="Rectangle_2337" data-name="Rectangle 2337" width="2.842" height="0.254" transform="translate(-448.999 89.733) rotate(-90)" fill="#f26a64"/>
    <rect id="Rectangle_2338" data-name="Rectangle 2338" width="2.842" height="0.254" transform="translate(-450.577 89.73) rotate(-90)" fill="#f26a64"/>
    <rect id="Rectangle_2339" data-name="Rectangle 2339" width="2.842" height="0.254" transform="translate(-451.992 89.958) rotate(-89.88)" fill="#f26a64"/>
    <rect id="Rectangle_2340" data-name="Rectangle 2340" width="2.842" height="0.254" transform="translate(-454.557 89.953) rotate(-89.85)" fill="#f26a64"/>
    <rect id="Rectangle_2341" data-name="Rectangle 2341" width="2.842" height="0.254" transform="translate(-457.203 89.714) rotate(-90)" fill="#f26a64"/>
    <rect id="Rectangle_2342" data-name="Rectangle 2342" width="2.842" height="0.254" transform="translate(-459.106 89.941) rotate(-89.88)" fill="#f26a64"/>
    <rect id="Rectangle_2343" data-name="Rectangle 2343" width="2.842" height="0.254" transform="translate(-446.03 89.966) rotate(-89.87)" fill="#f26a64"/>
    <rect id="Rectangle_2344" data-name="Rectangle 2344" width="2.842" height="0.254" transform="translate(-445.472 89.981) rotate(-89.86)" fill="#f26a64"/>
    <rect id="Rectangle_2345" data-name="Rectangle 2345" width="2.842" height="0.254" transform="translate(-445.229 89.743) rotate(-90)" fill="#f26a64"/>
    <path id="Path_5506" data-name="Path 5506" d="M1701.645,1413.7l0,2.843h.162a.481.481,0,0,0,.1-.01l0-2.822a.422.422,0,0,0-.1-.01Z" transform="translate(-2146.204 -1326.566)" fill="#f26a64"/>
    <path id="Path_5507" data-name="Path 5507" d="M1706.805,1414.32l-.005,2.759a.564.564,0,0,0,.255-.231l0-2.3A.57.57,0,0,0,1706.805,1414.32Z" transform="translate(-2151.01 -1327.143)" fill="#f26a64"/>
    <path id="Path_5508" data-name="Path 5508" d="M1409.955,1373.193v1.6a.674.674,0,0,1-.093.343.561.561,0,0,1-.254.231.452.452,0,0,1-.1.031.5.5,0,0,1-.1.01l-22.38-.053a.487.487,0,0,1-.249-.068.625.625,0,0,1-.288-.49.2.2,0,0,1,0-.027v-1.669a.581.581,0,0,1,.542-.586l22.381.053a.5.5,0,0,1,.195.042.57.57,0,0,1,.254.232A.686.686,0,0,1,1409.955,1373.193Z" transform="translate(-1852.652 -1288.208)" fill="#f26a64"/>
    <path id="Path_5509" data-name="Path 5509" d="M1398.9,1375.428l-11.992-.028a.4.4,0,0,1-.222-.068.639.639,0,0,1-.257-.489.172.172,0,0,1,0-.027v-1.669a.557.557,0,0,1,.484-.586l10.517.025a5.354,5.354,0,0,0,1.394,2.775C1398.846,1375.381,1398.87,1375.4,1398.9,1375.428Z" transform="translate(-1852.587 -1288.245)" fill="#fe7062"/>
    <path id="Path_5510" data-name="Path 5510" d="M1417.823,1331.706v1.6a.672.672,0,0,1-.093.343.56.56,0,0,1-.255.23.436.436,0,0,1-.1.032.486.486,0,0,1-.1.01l-22.38-.054a.581.581,0,0,1-.54-.588v-1.669a.592.592,0,0,1,.48-.581.486.486,0,0,1,.064,0l22.381.053a.466.466,0,0,1,.1.01.439.439,0,0,1,.1.032.565.565,0,0,1,.254.232A.669.669,0,0,1,1417.823,1331.706Z" transform="translate(-1859.98 -1249.561)" fill="#f26a64"/>
    <path id="Path_5511" data-name="Path 5511" d="M1406.8,1333.98l-11.992-.029a.554.554,0,0,1-.48-.588V1331.7a.577.577,0,0,1,.427-.581.308.308,0,0,1,.057,0l10.518.024a.012.012,0,0,1,0,.005A5.347,5.347,0,0,0,1406.8,1333.98Z" transform="translate(-1859.952 -1249.635)" fill="#fe7062"/>
    <path id="Path_5512" data-name="Path 5512" d="M1393.884,1290.18v1.6a.675.675,0,0,1-.094.343.569.569,0,0,1-.254.231.479.479,0,0,1-.1.031l-.032.005h-.064l-22.381-.053a.581.581,0,0,1-.54-.588v-.032l0-1.6v-.058a.6.6,0,0,1,.407-.541l.016,0a.48.48,0,0,1,.117-.014l22.38.053h.07l.025,0a.449.449,0,0,1,.1.031.568.568,0,0,1,.254.232A.672.672,0,0,1,1393.884,1290.18Z" transform="translate(-1837.68 -1210.877)" fill="#f26a64"/>
    <path id="Path_5513" data-name="Path 5513" d="M1382.862,1292.424l-11.992-.029a.555.555,0,0,1-.48-.587v-.032l0-1.6v-.057a.6.6,0,0,1,.376-.548l.021-.006a.4.4,0,0,1,.086-.01l10.52.031a.1.1,0,0,0,0,.021,5.279,5.279,0,0,0,1.458,2.82Z" transform="translate(-1837.652 -1210.923)" fill="#fe7062"/>
    <path id="Path_5514" data-name="Path 5514" d="M1393.311,1249.056v1.6a.671.671,0,0,1-.093.342.539.539,0,0,1-.332.258h0l-.021.005a.512.512,0,0,1-.1.01l-22.381-.053a.464.464,0,0,1-.069-.006l-.027,0a.6.6,0,0,1-.443-.578v-1.668a.581.581,0,0,1,.542-.586l22.381.053h.1a.437.437,0,0,1,.1.032l.014.007.014.007.027.015.03.019a.217.217,0,0,1,.026.019.289.289,0,0,1,.028.024l.021.019h0l.014.014c.013.015.027.031.039.047l.011.014.01.015.02.032A.674.674,0,0,1,1393.311,1249.056Z" transform="translate(-1837.15 -1172.574)" fill="#f26a64"/>
    <path id="Path_5515" data-name="Path 5515" d="M1382.224,1251.3l-11.992-.029h-.028l-.031,0a.58.58,0,0,1-.423-.583v-1.668a.558.558,0,0,1,.485-.586l10.517.025.014.068a5.282,5.282,0,0,0,1.432,2.755Z" transform="translate(-1837.056 -1172.621)" fill="#fe7062"/>
    <path id="Path_5516" data-name="Path 5516" d="M1410.205,1208.674l0,1.6a.67.67,0,0,1-.093.343.566.566,0,0,1-.255.231.466.466,0,0,1-.1.032.532.532,0,0,1-.1.01l-22.38-.054a.481.481,0,0,1-.25-.069.629.629,0,0,1-.289-.489v-1.7a.581.581,0,0,1,.542-.585l22.381.053a.473.473,0,0,1,.195.042.566.566,0,0,1,.254.232A.68.68,0,0,1,1410.205,1208.674Z" transform="translate(-1852.882 -1134.961)" fill="#f26a64"/>
    <path id="Path_5517" data-name="Path 5517" d="M1399.182,1210.909l-11.992-.029a.393.393,0,0,1-.223-.068.645.645,0,0,1-.258-.489v-1.7a.557.557,0,0,1,.484-.585l10.518.025a5.357,5.357,0,0,0,1.394,2.775Z" transform="translate(-1852.854 -1134.999)" fill="#fe7062"/>
    <path id="Path_5518" data-name="Path 5518" d="M1436.984,1167.245v1.6a.684.684,0,0,1-.093.342.574.574,0,0,1-.255.231.474.474,0,0,1-.1.032.49.49,0,0,1-.1.009l-22.381-.053a.581.581,0,0,1-.54-.588v-1.668a.59.59,0,0,1,.479-.581.426.426,0,0,1,.065,0l22.38.053a.5.5,0,0,1,.1.009.507.507,0,0,1,.1.032.564.564,0,0,1,.254.232A.679.679,0,0,1,1436.984,1167.245Z" transform="translate(-1877.827 -1096.371)" fill="#f26a64"/>
    <path id="Path_5519" data-name="Path 5519" d="M1425.962,1169.443l-11.992-.029a.555.555,0,0,1-.48-.588v-1.671a.576.576,0,0,1,.427-.581.329.329,0,0,1,.057,0l10.518.025v0A5.324,5.324,0,0,0,1425.962,1169.443Z" transform="translate(-1877.8 -1096.371)" fill="#fe7062"/>
    <path id="Path_5520" data-name="Path 5520" d="M1394.147,1125.67l0,1.6a.669.669,0,0,1-.093.343.569.569,0,0,1-.254.231.477.477,0,0,1-.1.032l-.032.005h-.064l-22.381-.053a.582.582,0,0,1-.54-.588v-1.669a.581.581,0,0,1,.542-.585l22.381.054h.029a.505.505,0,0,1,.069.009.447.447,0,0,1,.1.032.43.43,0,0,1,.047.024l.028.017h0l.027.02h.005l.024.02a.458.458,0,0,1,.054.054l.016.018h0l.009.011h0l.016.023.021.034A.671.671,0,0,1,1394.147,1125.67Z" transform="translate(-1837.923 -1057.64)" fill="#f26a64"/>
    <path id="Path_5521" data-name="Path 5521" d="M1383.162,1127.981l-11.992-.029a.555.555,0,0,1-.48-.588V1125.7a.558.558,0,0,1,.485-.585l10.517.025c0,.022.009.044.014.069a5.263,5.263,0,0,0,1.449,2.775Z" transform="translate(-1837.932 -1057.751)" fill="#fe7062"/>
    <path id="Path_5522" data-name="Path 5522" d="M1418.292,1085.238v1.6a.669.669,0,0,1-.093.343.566.566,0,0,1-.255.231.47.47,0,0,1-.1.031.49.49,0,0,1-.1.01l-22.38-.053a.49.49,0,0,1-.242-.069.626.626,0,0,1-.3-.5v-1.693a.591.591,0,0,1,.48-.581.414.414,0,0,1,.064,0l22.381.053a.5.5,0,0,1,.1.01.529.529,0,0,1,.1.032.572.572,0,0,1,.254.232A.672.672,0,0,1,1418.292,1085.238Z" transform="translate(-1860.418 -1019.98)" fill="#f26a64"/>
    <path id="Path_5523" data-name="Path 5523" d="M1407.233,1087.464l-11.992-.029a.394.394,0,0,1-.216-.068.641.641,0,0,1-.265-.5v-1.693a.578.578,0,0,1,.427-.582.37.37,0,0,1,.057,0l10.518.025a.017.017,0,0,1,0,.005,5.348,5.348,0,0,0,1.4,2.775Z" transform="translate(-1860.353 -1020.008)" fill="#fe7062"/>
    <path id="Path_5524" data-name="Path 5524" d="M1394.343,1043.76v1.6a.673.673,0,0,1-.093.343.561.561,0,0,1-.254.231.423.423,0,0,1-.1.032l-.032.005h-.064l-22.38-.053a.582.582,0,0,1-.54-.588v-1.669a.581.581,0,0,1,.542-.585l22.381.053a.429.429,0,0,1,.1.01.461.461,0,0,1,.1.032.566.566,0,0,1,.253.232A.672.672,0,0,1,1394.343,1043.76Z" transform="translate(-1838.109 -981.343)" fill="#f26a64"/>
    <path id="Path_5525" data-name="Path 5525" d="M1383.312,1046.031,1371.32,1046a.555.555,0,0,1-.48-.588v-1.669a.559.559,0,0,1,.485-.586l10.517.025a5.314,5.314,0,0,0,1.463,2.841Z" transform="translate(-1838.072 -981.417)" fill="#fe7062"/>
    <rect id="Rectangle_2346" data-name="Rectangle 2346" width="2.842" height="0.254" transform="translate(-445.672 87.208) rotate(-89.86)" fill="#dd615b"/>
    <rect id="Rectangle_2347" data-name="Rectangle 2347" width="2.842" height="0.254" transform="translate(-446.542 87.199) rotate(-89.88)" fill="#dd615b"/>
    <rect id="Rectangle_2348" data-name="Rectangle 2348" width="2.842" height="0.254" transform="translate(-447.577 87.193) rotate(-89.88)" fill="#dd615b"/>
    <rect id="Rectangle_2349" data-name="Rectangle 2349" width="2.842" height="0.254" transform="translate(-449.148 87.2) rotate(-89.86)" fill="#dd615b"/>
    <rect id="Rectangle_2350" data-name="Rectangle 2350" width="2.842" height="0.254" transform="translate(-450.822 87.196) rotate(-89.86)" fill="#dd615b"/>
    <rect id="Rectangle_2351" data-name="Rectangle 2351" width="2.842" height="0.254" transform="translate(-453.389 87.19) rotate(-89.86)" fill="#dd615b"/>
    <rect id="Rectangle_2352" data-name="Rectangle 2352" width="2.842" height="0.254" transform="translate(-455.799 87.177) rotate(-89.88)" fill="#dd615b"/>
    <rect id="Rectangle_2353" data-name="Rectangle 2353" width="2.842" height="0.254" transform="translate(-457.935 87.179) rotate(-89.86)" fill="#dd615b"/>
    <rect id="Rectangle_2354" data-name="Rectangle 2354" width="2.842" height="0.254" transform="translate(-445.133 86.977) rotate(-90)" fill="#dd615b"/>
    <rect id="Rectangle_2355" data-name="Rectangle 2355" width="2.842" height="0.254" transform="translate(-444.32 87.204) rotate(-89.88)" fill="#dd615b"/>
    <rect id="Rectangle_2356" data-name="Rectangle 2356" width="2.842" height="0.254" transform="translate(-444.071 86.98) rotate(-90)" fill="#dd615b"/>
    <path id="Path_5526" data-name="Path 5526" d="M1718.6,1373.29l0,2.843h.159a.508.508,0,0,0,.1-.01l0-2.822a.429.429,0,0,0-.1-.01Z" transform="translate(-2161.992 -1288.925)" fill="#dd615b"/>
    <path id="Path_5527" data-name="Path 5527" d="M1723.755,1373.91l0,2.759a.57.57,0,0,0,.254-.231l0-2.3A.568.568,0,0,0,1723.755,1373.91Z" transform="translate(-2166.799 -1289.502)" fill="#dd615b"/>
    <rect id="Rectangle_2357" data-name="Rectangle 2357" width="2.842" height="0.254" transform="translate(-453.108 84.123) rotate(-90)" fill="#dd615b"/>
    <rect id="Rectangle_2358" data-name="Rectangle 2358" width="2.842" height="0.254" transform="translate(-455.265 84.33) rotate(-89.87)" fill="#dd615b"/>
    <rect id="Rectangle_2359" data-name="Rectangle 2359" width="2.842" height="0.254" transform="translate(-457.395 84.339) rotate(-89.86)" fill="#dd615b"/>
    <path id="Path_5528" data-name="Path 5528" d="M1702.41,1220.015l.005-2.842h-.223l.036-.005.006-2.823a.476.476,0,0,1-.047-.007l0-2.754h.1l0,2.73a.569.569,0,0,0,.254-.231l0-2.3a.576.576,0,0,0-.2-.206h.089l.005-2.842h-.254l0,2.779a.457.457,0,0,0-.081-.007h-.16l-.005,2.842h.047l0,2.821h.188l-.005,2.839Z" transform="translate(-2146.474 -1135.651)" fill="#dd615b"/>
    <rect id="Rectangle_2360" data-name="Rectangle 2360" width="2.842" height="0.254" transform="translate(-443.77 84.371) rotate(-89.86)" fill="#dd615b"/>
    <rect id="Rectangle_2361" data-name="Rectangle 2361" width="2.842" height="0.254" transform="translate(-443.56 84.123) rotate(-90)" fill="#dd615b"/>
    <path id="Path_5529" data-name="Path 5529" d="M1726.486,1331.831l-.005,2.842h.159a.411.411,0,0,0,.1-.01l0-2.822a.444.444,0,0,0-.1-.01Z" transform="translate(-2169.342 -1250.306)" fill="#dd615b"/>
    <path id="Path_5530" data-name="Path 5530" d="M1731.646,1332.46l-.006,2.758a.559.559,0,0,0,.255-.231l0-2.3A.571.571,0,0,0,1731.646,1332.46Z" transform="translate(-2174.147 -1250.893)" fill="#dd615b"/>
    <path id="Path_5531" data-name="Path 5531" d="M1392.338,1112.575l0-2.843h-.047l.005-2.822h-.254l-.005,2.842h.047l0,2.817h-.249l0,2.842h.254l.005-2.838Z" transform="translate(-1838.862 -1031.054)" fill="#dd615b"/>
    <path id="Path_5532" data-name="Path 5532" d="M1367.582,1109.663h-.047l.005-2.822h-.254l-.006,2.842h.047l-.005,2.821h.063l-.005,2.838h.254l.005-2.842h-.062Z" transform="translate(-1815.994 -1030.989)" fill="#dd615b"/>
    <path id="Path_5533" data-name="Path 5533" d="M1707.715,1291l0,2.759a.569.569,0,0,0,.254-.231l0-2.3A.563.563,0,0,0,1707.715,1291Z" transform="translate(-2151.858 -1212.274)" fill="#dd615b"/>
    <path id="Path_5534" data-name="Path 5534" d="M1344.44,1106.79h-.254l-.005,2.842h.047l0,2.817h-.029l0,2.842h.254l.005-2.838h.028l0-2.843h-.047Z" transform="translate(-1794.478 -1030.942)" fill="#dd615b"/>
    <path id="Path_5535" data-name="Path 5535" d="M1320.02,1106.731h-.254l-.006,2.842h.047l-.005,2.822h.255l0-2.842h-.047Z" transform="translate(-1771.731 -1030.886)" fill="#dd615b"/>
    <path id="Path_5536" data-name="Path 5536" d="M1282.58,1106.641h-.255l0,2.842h.047l-.005,2.822h.254l.005-2.842h-.047Z" transform="translate(-1736.856 -1030.802)" fill="#dd615b"/>
    <path id="Path_5537" data-name="Path 5537" d="M1247.52,1106.561h-.254l-.006,2.842h.047l-.006,2.822h.255l0-2.842h-.047Z" transform="translate(-1704.199 -1030.728)" fill="#dd615b"/>
    <path id="Path_5538" data-name="Path 5538" d="M1216.219,1106.481h-.254l0,2.842h.047l0,2.822h.254l.005-2.842h-.047Z" transform="translate(-1675.043 -1030.653)" fill="#dd615b"/>
    <path id="Path_5539" data-name="Path 5539" d="M1407.14,1106.931h-.254l-.005,2.843h.047l0,2.817h-.036l0,2.842h.254l0-2.838h.036l0-2.842h-.047Z" transform="translate(-1852.881 -1031.073)" fill="#dd615b"/>
    <path id="Path_5540" data-name="Path 5540" d="M1412.319,1069.263h-.2l0-2.772h-.254l-.005,2.843h.2l0,2.772h.047l0,2.822h.254l.005-2.842h-.047Z" transform="translate(-1857.519 -993.403)" fill="#dd615b"/>
    <rect id="Rectangle_2362" data-name="Rectangle 2362" width="2.842" height="0.254" transform="translate(-446.513 75.933) rotate(-89.86)" fill="#dd615b"/>
    <path id="Path_5541" data-name="Path 5541" d="M1382.479,1069.2h-.124l0,2.842h.047l-.006,2.822h.255l.005-2.843h-.047l0-2.751h.124l.005-2.842h-.254Z" transform="translate(-1830.031 -993.348)" fill="#dd615b"/>
    <rect id="Rectangle_2363" data-name="Rectangle 2363" width="2.842" height="0.254" transform="translate(-449.138 75.918) rotate(-89.85)" fill="#dd615b"/>
    <rect id="Rectangle_2364" data-name="Rectangle 2364" width="2.842" height="0.254" transform="translate(-450.802 75.922) rotate(-89.86)" fill="#dd615b"/>
    <rect id="Rectangle_2365" data-name="Rectangle 2365" width="2.842" height="0.254" transform="translate(-453.383 75.904) rotate(-89.87)" fill="#dd615b"/>
    <rect id="Rectangle_2366" data-name="Rectangle 2366" width="2.842" height="0.254" transform="translate(-455.781 75.901) rotate(-89.88)" fill="#dd615b"/>
    <rect id="Rectangle_2367" data-name="Rectangle 2367" width="2.842" height="0.254" transform="translate(-457.916 75.905) rotate(-89.86)" fill="#dd615b"/>
    <path id="Path_5542" data-name="Path 5542" d="M1419.76,1069.292h-.093l0,2.842h.046l0,2.817h-.239l-.006,2.842h.254l.005-2.838h.238l.005-2.842h-.047l0-2.752h.092l0-2.842h-.254Z" transform="translate(-1864.598 -993.431)" fill="#dd615b"/>
    <rect id="Rectangle_2368" data-name="Rectangle 2368" width="2.842" height="0.254" transform="translate(-444.051 75.734) rotate(-90)" fill="#dd615b"/>
    <path id="Path_5543" data-name="Path 5543" d="M1719.173,1211.622l0-2.822a.449.449,0,0,0-.1-.01h-.156l-.006,2.842h.16A.482.482,0,0,0,1719.173,1211.622Z" transform="translate(-2162.3 -1135.698)" fill="#dd615b"/>
    <path id="Path_5544" data-name="Path 5544" d="M1724.3,1211.928l0-2.3a.574.574,0,0,0-.254-.232l-.006,2.759A.563.563,0,0,0,1724.3,1211.928Z" transform="translate(-2167.069 -1136.266)" fill="#dd615b"/>
    <rect id="Rectangle_2369" data-name="Rectangle 2369" width="2.842" height="0.254" transform="translate(-443.817 73.096) rotate(-89.86)" fill="#dd615b"/>
    <rect id="Rectangle_2370" data-name="Rectangle 2370" width="2.842" height="0.254" transform="translate(-447.568 72.89) rotate(-90)" fill="#dd615b"/>
    <rect id="Rectangle_2371" data-name="Rectangle 2371" width="2.842" height="0.254" transform="translate(-448.968 73.085) rotate(-89.86)" fill="#dd615b"/>
    <rect id="Rectangle_2372" data-name="Rectangle 2372" width="2.842" height="0.254" transform="translate(-451.533 73.078) rotate(-89.86)" fill="#dd615b"/>
    <rect id="Rectangle_2373" data-name="Rectangle 2373" width="2.842" height="0.254" transform="translate(-453.935 73.073) rotate(-89.86)" fill="#dd615b"/>
    <rect id="Rectangle_2374" data-name="Rectangle 2374" width="2.842" height="0.254" transform="translate(-456.09 73.061) rotate(-89.88)" fill="#dd615b"/>
    <rect id="Rectangle_2375" data-name="Rectangle 2375" width="2.842" height="0.254" transform="translate(-442.998 73.099) rotate(-89.86)" fill="#dd615b"/>
    <rect id="Rectangle_2376" data-name="Rectangle 2376" width="2.842" height="0.254" transform="translate(-442.742 72.902) rotate(-90)" fill="#dd615b"/>
    <rect id="Rectangle_2377" data-name="Rectangle 2377" width="2.842" height="0.254" transform="translate(-441.95 73.09) rotate(-89.87)" fill="#dd615b"/>
    <path id="Path_5545" data-name="Path 5545" d="M1745.656,1167.37l-.005,2.842h.161a.48.48,0,0,0,.1-.01l0-2.823a.5.5,0,0,0-.1-.01Z" transform="translate(-2187.198 -1097.115)" fill="#dd615b"/>
    <path id="Path_5546" data-name="Path 5546" d="M1750.815,1168l-.005,2.759a.566.566,0,0,0,.255-.231l0-2.3A.565.565,0,0,0,1750.815,1168Z" transform="translate(-2192.004 -1097.703)" fill="#dd615b"/>
    <path id="Path_5547" data-name="Path 5547" d="M1392.524,910.106h.254l0-2.842h-.248l0-2.772h.249l0-2.842h-.254l-.005,2.838h-.248l0,2.842h.248Z" transform="translate(-1839.281 -839.859)" fill="#dd615b"/>
    <rect id="Rectangle_2378" data-name="Rectangle 2378" width="2.842" height="0.254" transform="translate(-447.622 70.242) rotate(-89.85)" fill="#dd615b"/>
    <rect id="Rectangle_2379" data-name="Rectangle 2379" width="2.842" height="0.254" transform="translate(-451.901 70.24) rotate(-89.86)" fill="#dd615b"/>
    <rect id="Rectangle_2380" data-name="Rectangle 2380" width="2.842" height="0.254" transform="translate(-454.482 70.222) rotate(-89.87)" fill="#dd615b"/>
    <rect id="Rectangle_2381" data-name="Rectangle 2381" width="2.842" height="0.254" transform="translate(-457.121 70.037) rotate(-90)" fill="#dd615b"/>
    <rect id="Rectangle_2382" data-name="Rectangle 2382" width="2.842" height="0.254" transform="translate(-459.029 70.212) rotate(-89.87)" fill="#dd615b"/>
    <path id="Path_5548" data-name="Path 5548" d="M1407.38,910.136h.225l0,2.838h.254l.005-2.842h-.225l0-2.838h-.035l0-2.772h.036l0-2.842h-.254l-.006,2.838h-.035l0,2.842h.035Z" transform="translate(-1853.319 -839.887)" fill="#dd615b"/>
    <rect id="Rectangle_2383" data-name="Rectangle 2383" width="2.842" height="0.254" transform="translate(-445.387 70.257) rotate(-89.89)" fill="#dd615b"/>
    <path id="Path_5549" data-name="Path 5549" d="M1694.758,1049.63h.044l.005-2.842h-.223l.035-.005,0-2.822a.445.445,0,0,0-.095-.01h-.159l0,2.842h.188l-.005,2.775h-.188l0,2.838h-.137l0-2.838h-.238l.005-2.772h.239l0-2.842h-.254l0,2.838h-.239l-.006,2.842h.239l0,2.777h.193l-.006,2.838h.255l0-2.838h.1a.505.505,0,0,0,.095-.01l.005-2.766h.1l0,2.735a.571.571,0,0,0,.254-.231l0-2.3A.571.571,0,0,0,1694.758,1049.63Z" transform="translate(-2138.836 -982.153)" fill="#dd615b"/>
    <rect id="Rectangle_2384" data-name="Rectangle 2384" width="2.842" height="0.254" transform="translate(-452.824 67.455) rotate(-89.88)" fill="#dd615b"/>
    <rect id="Rectangle_2385" data-name="Rectangle 2385" width="2.842" height="0.254" transform="translate(-455.474 67.271) rotate(-90)" fill="#dd615b"/>
    <rect id="Rectangle_2386" data-name="Rectangle 2386" width="2.842" height="0.254" transform="translate(-457.364 67.45) rotate(-89.86)" fill="#dd615b"/>
    <rect id="Rectangle_2387" data-name="Rectangle 2387" width="2.842" height="0.254" transform="translate(-443.755 67.471) rotate(-89.87)" fill="#dd615b"/>
    <rect id="Rectangle_2388" data-name="Rectangle 2388" width="2.842" height="0.254" transform="translate(-443.501 67.299) rotate(-90)" fill="#dd615b"/>
    <path id="Path_5550" data-name="Path 5550" d="M1726.926,1085.4l-.005,2.843h.159a.508.508,0,0,0,.1-.01l0-2.823a.5.5,0,0,0-.1-.01Z" transform="translate(-2169.751 -1020.763)" fill="#dd615b"/>
    <path id="Path_5551" data-name="Path 5551" d="M1732.345,1088.548l0-2.3a.565.565,0,0,0-.254-.233l-.005,2.759A.567.567,0,0,0,1732.345,1088.548Z" transform="translate(-2174.568 -1021.34)" fill="#dd615b"/>
    <rect id="Rectangle_2389" data-name="Rectangle 2389" width="2.842" height="0.254" transform="translate(-447.602 64.636) rotate(-89.86)" fill="#dd615b"/>
    <path id="Path_5552" data-name="Path 5552" d="M1368.46,901.581h-.254l-.005,2.842h.063l-.005,2.772h-.062l-.006,2.842h.255l.005-2.777h.062l.006-2.842h-.063Z" transform="translate(-1816.842 -839.794)" fill="#dd615b"/>
    <path id="Path_5553" data-name="Path 5553" d="M1344.793,904.368h-.028l0,2.842h.028l0,2.777h.254l0-2.842h-.028l.006-2.772h.028l0-2.842h-.254Z" transform="translate(-1795.018 -839.747)" fill="#dd615b"/>
    <rect id="Rectangle_2390" data-name="Rectangle 2390" width="2.842" height="0.254" transform="translate(-452.155 64.448) rotate(-90)" fill="#dd615b"/>
    <rect id="Rectangle_2391" data-name="Rectangle 2391" width="2.842" height="0.254" transform="translate(-454.713 64.441) rotate(-90)" fill="#dd615b"/>
    <rect id="Rectangle_2392" data-name="Rectangle 2392" width="2.842" height="0.254" transform="translate(-456.866 64.609) rotate(-89.85)" fill="#dd615b"/>
    <rect id="Rectangle_2393" data-name="Rectangle 2393" width="2.842" height="0.254" transform="translate(-459.012 64.603) rotate(-89.88)" fill="#dd615b"/>
    <rect id="Rectangle_2394" data-name="Rectangle 2394" width="2.842" height="0.254" transform="translate(-445.39 64.634) rotate(-89.85)" fill="#dd615b"/>
    <path id="Path_5554" data-name="Path 5554" d="M1708.165,1044.56l-.005,2.758a.56.56,0,0,0,.254-.231l0-2.3A.562.562,0,0,0,1708.165,1044.56Z" transform="translate(-2152.277 -982.721)" fill="#dd615b"/>
    <path id="Path_5555" data-name="Path 5555" d="M1754.047,1154.984l1.58.28a.669.669,0,0,1,.323.152.562.562,0,0,1,.184.291.429.429,0,0,1,.014.1.41.41,0,0,1-.007.1l-3.926,22.034a.582.582,0,0,1-.672.43l-.032-.005-1.58-.281-.031-.006a.574.574,0,0,1-.48-.635l3.926-22.034a.287.287,0,0,1,.009-.042l0-.018a.054.054,0,0,1,.007-.019.092.092,0,0,0,0-.014.453.453,0,0,1,.049-.092l.008-.013.01-.012.019-.024.013-.014.011-.011.023-.022.028-.023.023-.017h0l.016-.012a.483.483,0,0,1,.052-.03l.016-.008.016-.008.034-.014A.675.675,0,0,1,1754.047,1154.984Z" transform="translate(-2190.701 -1085.568)" fill="#f26a64"/>
    <path id="Path_5556" data-name="Path 5556" d="M1754.162,1318.7l-2.1,11.807a.56.56,0,0,1-.662.373l-.032-.005-1.58-.281-.031-.006a.556.556,0,0,1-.493-.578l1.844-10.355h.068A5.3,5.3,0,0,0,1754.162,1318.7Z" transform="translate(-2190.555 -1238.076)" fill="#fe7062"/>
    <rect id="Rectangle_2395" data-name="Rectangle 2395" width="0.254" height="2.842" transform="translate(-437.788 72.236) rotate(-79.88)" fill="#dd615b"/>
    <rect id="Rectangle_2396" data-name="Rectangle 2396" width="0.254" height="2.842" transform="translate(-437.942 73.083) rotate(-79.91)" fill="#dd615b"/>
    <rect id="Rectangle_2397" data-name="Rectangle 2397" width="0.254" height="2.842" transform="matrix(0.175, -0.984, 0.984, 0.175, -438.126, 74.095)" fill="#dd615b"/>
    <rect id="Rectangle_2398" data-name="Rectangle 2398" width="0.254" height="2.842" transform="matrix(0.175, -0.984, 0.984, 0.175, -438.404, 75.653)" fill="#dd615b"/>
    <rect id="Rectangle_2399" data-name="Rectangle 2399" width="0.254" height="2.842" transform="translate(-438.694 77.304) rotate(-79.91)" fill="#dd615b"/>
    <rect id="Rectangle_2400" data-name="Rectangle 2400" width="0.254" height="2.842" transform="matrix(0.176, -0.984, 0.984, 0.176, -439.131, 79.843)" fill="#dd615b"/>
    <rect id="Rectangle_2401" data-name="Rectangle 2401" width="0.254" height="2.842" transform="translate(-439.565 82.196) rotate(-79.91)" fill="#dd615b"/>
    <rect id="Rectangle_2402" data-name="Rectangle 2402" width="0.254" height="2.842" transform="translate(-439.934 84.314) rotate(-79.88)" fill="#dd615b"/>
    <rect id="Rectangle_2403" data-name="Rectangle 2403" width="0.254" height="2.842" transform="matrix(0.175, -0.984, 0.984, 0.175, -437.65, 71.424)" fill="#dd615b"/>
    <rect id="Rectangle_2404" data-name="Rectangle 2404" width="0.254" height="2.842" transform="matrix(0.176, -0.984, 0.984, 0.176, -437.539, 70.907)" fill="#dd615b"/>
    <rect id="Rectangle_2405" data-name="Rectangle 2405" width="0.254" height="2.842" transform="matrix(0.175, -0.984, 0.984, 0.175, -437.464, 70.376)" fill="#dd615b"/>
    <path id="Path_5557" data-name="Path 5557" d="M1806.37,1160.229l2.8.5.028-.157a.462.462,0,0,0,.007-.1l-2.779-.493a.482.482,0,0,0-.026.092Z" transform="translate(-2243.757 -1090.232)" fill="#dd615b"/>
    <path id="Path_5558" data-name="Path 5558" d="M1807.87,1155.752l2.716.48a.561.561,0,0,0-.184-.291l-2.261-.4A.566.566,0,0,0,1807.87,1155.752Z" transform="translate(-2245.155 -1086.096)" fill="#dd615b"/>
    <path id="Path_5559" data-name="Path 5559" d="M2462.64,1351.248h-9.617c-.516-.437.357-1.43,1.268-1.5a5.659,5.659,0,0,1,1.469.174c.132-1.758.891-9.662,3.736-9.343,3.2.356,0,3.48-.9,5.33a43.912,43.912,0,0,0-1.7,4.262c.26.056.53.112.8.162.424-1.3,2-5.688,4.013-5.433,2.358.3,1.41,2.056-.262,3.1-1.226.767-2.732,1.858-3.448,2.385a10.171,10.171,0,0,0,1.881.151A4.048,4.048,0,0,1,2462.64,1351.248Z" transform="translate(-2845.954 -1258.45)" fill="#82b378"/>
    <path id="Path_5560" data-name="Path 5560" d="M713.971,1395.751c-.382-.6-1.532-2.158-3.062-1.952-1.669.225,1.842,1.325,2.917,1.956a1.781,1.781,0,0,1-.595-.068,4.014,4.014,0,0,0-2.343.407h6.841a1.086,1.086,0,0,0-.489-.626,1.219,1.219,0,0,0-.629-.056c.406-.479.685-2.011-.443-1.617-.827.288-.822,1.224-.743,1.778-.176.027-.355.056-.531.081-.343-1.736-1.545-6.823-3.987-6.958-2.475-.137,2.1,5.276,3.622,7.007C714.333,1395.725,714.147,1395.743,713.971,1395.751Z" transform="translate(-1222.689 -1303.272)" fill="#82b378"/>
    <circle id="Ellipse_489" data-name="Ellipse 489" cx="9.851" cy="9.851" r="9.851" transform="translate(-461.783 42.306) rotate(-45)" fill="#e2810e"/>
    <circle id="Ellipse_490" data-name="Ellipse 490" cx="9.851" cy="9.851" r="9.851" transform="translate(-460.627 49.751) rotate(-75.28)" fill="#fe7062"/>
    <path id="Path_5561" data-name="Path 5561" d="M1521.441,653.937a8.973,8.973,0,1,1,4.318-1.114A8.977,8.977,0,0,1,1521.441,653.937Zm-.027-17.418a8.466,8.466,0,1,0,2.358.337,8.465,8.465,0,0,0-2.358-.337Z" transform="translate(-1969.974 -602.142)" fill="#dd615b"/>
    <path id="Path_5562" data-name="Path 5562" d="M1589.607,680.664a1.466,1.466,0,0,0-.27-.446,1.075,1.075,0,0,0-.4-.274,2.047,2.047,0,0,0-.574-.128,5.411,5.411,0,0,0-.783,0,14.019,14.019,0,0,1-1.439,0,4.491,4.491,0,0,1-1.2-.217,2.631,2.631,0,0,1-.939-.548,2.968,2.968,0,0,1-.873-2.08,2.5,2.5,0,0,1,.237-1.013,3.107,3.107,0,0,1,.643-.9,4.161,4.161,0,0,1,1.02-.726l-.56-1.38,1.111-.451.568,1.4a3.739,3.739,0,0,1,1.211-.123,2.817,2.817,0,0,1,1.968.97,3.76,3.76,0,0,1,.657,1.09l-2.007.815a1.823,1.823,0,0,0-.814-1.018,1.27,1.27,0,0,0-1.077-.01,1.62,1.62,0,0,0-.5.306,1.1,1.1,0,0,0-.274.39,1.013,1.013,0,0,0-.069.445,1.493,1.493,0,0,0,.111.473,1.379,1.379,0,0,0,.245.4,1.011,1.011,0,0,0,.385.26,2.022,2.022,0,0,0,.577.126,6.809,6.809,0,0,0,.822.017q.775-.021,1.435.018a4.517,4.517,0,0,1,1.2.224,2.536,2.536,0,0,1,1.6,1.549,2.708,2.708,0,0,1,.216,1.1,2.466,2.466,0,0,1-.242,1.008,3.015,3.015,0,0,1-.656.883,4.488,4.488,0,0,1-1.028.719l.521,1.283-1.111.456-.519-1.277a5.021,5.021,0,0,1-1.216.2,3.194,3.194,0,0,1-1.181-.171,2.843,2.843,0,0,1-1.04-.648,3.476,3.476,0,0,1-.789-1.227l2.006-.815a2.129,2.129,0,0,0,.439.712,1.371,1.371,0,0,0,.543.351,1.343,1.343,0,0,0,.594.06,2.339,2.339,0,0,0,.589-.153,1.92,1.92,0,0,0,.539-.316,1.288,1.288,0,0,0,.319-.4,1.009,1.009,0,0,0,.107-.453A1.229,1.229,0,0,0,1589.607,680.664Z" transform="translate(-2035.814 -636.157)" fill="#dd615b"/>
    <path id="Path_5563" data-name="Path 5563" d="M1724.054,671.141c-.411-.291-1.347-.931-1.4-.789a.629.629,0,0,0,.127.458,4.045,4.045,0,0,0-2.5-.089,1.02,1.02,0,0,0-.668.44.45.45,0,0,0,.156.7c.693.43.492.173,1.455.8a2.833,2.833,0,0,0,2.846.347l.945-.158.117-1.554S1724.6,671.232,1724.054,671.141Z" transform="translate(-2162.854 -634.137)" fill="#ffb27d"/>
    <path id="Path_5564" data-name="Path 5564" d="M2069.043,424.289s-2.228,2.643-5.065,1.537a8.541,8.541,0,0,1-.616-2.564c0-.134,0-.264,0-.387-.015-1.225-.057-1.912-.057-1.912h0c.13-.054,4.338-1.782,4.333-1.638A7.467,7.467,0,0,0,2069.043,424.289Z" transform="translate(-2483.081 -400.322)" fill="#ffb27d"/>
    <path id="Path_5565" data-name="Path 5565" d="M2067.184,430.567a6.57,6.57,0,0,1-3.857,2.761c-.015-1.225-.057-1.913-.057-1.913h0C2063.389,431.381,2067.3,430.343,2067.184,430.567Z" transform="translate(-2483.053 -410.773)" fill="#ed975d"/>
    <path id="Path_5566" data-name="Path 5566" d="M2040.393,335.463s4.732,1.112,5.38-1.845,1.694-4.806-1.3-5.641-3.83.164-4.286,1.1S2039.179,335.1,2040.393,335.463Z" transform="translate(-2461.057 -314.951)" fill="#ffb27d"/>
    <path id="Path_5567" data-name="Path 5567" d="M2024.1,302.887c.064.042,1.082.354,3.011-3.487a3.345,3.345,0,0,0-.2-3.06c-.706-1.153-3.208-2.056-5.287-2.453s-2.577.775-3.067,1.951a6.348,6.348,0,0,1-2,2.25c1.793,1,3.952-.43,4.7-.2s1.012,1.414,1.068,1.793.142.691,1.083.354.425,1.333.274,1.652C2023.686,301.691,2023.558,302.542,2024.1,302.887Z" transform="translate(-2439.544 -283.414)" fill="#a9453d"/>
    <path id="Path_5568" data-name="Path 5568" d="M2303.232,1406.468h2.865c.6,0,1.268-.6,1.435-1.7s1.4-1.7,1.67-2.6-1.1-2.17-1.1-2.17l-.229-.295-.237-.306-2.271.534s-.055.541-.091,1.228q-.043.787-.009,1.576c.068,1.2-.337,2.5-1.4,2.73S2303.232,1406.468,2303.232,1406.468Z" transform="translate(-2706.487 -1313.237)" fill="#2c3a64"/>
    <path id="Path_5569" data-name="Path 5569" d="M2013.35,1446.459h7.6a.669.669,0,0,0,.162-.047c.507-.254.348-2.193.287-2.8-.011-.111-.02-.176-.02-.176s-2.673-2.137-3.039-.5c-.011.052-.025.1-.039.151h0c-.464,1.531-2.536,2.226-3.734,2.42A1.3,1.3,0,0,0,2013.35,1446.459Z" transform="translate(-2436.553 -1353.228)" fill="#2c3a64"/>
    <path id="Path_5570" data-name="Path 5570" d="M2035.691,853.951s.406,5.061.882,11.144c.648,8.263,1.427,18.414,1.5,20.337.133,3.339.668,8.681.668,8.681a4.2,4.2,0,0,0,3.806.734,87.381,87.381,0,0,0,2.907-15.692c.01-.133.02-.265.031-.4.6-8.212,1.534-25.506,1.534-25.506Z" transform="translate(-2457.363 -804.521)" fill="#2b478b"/>
    <path id="Path_5571" data-name="Path 5571" d="M2035.691,853.951s.406,5.061.882,11.144l8.885,14.059c.01-.133.02-.265.031-.4.6-8.212,1.534-25.506,1.534-25.506Z" transform="translate(-2457.363 -804.521)" fill="#233862"/>
    <path id="Path_5572" data-name="Path 5572" d="M2062.72,827.307s7.312,18.328,12.119,26.941,6.31,11.017,6.31,11.017,2.754-1.1,3.005-1.85c0,0-1.839-16.628-5.058-20.682-1.82-2.291-3.956-9.164-4.056-11.568s-.651-7.165-.651-7.165Z" transform="translate(-2482.541 -777.275)" fill="#2b478b"/>
    <path id="Path_5573" data-name="Path 5573" d="M2305.221,817.791l.078,1.179a2.541,2.541,0,0,0,1.4,3.169s.933.376.97-.35-.082-.452-.006-1.475a2.353,2.353,0,0,0-1-2.313l-.554-.64Z" transform="translate(-2708.371 -771.09)" fill="#ffb27d"/>
    <path id="Path_5574" data-name="Path 5574" d="M2133.1,519.46c-.809.26-.938.2-.938.2s-3.939-7.171-4.338-7.828-8.36-8.041-8.36-8.041l2.046-7.632s9.058,11.729,10.036,13.413c1.617,2.781,2.563,9.241,2.563,9.241A2.371,2.371,0,0,1,2133.1,519.46Z" transform="translate(-2535.392 -471.9)" fill="#1e3d70"/>
    <path id="Path_5575" data-name="Path 5575" d="M2013.04,483.548c.028,1.567.119,3.329.242,5.118l.022.319c.079,1.109.164,2.22.262,3.3.039.435.081.864.124,1.286l.007.056a4.42,4.42,0,0,0,.041.486c.4,4.058.818,7.264.9,7.314a.45.45,0,0,0,.311.079c1.065-.137,4.24.108,6.84-.458a19.715,19.715,0,0,0,6.084-2.523c.266-.157.872-.573.823-.884-.049-.343-.137-.835-.252-1.456a78.838,78.838,0,0,1-1.307-10.218q-.069-1.214-.2-2.4a36.3,36.3,0,0,0-1.061-5.72c-.891-3.21-2.2-5.668-3.844-6.629-.214-.121-1.371.617-2.431,1.3a4.687,4.687,0,0,1-3.015.714l-.883.978a9.864,9.864,0,0,0-2.519,5.25c-.023.174-.043.358-.06.555A34.936,34.936,0,0,0,2013.04,483.548Z" transform="translate(-2436.255 -448.66)" fill="#2a4e96"/>
    <path id="Path_5576" data-name="Path 5576" d="M2013.04,578.782c.028,1.567.119,3.329.242,5.118l.022.319a16.371,16.371,0,0,0,7.016-10.769,16.641,16.641,0,0,0-7.2,1.8A34.72,34.72,0,0,0,2013.04,578.782Z" transform="translate(-2436.256 -543.894)" fill="#1e3d70"/>
    <path id="Path_5577" data-name="Path 5577" d="M1788.922,525.5c-.062-.9.4-1.052.4-1.052s9.166-1.661,9.945-1.906,7.443-7.176,7.443-7.176,2.554-2.878,4.645-2.244a3.929,3.929,0,0,1,2.769,3.321,3.975,3.975,0,0,1-1.85,4.083c-3.128,1.919-9.388,5.7-10.865,6.132-3.283.959-12.1.077-12.1.077A2.847,2.847,0,0,1,1788.922,525.5Z" transform="translate(-2227.499 -487.614)" fill="#2a4e96"/>
    <path id="Path_5578" data-name="Path 5578" d="M1370.972,815.692v34.071a3.625,3.625,0,0,1-3.613,3.614h-35.021a3.647,3.647,0,0,1-.883-.108,3.723,3.723,0,0,1-2.4-1.889c-.011-.021-.021-.041-.032-.063a3.641,3.641,0,0,1-.374-1.38c-.007-.084-.01-.169-.01-.254V815.911a5.593,5.593,0,0,1,2.6-4.707h0a4.844,4.844,0,0,0,2.013-5.533h33.107a4.841,4.841,0,0,0,1.841,5.421h0c.084.057.169.114.256.166h0A5.2,5.2,0,0,1,1370.972,815.692Z" transform="translate(-1798.763 -760.201)" fill="#ed9f4a" opacity="0.2"/>
    <path id="Path_5579" data-name="Path 5579" d="M1637.5,815.692v34.071a3.626,3.626,0,0,1-3.358,3.6c-.084.006-.169.01-.255.01h-15.418a3.705,3.705,0,0,1-3.693-3.694V815.911a5.59,5.59,0,0,1,2.6-4.707,4.84,4.84,0,0,0,2.008-5.533h13.506a4.841,4.841,0,0,0,2.1,5.588A5.2,5.2,0,0,1,1637.5,815.692Z" transform="translate(-2065.296 -760.201)" fill="#ed9f4a" opacity="0.2"/>
    <path id="Path_5580" data-name="Path 5580" d="M1403.609,811.091c-1.081-.648-5.766-2.943-17.68-2.846-13.645.112-19.112,2.87-19.28,2.956a4.844,4.844,0,0,0,2.011-5.531h33.107A4.841,4.841,0,0,0,1403.609,811.091Z" transform="translate(-1834.169 -760.201)" fill="#ed9f4a" opacity="0.6"/>
    <path id="Path_5581" data-name="Path 5581" d="M1419.666,798.464v1.545a.274.274,0,0,1-.274.274h-34.057a.274.274,0,0,1-.274-.274v-1.545a.277.277,0,0,1,.274-.274h34.057A.274.274,0,0,1,1419.666,798.464Z" transform="translate(-1851.318 -753.234)" fill="#2b478b"/>
    <path id="Path_5582" data-name="Path 5582" d="M1707.361,798.464v1.545a.274.274,0,0,1-.274.274h-12.892a.278.278,0,0,1-.274-.274v-1.545a.278.278,0,0,1,.274-.274h12.888a.274.274,0,0,1,.278.274Z" transform="translate(-2139.013 -753.233)" fill="#233862"/>
    <path id="Path_5583" data-name="Path 5583" d="M1502.451,891.106s-.878,1.233-1.682,1.253a5.841,5.841,0,0,1-2.029-.572s-.739-1.644-.238-2.292a1.078,1.078,0,0,1,1.028.169,1.542,1.542,0,0,1,.274.26.862.862,0,0,0,.423.287c.574.175,1.255-.236,1.507.16a2.686,2.686,0,0,0,.444.526A2.011,2.011,0,0,0,1502.451,891.106Z" transform="translate(-1956.823 -838.224)" fill="#f9ddbf"/>
    <path id="Path_5584" data-name="Path 5584" d="M1391.51,939.791s3.1-7.517,8.687-7.66c0,0,5.154.573,5.441,7.66Z" transform="translate(-1857.325 -877.996)" fill="#f9ddbf"/>
    <path id="Path_5585" data-name="Path 5585" d="M1495.841,922.295a8.269,8.269,0,0,0,2.929.206.691.691,0,0,0-.838-.8,2,2,0,0,1-1.312-.343C1496.266,921.172,1495.744,921.9,1495.841,922.295Z" transform="translate(-1954.496 -867.931)" fill="#f1a34f"/>
    <path id="Path_5586" data-name="Path 5586" d="M1516.453,894.324c-.143.107-.583-1.514-.583-1.514a1.54,1.54,0,0,1,.274.26.862.862,0,0,0,.423.286C1516.564,893.4,1516.592,894.219,1516.453,894.324Z" transform="translate(-1973.163 -841.37)" fill="#e5c1a1"/>
    <path id="Path_5587" data-name="Path 5587" d="M1537.916,903.646a9.212,9.212,0,0,1-1.207.639c-.141,0,.763-1.165.763-1.165A2.7,2.7,0,0,0,1537.916,903.646Z" transform="translate(-1992.56 -850.973)" fill="#e5c1a1"/>
    <path id="Path_5588" data-name="Path 5588" d="M1435.726,967.854c-.058-.049,2.193-3.317,2.816-3.341s2.014.716,3.024.811,1.987-.19,2.178.406.716,2.712.394,3.05S1436.964,968.912,1435.726,967.854Z" transform="translate(-1898.51 -908.158)" fill="#e5c1a1"/>
    <path id="Path_5589" data-name="Path 5589" d="M1333.517,1125.615c-.18.094-.36.183-.542.27s-.349.2-.529.292a14.41,14.41,0,0,1-2.548,1.044,3.735,3.735,0,0,1-.792-1.028c-.137.073-.274.145-.416.214V1100.7a14.622,14.622,0,0,1,1.889.38,13.871,13.871,0,0,1,8.447,6.4A13.03,13.03,0,0,1,1333.517,1125.615Z" transform="translate(-1798.81 -1035.014)" fill="#f26a64"/>
    <path id="Path_5590" data-name="Path 5590" d="M1076.03,1086.268a14.014,14.014,0,1,0-5.508,19.039A14.015,14.015,0,0,0,1076.03,1086.268Z" transform="translate(-1538.974 -1014.816)" fill="#dd615b"/>
    <path id="Path_5591" data-name="Path 5591" d="M1055.424,1113.6q-.259.158-.527.305c-.06.034-.121.069-.181.1-.137.073-.274.145-.416.214a14.016,14.016,0,0,1-14.364-23.955,14.2,14.2,0,0,1,1.43-.9c.18-.1.36-.194.543-.284s.355-.172.534-.251a14.015,14.015,0,0,1,12.981,24.777Z" transform="translate(-1524.42 -1022.829)" fill="#fe7062"/>
    <path id="Path_5592" data-name="Path 5592" d="M1065.842,1133.086a12.786,12.786,0,1,1,6.146-1.592A12.786,12.786,0,0,1,1065.842,1133.086Zm-10.533-6.978a12.007,12.007,0,1,0-1.019-9.133A12.007,12.007,0,0,0,1055.309,1126.108Z" transform="translate(-1542.032 -1041.359)" fill="#ef645e"/>
    <path id="Path_5593" data-name="Path 5593" d="M1166.057,1170.246c-.027-.068-.057-.137-.087-.2a3.671,3.671,0,0,0-.85-1.214,3.787,3.787,0,0,0-1.338-.787,6.409,6.409,0,0,0-1.7-.319q-.939-.057-2.042-.027a9.868,9.868,0,0,1-1.165-.023,2.911,2.911,0,0,1-.822-.18,1.441,1.441,0,0,1-.548-.371,1.959,1.959,0,0,1-.348-.574,2.139,2.139,0,0,1-.158-.674,1.444,1.444,0,0,1,.1-.634,1.541,1.541,0,0,1,.391-.553,2.272,2.272,0,0,1,.715-.435,1.8,1.8,0,0,1,1.531.014,2.609,2.609,0,0,1,1.157,1.449l2.856-1.159a5.349,5.349,0,0,0-.935-1.55,4.008,4.008,0,0,0-2.8-1.381,5.3,5.3,0,0,0-1.723.176l-.809-1.991-1.581.642.8,1.963a5.929,5.929,0,0,0-1.451,1.033,4.44,4.44,0,0,0-.914,1.275,3.55,3.55,0,0,0-.336,1.439,4.225,4.225,0,0,0,1.243,2.959,3.737,3.737,0,0,0,1.336.783,6.343,6.343,0,0,0,1.7.308,19.94,19.94,0,0,0,2.047,0,7.5,7.5,0,0,1,1.114.008,2.907,2.907,0,0,1,.816.181,1.547,1.547,0,0,1,.572.388,2.105,2.105,0,0,1,.384.636,1.751,1.751,0,0,1,.137.676,1.441,1.441,0,0,1-.152.645,1.826,1.826,0,0,1-.453.569,2.734,2.734,0,0,1-.767.449,3.283,3.283,0,0,1-.838.218,1.923,1.923,0,0,1-.845-.084,1.974,1.974,0,0,1-.771-.5,3.041,3.041,0,0,1-.625-1.013l-2.855,1.159a4.929,4.929,0,0,0,1.123,1.745,4.044,4.044,0,0,0,1.479.922,4.526,4.526,0,0,0,1.681.243,7.124,7.124,0,0,0,1.731-.287l.738,1.818,1.57-.638-.741-1.826a6.331,6.331,0,0,0,1.466-1.023,4.307,4.307,0,0,0,.885-1.155c.017-.033.034-.069.05-.1a3.523,3.523,0,0,0,.343-1.433A3.862,3.862,0,0,0,1166.057,1170.246Z" transform="translate(-1636.087 -1090.074)" fill="#dd615b"/>
    <path id="Path_5594" data-name="Path 5594" d="M1017.429,571.547a26.3,26.3,0,0,0-3.924,1.919c-1.771,1.965-1.266,4.527-.252,4.552.65.016.524,1.1.524,1.1l7.236-3.062S1020.144,570.968,1017.429,571.547Z" transform="translate(-1504.131 -542.079)" fill="#2c3a64"/>
    <path id="Path_5595" data-name="Path 5595" d="M962.449,539.67a2.593,2.593,0,0,0-2.893-2.82,3.7,3.7,0,0,1,1.449.776,3.727,3.727,0,0,0-4.2.633c-2.187,1.813-.828,6.36-1.493,7.223s-3.255,1.036-2.938,3.827,8.223,6.287,7.712,8.6c0,0,3.1-4.553.883-6.63a4.1,4.1,0,0,1,1.19,2.225s.292-2.359-1.209-3.115a5.541,5.541,0,0,1-2.3-3.547C958.766,546.4,962.449,539.67,962.449,539.67Z" transform="translate(-1448.259 -509.802)" fill="#2c3a64"/>
    <path id="Path_5596" data-name="Path 5596" d="M983.619,741.017a2.8,2.8,0,0,0-4.955-1.155,2.527,2.527,0,0,0-.5,1.229c-.328,2.656,3.918,13.474,4.527,14.453,1.107,1.782,7.626,7.9,7.626,7.9l1.2-.728s-4.624-7.828-5.34-8.561C985.349,753.3,984.539,745.459,983.619,741.017Z" transform="translate(-1472.288 -697.885)" fill="#ed985f"/>
    <path id="Path_5597" data-name="Path 5597" d="M1149.06,1073.531s1.754-1.151,2.418-1.077,2.585.627,2.609.909-2.142.459-2.287.617-1.615,1.135-2.147.828S1149.06,1073.531,1149.06,1073.531Z" transform="translate(-1631.49 -1008.7)" fill="#ed985f"/>
    <path id="Path_5598" data-name="Path 5598" d="M728.045,930.443l-1.566-.23a18.519,18.519,0,0,1-6.052-12,13.984,13.984,0,0,1-.038-2.415.423.423,0,0,0-.055-.267h0c-.169-.258-.589-.906-1.157-1.827s-1.518-2.622-2.572-4.547c-1.9-3.466-4.111-7.611-4.869-8.932-2.417-4.207-1.252-7.037-1.252-7.037s6.742-.666,8.589-2.282l.665,1.028s1.461,6.467,1.392,6.5q.108.329.219.672a112.54,112.54,0,0,1,3.2,11.627,19.258,19.258,0,0,1,.506,5.023,8.783,8.783,0,0,0,.119,1.841C725.829,922.232,728.045,930.443,728.045,930.443Z" transform="translate(-1222.706 -839.6)" fill="#2b478b"/>
    <path id="Path_5599" data-name="Path 5599" d="M929.186,1447.307h-6.536a3.587,3.587,0,0,1,.184-1.752c.327-.725.793-.747.059-1.885a4,4,0,0,0,2.7.48,7.973,7.973,0,0,0,1.133,1.725C927.15,1446.179,929.055,1446.07,929.186,1447.307Z" transform="translate(-1420.561 -1354.482)" fill="#233862"/>
    <path id="Path_5600" data-name="Path 5600" d="M721.331,899.074c-.571,3.152-1.919,8.389-4.745,10.057-1.9-3.466-4.112-7.611-4.869-8.932-2.417-4.207-1.252-7.037-1.252-7.037s6.742-.666,8.589-2.283l.665,1.028s1.461,6.467,1.392,6.5Q721.22,898.732,721.331,899.074Z" transform="translate(-1222.687 -839.572)" fill="#233862"/>
    <path id="Path_5601" data-name="Path 5601" d="M999.193,750.39a6.978,6.978,0,0,1,1.346,2.112s-1.474,4.234-4.92,4.764C995.62,757.266,998.346,750.389,999.193,750.39Z" transform="translate(-1488.564 -708.709)" fill="#dd615b"/>
    <path id="Path_5602" data-name="Path 5602" d="M582.91,875.132l.022-1.223c-2.439.307-8.4-2.909-8.4-2.909s-2.548,1.695-2.9,6.534c-.171,2.363-1.248,12.352-1.37,15.335-.043,1.081-.058,1.85-.062,2.161h0a.423.423,0,0,1-.1.251,13.987,13.987,0,0,0-1.32,2.023c-3.716,6.914-1.773,16.309-1.773,16.309l.863-.219s3.142-9.74,5.2-13.953A8.78,8.78,0,0,1,574,897.85a19.212,19.212,0,0,0,2.389-4.448,116.908,116.908,0,0,0,4.043-12.109C580.5,881.31,582.91,875.132,582.91,875.132Z" transform="translate(-1088.848 -821.055)" fill="#2b478b"/>
    <path id="Path_5603" data-name="Path 5603" d="M983.759,684.693c-3.981-.913-1.439-6.51-1.207-6.41.548-.112,1.763-1.081,2.847-2.973l.146.127,2.446,2.144s-.565.834-1.041,1.651a3.77,3.77,0,0,0-.637,1.486C986.51,680.872,984.821,684.937,983.759,684.693Z" transform="translate(-1475.448 -638.774)" fill="#ffb27d"/>
    <path id="Path_5604" data-name="Path 5604" d="M1041.831,679.314s-.566.833-1.041,1.65c-1.52-.937-1.522-2.819-1.4-3.794Z" transform="translate(-1529.288 -640.507)" fill="#ed985f"/>
    <path id="Path_5605" data-name="Path 5605" d="M1040.522,620.974s-3.692-2.056-2.377-4.333,1.723-4.079,4.136-2.864,2.365,2.347,2.111,3.215S1041.515,621.449,1040.522,620.974Z" transform="translate(-1527.911 -581.092)" fill="#ffb27d"/>
    <path id="Path_5606" data-name="Path 5606" d="M1039.741,611.467c-.169-1.012-.685-1.109-1.042-1.041a2.952,2.952,0,0,0-3.59-1.375,5.028,5.028,0,0,1-2.91,1.747s.428.8,2.193,1.29a3.029,3.029,0,0,0,1.74-.137,9.856,9.856,0,0,1-2.5.944c2.326.213,4.538-1.914,4.768-2.141a3.3,3.3,0,0,1,.183,1.523c-.153.685-.761,1.927-.39,2.088C1038.191,614.365,1040,612.985,1039.741,611.467Z" transform="translate(-1522.637 -576.899)" fill="#2c3a64"/>
    <path id="Path_5607" data-name="Path 5607" d="M560.478,1446.664h-6.536a3.584,3.584,0,0,1,.185-1.752c.327-.725.839-1.055.717-1.932a2.351,2.351,0,0,0,2.037.779,7.16,7.16,0,0,0,1.134,1.47C558.441,1445.536,560.346,1445.428,560.478,1446.664Z" transform="translate(-1077.118 -1353.84)" fill="#233862"/>
    <path id="Path_5608" data-name="Path 5608" d="M706.826,714.86a15.937,15.937,0,0,1-3.229.585,21.89,21.89,0,0,0-4.422.685.994.994,0,0,0-.637.515,12.042,12.042,0,0,1-2.181,3.08c-11.375-.518-12.627-5.276-12.627-5.276,7.656-8.9,20.621-11.482,20.621-11.482s.926-.393,3.258,1.46c1.556,1.238,1.351,1.713,1.351,1.713S709.3,713.994,706.826,714.86Z" transform="translate(-1198.046 -664.504)" fill="#fe7062"/>
    <path id="Path_5609" data-name="Path 5609" d="M913.039,759.63a21.907,21.907,0,0,0-4.422.685,18.119,18.119,0,0,1,2.3-9.945S912.663,757.482,913.039,759.63Z" transform="translate(-1407.488 -708.691)" fill="#dd615b"/>
    <path id="Path_5610" data-name="Path 5610" d="M935.964,734.36s-4.307.426-4.652,3.221,4.129,14.2,4.77,15.23c1.165,1.879,8.037,8.32,8.037,8.32l1.266-.768s-4.873-8.249-5.627-9.021C938.573,750.135,937.423,735.33,935.964,734.36Z" transform="translate(-1428.645 -693.778)" fill="#ffb27d"/>
    <path id="Path_5611" data-name="Path 5611" d="M921.1,730.166c.012.063,3.974,1.294,6.526,0,0,0,.548-5.886-2.5-5.566s-4.849,1.278-4.926,2.736A5.155,5.155,0,0,0,921.1,730.166Z" transform="translate(-1418.309 -684.675)" fill="#f26a64"/>
    <path id="Path_5612" data-name="Path 5612" d="M1112.75,1093.358s1.545-1.418,2.212-1.453,2.652.206,2.721.48-2.039.8-2.157.973-1.411,1.381-1.987,1.165S1112.75,1093.358,1112.75,1093.358Z" transform="translate(-1597.667 -1026.819)" fill="#ffb27d"/>
    <path id="Path_5613" data-name="Path 5613" d="M-308.52,253.8" transform="translate(-273.79 -246.148)" fill="#fe7062"/>
  </g>
</svg>
