<svg id="station-wagon" xmlns="http://www.w3.org/2000/svg" width="89.144" height="31.5" viewBox="0 0 89.144 31.5">
  <path id="Path_5413" data-name="Path 5413" d="M266.278,15.575H245.385V14.182l-1.393-6.059.112-1.365q1.483.128,2.842.294c12.369,1.559,19.333,8.523,19.333,8.523Zm0,0" transform="translate(-201.51 -5.668)" fill="#5d9cec"/>
  <path id="Path_5414" data-name="Path 5414" d="M172.642,12.292v1.393H155.927V5.913l-.014-1.393a152.257,152.257,0,0,1,15.447.348l-.112,1.365Zm0,0" transform="translate(-128.767 -3.778)" fill="#5d9cec"/>
  <path id="Path_5415" data-name="Path 5415" d="M86.274,12.53v1.393H73.736c-5.572,0,1.393-6.965,1.393-6.965l1.686-1.921V5.022c2.41-.112,6.562-.223,9.445-.265l.014,1.393Zm0,0" transform="translate(-59.114 -4.016)" fill="#5d9cec"/>
  <path id="Path_5416" data-name="Path 5416" d="M274.762,20.934h2.885l1.849-6.9c-.855-.283-1.738-.552-2.676-.786Zm0,0" transform="translate(-226.922 -11.026)" fill="#87bcf4"/>
  <path id="Path_5417" data-name="Path 5417" d="M295.473,25.7h.722l1.728-6.448c-.215-.081-.437-.155-.659-.235Zm0,0" transform="translate(-244.027 -15.794)" fill="#87bcf4"/>
  <path id="Path_5418" data-name="Path 5418" d="M186.273,13.836h2.884l2.438-9.095c-.947-.035-1.893-.072-2.861-.089Zm0,0" transform="translate(-153.84 -3.929)" fill="#87bcf4"/>
  <path id="Path_5419" data-name="Path 5419" d="M206.977,14.378h.722l2.423-9.039c-.237-.012-.474-.022-.713-.031Zm0,0" transform="translate(-170.94 -4.471)" fill="#87bcf4"/>
  <path id="Path_5420" data-name="Path 5420" d="M102.1,13.836h2.884l2.438-9.095c-.947-.035-1.893-.072-2.861-.089Zm0,0" transform="translate(-84.327 -3.929)" fill="#87bcf4"/>
  <path id="Path_5421" data-name="Path 5421" d="M122.809,14.378h.722l2.423-9.039c-.237-.012-.474-.022-.713-.031Zm0,0" transform="translate(-101.426 -4.471)" fill="#87bcf4"/>
  <path id="Path_5422" data-name="Path 5422" d="M89.005,18.346l-4.179-5.572a.7.7,0,0,0-.407-.262A134.886,134.886,0,0,0,65.06,9.72,36.1,36.1,0,0,0,45.53,1.18c-.91-.116-1.871-.212-2.864-.3a.712.712,0,0,0-.226-.02C37.745.488,32.281.441,27.2.543c-.017,0-.029-.01-.044-.01s-.035.011-.052.011c-8.909.18-16.588.8-16.719.808a.705.705,0,0,0-.473.242l-8.357,9.75a.706.706,0,0,0-.167.454v5.407L.072,19.846a.7.7,0,0,0-.046.5l1.393,4.875a.7.7,0,0,0,.5.485c.117.029,2.967.718,11.313.718a.7.7,0,1,0,0-1.393h0v0a6.268,6.268,0,1,1,12.536,0v0h0a.7.7,0,0,0,0,1.393h39a.7.7,0,0,0,0-1.393h0v0a6.268,6.268,0,0,1,12.536,0l-.088.011a.7.7,0,0,0,.085,1.387.633.633,0,0,0,.088-.005l11.145-1.393a.7.7,0,0,0,.61-.692V18.764a.694.694,0,0,0-.139-.418ZM45.356,2.563A36.155,36.155,0,0,1,62.88,9.71H44.471L43.312,2.342c.7.064,1.386.138,2.044.222Zm-17.5-.638c4.7-.082,9.678-.035,14.024.294L43.06,9.71h-15.2ZM14.622,9.71c-.365,0-1-.048-1.131-.363-.444-1.054,1.972-4.481,4.526-7.148,2.141-.1,5.934-.191,8.445-.248V9.709H14.622Zm0,0" transform="translate(0 -0.497)" fill="#5c5df1"/>
  <path id="Path_5423" data-name="Path 5423" d="M384.5,112.309a6.274,6.274,0,0,1-12.481,0c-.014-.209-.028-.42-.028-.642a6.268,6.268,0,0,1,12.536,0C384.528,111.889,384.515,112.1,384.5,112.309Zm0,0" transform="translate(-307.224 -87.134)" fill="#ccd1d9"/>
  <path id="Path_5424" data-name="Path 5424" d="M374.957,115.343a6.965,6.965,0,1,1,6.964-6.965A6.973,6.973,0,0,1,374.957,115.343Zm0-12.536a5.572,5.572,0,1,0,5.572,5.572A5.578,5.578,0,0,0,374.957,102.807Zm0,0" transform="translate(-303.92 -83.843)" fill="#656d78"/>
  <g id="Group_4051" data-name="Group 4051" transform="translate(66.858 20.357)">
    <path id="Path_5425" data-name="Path 5425" d="M404.9,138.807a.7.7,0,0,1-.7-.7.69.69,0,0,1,.688-.7h.016a.7.7,0,0,1,0,1.393Zm0,0" transform="translate(-400.677 -133.932)" fill="#aab2bd"/>
    <path id="Path_5426" data-name="Path 5426" d="M404.688,120.2a.7.7,0,0,1-.7-.7V118.11a.7.7,0,1,1,1.393,0V119.5A.7.7,0,0,1,404.688,120.2Zm0,0" transform="translate(-400.51 -117.414)" fill="#aab2bd"/>
    <path id="Path_5427" data-name="Path 5427" d="M404.688,152.2a.7.7,0,0,1-.7-.7V150.11a.7.7,0,0,1,1.393,0V151.5A.7.7,0,0,1,404.688,152.2Zm0,0" transform="translate(-400.51 -143.842)" fill="#aab2bd"/>
    <path id="Path_5428" data-name="Path 5428" d="M391.53,125.653a.7.7,0,0,1-.493-.2l-.985-.985a.7.7,0,1,1,.985-.985l.985.985a.7.7,0,0,1-.492,1.188Zm0,0" transform="translate(-388.828 -122.256)" fill="#aab2bd"/>
    <path id="Path_5429" data-name="Path 5429" d="M414.161,148.276a.7.7,0,0,1-.493-.2l-.985-.985a.7.7,0,1,1,.985-.985l.985.985a.7.7,0,0,1-.492,1.188Zm0,0" transform="translate(-407.52 -140.939)" fill="#aab2bd"/>
    <path id="Path_5430" data-name="Path 5430" d="M386.081,138.807h-1.393a.7.7,0,1,1,0-1.393h1.393a.7.7,0,0,1,0,1.393Zm0,0" transform="translate(-383.992 -133.932)" fill="#aab2bd"/>
    <path id="Path_5431" data-name="Path 5431" d="M418.081,138.807h-1.393a.7.7,0,0,1,0-1.393h1.393a.7.7,0,0,1,0,1.393Zm0,0" transform="translate(-410.42 -133.932)" fill="#aab2bd"/>
    <path id="Path_5432" data-name="Path 5432" d="M390.545,148.276a.7.7,0,0,1-.493-1.188l.985-.985a.7.7,0,0,1,.985.985l-.985.985A.7.7,0,0,1,390.545,148.276Zm0,0" transform="translate(-388.828 -140.939)" fill="#aab2bd"/>
    <path id="Path_5433" data-name="Path 5433" d="M413.176,125.653a.7.7,0,0,1-.493-1.188l.985-.985a.7.7,0,1,1,.985.985l-.985.985A.7.7,0,0,1,413.176,125.653Zm0,0" transform="translate(-407.519 -122.256)" fill="#aab2bd"/>
  </g>
  <path id="Path_5434" data-name="Path 5434" d="M88.5,112.309a6.274,6.274,0,0,1-12.481,0c-.014-.209-.028-.42-.028-.642a6.268,6.268,0,0,1,12.536,0C88.528,111.889,88.515,112.1,88.5,112.309Zm0,0" transform="translate(-62.761 -87.134)" fill="#ccd1d9"/>
  <path id="Path_5435" data-name="Path 5435" d="M78.957,115.343a6.965,6.965,0,1,1,6.964-6.965A6.973,6.973,0,0,1,78.957,115.343Zm0-12.536a5.572,5.572,0,1,0,5.572,5.572A5.578,5.578,0,0,0,78.957,102.807Zm0,0" transform="translate(-59.457 -83.843)" fill="#656d78"/>
  <path id="Path_5436" data-name="Path 5436" d="M108.9,138.807a.7.7,0,0,1-.7-.7.69.69,0,0,1,.688-.7h.016a.7.7,0,1,1,0,1.393Zm0,0" transform="translate(-89.357 -113.575)" fill="#aab2bd"/>
  <path id="Path_5437" data-name="Path 5437" d="M108.688,120.2a.7.7,0,0,1-.7-.7V118.11a.7.7,0,1,1,1.393,0V119.5A.7.7,0,0,1,108.688,120.2Zm0,0" transform="translate(-89.189 -97.057)" fill="#aab2bd"/>
  <path id="Path_5438" data-name="Path 5438" d="M108.688,152.2a.7.7,0,0,1-.7-.7V150.11a.7.7,0,0,1,1.393,0V151.5A.7.7,0,0,1,108.688,152.2Zm0,0" transform="translate(-89.189 -123.486)" fill="#aab2bd"/>
  <path id="Path_5439" data-name="Path 5439" d="M95.53,125.653a.7.7,0,0,1-.493-.2l-.985-.985a.7.7,0,1,1,.985-.985l.985.985a.7.7,0,0,1-.492,1.188Zm0,0" transform="translate(-77.508 -101.899)" fill="#aab2bd"/>
  <path id="Path_5440" data-name="Path 5440" d="M118.161,148.276a.7.7,0,0,1-.493-.2l-.985-.985a.7.7,0,1,1,.985-.985l.985.985a.7.7,0,0,1-.492,1.188Zm0,0" transform="translate(-96.199 -120.582)" fill="#aab2bd"/>
  <path id="Path_5441" data-name="Path 5441" d="M90.082,138.807H88.689a.7.7,0,1,1,0-1.393h1.393a.7.7,0,1,1,0,1.393Zm0,0" transform="translate(-72.672 -113.575)" fill="#aab2bd"/>
  <path id="Path_5442" data-name="Path 5442" d="M122.081,138.807h-1.393a.7.7,0,0,1,0-1.393h1.393a.7.7,0,1,1,0,1.393Zm0,0" transform="translate(-99.1 -113.575)" fill="#aab2bd"/>
  <path id="Path_5443" data-name="Path 5443" d="M94.545,148.276a.7.7,0,0,1-.493-1.188l.985-.985a.7.7,0,0,1,.985.985l-.985.985A.7.7,0,0,1,94.545,148.276Zm0,0" transform="translate(-77.508 -120.582)" fill="#aab2bd"/>
  <path id="Path_5444" data-name="Path 5444" d="M117.176,125.653a.7.7,0,0,1-.493-1.188l.985-.985a.7.7,0,1,1,.985.985l-.985.985A.7.7,0,0,1,117.176,125.653Zm0,0" transform="translate(-96.198 -101.899)" fill="#aab2bd"/>
  <path id="Path_5445" data-name="Path 5445" d="M163.474,78.807h-2.786a.7.7,0,0,1,0-1.393h2.786a.7.7,0,1,1,0,1.393Zm0,0" transform="translate(-132.135 -64.022)" fill="#37bc9b"/>
  <path id="Path_5446" data-name="Path 5446" d="M267.474,78.807h-2.786a.7.7,0,0,1,0-1.393h2.786a.7.7,0,1,1,0,1.393Zm0,0" transform="translate(-218.028 -64.022)" fill="#37bc9b"/>
  <path id="Path_5447" data-name="Path 5447" d="M469.31,81.461h-5.427l2.786,2.786h4.73Zm0,0" transform="translate(-383.115 -67.364)" fill="#e6e9ed"/>
  <path id="Path_5448" data-name="Path 5448" d="M463.824,81.4a2.785,2.785,0,0,0,2.786,2.786Zm0,0" transform="translate(-383.066 -67.312)" fill="#e6e9ed"/>
  <path id="Path_5449" data-name="Path 5449" d="M10.273,66.095l.974,3.82-.669.892H7.992V65.4H9.576Zm0,0" transform="translate(-6.601 -54.098)" fill="#ed5565"/>
  <path id="Path_5450" data-name="Path 5450" d="M14.483,66.095a.7.7,0,1,1-.7-.7A.7.7,0,0,1,14.483,66.095Zm0,0" transform="translate(-10.811 -54.098)" fill="#ed5565"/>
  <path id="Path_5451" data-name="Path 5451" d="M20.229,89.157a.7.7,0,1,1-.7-.7A.7.7,0,0,1,20.229,89.157Zm0,0" transform="translate(-15.556 -73.145)" fill="#ed5565"/>
</svg>
